<svg xmlns="http://www.w3.org/2000/svg" width="170" height="35" viewBox="0 0 170 35"><g fill="none" fill-rule="evenodd"><path fill="#009E2E" d="M62.425 23.227v-5.699h6.291v-5.697h-6.29V6.132h11.989v12.531l-4.564 4.564h-7.426zm-13.123-4.564l-4.59 4.564H25.323v-5.699l-5.673 5.647v-5.647h5.673V6.21l-5.673 5.672V3.786L23.054.41h7.993V11.83h12.53v5.697h-12.53v-5.697l5.698-5.699h12.557v12.531zm13.123-12.53v5.698h-6.292v5.697h6.292v5.699H50.436V.409h5.697V11.83l5.725-5.699h.567zM19.65 23.174l-.025.052H.21l19.44-19.44v8.095l-5.647 5.646h5.646v5.647z"/><path fill="#212125" d="M66.653 34.649v-1.213l1.522-5.645h1.599l-.749 2.784 3.378-2.784h2.012l-3.507 2.835 1.882 4.023h-2.011l-1.264-2.965-.98.799-.593 2.166h-1.289zm0-5.647l.31-1.211h-.31V29zm0-1.211V29l-1.52 5.648h-1.624l.799-2.94h-2.476l-.8 2.94H59.41l1.856-6.858h1.599l-.697 2.578h2.5l.698-2.578h1.288zm0 5.645l-.335 1.213h.335v-1.213zm-10.441-.077v-1.16h.902l-.18-2.604-.722 1.16v-2.398l.386-.566h1.624l.748 6.858h-1.727l-.077-1.29h-.954zm0-5.002v2.398l-.878 1.444h.878v1.16h-1.547l-.774 1.29h-1.16v-.826l3.481-5.466zm-3.481.774h.18l.362-1.34h-.542v1.34zm-3.275-1.34h3.275v1.34h-3.275v-1.34zm3.275 6.032v.826h-.541l.54-.826zm-3.275.826c1.547-.027 2.707-.697 3.069-2.063.593-2.192-1.445-2.243-2.012-2.243h-1.057v1.34h.387c.413 0 1.16.026.954.852-.18.618-.748.773-1.34.773v1.34zm0-6.858v1.34H49.2l-.336 1.212h.593v1.34h-.953l-.44 1.625h1.393v1.34h-3.352l1.831-6.857h1.521zM37.39 33.333v-1.675c.027-.103.052-.207.078-.31.902-3.429 3.455-3.557 4.074-3.557 2.294 0 2.475 1.443 2.269 2.397h-1.496c.155-1.083-.696-1.135-1.057-1.135-.335 0-1.547.078-2.14 2.244-.31 1.211 0 2.088 1.031 2.088 1.007 0 1.496-.722 1.703-1.212h1.52c-.386.98-1.314 2.476-3.609 2.476-1.11 0-2.063-.336-2.373-1.316zm0-3.377c.13-.516.104-.928 0-1.237v1.237zm0-1.237v1.237l-.025.051c-.516 2.011-2.14 2.243-3.017 2.27v-1.315c.697-.027 1.135-.31 1.315-.955.233-.927-.567-.876-.928-.876h-.387v-1.34h1.058c.953 0 1.753.257 1.984.928zm0 2.938c-.128.696-.103 1.238 0 1.676v-1.675zm-3.042-3.866v1.34h-.876l-.49 1.83H34.347v1.316H32.62L32 34.649h-1.623l1.83-6.858h2.14zm-7.22 5.568v-1.16h.878l-.18-2.604-.697 1.16v-2.398l.361-.566h1.624l.748 6.858h-1.728l-.076-1.29h-.93zm0-5.002v2.398l-.901 1.444h.902v1.16h-1.573l-.774 1.29H23.57v-.774l3.558-5.518zm-3.557.774h.155l.36-1.34h-.515v1.34zm-3.3-1.34h3.3v1.34h-3.3v-1.34zm3.3 6.084v.774h-.49l.49-.774zm-3.3.774c1.547-.027 2.707-.697 3.068-2.063.593-2.192-1.419-2.243-1.985-2.243H20.27v1.34h.412c.387 0 1.16.026.928.852-.154.618-.722.773-1.34.773v1.34zM4.62 27.79l-.387.566v2.398l.722-1.16.18 2.604h-.902v1.16h.928l.103 1.29h1.727l-.748-6.858H4.62zm15.65 0v1.34h-.258l-.335 1.212h.593v1.34h-.928l-.465 1.625h1.393v1.34h-3.352l1.83-6.857h1.522zm-10.03 2.784l.748-2.784H9.389l-1.83 6.858h1.598l.593-2.166.98-.8 1.264 2.966h2.01l-1.882-4.023 3.507-2.835h-2.011l-3.378 2.784zm-6.007-2.218L.211 34.65h1.701l.774-1.29h1.547v-1.16h-.877l.877-1.444v-2.398z"/></g></svg>