<svg width="150" height="35" viewBox="0 0 150 35" xmlns="http://www.w3.org/2000/svg"><title>Artboard 1 Copy 2</title><path d="M11.235 0c2.383 0 3.132 1.707 3.759 3.416.265.722 6.455 17.673 6.64 18.181.052.14.018.375-.2.458-.22.083-3.437 1.334-3.614 1.401a.349.349 0 0 1-.444-.209c-.066-.175-1.399-3.87-1.55-4.284h-9.17l-1.56 4.284c-.062.17-.255.284-.443.21-.189-.076-3.42-1.328-3.61-1.402a.359.359 0 0 1-.205-.458c.228-.636 6.323-17.314 6.636-18.181C8.076 1.734 8.854 0 11.235 0zM.348 30.329a.352.352 0 0 0-.348.356v3.96c0 .197.155.355.348.355h21.775a.35.35 0 0 0 .345-.356v-3.96a.35.35 0 0 0-.345-.355H.348zM11.217 5.535l-3.102 9.312h6.252l-3.111-9.312h-.04zM92.234 19.2c0 1.054-.583 1.747-1.657 1.747-.425 0-.773.002-1.328-.15v-3.189c.245-.04.751-.119 1.328-.098 1.092.042 1.657.552 1.657 1.69zm2.205-.157c0-1.953-1.145-3.3-3.55-3.3-.59 0-1.002.057-1.64.207l-.004-2.812a14.202 14.202 0 0 1 1.822-.106c.708 0 1.604.039 2.39.135l.054-1.63c-.893-.2-2.189-.323-3.194-.323-.991 0-2.532.248-3.265.447l-.001 10.395c1.144.418 2.26.61 3.405.61 2.622 0 3.983-1.39 3.983-3.623zm-25.013-.566c0 1.45-.577 2.385-1.528 2.385-.4 0-.61-.02-1.062-.168V16.34c.495-.236.762-.234 1.162-.234.952 0 1.428.787 1.428 2.37zm-7.245.049c0-1.583.477-2.42 1.428-2.42.401 0 .668-.002 1.163.234v4.354c-.45.148-.662.168-1.063.168-1.083 0-1.528-.885-1.528-2.336zm4.655 6.524v-2.834c.263.156.786.385 1.669.385 1.755 0 3.049-1.459 3.049-4.124 0-2.872-1.285-4.1-3.397-4.1-.537 0-.886.054-1.32.261v-3.385h-2.065v3.385c-.434-.207-.786-.262-1.321-.262-2.112 0-3.398 1.28-3.398 4.15 0 2.666 1.162 4.075 3.046 4.075.887 0 1.41-.23 1.673-.385v2.834h2.064zm-15.683-2.583v-7.6c-1.138-.338-2.013-.485-3.155-.485-1.14 0-1.995.147-3.133.486v3.89c0 1.058-.018 1.376-.134 1.718-.114.3-.268.66-.685.937l.564 1.214c1.665-.47 2.291-1.195 2.291-3.496V16.27c.55-.08.659-.1 1.097-.1.44 0 .533.02 1.081.1v6.198h2.074zm25.53-1.666a3.083 3.083 0 0 1-1.116.194c-.741 0-1.163-.293-1.163-1.054 0-.79.532-1.059 1.56-1.059.246 0 .495.038.612.078v.568c0 .612.03 1.012.106 1.273zm2.633.909c-.547-.832-.69-1.323-.69-2.37v-2.124c0-1.147-.132-1.568-.437-1.989-.419-.59-1.12-.845-2.414-.845-.912 0-1.81.099-2.667.317l.308 1.521c.583-.081 1.19-.151 1.629-.151 1.372 0 1.53.2 1.53 1.228v.385a3.976 3.976 0 0 0-1.047-.141c-2.074 0-3.165 1.01-3.165 2.679 0 1.568 1.165 2.424 2.595 2.424.53 0 1.084-.099 1.522-.275.263-.117.378-.183.721-.408.207.303.62.61.788.666l1.327-.917zm20.231-.91a3.078 3.078 0 0 1-1.116.195c-.742 0-1.16-.293-1.16-1.054 0-.79.532-1.059 1.559-1.059.25 0 .496.038.609.078v.568c0 .612.033 1.012.108 1.273zm2.635.91c-.549-.832-.69-1.323-.69-2.37v-2.124c0-1.147-.132-1.568-.436-1.989-.421-.59-1.122-.845-2.416-.845-.914 0-1.809.099-2.665.317l.306 1.521c.581-.081 1.192-.151 1.63-.151 1.37 0 1.528.2 1.528 1.228v.385a3.954 3.954 0 0 0-1.046-.141c-2.072 0-3.163 1.01-3.163 2.679 0 1.568 1.166 2.424 2.593 2.424a4.21 4.21 0 0 0 1.521-.275c.265-.117.38-.183.721-.408.208.303.622.61.79.666l1.327-.917zm-45.137-1.973c0 .778-.275 1.31-1.27 1.31-.335 0-.473 0-.908-.121v-2.274c.54-.105.588-.123.908-.123.951 0 1.27.463 1.27 1.208zm-4.249-5.228l-.008 7.543a7.938 7.938 0 0 0 3.02.601c2.202 0 3.38-1.137 3.38-3.012 0-1.697-1.043-2.747-2.991-2.747-.495 0-.786.066-1.33.196V14.51h-2.071zm56.962 7.958V14.58h-2.074v2.982h-2.347V14.58h-2.07l.001 7.887h2.07v-3.22h2.346v3.22h2.074zm8.507 0s-1.13-2.414-1.408-2.96c-.312-.619-.6-1.046-1.238-1.198v-.036c.428-.081.768-.34 1.135-1.129.355-.77.46-.936.667-1.118.204-.185.481-.114.481-.114l.106-1.436a5.272 5.272 0 0 0-.965-.021c-.56.034-.853.193-1.127.474-.214.213-.363.531-.545.904-.194.399-.347.721-.543 1.127-.2.415-.296.6-.833.6h-.348v-2.98h-2.082v7.887h2.082v-3.223l.283-.005c.592 0 .693.148 1.007.772.37.746 1.069 2.456 1.069 2.456h2.259zm-77.253 0H43.4l-3.606-11.024a4.328 4.328 0 0 0-1.354-.208c-.547 0-.742.072-1.171.208l-3.824 11.024h2.287s.307-.966.681-2.165h3.955l.644 2.165zm-4.017-4.012s.66-2.21.76-2.556c.267-.898.666-2.314.666-2.314h.066s.367 1.467.607 2.302c.094.324.724 2.568.724 2.568h-2.823zm45.843-1.258c-.73 0-1.323.595-1.323 1.323a1.322 1.322 0 1 0 2.644 0c0-.728-.592-1.323-1.321-1.323z" fill="#FFF" fill-rule="evenodd"/></svg>