<svg width="150" height="14" viewBox="0 0 150 14" xmlns="http://www.w3.org/2000/svg" xmlns:xlink="http://www.w3.org/1999/xlink"><title>avangard</title><defs><path id="a" d="M0 .145h149.992V14H0V.145z"/></defs><g fill="none" fill-rule="evenodd"><path d="M0 12.511V.17L8.892.152V1.66l-4.917-.023V5.33h2c.964 0 3.798-.048 3.798 1.672v3.817C9.79 12.24 7.483 12.472 6 12.492l-6 .02zm3.975-5.718v4.235h1.481c.205.021.36-.107.36-.4V7.211c0-.27-.09-.418-.36-.418H3.975zM11.415 12.511L14.293.151h5.905l2.878 12.36h-3.863l-.606-3.106h-2.74l-.586 3.106h-3.866zm5.733-10.59L16.07 7.656h2.334L17.35 1.92h-.202zM25.067.152h3.908v4.97L30.75 5.1V.152h3.889v12.36h-3.889V6.855h-1.774v5.636l-3.908.02V.151M37.61.152h3.816V5.16L43.94.152h3.75l-2.895 5.8 3.324 6.56h-3.664l-3.03-5.615v5.614h-3.817V.151M56.687 12.511l2.87-12.36h5.909l2.874 12.36h-3.863l-.582-3.131h-2.764l-.582 3.131h-3.862zM62.41 1.896l-1.08 5.74h2.361l-1.077-5.74h-.204zM81.076 12.511L83.95.151h5.907l2.877 12.36h-3.86l-.612-3.123h-2.736l-.585 3.123h-3.865zm5.726-10.58l-1.077 5.711h2.337L87.008 1.93h-.206zM114.589 12.511l2.87-12.36h5.91l2.9 12.36h-3.89l-.604-3.116h-2.743l-.605 3.116h-3.838zm5.7-10.58l-1.055 5.721 2.338-.018-1.08-5.704h-.202zM98.735.152v4.974h1.779V.17l3.907-.018v12.34l-3.907.02V6.867h-1.779v5.643h-3.908V.17l3.908-.018M74.077 1.638v3.543l1.33.021c.33 0 .447-.125.447-.294V1.972c0-.186-.09-.334-.428-.334h-1.349zm-3.79 10.854v.02V.151h5.635c3.775 0 3.66 1.234 3.66 1.802v2.553c0 .379-.094 1.51-2.145 1.446v.124c1.664-.018 2.214.505 2.214 1.283v3.4c0 .582-.229 1.712-3.754 1.732h-5.61zm3.79-5.614v4.15h1.35c.266 0 .427-.15.427-.358V7.34c0-.275-.116-.462-.447-.462h-1.33zM107.705.152h7.734v1.486h-3.938v10.873h-3.796V.151" fill="#003A23"/><g><mask id="b" fill="#fff"><use xlink:href="#a"/></mask><path d="M127.938 12.492V.152h5.927c1.26 0 3.463 0 3.463 1.778v4.258c0 1.82-2.065 1.884-3.463 1.907h-2.108v4.416l-3.82-.019zm3.82-10.856v5.03h1.637c.653.042.653-.228.694-.523l-.02-4.042c.02-.461-.463-.472-.66-.465h-1.652zM137.695 14v-2.883l.269-.022c1.635 0 1.84-.835 1.84-1.272V.152l9.25-.007v10.93H150V14h-3.772v-1.505h-4.763V14h-3.77zm8.115-12.356h-2.235v8.099c0 .622-.134 1.143-.808 1.352v-.02l3.033-.012.01-9.42z" fill="#003A23" mask="url(#b)"/></g></g></svg>