<svg width="150" height="27" viewBox="0 0 150 27" xmlns="http://www.w3.org/2000/svg"><title>binbank</title><g fill="#FFF" fill-rule="evenodd"><path d="M45.768 20.357h-.686v-6.454h.686c2.879 0 4.357.836 4.357 3.235 0 2.832-2.163 3.219-4.357 3.219zm-.686-8.59v-4.77h6.64V4.86H40.626L41.744 6.8v15.675h4.916c2.674 0 6.801-1.037 6.801-5.315 0-5.548-4.862-5.393-8.38-5.393zM94.512 20.357h-.686v-6.454h.686c2.879 0 4.356.836 4.356 3.235 0 2.832-2.163 3.219-4.356 3.219zm-.686-8.59v-4.77h6.639V4.86H89.37L90.487 6.8v15.675h4.916c2.674 0 6.801-1.037 6.801-5.315 0-5.548-4.862-5.393-8.378-5.393zM28.69 26.848l7.665-13.309L28.69.23h-2.794l7.665 13.31-7.665 13.309h2.794M83.381 4.86v6.893h-6.329V4.861h-4.458L73.717 6.8v15.675h3.335v-8.528h6.329v8.528h3.336V4.86H83.38M129.987 4.86v6.893h-6.328V4.861H119.2l1.122 1.939v15.675h3.336v-8.528h6.328v8.528h3.337V4.86h-3.337M143.195 12.994l6.471-8.133h-3.516l-5.701 7.074V4.861h-4.455l1.12 1.939v15.675h3.335v-8.71l5.806 8.71h3.516l-6.576-9.48M65.704 4.86l-6.852 13.074V4.86h-4.217L55.757 6.8v15.675h3.684l7.184-13.709v13.709h3.286V4.86h-4.207"/><path d="M30.722 13.54L23.055.229S7.705.223 7.704.229c5.639 1.129 9.886 6.131 9.886 12.116 0 .416-.021.827-.062 1.232 3.533 2.18 5.883 6.035 5.883 10.432 0 .962-.1 1.94-.312 2.839l7.623-13.308"/><path d="M23.099 26.848C22.087 19.336 15.654 13.54 7.895 13.54c2.925 0 4.812-2.08 4.814-4.858 0-1.56-1.626-6.121-5.005-8.453l-7.65 13.31L7.72 26.85l15.378-.002M108.106 15.97l2.417-8.147h.051l2.418 8.148h-4.886zm6.815 6.504h3.329L112.7 4.862h-5.996l1.082 1.935-4.939 15.679 3.329-.001 1.31-4.415h6.124l1.31 4.415z"/></g></svg>