<svg width="151" height="19" viewBox="0 0 151 19" xmlns="http://www.w3.org/2000/svg"><title>expobank</title><g fill="none" fill-rule="evenodd"><path d="M9.92 7.129a5.15 5.15 0 1 1 10.302.001A5.15 5.15 0 1 1 9.921 7.13M29.243 18.08H.9v-3.864h28.343v3.865zM2.832 1.976c-.683 0-1.334.134-1.931.376v9.557a5.154 5.154 0 1 0 1.931-9.933M27.31 1.976a5.13 5.13 0 0 1 1.933.376v9.557a5.155 5.155 0 0 1-7.088-4.779 5.155 5.155 0 0 1 5.155-5.154" fill="#F39F52"/><path d="M139.604 18.08V6.491h3.245v4.892h.44l3.362-4.892h3.545l-4.1 5.168 4.471 6.421h-3.916l-3.43-5.077h-.372v5.077h-3.245zm-86.871 0V6.491h3.244v4.892h.439l3.363-4.892h3.546l-4.105 5.168 4.476 6.421h-3.917l-3.432-5.077h-.37v5.077h-3.244zm81.424 0v-4.843h-4.265v4.843h-3.241V6.491h3.241v4.312h4.265V6.491h3.269v11.59h-3.269zm-15.993-4.935c-1.064.068-1.646.58-1.646 1.574 0 .973.582 1.392 1.623 1.392.765 0 1.715-.489 2.362-.997v-2.156l-2.339.187zm5.54 2.688h1.505l.162 1.947c-.879.322-1.851.555-2.824.555-.998 0-1.693-.346-1.832-1.413h-.046c-1.23 1.045-2.552 1.413-4.058 1.413-2.132 0-3.478-1.275-3.478-3.363 0-2.386 1.812-3.66 4.22-3.845.441-.023 2.711-.068 3.15-.068v-.234c0-1.528-.506-2.107-2.153-2.107-1.25 0-2.387.324-3.477.719l-.719-2.274c1.348-.533 3.338-.88 5.008-.88 2.827 0 4.542 1.09 4.542 4.1v5.45zm-17.312-6.884c-1.741 0-2.526 1.9-2.526 3.66 0 1.787.532 3.297 2.432 3.297 1.81 0 2.34-1.534 2.34-3.41 0-1.761-.393-3.547-2.246-3.547zm-.374-7.14c2.994-.743 4.336-.88 4.336-.88l.487 2.48s-1.554.323-3.987.812c-1.044.161-2.015.58-2.665 1.135-.926.786-1.161 1.644-1.205 3.105.044 0 .07.025.092.068.742-1.248 2.664-2.038 4.012-2.038 3.428 0 4.937 2.387 4.937 5.955 0 3.525-2.043 5.89-5.843 5.89-3.64 0-5.515-2.573-5.679-6.444-.185-4.22.255-6.05 1.346-7.696.715-.88 2.25-1.97 4.17-2.387zM95.66 12.31c0-1.67-.488-3.592-2.437-3.592-1.806 0-2.43 1.76-2.43 3.592 0 2.015.462 3.596 2.43 3.596 1.902 0 2.437-1.604 2.437-3.596zm3.384-.024c0 3.755-1.97 6.05-5.958 6.05-3.823 0-5.678-2.179-5.678-6.026 0-3.524 1.946-6.027 5.815-6.027 3.92 0 5.82 2.293 5.82 6.003zM75.123 6.49v11.59h3.244V8.924h4.24v9.155h3.248V6.491H75.123zm-8.043 5.795c0 2.132.648 3.477 2.688 3.477 1.229 0 1.97-.256 3.177-.604l.67 2.32c-1.274.601-2.943.856-4.45.856-3.847 0-5.47-2.063-5.47-5.889 0-3.637 1.693-6.163 5.61-6.163 1.23 0 2.387.046 3.687.438l-.582 2.367c-.833-.279-1.785-.302-2.573-.302-1.9 0-2.757 1.484-2.757 3.5zm-23.69 6.05c-1.32 0-3.011-.256-4.334-.604l.444-2.502c1.04.208 2.27.44 3.22.44 3.174 0 4.497-1.575 4.68-4.821l-5.539.022V8.323l5.517.022c-.21-2.55-1.622-4.078-4.403-4.078-.93 0-2.156.115-3.178.392l-.509-2.433a13.96 13.96 0 0 1 3.963-.578c5.307 0 7.766 2.641 7.766 7.902 0 5.008-2.132 8.785-7.627 8.785z" fill="#FFF"/></g></svg>