<svg width="59" height="35" viewBox="0 0 59 35" xmlns="http://www.w3.org/2000/svg"><title>hcb</title><g fill="none" fill-rule="evenodd"><path d="M.212.109h58.535v34.724H.212V.11z" fill="#FFF"/><path d="M21.842 19.828c0-.331-.035-.662-.253-.96-.328-.432-.791-.425-1.161-.425h-.485v2.804h.369c.642-.014 1.53-.047 1.53-1.42zM7.524 24.654c0-.46-.403-.48-.636-.48h-.99v.993h.908c.274-.006.718-.02.718-.513zM1.338 33.72H57.62V1.223H1.338V33.72zm24.125-15.343v-.947h3.714v.947h-1.25v3.831h-1.21v-3.831h-1.254zM21.7 11.582h3.564v.926h-2.362v.865h2.204v.906h-2.204v1.134h2.575v.94h-3.777v-4.77zm-2.314 11.7h1.148v1.948l1.802-1.948h1.448l-1.707 1.771 1.843 3.002h-1.357l-1.292-2.163-.737.763v1.4h-1.148v-4.773zm-.658-1.075v-4.77h1.535c.588.005 1.476.02 2.09.56.497.446.69 1.114.69 1.784 0 .412-.062.716-.124.918-.444 1.474-1.788 1.501-2.294 1.508H18.73zm5.005-4.77h1.203v4.77h-1.203v-4.77zm-8.5-5.855h1.762l.736 2.676.172.764c.067-.331.074-.365.13-.588l.77-2.852h1.756v4.771h-1.154l.075-3.4.013-.479-.04.169c-.063.27-.069.304-.125.507l-.907 3.203h-1.038l-.875-3.067-.21-.852c.02.377.02.458.042.912l.06 3.007h-1.167v-4.77zm.037 16.473h-1.154v-4.773h1.18l1.045 1.758c.383.669.499.884.725 1.304l-.055-3.062h1.154v4.773h-1.181l-.902-1.508c-.437-.71-.518-.858-.847-1.494l.035 3.002zm2.351-8.828v.905h-2.206v1.136h2.575v.94h-3.776v-4.772h3.564v.925h-2.363v.866h2.206zm-5.543-7.794c.287 0 .587.04.88.143 1.477.507 1.572 2.095 1.572 2.419 0 .824-.383 1.567-.916 1.993-.47.386-1.016.5-1.516.5-1.53 0-2.396-1.163-2.396-2.541 0-1.29.826-2.514 2.376-2.514zm-2.815 6.003h2.173c.505.006 1.133.013 1.575.486.227.25.384.629.384 1.062 0 .96-.663 1.196-.99 1.317l1.112 1.906h-1.33l-.956-1.703h-.76v1.703H9.264v-4.77zm1.505 5.846h1.255l1.777 4.773h-1.285l-.239-.765h-1.775l-.239.765H8.979l1.79-4.773zm-6.019-11.7h1.215v1.724h1.763v-1.724h1.208v4.771H7.728v-2.035H5.965v2.035H4.75v-4.77zm3.873 14.424c.17.183.266.447.266.716 0 .372-.198.893-.799 1.157-.362.155-.751.176-1.304.176H4.75v-4.773h1.865c.506 0 .963.02 1.256.115.594.19.834.656.834 1.109 0 .257-.068.411-.09.459-.217.488-.682.58-.941.635.293.047.683.109.949.406zm-1.896-8.72c.554 0 1.045.19 1.407.474.334.264.49.527.627.764l-.956.473a1.205 1.205 0 0 0-.36-.494 1.053 1.053 0 0 0-.664-.236c-.778 0-1.188.717-1.188 1.514 0 1.047.54 1.567 1.188 1.567.63 0 .881-.433 1.045-.71l.95.48c-.178.277-.35.548-.731.812a2.366 2.366 0 0 1-1.345.418c-1.277 0-2.309-.918-2.309-2.534 0-1.412.97-2.527 2.336-2.527zm47.495 13.562H53.16V7.708l-6.17-2.266v25.394l-42.242.012v-1.081h30.908V6.912l11.335-2.75 7.23 2.785v23.901zm-47.28-4.815H5.9v1.157h.839c.403-.008.928-.021.928-.569 0-.575-.477-.58-.723-.588zm4.434-1.616c-.062.244-.13.495-.198.737-.103.36-.288.92-.397 1.278h1.223l-.628-2.015zm.818-5.454c0-.608-.445-.629-.698-.635h-1.024v1.29h.998c.17-.006.724-.02.724-.655zm-.095-3.482c.574 0 1.189-.406 1.223-1.405.02-.5-.116-1.007-.39-1.297a1.176 1.176 0 0 0-.846-.353c-.73 0-1.196.635-1.196 1.501 0 1.136.643 1.554 1.21 1.554z" fill="#D12138"/></g></svg>