<svg xmlns="http://www.w3.org/2000/svg" width="33" height="26" viewBox="0 0 33 26">
  <g fill="none" transform="translate(0 1)">
    <path fill="#000000" d="M9.98179487,24.7912088 L9.98179487,23.1428571 C10.0017532,22.8631446 9.89714972,22.5885963 9.69468166,22.3892836 C9.49221359,22.1899709 9.21146968,22.0851772 8.92410256,22.1016484 C8.54441476,22.0774032 8.18127243,22.2563637 7.97641026,22.5686813 C7.78963474,22.2656756 7.44764261,22.0864713 7.08512821,22.1016484 C6.76948952,22.0861063 6.46900454,22.234537 6.29538462,22.4917582 L6.29538462,22.1675824 L5.70871795,22.1675824 L5.70871795,24.7912088 L6.30102564,24.7912088 L6.30102564,23.3379121 C6.27444991,23.1558616 6.33323253,22.9718114 6.46114542,22.8365722 C6.58905831,22.701333 6.77257261,22.6292084 6.96102564,22.6401099 C7.35025641,22.6401099 7.54769231,22.8873626 7.54769231,23.3324176 L7.54769231,24.7912088 L8.14,24.7912088 L8.14,23.3379121 C8.11553757,23.1562755 8.17505086,22.9734268 8.30248454,22.8386942 C8.42991823,22.7039616 8.61214344,22.631226 8.8,22.6401099 C9.20051282,22.6401099 9.39230769,22.8873626 9.39230769,23.3324176 L9.39230769,24.7912088 L9.98179487,24.7912088 Z M13.2817949,23.4807692 L13.2817949,22.1703297 L12.6894872,22.1703297 L12.6894872,22.489011 C12.4876696,22.2353353 12.1725756,22.0921108 11.8433333,22.1043956 C11.0644702,22.1043956 10.4330769,22.7193891 10.4330769,23.478022 C10.4330769,24.2366549 11.0644702,24.8516484 11.8433333,24.8516484 C12.1725756,24.8639332 12.4876696,24.7207087 12.6894872,24.467033 L12.6894872,24.7857143 L13.2761538,24.7857143 L13.2817949,23.4807692 Z M11.1015385,23.4807692 C11.1276268,23.0496342 11.50274,22.7178869 11.9458281,22.7340859 C12.3889162,22.7502848 12.7374422,23.1084877 12.7302763,23.5403145 C12.7231104,23.9721413 12.3628813,24.319186 11.9194872,24.3214286 C11.6924796,24.3266143 11.4737411,24.2383683 11.3169803,24.0783586 C11.1602196,23.9183488 11.079956,23.7013955 11.0958974,23.4807692 L11.1015385,23.4807692 Z M25.8161538,22.1071429 C26.0092955,22.1066567 26.2007568,22.1420895 26.3802564,22.2115385 C26.5515916,22.2783704 26.7077923,22.3773104 26.84,22.5027473 C26.9704988,22.6270516 27.0740794,22.7755845 27.1446154,22.9395604 C27.2919753,23.2918002 27.2919753,23.6862217 27.1446154,24.0384615 C27.0741471,24.2024732 26.9705578,24.3510184 26.84,24.4752747 C26.7077923,24.6007116 26.5515916,24.6996515 26.3802564,24.7664835 C26.0083321,24.9072496 25.5957704,24.9072496 25.2238462,24.7664835 C25.0533102,24.6997179 24.898021,24.6007481 24.7669231,24.4752747 C24.6376713,24.3505315 24.5350952,24.2020645 24.4651282,24.0384615 C24.3180678,23.6861646 24.3180678,23.2918574 24.4651282,22.9395604 C24.5350952,22.7759575 24.6376713,22.6274905 24.7669231,22.5027473 C24.898021,22.3772739 25.0533102,22.2783041 25.2238462,22.2115385 C25.4097961,22.1364637 25.6092229,22.0981746 25.8105128,22.0989011 L25.8161538,22.1071429 Z M25.8161538,22.6565934 C25.7012835,22.6550673 25.5872303,22.6756051 25.4805128,22.717033 C25.3799946,22.7562885 25.2888023,22.8151926 25.2125641,22.8901099 C25.1347891,22.9689775 25.0743284,23.062454 25.0348718,23.1648352 C24.9487068,23.3841876 24.9487068,23.6268014 25.0348718,23.8461538 C25.0742571,23.9485694 25.1347264,24.0420593 25.2125641,24.1208791 C25.2887511,24.195857 25.3799571,24.25477 25.4805128,24.293956 C25.6953902,24.3759105 25.9340969,24.3759105 26.1489744,24.293956 C26.2543381,24.2560213 26.3504062,24.1970704 26.4310256,24.1208791 C26.50899,24.042156 26.5694768,23.948639 26.6087179,23.8461538 C26.6948829,23.6268014 26.6948829,23.3841876 26.6087179,23.1648352 C26.5694768,23.06235 26.50899,22.9688331 26.4310256,22.8901099 C26.3504062,22.8139186 26.2543381,22.7549677 26.1489744,22.717033 C26.0425752,22.6695899 25.9274813,22.6434322 25.8105128,22.6401099 L25.8161538,22.6565934 Z M16.4689744,23.4807692 C16.4689744,22.6565934 15.944359,22.1071429 15.1912821,22.1071429 C14.412419,22.1177638 13.7898652,22.7413671 13.8007693,23.5 C13.8116734,24.2586329 14.4519062,24.8650164 15.2307692,24.8543956 C15.6323156,24.8677588 16.0248685,24.7367209 16.3335897,24.4862637 L16.0515385,24.0631868 C15.8288201,24.2371645 15.5529005,24.3338381 15.2674359,24.3379121 C14.8642059,24.3716896 14.5066252,24.0867227 14.4607692,23.6950549 L16.4605128,23.6950549 C16.4689744,23.6263736 16.4689744,23.5576923 16.4689744,23.4807692 Z M14.4635897,23.25 C14.4862289,22.8875686 14.7988458,22.6073343 15.1715385,22.6153846 C15.3488367,22.6117029 15.520371,22.6767939 15.6483853,22.7963307 C15.7763997,22.9158676 15.8504015,23.0800525 15.8541026,23.2527473 L14.4635897,23.25 Z M18.9369231,22.8379121 C18.6793451,22.6934493 18.3879774,22.6158774 18.0907692,22.6126374 C17.7692308,22.6126374 17.5774359,22.728022 17.5774359,22.9203297 C17.5774359,23.1126374 17.7805128,23.1456044 18.034359,23.1785714 L18.3164103,23.217033 C18.9030769,23.2994505 19.2584615,23.5412088 19.2584615,24.0027473 C19.2584615,24.4642857 18.8071795,24.8598901 18.0315385,24.8598901 C17.6158284,24.870661 17.2075345,24.7512581 16.8666667,24.5192308 L17.1487179,24.0741758 C17.4075573,24.2612169 17.7234827,24.3579841 18.045641,24.3489011 C18.4461538,24.3489011 18.6605128,24.2335165 18.6605128,24.0302198 C18.6605128,23.8818681 18.5082051,23.7994505 18.1866667,23.7554945 L17.9046154,23.717033 C17.3010256,23.6346154 16.9738462,23.3708791 16.9738462,22.9423077 C16.9738462,22.4203297 17.4138462,22.1016484 18.1020513,22.1016484 C18.4872321,22.0890782 18.8680272,22.1844264 19.1992308,22.3763736 L18.9369231,22.8379121 Z M21.7574359,22.6895604 L20.8012821,22.6895604 L20.8012821,23.8736264 C20.8012821,24.1483516 20.8971795,24.3131868 21.1905128,24.3131868 C21.373601,24.307281 21.5521599,24.2562389 21.7094872,24.1648352 L21.8787179,24.6538462 C21.6588047,24.7875214 21.4046063,24.857991 21.1453846,24.8571429 C20.4515385,24.8571429 20.2089744,24.4945055 20.2089744,23.8846154 L20.2089744,22.6895604 L19.6617949,22.6895604 L19.6617949,22.1675824 L20.2089744,22.1675824 L20.2089744,21.3708791 L20.8012821,21.3708791 L20.8012821,22.1675824 L21.7574359,22.1675824 L21.7574359,22.6895604 Z M23.7853846,22.1016484 C23.9276858,22.1021839 24.0688524,22.1263393 24.2028205,22.1730769 L24.0223077,22.7225275 C23.9057325,22.6772561 23.7811274,22.6548496 23.655641,22.6565934 C23.2720513,22.6565934 23.0915385,22.8983516 23.0915385,23.3324176 L23.0915385,24.8021978 L22.5048718,24.8021978 L22.5048718,22.1785714 L23.0858974,22.1785714 L23.0858974,22.4972527 C23.2325593,22.251869 23.5052844,22.1042905 23.7966667,22.1126374 L23.7853846,22.1016484 Z M27.8412821,24.4093407 C27.8779524,24.4089031 27.9143583,24.4154352 27.9484615,24.4285714 C27.9808531,24.4414462 28.0105028,24.4600782 28.0358974,24.4835165 C28.0606811,24.5072037 28.0807613,24.5351446 28.0951282,24.5659341 C28.1239993,24.6307822 28.1239993,24.7043826 28.0951282,24.7692308 C28.0807613,24.8000202 28.0606811,24.8279612 28.0358974,24.8516484 C28.0105028,24.8750867 27.9808531,24.8937187 27.9484615,24.9065934 C27.914695,24.9211058 27.8781897,24.9285916 27.8412821,24.9285714 C27.7321422,24.9277702 27.6332728,24.8657093 27.5874359,24.7692308 C27.5588991,24.7043154 27.5588991,24.6308494 27.5874359,24.5659341 C27.6018028,24.5351446 27.621883,24.5072037 27.6466667,24.4835165 C27.6720613,24.4600782 27.701711,24.4414462 27.7341026,24.4285714 C27.7637863,24.4170734 27.7952596,24.4105707 27.8271795,24.4093407 L27.8412821,24.4093407 Z M27.8412821,24.8736264 C27.8694334,24.8737929 27.8973046,24.8681763 27.9230769,24.8571429 C27.9473436,24.84659 27.9693515,24.8316778 27.9879487,24.8131868 C28.0365156,24.7655436 28.0578008,24.697617 28.0448254,24.631678 C28.0318501,24.5657391 27.9862878,24.5102921 27.9230769,24.4835165 C27.8972791,24.4725608 27.8694251,24.4669476 27.8412821,24.467033 C27.8131633,24.4671777 27.7853564,24.4727814 27.7594872,24.4835165 C27.7341462,24.4936374 27.7111329,24.5085811 27.6917949,24.5274725 C27.6186598,24.6051943 27.6186598,24.7244761 27.6917949,24.8021978 C27.7312493,24.8411089 27.7851351,24.8628956 27.8412821,24.8626374 L27.8412821,24.8736264 Z M27.8582051,24.5467033 C27.884535,24.5454596 27.9104808,24.5532355 27.9315385,24.5686813 C27.9490545,24.5828011 27.9585058,24.6042813 27.9569231,24.6263736 C27.9577419,24.6448229 27.9505799,24.662761 27.9371795,24.6758242 C27.9208313,24.6902873 27.899976,24.6989932 27.8779487,24.7005495 L27.9597436,24.7912088 L27.8948718,24.7912088 L27.8187179,24.7005495 L27.7933333,24.7005495 L27.7933333,24.7912088 L27.7397436,24.7912088 L27.7397436,24.5384615 L27.8582051,24.5467033 Z M27.7961538,24.5934066 L27.7961538,24.6593407 L27.8582051,24.6593407 C27.869247,24.6625472 27.8810094,24.6625472 27.8920513,24.6593407 C27.8960741,24.6515646 27.8960741,24.6423914 27.8920513,24.6346154 C27.8960741,24.6268394 27.8960741,24.6176661 27.8920513,24.6098901 C27.8810094,24.6066836 27.869247,24.6066836 27.8582051,24.6098901 L27.7961538,24.5934066 Z"/>
    <rect width="8.885" height="15.552" x="12.027" y="2.151" fill="#7673C0"/>
    <path fill="#EB001B" d="M12.5907692,9.92857143 C12.5874474,6.8932671 14.0176226,4.02514952 16.4689744,2.1510989 C12.3058383,-1.03570006 6.32740796,-0.571515233 2.73516351,3.21743676 C-0.857080944,7.00638875 -0.857080944,12.8480069 2.73516351,16.6369588 C6.32740796,20.4259108 12.3058383,20.8900957 16.4689744,17.7032967 C14.0184025,15.829841 12.5883146,12.9629117 12.5907692,9.92857143 Z"/>
    <path fill="#00A1DF" d="M32.895641,9.92857143 C32.894702,13.7141945 30.6752944,17.1671747 27.1795733,18.8216961 C23.6838521,20.4762175 19.5251917,20.0419707 16.4689744,17.7032967 C18.918477,15.8282505 20.3486725,12.9617023 20.3486725,9.9271978 C20.3486725,6.89269327 18.918477,4.0261451 16.4689744,2.1510989 C19.5251663,-0.18925682 23.6849997,-0.624488303 27.1817771,1.03024893 C30.6785546,2.68498617 32.8983709,6.13918121 32.8984615,9.92582418 L32.895641,9.92857143 Z"/>
  </g>
</svg>
