<svg width="150" height="35" viewBox="0 0 150 35" xmlns="http://www.w3.org/2000/svg" xmlns:xlink="http://www.w3.org/1999/xlink"><title>mosÑredbank</title><defs><path id="a" d="M.094 9.745L9.635.201h13.716l-7.249 5.274-4.112.002-4.285 4.268H.095"/><path id="c" d="M23.608.074l-9.646 9.645-4.824-4.824 4.83-4.83h-9.57L4.304.06.2 4.719l13.877 12.74L25.842 5.63h7.41L40.687.074H23.608"/><path id="e" d="M.094 9.745l.225-.222 7.28-.005 4.312-4.264h4.024L23.351.2l-7.249 5.274-4.112.002-4.285 4.268H.095"/><path id="g" d="M33.205 5.392l-7.47.012L14.063 17.05.406 4.705 4.398.065 4.304.06.2 4.719l13.877 12.74L25.842 5.63h7.41L40.687.074l-7.48 5.318"/></defs><g fill="none" fill-rule="evenodd"><path d="M24.414 8.493L14.77 18.14l-4.824-4.825 4.83-4.83H5.204l-.093-.004-4.738 4.834 14.492 14.492 12.38-12.477h7.412l6.836-6.836H24.414" fill="#FFF"/><path d="M16.857 27.6l1.383-1.37 9.54-9.545h13.716l-6.837 6.829H30.63L26.554 27.6h-9.697" fill="#FFF"/><g transform="translate(18.145 16.484)"><mask id="b" fill="#fff"><use xlink:href="#a"/></mask><path d="M.094 9.745L9.635.201h13.716l-7.249 5.274-4.112.002-4.285 4.268H.095" mask="url(#b)"/></g><g transform="translate(.806 8.42)"><mask id="d" fill="#fff"><use xlink:href="#c"/></mask><path d="M23.608.074l-9.646 9.645-4.824-4.824 4.83-4.83h-9.57L4.304.06.2 4.719l13.877 12.74L25.842 5.63h7.41L40.687.074H23.608" mask="url(#d)"/></g><g transform="translate(18.145 16.484)"><mask id="f" fill="#fff"><use xlink:href="#e"/></mask><path d="M.094 9.745l.225-.222 7.28-.005 4.312-4.264h4.024L23.351.2l-7.249 5.274-4.112.002-4.285 4.268H.095" mask="url(#f)"/></g><g transform="translate(.806 8.42)"><mask id="h" fill="#fff"><use xlink:href="#g"/></mask><path d="M33.205 5.392l-7.47.012L14.063 17.05.406 4.705 4.398.065 4.304.06.2 4.719l13.877 12.74L25.842 5.63h7.41L40.687.074l-7.48 5.318" mask="url(#h)"/></g><path d="M48.118 20.742l-.577 2.6.763-.08 2.488-2.52h1.889l-3.25 3.193 1.979 3.642h-1.97l-1.434-2.918h-.757l-.646 2.918h-1.51l1.516-6.835h1.51M57.11 20.742c1.632 0 2.507.978 2.176 2.47-.348 1.57-1.799 2.498-3.4 2.498h-1.388l-.413 1.867h-1.532l1.516-6.835h3.04zm-2.31 3.612h1.388c.814 0 1.405-.448 1.556-1.133.15-.674-.173-1.113-.998-1.113h-1.45l-.497 2.246zM66.4 20.742l-.306 1.378h-3.602l-.285 1.285h3.214l-.296 1.336H61.91l-.323 1.46h3.775l-.306 1.376h-5.285l1.516-6.835h5.112M74.609 20.742l-1.21 5.458h.989l-.093.419-.66 2.386h-1.379l.257-1.428h-4.624l-.398 1.428h-1.387l.444-2.375.093-.42h.286c.286 0 .646-.193.927-.633.547-.816 1-2.163 1.346-3.725l.246-1.11h5.163zm-3.956 1.366c-.436 1.919-1.002 3.317-1.56 4.092h2.775l.907-4.092h-2.122zM78.75 20.742l-1.01 4.55 4.316-4.55h1.346l-1.515 6.835h-1.52l.952-4.295-4.095 4.295h-1.5l1.517-6.835h1.509M93.71 20.742l-.591 2.672h2.99l.592-2.672h1.543l-1.516 6.835h-1.543l.609-2.742h-2.99l-.609 2.742h-1.54l1.515-6.835h1.54M101.57 20.742l-.466 2.102h1.286c1.612 0 2.507.847 2.167 2.377-.315 1.419-1.593 2.356-3.155 2.356h-2.878l1.516-6.835h1.53zm-1.212 5.467h1.235c.795 0 1.29-.345 1.436-.998.149-.674-.216-1.011-1.001-1.011h-1.226l-.444 2.01zm7.457-5.467l-1.516 6.835h-1.53l1.516-6.835h1.53zM111.125 20.742l-1.009 4.55 4.314-4.55h1.347l-1.516 6.835h-1.52l.952-4.295-4.095 4.295h-1.5l1.515-6.835h1.512M131.609 20.731l1.307 6.846h-1.694l-.22-1.355h-2.928l-.81 1.355H125.6l4.323-6.846h1.685zm-2.735 4.142h1.928l-.331-2.6h-.102l-1.495 2.6zM91.108 20.742H84.69l-.307 1.387h2.335l-1.208 5.448h1.521l1.207-5.448h1.993l.877-1.387M123.125 23.18h-1.57l.235-1.06h3.084l.87-1.378h-5.169l-1.515 6.835h3.09c1.542 0 2.85-.795 3.165-2.213.328-1.48-.629-2.184-2.19-2.184zm-.672 3.03h-1.57l.375-1.693h1.61c.686 0 1.026.306.906.847-.113.51-.565.845-1.32.845zM137.21 20.742l-.593 2.672h2.99l.591-2.672h1.54l-1.515 6.835h-1.54l.608-2.742h-2.99l-.608 2.742h-1.541l1.515-6.835h1.542M145.048 20.742l-.577 2.6.764-.08 2.488-2.52h1.886l-3.248 3.193 1.977 3.642h-1.969l-1.436-2.918h-.754l-.647 2.918h-1.51l1.517-6.835h1.509M111.517 18.38l-.257 1.159h3.518l.897-1.158h-4.158M50.996 8.495l1.233 3.102 2.585-3.102h1.642l-1.516 6.837h-1.5l1-4.51h-.091l-2.159 2.601h-.795l-1.005-2.602h-.092l-1 4.51h-1.49l1.515-6.836h1.673M64.42 11.914c-.435 1.96-2.27 3.56-4.422 3.56-2.124 0-3.28-1.54-2.833-3.56.437-1.97 2.289-3.561 4.412-3.561 2.163 0 3.293 1.53 2.843 3.56zm-5.735 0c-.274 1.234.31 2.193 1.617 2.193 1.346 0 2.323-1 2.587-2.193.281-1.266-.3-2.195-1.614-2.195-1.317 0-2.32.98-2.59 2.195zM71.508 10.403c-.387-.42-.957-.653-1.713-.653-1.337 0-2.38.898-2.66 2.164-.289 1.295.395 2.163 1.681 2.163.765 0 1.52-.277 2.162-.775l.63 1.07c-.95.744-1.99 1.102-3.183 1.102-2.132 0-3.294-1.388-2.817-3.54.436-1.969 2.233-3.581 4.559-3.581 1.06 0 1.885.337 2.434.938l-1.093 1.112M75.896 8.495l-.577 2.601.762-.08 2.487-2.52h1.887l-3.249 3.193 1.978 3.643h-1.967l-1.437-2.918h-.753l-.647 2.918h-1.511l1.516-6.837h1.511M87.73 11.914c-.434 1.96-2.27 3.56-4.422 3.56-2.123 0-3.282-1.54-2.835-3.56.437-1.97 2.29-3.561 4.414-3.561 2.163 0 3.293 1.53 2.843 3.56zm-5.734 0c-.274 1.234.308 2.193 1.615 2.193 1.347 0 2.324-1 2.588-2.193.281-1.266-.3-2.195-1.615-2.195-1.318 0-2.32.98-2.588 2.195zM92.903 8.495c1.521 0 2.218.723 1.964 1.867-.124.56-.488 1.05-.943 1.265l-.02.092c.615.214.918.827.754 1.572-.248 1.111-1.23 2.04-2.984 2.04h-3.307l1.516-6.836h3.02zm-2.097 2.695h1.563c.519 0 .887-.276.983-.705.1-.45-.146-.685-.727-.685h-1.51l-.309 1.39zm-.628 2.836h1.805c.664 0 1.071-.276 1.189-.807.113-.51-.192-.786-.845-.786h-1.796l-.353 1.593zM102.025 10.403c-.386-.42-.956-.653-1.712-.653-1.337 0-2.382.898-2.662 2.164-.287 1.295.397 2.163 1.683 2.163.765 0 1.52-.277 2.162-.775l.629 1.07a4.978 4.978 0 0 1-3.184 1.102c-2.131 0-3.292-1.388-2.815-3.54.437-1.969 2.232-3.581 4.558-3.581 1.06 0 1.885.337 2.436.938l-1.095 1.112M106.235 8.495l-.577 2.601.763-.08 2.488-2.52h1.889l-3.25 3.193 1.979 3.643h-1.971l-1.434-2.918h-.755l-.648 2.918h-1.51l1.516-6.837h1.51M113.754 8.495l-1.008 4.55 4.314-4.55h1.348l-1.516 6.837h-1.52l.952-4.297-4.096 4.297h-1.5l1.516-6.837h1.51M121.74 8.495l-1.01 4.55 4.315-4.55h1.347l-1.516 6.837h-1.521l.953-4.297-4.096 4.297h-1.5l1.516-6.837h1.512M122.152 6.104l-.256 1.159h3.517l.897-1.159h-4.158" fill="#FFF"/></g></svg>