<svg width="114" height="35" viewBox="0 0 114 35" xmlns="http://www.w3.org/2000/svg"><title>novikombank</title><path d="M1.746 0h14.791c-1.706.652-2.405 2.808-4.304 3.08-1.038.183-1.746-.661-2.331-1.361C8.878.384 6.948.655 5.492.917 3.355 1.29 1.578 2.696.438 4.485c.048-1.036-.043-2.083.1-3.113C.624.712 1.247.347 1.745 0zm15.96 0h2.442c.491.339.935.737 1.37 1.138-1.146.22-2.328.457-3.295 1.145-2.235 1.508-3.477 3.98-4.952 6.14-.546.519-1.402.539-2.087.79 1.544-2.862 3.232-5.815 5.97-7.717.568-.316.779-.89.552-1.496zM2.723 3.554c1.16-1.248 2.971-1.95 4.674-1.657 1.422.341 1.365 2.263 2.627 2.834.611.35 1.33.152 1.99.113-1.072 1.504-2.035 3.079-3.02 4.64-.227.483-.78.587-1.227.776-2.73 1.01-5.316 2.52-7.292 4.671-.014-2.495.003-4.993-.009-7.49 2.067 2.636 6.385 2.049 8.267-.483.54-.655.134-1.85-.779-1.832-.844-.065-1.319.703-1.788 1.256-.91 1.326-3.411 1.32-4.04-.271-.42-.878-.025-1.888.597-2.557zm15.77.15c.708-.622 1.822-1.398 2.75-.785.599.592-.16 1.315-.57 1.772-1.555 1.445-3.47 2.461-5.401 3.32a23.054 23.054 0 0 1 3.221-4.308zm-3.667 6.24c2.433-.982 4.645-2.425 6.6-4.158.01.988.004 1.976.018 2.967-1.649 1.88-3.318 3.751-5.106 5.504-.779.72-1.629 1.476-2.706 1.682-.589.144-1.123-.4-1.035-.977.065-1.196.583-2.308 1.015-3.41.293-.603.492-1.388 1.214-1.608zm1.353 6.664c1.913-1.92 3.542-4.084 5.24-6.187.022 2.549.025 5.098.005 7.644.051 1.1-1.08 1.834-2.1 1.727-4.956.003-9.911.017-14.866-.009 2.251-2.297 4.176-4.936 5.464-7.889.312-.866 1.447-.776 2.166-1.08-.668 1.526-1.45 3.036-1.748 4.69-.143.994-.1 2.185.722 2.896.61.565 1.555.545 2.283.24 1.088-.446 1.995-1.227 2.834-2.032zm-8.5-4.4c-.896 1.987-2.147 3.793-3.486 5.51-.773.894-1.666 2.187-3.016 1.992-.924-.33-.753-1.507-.29-2.156 1.606-2.464 4.256-3.975 6.792-5.346zM0 24.655c1.402.02 2.806-.045 4.205.082-.444.37-.97.624-1.496.87-.008 1.1-.005 2.204-.008 3.305 1.52-.006 3.042-.009 4.563.011 0-1.129.008-2.258-.052-3.384-.511-.206-1.02-.43-1.49-.717 1.468-.237 3.02-.32 4.464.053-.478.252-.98.446-1.441.729-.163 1.43-.02 2.876-.063 4.315.037 1.214-.114 2.445.085 3.644.464.333.978.582 1.456.892a28.734 28.734 0 0 1-4.517.003c.489-.322 1.014-.584 1.49-.926.156-1.278.04-2.574.042-3.861-1.507.017-3.013.014-4.52.006.014 1.287-.108 2.582.057 3.86.466.342.989.6 1.47.921-1.413.113-2.83.082-4.245.068v-.418c.407-.15.822-.28 1.211-.466.173-1.318.037-2.653.071-3.98-.037-1.354.097-2.718-.062-4.07-.39-.22-.813-.372-1.22-.561v-.376zm13.865.153a5.43 5.43 0 0 1 3.85 0c1.395.564 2.24 1.984 2.478 3.412.304 1.75.097 3.732-1.083 5.137-.603.743-1.518 1.12-2.422 1.36H14.86c-.893-.253-1.803-.634-2.4-1.377-1.162-1.414-1.384-3.387-1.066-5.137.242-1.42 1.083-2.83 2.47-3.395zm1.026.463c-1.293.437-1.862 1.854-2.027 3.093-.202 1.57-.108 3.305.81 4.652.91 1.32 3.11 1.388 4.117.147.856-1.062 1.023-2.496 1.02-3.811-.068-1.267-.295-2.679-1.276-3.585-.69-.66-1.76-.734-2.644-.496zm6.57-.246c.48-.669 1.43-.251 2.124-.37 1.575.07 3.45-.612 4.779.534 1.2 1.137.665 3.212-.822 3.833.608.336 1.322.604 1.694 1.23.66 1.124.427 2.741-.648 3.534-.927.731-2.175.714-3.295.683-1.293-.056-2.587.031-3.877-.081.457-.548 1.668-.427 1.483-1.355-.02-2.481.066-4.968-.04-7.446-.406-.305-.937-.37-1.398-.562zm2.97.358c-.235 1.135-.048 2.323-.087 3.478.904-.06 1.993.113 2.692-.587.847-.762.756-2.377-.33-2.882-.713-.29-1.552-.248-2.274-.009zm-.096 4.152c.026 1.361-.074 2.73.051 4.088 1.166.431 2.81.296 3.466-.898.446-.954.29-2.354-.702-2.913-.876-.415-1.88-.237-2.815-.277zm6.038-4.815a37.757 37.757 0 0 1 4.379-.011c-.308.491-.899.598-1.385.83-.16 2.117-.037 4.253-.051 6.376 1.436-1.753 2.857-3.523 4.301-5.27.284-.313.432-.708.546-1.106-.557-.18-1.166-.31-1.524-.816 1.453-.102 2.914-.085 4.367-.017-.287.534-.91.618-1.427.813-.046 2.701 0 5.402-.026 8.106.518.187 1.02.415 1.473.734-1.459.251-3.02.356-4.432-.155.486-.18.978-.339 1.472-.488.12-2.151.054-4.31.043-6.464-1.333 1.46-2.507 3.054-3.784 4.561-.446.562-1.049 1.095-1.057 1.869.52.164 1.04.333 1.552.53-1.422.469-3.04.438-4.466.006.497-.203 1.006-.384 1.515-.567-.023-2.713.048-5.425-.04-8.138-.537-.169-1.112-.313-1.456-.793zm11.508-.045c1.413-.011 2.826-.048 4.24.028-.277.542-.905.618-1.42.813a71.862 71.862 0 0 0-.01 3.588c.58-.105 1.344.017 1.696-.576.742-1.112.956-2.504 1.797-3.56.529-.66 1.885-.759 2.19.159.264.53-.277.925-.572 1.281-.327-.223-.651-.446-.975-.669-1.046 1.042-1.146 2.645-2.184 3.7 1.88.619 2.07 2.812 3.02 4.254.506.232 1.057.376 1.526.692-.992.09-1.987.022-2.98.053-.423-1.298-.824-2.63-1.512-3.819-.4-.702-1.273-.779-1.993-.886-.022 1.287-.082 2.577.009 3.861.472.268.972.48 1.441.762-1.45.24-2.922.144-4.375.02.37-.398.91-.51 1.405-.674.11-2.747.093-5.504.008-8.25-.39-.1-.779-.198-1.168-.292a31.187 31.187 0 0 1-.143-.485zm10.465 1.928c1.302-2.656 5.567-2.896 7.315-.593 1.26 1.75 1.333 4.166.588 6.136-.506 1.364-1.776 2.298-3.19 2.572h-1.566c-1.279-.184-2.496-.89-3.101-2.05-.975-1.851-.984-4.197-.046-6.065zm2.928-1.324c-1.626.596-2.06 2.535-2.083 4.07-.02 1.31.13 2.74.989 3.797.986 1.253 3.19 1.196 4.108-.108.77-1.053.932-2.41.92-3.675-.056-1.222-.266-2.551-1.148-3.474-.69-.76-1.842-.884-2.786-.61zm6.24-.471c.973-.153 1.962-.161 2.946-.17.983 2.645 2.152 5.216 3.2 7.833 1.084-2.622 2.389-5.154 3.344-7.83.918.011 1.84.028 2.755.13-.52.305-1.103.514-1.57.898-.02 2.641.174 5.28.237 7.923a17.66 17.66 0 0 1 1.538.846c-1.516.147-3.048.15-4.563-.005.5-.316 1.032-.573 1.572-.816-.014-2.173-.1-4.35-.142-6.523-1.095 2.537-2.258 5.05-3.267 7.624h-.41c-1.077-2.49-2.06-5.019-3.251-7.458-.094 2.14-.162 4.282-.171 6.425.523.18 1.04.37 1.558.575-1.225.438-2.536.274-3.801.207.432-.322.898-.599 1.313-.94.177-.805.12-1.64.165-2.462.02-1.863.242-3.728.1-5.591a21.545 21.545 0 0 1-1.552-.666zm13.186-.125c2.465-.05 4.93 0 7.394-.028 0 .819 0 1.637-.068 2.456-.588-.294-.668-.965-.947-1.488-1.137-.378-2.385-.118-3.565-.155.026 1.104.026 2.21 0 3.314 1.422-.017 3.04-.243 4.233.711 1.075.78 1.362 2.357.722 3.497-.392.745-1.174 1.222-1.987 1.38-1.939.421-3.931.178-5.882-.014.43-.318.939-.485 1.419-.708.213-1.228.04-2.49.09-3.729-.047-1.462.112-2.938-.079-4.389-.46-.268-1.134-.276-1.33-.847zm2.84 4.9c.008 1.262-.06 2.527.017 3.791.065.418.566.373.876.438.975.135 2.135-.15 2.612-1.087.466-.974.273-2.351-.7-2.955-.843-.534-1.878-.297-2.805-.187zm6.922 3.396c1.174-2.901 2.144-5.885 3.4-8.753.27.328.53.672.68 1.073 1.023 2.549 2.052 5.097 3.093 7.64.23.627.804 1.008 1.248 1.471-1.265.085-2.539.172-3.795-.034.366-.319.824-.5 1.27-.686a57.977 57.977 0 0 0-1.043-2.743h-3.198c-.341.903-.677 1.812-.884 2.757.372.195.742.41 1.097.641-1.083.209-2.192.263-3.278.068.486-.455 1.157-.782 1.41-1.434zm3.19-6.294c-.424 1.154-.822 2.317-1.23 3.477.869.006 1.739.009 2.609.006-.43-1.172-.827-2.36-1.379-3.483zm5.783-1.982c1.464-.059 2.94-.096 4.403.04-.423.429-1.106.497-1.492.94-.103 1.07-.026 2.148-.043 3.223 1.524.006 3.048.017 4.574-.017-.025-1.123-.011-2.247-.04-3.37-.39-.271-1.484-.175-1.242-.83a36.663 36.663 0 0 1 4.205.04c-.393.465-1.103.502-1.473.95-.068 2.64-.065 5.29-.003 7.93.498.214.978.468 1.442.745-1.459.248-2.96.288-4.415-.014.44-.302.946-.475 1.427-.698.19-1.304.031-2.636.085-3.951-1.518-.014-3.033-.006-4.549-.009-.008 1.344-.062 2.69.06 4.03.503.148 1.026.286 1.416.659-1.464.146-2.945.163-4.407-.015.48-.513 1.67-.38 1.496-1.31-.029-2.489.08-4.99-.054-7.48-.48-.262-1.095-.35-1.39-.863zm11.013.127c1.418-.327 2.888-.13 4.33-.15-.035.116-.1.348-.134.464l-1.203.304a76.81 76.81 0 0 0-.028 3.71c.526-.153 1.197-.068 1.6-.498.899-1.17 1.024-2.8 2.09-3.86.68-.712 2.306-.289 2.027.849-.162.917-1.154.37-1.728.282-.902 1.025-1.04 2.518-2.059 3.475 1.916.652 2.098 2.865 3.093 4.327.41.175.85.27 1.28.392v.398c-.919.008-1.837.011-2.755.006-.435-1.35-.813-2.755-1.575-3.966-.412-.68-1.285-.672-1.97-.838-.017 1.304-.031 2.608.04 3.912.517.234 1.026.496 1.512.796-1.52.113-3.102.293-4.586-.167a27.602 27.602 0 0 1 1.573-.59c.04-2.701.025-5.402.008-8.103-.517-.226-1.035-.452-1.515-.743z" fill="#FFF" fill-rule="evenodd"/></svg>