<svg width="147" height="29" viewBox="0 0 147 29" xmlns="http://www.w3.org/2000/svg"><title>otkritie</title><g fill="none" fill-rule="evenodd"><path d="M107.379 8.306h10.674v2.38h-.771s-.13-1.221-1.352-1.221h-1.862V20.46h-2.64V9.465H109.5c-1.027 0-1.285.836-1.35 1.22h-.771v-2.38M129.685 8.306h1.93V20.46h-2.575V11.97l-6.361 8.489h-1.934v-9.903c0-1.414-1.22-1.607-1.22-1.607v-.644h3.794v8.552l6.366-8.552M73.883 20.46h-3.342l-2.38-4.502s-.708-1.349-1.48-1.349h-.964v5.85H63.08v-9.902c0-1.415-1.286-1.54-1.286-1.54v-.71h3.923v5.078h1.158s.771-.062 1.415-1.093c2.059-3.343 1.8-3.985 2.7-3.985h2.57v.835c-1.799 0-2.313 3.667-4.05 4.822.839.32 1.157 1.096 3.023 4.501 0 0 .45 1.158 1.35 1.158v.837M137.148 13.13h6.301v-.645a3.155 3.155 0 0 0-3.15-3.149 3.155 3.155 0 0 0-3.151 3.15v.644zm8.552 4.693c-1.222 1.671-3.025 2.831-5.4 2.831-3.218 0-6.305-2.51-6.305-5.79v-.706c0-3.537 2.83-6.045 6.304-6.045 3.473 0 6.171 2.83 6.171 6.238h-9.322v1.994c0 1.734 1.414 3.15 3.472 3.15 1.801 0 3.022-.77 3.989-1.801l1.091.13zM82.965 8.114c-1.48 0-2.894.641-3.535 1.541V8.307h-3.86v.707s1.223.193 1.223 1.543v15.436h2.637v-6.82c1.221 1.414 2.828 1.48 3.342 1.48 3.407-.066 5.72-2.701 5.72-5.982v-.77c0-3.536-2.183-5.787-5.527-5.787m2.442 8.166c0 1.543-1.093 3.021-2.765 3.087h-.255c-1.48 0-2.766-1.093-2.957-2.25v-5.21c.126-1.222 1.35-2.572 2.957-2.572h.512s2.443.129 2.508 3.088v3.857M42.899 8.112c-4.568 0-6.433 3.536-6.433 5.854v1.027c0 2.7 2.638 5.66 6.433 5.66 3.537 0 6.494-2.637 6.494-5.725v-.836c0-3.086-2.444-5.98-6.494-5.98m3.342 8.102c0 1.736-1.349 3.28-3.342 3.28-1.997 0-3.28-1.544-3.28-3.28v-3.858c0-1.737 1.475-3.086 3.28-3.086 1.993 0 3.342 1.414 3.342 3.151v3.793M105.578 8.306h-3.857v.708s1.285.192 1.285 1.607v9.839h2.572V8.306M94.258 12.938V8.307h-3.857v.709s1.156.126 1.156 1.541v9.904h5.982c2.312 0 3.985-1.416 3.985-3.407v-.58c0-2.19-1.606-3.536-4.117-3.536H94.26zm0 6.3v-5.08h2.251c1.223 0 2.185.964 2.185 2.38v.516c0 1.155-1.091 2.184-2.25 2.184h-2.186zM49.843 8.306h10.675v2.38h-.774s-.128-1.221-1.351-1.221h-1.864V20.46h-2.636V9.465h-1.93c-1.027 0-1.287.836-1.347 1.22h-.773v-2.38" fill="#4D4D4C"/><path d="M14.185.205C6.355.205.005 6.553.005 14.382c0 7.831 6.35 14.18 14.18 14.18 7.831 0 14.182-6.349 14.182-14.18 0-7.829-6.35-14.177-14.182-14.177M11.2 21.34c.114.062.5.31.602.804.067.357.022.668-.152.957-.212.35-.57.54-1.023.54-.231 0-.469-.057-.691-.157l-.663-.314c-2.893-1.532-4.688-4.627-4.688-8.076v-1.422c0-3.448 1.8-6.545 4.7-8.086.029-.01.65-.305.65-.305.223-.103.46-.156.69-.156.451 0 .813.196 1.025.541.174.286.22.599.152.955-.114.573-.616.814-.622.818-1.687.766-2.778 2.504-2.778 4.43v5.03c0 1.927 1.092 3.667 2.798 4.44m12.587-6.245c0 3.45-1.794 6.544-4.688 8.076l-.663.314a1.68 1.68 0 0 1-.691.157c-.45 0-.809-.19-1.023-.54-.17-.289-.218-.6-.15-.957.1-.493.485-.742.599-.804 1.705-.774 2.803-2.514 2.803-4.44v-5.031c0-1.926-1.094-3.664-2.781-4.43-.005-.004-.508-.245-.622-.818-.067-.356-.02-.669.151-.955.214-.345.572-.541 1.023-.541.233 0 .473.053.691.156 0 0 .623.296.649.305 2.906 1.541 4.702 4.638 4.702 8.086v1.422" fill="#00B2D2"/></g></svg>