<svg width="150" height="35" viewBox="0 0 150 35" xmlns="http://www.w3.org/2000/svg"><title>Raiffeisen</title><g fill="none" fill-rule="evenodd"><path d="M10 1h34v34H10V1z" fill="#000"/><path d="M11 2h32v32H11V2z" fill="#FFF200"/><path d="M12.658 28.61l4.14 4.22 9.698-9.84 10.023 10.042 4.2-4.159-9.922-9.92 1.907-1.847V13.17l1.197-1.014v3.083l1.543 1.258 4.605-4.605 1.48 1.136c.874-3.226-4.179-10.55-8.358-6.493l-4.87 4.829.994 1.197-2.475 2.414-2.394-2.354 1.258-1.136-5.336-5.153c-4.017-3.308-8.136 1.725-8.279 6.634l1.46-1.217 4.485 4.83 1.602-1.34v-2.962l.994.75v3.876l1.948 1.948-9.9 9.759zM52.284 5.352v2.922h1.257c1.725-.325 1.258-2.8 0-2.922h-1.257zm-3.571-2.901V15.68h3.57v-4.301l3.044 4.301h4.22l-3.752-5.295c4.342-2.11 2.719-7.873-1.847-7.934h-5.235zm16.516 6.614c1.176 0 2.13.893 2.13 1.988 0 1.096-.954 1.989-2.13 1.989-1.157 0-2.11-.893-2.11-1.989s.953-1.988 2.11-1.988zm-.752-2.922c.975 0 1.888.325 2.638.852v-.507h3.49l.02 9.191h-3.53l.02-.568a4.578 4.578 0 0 1-2.637.832c-2.598 0-4.728-2.19-4.728-4.89 0-2.698 2.13-4.91 4.727-4.91zm7.995.345h3.713v9.191h-3.713V6.49zm1.866-5.255c1.076 0 1.948.893 1.948 1.968 0 1.076-.872 1.968-1.948 1.968a1.97 1.97 0 0 1-1.968-1.968 1.97 1.97 0 0 1 1.968-1.968zm28.183 5.255h3.713v9.191h-3.713V6.49zm1.846-5.255a1.97 1.97 0 0 1 1.968 1.968 1.97 1.97 0 0 1-1.968 1.968c-1.075 0-1.947-.893-1.947-1.968s.872-1.968 1.947-1.968zM76.875 6.488V9.41h1.278v6.27h3.592V9.41h3.368v6.27h3.713V9.37h2.313V6.529h-2.415V4.48c-.06-.75 1.705-1.055 2.313-.446V1.03c-3.408-1.075-6.168.853-6.148 3.835v1.623h-3.165V4.48c-.041-.75 1.502-1.055 2.394-.446V1.03c-2.963-.872-6.128.568-6.107 3.815v1.623l-1.136.02zm19.559 9.455c3.186-.02 4.362-1.339 5.052-3.266h-3.225c-1.462 1.866-3.592.507-3.49-1.015h6.817c0-3.733-1.989-5.498-5.153-5.498-3.165 0-5.153 2.232-5.153 4.95 0 2.72 2.312 4.85 5.152 4.83zm-1.197-6.451c.04-1.117 2.475-1.117 2.637 0h-2.637zm26.478 6.451c3.205-.02 4.383-1.339 5.072-3.266h-3.246c-1.46 1.866-3.591.507-3.49-1.015h6.818c0-3.733-1.968-5.498-5.153-5.498-3.166 0-5.153 2.232-5.153 4.95 0 2.72 2.311 4.85 5.152 4.83zm-1.197-6.451c.04-1.117 2.475-1.117 2.637 0h-2.637zm-4.93-2.82l-1.096 2.231c-1.38-.426-2.72-.345-2.678.04.04.244-.183.67 1.968.974 3.205.507 2.942 6.472-2.435 6.026-1.481-.101-2.678-.487-3.672-1.075l1.197-2.395c1.684.832 3.307 1.32 3.429.487.142-1.034-1.766-.67-2.922-1.542-2.07-1.278-.893-5.235 2.496-5.275 1.196-.08 2.434.122 3.713.528zm12.701-.184v9.191h3.47v-5.62c.102-1.4 2.86-1.644 2.881 0v5.62h3.51V9.917c-.081-3.225-3.47-4.788-6.534-2.74v-.689h-3.327zM50.762 21.3l-2.313 13.634h6.554c4.443 0 6.27-5.518 3.104-7.405 2.698-2.496 1.319-6.249-1.583-6.29l-5.762.06zm2.658 8.136l-.467 2.252h1.522c1.724.081 1.522-2.252.528-2.252H53.42zm.77-4.89l-.385 1.826.467.02c1.4.081 2.212-1.846.527-1.846h-.609zm5.398 10.409h3.977l1.197-2.395h4.504l.67 2.436h3.671L70.422 21.38H66.67l-7.081 13.574zM66.06 29.7h2.475l-.791-3.592L66.06 29.7zm8.805 5.296h3.673l.932-8.543 5.255 8.502h3.936l1.644-13.656h-3.672l-1.035 8.542-5.256-8.583H76.55l-1.684 13.738zm18.078-13.737l-2.577 13.696h3.876l1.035-5.114 3.469 5.114h5.092l-4.97-7.183 6.35-6.534h-4.93l-4.342 4.829.69-4.829-3.693.02z" fill="#000"/></g></svg>