<svg width="150" height="12" viewBox="0 0 150 12" xmlns="http://www.w3.org/2000/svg"><title>rgs</title><g fill="none" fill-rule="evenodd"><path d="M86.935.024h5.919l1.121 11.975h-2.473l-.248-2.823h-2.72l-.247 2.823h-2.473L86.934.024zM89.11 2.59l-.363 4.02h2.292l-.363-4.02h-1.566zM47.775.024h7.75v3.73h-2.473V2.59h-2.804v6.843h2.804V8.27h2.473v3.729h-7.75V.024zm9.723 0h7.75v3.73h-2.475V2.59h-2.802v6.843h2.802V8.27h2.474v3.729h-7.75V.024zm9.457 0h7.749V2.59h-2.638v9.409h-2.473v-9.41h-2.638V.025zm34.59 0h2.639l-1.962 5.936 2.127 6.039h-2.638l-1.517-4.756h-.66l-1.517 4.756H95.38l2.128-6.04L95.545.025h2.637l1.352 4.653h.66l1.352-4.653zM2.474 5.84h2.803V2.59H2.473v3.25zM0 .024h7.75v8.383H2.472v3.592H0V.024zm12.232 9.41h2.803V2.59h-2.803v6.843zM9.759.023h7.75v11.975h-7.75V.024zm30.692 9.41h2.804V2.59H40.45v6.843zM37.978.023h7.75v11.975h-7.75V.024zm-18.422 0h7.749v3.73h-2.473V2.59h-2.803v6.843h2.803V8.27h2.473v3.729h-7.75V.024zm9.722 0h6.842V2.59h-4.369v9.409h-2.473V.024zM78.961 5.84h2.803V2.59H78.96v3.25zM76.488.024h7.749v8.383h-5.276v3.592h-2.473V.024zM128.085 11.999L123.608.024h-1.568l-4.493 11.975h1.552l1.212-3.337h4.946l1.213 3.337h1.615zm-3.28-4.68h-4.042l2.005-5.551 2.037 5.552zM117.079 8.68c0-.439-.063-.862-.187-1.27a2.512 2.512 0 0 0-.663-1.078c-.318-.31-.743-.559-1.277-.742a4.783 4.783 0 0 0-.916-.207v1.5c.025.005.052.01.076.017.372.108.668.255.889.444.22.188.374.379.46.654.087.275.13.391.13.728 0 .336-.043.514-.13.773-.086.26-.232.48-.436.658-.205.178-.482.311-.833.398-.35.087-.784.13-1.301.13h-.587v-.009h-3.421V12h3.895c.85 0 1.554-.09 2.11-.267.555-.179.994-.418 1.317-.72.324-.3.55-.651.68-1.055.128-.403.194-.828.194-1.277m-6.71-7.298h5.416V.024h-6.902v1.36h1.487v-.002M129.46.024v11.975h1.486V6.532h5.837v5.467h1.487V.024h-1.487v5.064h-5.837V.024h-1.487M146.417 4.674l3.046-4.65h-1.76l-2.451 3.778a7.773 7.773 0 0 1-.469.662c-.14.174-.286.31-.436.411-.151.1-.316.17-.493.21a3.047 3.047 0 0 1-.638.058h-.987V.023h-1.487V12h1.487V6.498h.987c.246 0 .46.019.638.058.177.04.342.11.493.21.15.1.296.238.436.41.14.174.296.395.469.663l2.7 4.16h1.761l-3.296-5.031c-.25-.38-.476-.669-.68-.865a1.873 1.873 0 0 0-.402-.283c.146-.077.283-.168.403-.282.203-.197.43-.484.679-.864" fill="#7E1B1F"/><path d="M113.052 5.313h-2.79V2.42h-1.379v2.894h-2.79v1.431h2.79V9.64h1.379V6.744h2.79v-1.43" fill="#B99459"/></g></svg>