<svg width="150" height="28" viewBox="0 0 150 28" xmlns="http://www.w3.org/2000/svg"><title>rosbank</title><g fill="none" fill-rule="evenodd"><path d="M.06.204h27.377v13.96H.06V.204z" fill="#DD3B41"/><path d="M.06 13.89h27.38v13.687H.06V13.891z" fill="#000"/><path d="M4.835 13.058h17.813v1.666H4.835v-1.666z" fill="#FFF"/><path d="M44.906 7.04c2.98 0 4.85 1.946 4.85 4.637 0 2.8-1.87 4.414-4.85 4.414H38.98v4.58h-2.525V7.038h8.451zm.145 6.798c1.307 0 2.126-.906 2.126-2.125 0-1.345-.819-2.418-2.271-2.418H38.98v4.543h6.07zM59.116 21.051c-4.342 0-7.94-2.887-7.94-7.213 0-4.27 3.598-7.215 7.94-7.215 4.363 0 7.904 2.945 7.904 7.215 0 4.326-3.541 7.213-7.904 7.213m0-12.1c-3.164 0-5.327 2.142-5.327 4.887 0 2.818 2.073 4.905 5.327 4.905 3.236 0 5.286-2.105 5.286-4.905 0-2.745-2.05-4.888-5.286-4.888M77.488 21.035c-4.562 0-7.997-2.89-7.997-7.214 0-4.253 3.487-7.198 7.997-7.198 2.691 0 4.615.765 6.344 2.034l-1.35 2.002c-1.252-.966-2.832-1.673-4.92-1.673-3.329 0-5.4 2.107-5.4 4.835 0 2.817 2.091 4.849 5.434 4.849 2.09 0 3.743-.672 4.997-1.632l1.345 1.998c-1.725 1.271-3.759 2-6.45 2M105.766 17.362l-1.562 3.31h-2.727l6.632-13.633h2.652l6.653 13.632h-2.727l-1.561-3.309h-7.36zm1.053-2.216h5.255l-2.62-5.526-2.635 5.526zM130.787 20.67V14.84h-8.922v5.831h-2.527V7.04h2.527v5.563h8.922V7.039h2.528V20.67h-2.528M137.054 20.67V7.04h2.53v6.36l6.849-6.36h3.103l-7.046 6.563 7.338 7.067h-3.395l-6.85-6.615v6.615h-2.529M95.235 12.036h-5.919V9.163h9.751V7.028H86.789v13.62h8.446c2.976 0 5.027-1.619 5.027-4.305 0-2.796-2.051-4.307-5.027-4.307m.146 6.358h-6.065v-4.102h6.065c1.583 0 2.483.835 2.483 2.05 0 1.344-.716 2.052-2.483 2.052" fill="#000"/></g></svg>