<svg width="150" height="35" viewBox="0 0 150 35" xmlns="http://www.w3.org/2000/svg"><title>rossiya</title><g fill="none" fill-rule="evenodd"><path d="M34.865 18.422c0-.174-.027-.349-.053-.516l-.008-.056c-.451-3.346-3.51-6.645-6.203-7.9-1.608-.948-3.6-1.312-5.36-1.632-1.524-.278-2.965-.541-3.955-1.132a5.247 5.247 0 0 0-.326-.193c-.104-.058-.212-.118-.303-.178-.262-.168-1.102-.89-1.688-1.568a5.16 5.16 0 0 1-.714-1.12l-.14-.275v14.736h1.589V8.136c.237.227.522.435.911.66.88.517 2.406.804 4.022 1.107 1.699.317 3.455.646 4.859 1.278 3.458 1.568 5.6 5.252 5.815 7.303 0 .084.007.168.014.25.007.07.012.135.012.19v2.18H18.996v7.334h.04c.499 0 .819-.027 1.323-.095l.125-.003v-5.823h14.444v-1.49c0-.798 0-1.79-.063-2.605" fill="#CD1F45"/><path d="M45.702 23.068h2.603c.547 0 1.035-.196 1.31-.45.29-.267.44-.621.44-1.024a1.54 1.54 0 0 0-.486-1.151c-.412-.373-.99-.403-1.447-.403h-2.42v3.028zM43.86 24.69V14.173h7.217v1.713h-5.374v2.547h2.375c.973 0 2.025-.029 2.847.672a3.205 3.205 0 0 1 1.096 2.427c0 1.013-.395 1.833-.974 2.34-.503.445-1.34.819-2.68.819H43.86zM58.17 16.52a8.185 8.185 0 0 1-.182-.964c-.031.267-.091.713-.151.935l-1.445 4.905h3.236l-1.458-4.875zm2.476 8.144l-.516-1.65h-4.238l-.487 1.65h-1.852l3.356-10.491h2.187l3.462 10.491h-1.912zM64.418 14.173h1.825v4.251h4.669v-4.251h1.824v10.504h-1.824V20.05h-4.669v4.626h-1.825V14.173z" fill="#073C59"/><path d="M92.427 19.244c.655 0 1.081-.225 1.324-.463.243-.24.487-.624.487-1.295 0-.61-.197-.98-.456-1.248-.442-.446-1.067-.476-1.326-.476h-1.887v3.482h1.858zm-3.7-5.107h3.79c1.402 0 2.239.478 2.696.895.41.387.958 1.16.958 2.546 0 1.102-.377 1.82-.935 2.428-.528.572-1.485.837-2.598.837h-2.07v3.809h-1.84V14.137zM100.402 16.692c-.345.483-.736 1.306-.736 2.716 0 1.41.39 2.23.736 2.714.614.835 1.424 1.044 2.1 1.044.675 0 1.485-.209 2.1-1.044.345-.484.736-1.305.736-2.715 0-1.409-.39-2.232-.736-2.715-.615-.837-1.425-1.043-2.1-1.043-.676 0-1.486.205-2.1 1.043m5.505-1.263c1.14 1.292 1.337 2.906 1.337 3.978s-.196 2.688-1.337 3.978c-1.05 1.176-2.372 1.454-3.405 1.454-1.035 0-2.357-.278-3.405-1.454-1.142-1.29-1.338-2.906-1.338-3.978s.196-2.686 1.338-3.978c1.048-1.173 2.37-1.452 3.405-1.452 1.033 0 2.354.28 3.406 1.452M132.178 14.198v7.266l4.917-7.266h1.816v10.45h-1.816v-7.313l-4.917 7.313h-1.815v-10.45h1.815z" fill="#CD1F45"/><path d="M80.856 14.178l2.252.002-4.658 4.887 5.036 5.631h-2.28l-4.562-4.836v4.836h-1.822V14.18h1.822v4.317l4.212-4.32z" fill="#073C59"/><path d="M145.484 15.762c-.702 0-2.432-.281-2.432 1.655 0 .783.281 1.832 2.493 1.832h2.554v-3.487h-2.615zm-2.333 8.886h-2.18l2.81-4.02c-1.403-.163-2.605-1.274-2.605-3.149 0-1.319.557-3.297 3.523-3.297h5.213v10.466h-1.814V20.83h-2.376l-2.571 3.818zM115.944 21.526a3.414 3.414 0 0 1-.337.595c-.614.838-1.425 1.044-2.1 1.044s-1.485-.206-2.1-1.044c-.346-.483-.736-1.304-.736-2.715 0-1.408.39-2.23.735-2.713.616-.839 1.426-1.043 2.1-1.043.676 0 1.487.205 2.101 1.043.165.23.339.54.476.951h1.96c-.185-.743-.52-1.525-1.13-2.215-1.05-1.174-2.371-1.453-3.406-1.453-1.035 0-2.355.28-3.405 1.453-1.142 1.292-1.337 2.906-1.337 3.977 0 1.073.195 2.689 1.337 3.979 1.05 1.176 2.37 1.454 3.405 1.454 1.035 0 2.355-.279 3.405-1.454a5.033 5.033 0 0 0 1.027-1.859h-1.995zM126.567 21.526a3.52 3.52 0 0 1-.335.595c-.617.838-1.426 1.044-2.102 1.044-.674 0-1.484-.206-2.1-1.044-.345-.483-.735-1.304-.735-2.715 0-1.408.39-2.23.736-2.713.615-.839 1.425-1.043 2.099-1.043.676 0 1.485.205 2.102 1.043.163.23.337.54.475.951h1.959c-.184-.743-.52-1.525-1.13-2.215-1.05-1.174-2.37-1.453-3.406-1.453-1.034 0-2.356.28-3.404 1.453-1.143 1.292-1.337 2.906-1.337 3.977 0 1.073.194 2.689 1.337 3.979 1.048 1.176 2.37 1.454 3.404 1.454 1.035 0 2.356-.279 3.406-1.454a5.023 5.023 0 0 0 1.027-1.859h-1.995z" fill="#CD1F45"/><path d="M16.13 21.537c-1.486.06-2.878.215-4.142.465-.802.148-1.595.338-2.357.566a9.772 9.772 0 0 0-1.091.392c-.135-.369-.241-.72-.352-1.092l-.045-.15a15.428 15.428 0 0 1-.278-1.68h8.264v1.499zm0 7.614l-.093-.018c-.292-.057-.594-.114-.898-.194-.586-.134-1.19-.367-1.962-.754a8.925 8.925 0 0 1-1.158-.714 9.02 9.02 0 0 1-2.343-2.377 6.77 6.77 0 0 1-.382-.588c.066-.029.133-.05.208-.079.048-.016.1-.033.154-.055.683-.219 1.496-.435 2.348-.624a27.46 27.46 0 0 1 4.125-.474v5.877zm-6.474-1.28c-.53-.19-1.019-.398-1.535-.659l-.209-.105c-.422-.212-.859-.431-1.27-.677a.66.66 0 0 1-.144-.089c.041-.05.083-.108.126-.171l.098-.144c.183-.182.44-.421.807-.653l.097-.055c.029-.018.06-.036.087-.05.06.085.118.182.175.275.059.096.12.196.181.287.445.659.964 1.284 1.541 1.853.072.09.146.175.224.25a1.246 1.246 0 0 0-.178-.061zm-4.223-3l-.013.016c-.11.142-.223.287-.337.452-.233-.205-.473-.415-.686-.63-1.494-1.424-2.363-2.996-2.583-4.67h4.309c.06.868.214 1.713.467 2.578.092.374.219.746.367 1.077-.054.038-.108.07-.164.104-.057.035-.116.071-.176.114h-.032l-.01.007c-.45.296-.822.606-1.142.952zM2.12 17.158a7.562 7.562 0 0 1 .999-1.93c.343-.452.762-.98 1.28-1.47.095-.096.192-.184.287-.27.08-.075.164-.151.245-.232.406.517.97.985 1.677 1.386l.071.048c.072.049.159.107.247.156-.114.287-.241.625-.335.972l-.038.13c-.077.267-.158.543-.21.816a16.079 16.079 0 0 0-.22 1.662H1.815c.067-.46.166-.876.305-1.268zM6.43 12.18c.068-.04.145-.086.22-.143.437-.264.914-.502 1.373-.734l.097-.048c.397-.197.783-.353 1.193-.517l.343-.14.118-.04-.16.16c-.603.6-1.123 1.236-1.545 1.89a5.625 5.625 0 0 0-.221.35c-.063.103-.128.21-.197.311a5.593 5.593 0 0 1-.994-.696 3.955 3.955 0 0 1-.313-.339l.086-.054zm27.804 11.56H21.568v1.506h8.672c-.3.274-.567.476-1.074.84l-.004.006c-3.082 2.005-7.134 3.127-11.415 3.158v-9.21h14.535v-1.613H7.863c.036-.445.098-.872.189-1.3.03-.156.061-.316.09-.44.1-.421.222-.809.365-1.152l.225.076c.288.095.587.195.899.292.813.247 1.585.422 2.359.535l.22.03c.594.12 1.282.215 2.044.282.605.052 1.21.08 1.877.107v-1.74c-.53-.015-1.091-.05-1.718-.112-.668-.062-1.318-.128-1.947-.252-.158 0-.32-.032-.463-.065a15.356 15.356 0 0 1-2.353-.59 2.46 2.46 0 0 1-.29-.083l-.098-.03c.089-.167.19-.321.294-.484l.12-.188a9.976 9.976 0 0 1 2.343-2.379 9.382 9.382 0 0 1 3.962-1.653.917.917 0 0 0 .102-.007c.016 0 .032 0 .048-.002V7.497l-.039.012c-.042.013-.086.02-.128.028-.049.007-.099.015-.147.032-1.282.093-2.57.273-3.83.537-.89.202-1.661.427-2.356.686-.5.15-.99.329-1.543.568-.427.187-.896.417-1.477.72a17.17 17.17 0 0 0-2.266 1.449A12.905 12.905 0 0 0 1.7 14.237a9.619 9.619 0 0 0-1.227 2.365 8.1 8.1 0 0 0-.441 2.615v.032c0 2.815 1.532 5.558 4.314 7.72.163.113.333.234.503.355l.473.337c.306.19.636.38.955.563l.333.193c.407.215.847.411 1.272.599l.206.092c.449.194.924.378 1.542.597.778.257 1.572.481 2.358.661a25.91 25.91 0 0 0 5.655.615c4.736 0 9.168-1.223 12.477-3.443.677-.415 1.26-.912 1.797-1.386.464-.431 1.802-1.752 2.266-2.34l.052-.066h-.012l.012-.007z" fill="#073C59"/></g></svg>