<svg width="149" height="34" viewBox="0 0 149 34" xmlns="http://www.w3.org/2000/svg" xmlns:xlink="http://www.w3.org/1999/xlink"><title>smp_bank</title><defs><path id="a" d="M.268 33.784h148.728V.108H.268"/></defs><g fill="none" fill-rule="evenodd"><path d="M94.49 22.776h1.927c1.733 0 2.74-.688 2.74-2.122 0-1.436-1.007-2.123-2.74-2.123H94.49v4.245zm6.706-11.928v2.507H94.49v2.951h2.5c4.514 0 5.455 2.75 5.455 4.57 0 1.496-1.072 4.123-5.455 4.123h-5.611V10.849h9.818zM112.832 19.48l-2.258-5.782h-.045l-2.124 5.782h4.427zm-.373-8.632L118.552 25h-3.507l-1.293-3.195h-6.334L106.125 25h-3.331l6.114-14.152h3.55zM123.085 10.848v5.701h6.224v-5.701h3.112V25h-3.112v-6.125h-6.224V25h-3.113V10.848M139.286 10.848v6.045h.066l5.545-6.045h3.705l-6.4 6.408L148.995 25h-3.945l-5.699-7.036h-.066V25h-3.11V10.848M46.775 24.555c-1.36.425-2.74.607-3.967.607-3.815 0-7.978-2.002-7.978-7.157 0-4.872 3.726-7.318 8.548-7.318 1.205 0 2.235.142 3.397.486l-.132 2.425a8.816 8.816 0 0 0-3.046-.526c-3.44 0-5.48 2.002-5.48 4.892 0 3.418 2.5 4.812 5.26 4.812 1.36 0 2.433-.304 3.201-.627M82.667 10.848V25h-3.112V13.174h-6.07V25h-3.112V10.848" fill="#004772"/><g><mask id="b" fill="#fff"><use xlink:href="#a"/></mask><path d="M61.566 10.848l-3.785 10.161-3.776-10.161h-5.26V25h3.112V12.87h.022L56.306 25h2.958l4.428-12.13h.022V25h3.112V10.848M30.49 1.966l.234-.114-.234.113zM33.508.86c-.187-.204-2.712.957-2.712.957l.114-.075c.496-.29 1.285-.708.99-1.046-.148-.167-.481-.093-1.444.458-.452.26-2.816 1.188-5.26 2.164-2.016.826-5.677 2.32-6.004 2.663-.01.011-.019.02-.027.032-.035.053-.067.119-.1.186-.126.268-.253.677-.378 1.192-.005.017-.009.032-.012.049l-.023.096c-.149.683-.283 1.519-.43 2.444-.431 2.807-.872 6.985-.872 6.985s-.11 2.846-.396 4.203c-.056.258-.12.439-.169.568a2.6 2.6 0 0 1-.072.208v-.002c-.098.252-.23.489-.414.675-.564.584-1.953.398-2.337.352-.897-.103-1.776-.694-1.897-.85-.117-.159-.737-.942-1.533-1.014-.235-.021-1.198.137-1.514.128-.317-.009-.759-.429-1.258-.479-.508-.059-1.315.421-1.315.421s1.985.697 2.227 1.011c.241.317.837 1.11 1.56 1.422.723.31 3.248 3 3.248 3s.515.494 1.37 1.141c-.747.248-1.536.424-2.355.509-5.647.583-10.47-2.915-11.102-8.12a8.643 8.643 0 0 1 .241-3.359c.35-1.306.886-2.56 1.826-3.646 1.714-1.987 4.06-3.285 6.797-3.565 1.668-.174 3.364.068 4.922.64-.012-.167-.024-.332-.034-.498a11.286 11.286 0 0 0-4.972-.588c-2.81.291-5.326 1.57-7.087 3.608-1.252 1.44-2.012 3.142-2.239 4.935-.046.248-.052.427-.082.753-.05.61-.033 1.768.043 2.399.642 5.281 5.802 9.082 11.53 8.491a11.129 11.129 0 0 0 3.415-.91c.832.558 1.833 1.147 2.923 1.59 2.695 1.107 6.002 1.225 6.738 1.31 1.543.186 2.924 2.005 3.355 2.368.422.359 3.312-.211 3.312-.211s-.208-.547-.329-1.246c-.12-.698-.947-1.013-1.108-1.193-.163-.179-3.88-1.744-4.476-2.091-.59-.344-1.34-1.065-2.118-2.285-.766-1.224-.441-2.137-.314-2.367.137-.227.436-.276.61-.578.182-.306.037-.33.02-.485-.016-.156.049-.27.207-.537.16-.264.094-.241.094-.241l.034-.331c.033-.331 0 0 .068-.113l.065-.116s-.017-.158.052-.271c.065-.112-.08-.231-.052-.367.029-.135.065-.115.12-.38.048-.271.023-.138.032-.427.016-.289.09-.155.249-.32.147-.17-.158-.378-.158-.378s.02-.13.274-.642c.25-.517 0 0 .07-.209.073-.213-.088-.393-.121-.6-.034-.221.029-.142.076-.409.047-.27 0 0 .092-.248.09-.247.053-.366.053-.366l-.17-.527.09-.15c.091-.154-.003-.448-.003-.448l-.232-.606s.01-.288.038-.424c.026-.137-.205-.742-.205-.742l.148-.613-.215-.892-.143-.758s-.024-1.145-.025-1.588c-.01-.442-.01-.982.077-1.582.081-.598 1.95-1.328 2.153-1.676.196-.339-1.134.027-1.134.027s2.348-.643 2.508-.914c.12-.203-1.535.097-1.535.097-.147.026 0 0 0 0 .64-.133 2.331-.518 2.909-.976.65-.536-1.139-.124-1.426-.052.293-.074 2.26-.567 2.532-1.115.158-.315-1.472-.087-1.472-.087.815-.194 1.786-.46 2.38-.738 1.172-.542 1.24-.953 1.004-1.068-.237-.115-2.17.489-2.17.489l-.102.033.101-.033c.559-.2 1.176-.443 1.532-.664.747-.459 1.667-1.03 1.347-1.388z" fill="#004772" mask="url(#b)"/><path d="M4.18 12.354l1.89-2.477-2.304 2.12-1.053-3.573.184 3.632-1.932-1.181 1.764 1.688-2.46.627 2.493-.115L.7 15.733l2.452-2.253 1.014 3.304-.177-3.296 1.857 1.115-1.79-1.712 2.465-.649-2.34.11zM28.51.149c-.182-.194-1.38.366-1.38.366s-7.298 3.24-10.516 4.85c-.692.346-1.55.891-1.556 1.934-.015 3.351.699 8.285 1.06 10.883.36 2.598.606 3.676.595 3.762.012-.091.145-.322.241-.776.285-1.357.396-4.203.396-4.203s.44-4.178.872-6.985c.295-1.869.547-3.378.95-3.98.26-.383 6.151-2.718 7.179-3.16 1.255-.54 1.395-.682 1.42-1.068.027-.387-1.313.042-1.313.042s1.155-.575 1.574-.849c.425-.27.66-.622.478-.816z" fill="#00A3DB" mask="url(#b)"/></g></g></svg>