<svg width="150" height="20" viewBox="0 0 150 20" xmlns="http://www.w3.org/2000/svg"><title>tatfondbank</title><g fill="#FEFEFE" fill-rule="evenodd"><path d="M0 0h22.63v15.491H0V0zm.387 15.094h21.855V.398H.387v14.696zM35.29 5.983h-.38V5.5c0-.752-.03-1.392-.09-1.922-.06-.529-.21-.978-.449-1.346-.239-.368-.52-.614-.84-.736-.322-.123-.946-.184-1.873-.184V14.06c0 .43.064.743.19.943.128.2.528.3 1.2.3h.494v.39h-4.327v-.39h1.255V1.312c-.896 0-1.513.061-1.849.184-.337.122-.617.36-.84.713-.225.353-.375.825-.45 1.415-.074.591-.112 1.216-.112 1.876v.483h-.38V.207h.38V.92h7.69V.207h.381v5.776zm3.259.092L37.028 12.5c-.094.414-.164.74-.21.978-.048.234-.07.49-.07.767 0 .398.134.674.403.828.164.092.478.169.942.23h.605v.392h-3.856v-.391h.919L39.236.138h.404l3.833 12.518c.105.353.22.713.348 1.082.127.368.258.67.392.908s.284.4.448.483c.165.085.382.143.65.174v.39H41.77v-.39h1.368l-2.802-9.228h-1.786zm.844-3.383l-.684 2.877H40.2l-.807-2.877zm13.474 3.291h-.381V5.5c0-.752-.03-1.392-.09-1.922-.06-.529-.21-.978-.448-1.346-.24-.368-.52-.614-.841-.736-.321-.123-.946-.184-1.872-.184V14.06c0 .43.064.743.19.943.128.2.527.3 1.2.3h.493v.39h-4.327v-.39h1.256V1.312c-.897 0-1.514.061-1.85.184-.336.122-.616.36-.84.713-.225.353-.374.825-.449 1.415-.075.591-.112 1.216-.112 1.876v.483h-.38V.207h.38V.92h7.69V.207h.38v5.776zm7.354 8.192c-2.228 0-3.961-.422-5.202-1.266-1.45-.982-2.175-2.485-2.175-4.51 0-1.994.74-3.513 2.22-4.556 1.3-.92 3.019-1.38 5.157-1.38v-.138c0-.446-.105-.726-.314-.84-.21-.116-.583-.173-1.122-.173V.92h3.879v.392h-1.233l-.023 1.15c2.235 0 3.965.407 5.186 1.216 1.462.967 2.19 2.481 2.19 4.548 0 2.006-.732 3.529-2.197 4.572-1.3.917-3.034 1.377-5.201 1.377l.022.115c0 .445.105.725.314.84.21.115.584.173 1.121.173v.39h-3.878v-.39h1.256v-1.128zM61.408 2.99v10.632c1.899 0 3.378-.392 4.44-1.178 1.165-.859 1.748-2.167 1.748-3.92 0-1.798-.568-3.171-1.704-4.115-1.135-.947-2.63-1.419-4.484-1.419zm-1.187 10.632V2.99c-1.884 0-3.356.392-4.417 1.178-1.18.874-1.771 2.174-1.771 3.896 0 1.784.582 3.168 1.748 4.15 1.106.94 2.586 1.408 4.44 1.408zM77.976.483c2.137 0 3.972.733 5.504 2.198 1.532 1.465 2.298 3.31 2.298 5.534 0 2.224-.811 4.1-2.433 5.626-1.621 1.527-3.523 2.29-5.705 2.29-2.153 0-3.99-.737-5.515-2.21-1.525-1.472-2.287-3.313-2.287-5.522 0-2.225.81-4.1 2.433-5.627C73.89 1.246 75.794.483 77.976.483zm-6.95 7.571c0 2.04.662 3.805 1.984 5.292 1.323 1.488 2.97 2.232 4.944 2.232 1.853 0 3.422-.698 4.708-2.094 1.285-1.396 1.928-3.045 1.928-4.947 0-2.01-.673-3.75-2.018-5.223-1.39-1.52-3.064-2.279-5.022-2.279-1.838 0-3.385.691-4.64 2.072-1.256 1.38-1.884 3.03-1.884 4.947zM89.186 5.5v8.79c0 .445.104.725.314.84.209.115.582.173 1.12.173v.39h-3.878v-.39h1.255V2.325c0-.446-.104-.726-.314-.84-.209-.116-.582-.173-1.12-.173V.92h3.878v.392h-1.255v3.681h4.596V2.325c0-.446-.105-.726-.314-.84-.21-.116-.583-.173-1.12-.173V.92h3.877v.392H94.97V14.29c0 .445.105.725.315.84.209.115.583.173 1.12.173v.39h-3.878v-.39h1.256V5.5h-4.596zm7.51 9.803h.986L101.157.138h.404l3.833 12.518c.105.357.221.721.348 1.09.127.371.265.69.415.954.194.403.575.603 1.143.603v4.579h-.38c0-.752-.03-1.393-.09-1.922-.06-.53-.21-.978-.449-1.346-.24-.368-.52-.614-.84-.737-.322-.122-.946-.183-1.873-.183h-3.34c-.897 0-1.514.06-1.85.183-.336.123-.617.361-.84.714-.224.353-.374.824-.449 1.415a14.96 14.96 0 0 0-.112 1.876h-.381v-4.58zm2.555-.116H105l-3.685-12.495-2.361 9.807c-.097.414-.168.74-.213.978-.048.234-.071.49-.071.767 0 .245.048.437.145.575.098.138.244.26.437.368zM110.53 1.312c-.449 0-.673.046-.673.138v3.52h1.95c1.704 0 3.139.46 4.305 1.38 1.285 1.013 1.928 2.348 1.928 4.005 0 1.626-.523 2.922-1.57 3.889-1.046.966-2.376 1.45-3.99 1.45h-5.112v-.391h1.3V3.014c0-.49-.01-.824-.033-1a.942.942 0 0 0-.168-.45c-.135-.168-.546-.252-1.233-.252V.92h6.838V0h.38v4.993h-.38v-.598c0-.644-.023-1.081-.067-1.311-.09-.492-.292-.863-.606-1.117-.314-.253-.729-.425-1.244-.517a9.266 9.266 0 0 0-1.625-.138zm-.673 13.737c.344.108.71.188 1.098.242.389.053.792.08 1.211.08 1.345 0 2.463-.502 3.352-1.507.889-1.004 1.334-2.205 1.334-3.601 0-1.78-.748-3.114-2.242-4.004-.404-.246-.897-.437-1.48-.575a8.604 8.604 0 0 0-1.973-.207h-1.3v9.572zm11.71-8.974l-1.52 6.424c-.094.414-.165.74-.21.978-.049.234-.07.49-.07.767 0 .398.134.674.403.828.164.092.478.169.942.23h.604v.392h-3.855v-.391h.919L122.254.138h.403l3.834 12.518c.105.353.22.713.347 1.082.128.368.258.67.393.908.134.238.284.4.448.483.165.085.381.143.65.174v.39h-3.542v-.39h1.367l-2.801-9.228h-1.787zm.845-3.383l-.684 2.877h1.49l-.806-2.877zm8.496 2.808v8.79c0 .445.105.725.314.84.21.115.583.173 1.121.173v.39h-3.878v-.39h1.255V2.325c0-.446-.105-.726-.314-.84-.209-.116-.583-.173-1.12-.173V.92h3.878v.392h-1.256v3.681h4.596V2.325c0-.446-.104-.726-.314-.84-.209-.116-.582-.173-1.12-.173V.92h3.878v.392h-1.256V14.29c0 .445.105.725.315.84.208.115.582.173 1.12.173v.39h-3.878v-.39h1.255V5.5h-4.596zM142.97.92v.392h-1.3v5.902l3.07-4.36c.165-.23.292-.423.382-.576.194-.307.291-.521.291-.644 0-.153-.07-.246-.213-.276a3.06 3.06 0 0 0-.616-.046h-.314V.92h3.878v.392h-1.434l-3.744 5.131 3.953 6.9c.478.843.893 1.392 1.252 1.637.164.123.37.207.616.253.247.046.538.07.882.07v.39h-4.26v-.39h1.233l-4.26-8.054-.717 1.081v5.96c0 .445.105.725.314.84.21.115.583.173 1.12.173v.39h-3.877v-.39h1.255V2.325c0-.446-.104-.726-.314-.84-.209-.116-.583-.173-1.12-.173V.92h3.923z"/><path d="M11.091 3.952c.24 0 .479.004.714.012l.628-.714-1.739.705c.132-.002.264-.003.397-.003zm2.733.175c2.81.37 4.945 1.296 5.487 2.428a.97.97 0 0 1 .022.05l.006.01c.072.165.11.335.11.507 0 .186-.045.367-.127.544-.684 1.488-4.118 2.626-8.23 2.626h-.23c-.78 0-1.533-.038-2.251-.11l-3.644 4.233-.053.061V9.408C3.288 8.83 2.275 8.02 2.275 7.122c0-.898 1.013-1.709 2.639-2.286v-1.56h-1.57c-.76-.043-1.384.399-1.873 1.326V1.535h8.126v2.451c.195-.01.39-.018.589-.024l2.045-2.453h9.418L19.42 4.862c-.02-1.231-.742-1.56-2.102-1.56h-2.785l-.71.825zM6.407 9.833v.264l.196-.222-.196-.042zm.942-.806l3.755-4.267-.165-.001c-.223 0-.443 0-.66.003-1.516.054-2.873.318-3.872.716v3.289c.276.11.58.21.908.297l.034-.037zm5.792-4.107L9.287 9.396c.526.058 1.08.09 1.652.09 3.347 0 6.076-1.062 6.076-2.364 0-1-1.61-1.858-3.874-2.202zM9.36 4c-.444-.482-1.064-.698-1.838-.698H6.407v1.11c.891-.2 1.887-.342 2.952-.411zm-3.133.454V3.116h1.295c.708 0 1.383.173 1.895.678V1.722H4.374a.303.303 0 0 0-.005.035c-.026 0-.12.058-.12.088-.003 0-.01.004-.01.004v.004c-.064.046-.127.111-.213.13l.003.2c-.07 0-.141.019-.212.026.03.173.037.391.037.567l-.004.004c-.115.088-.306.026-.429.107a.185.185 0 0 0-.074.08c-.016.046-.015.081-.023.122l.023.001h1.748v1.684c.352-.118.73-.225 1.131-.32zm9.02-1.338h2.073c1.078 0 1.994.192 2.226 1.227l1.76-2.647h-4.948v.012c-.029 0-.128.061-.128.094-.004 0-.012.004-.012.004v.004c-.067.049-.134.118-.225.138l.004.212c-.076 0-.151.02-.227.029.032.183.04.414.04.602l-.004.004c-.123.093-.325.028-.456.114a.197.197 0 0 0-.08.085c-.014.046-.015.081-.022.122zM5.097 7.98V6.266c.266-.263.651-.504 1.13-.712v3.137c-.479-.208-.864-.448-1.13-.711zm-.182-.209a1.085 1.085 0 0 1-.235-.649c0-.225.082-.443.235-.65v1.3zm.181 6.095l1.131-3.285v-.79a12.906 12.906 0 0 1-1.13-.32v4.395z"/></g></svg>