<svg width="125" height="35" viewBox="0 0 125 35" xmlns="http://www.w3.org/2000/svg"><title>tinkoff</title><g fill="none" fill-rule="evenodd"><path d="M15.445 5.36l-.016.003.014-.018.002.014zM37.576 16.4l.493-1.588-1.632.052c-.137 0-1.14-.03-2.111-.738.072.006.144.017.22.017 1 0 1.969-.607 2.356-1.474l.702-1.567c-.88.011-1.685-.1-1.685-.1-.007-.001-.641-.084-1.374-.838-.526-.54-1.177-.827-1.882-.827-.309 0-.585.057-.822.132.037-.127.072-.255.093-.388.223-1.467-.714-2.585-.714-2.584l-1.228-1.53-.76 1.797c-.003.006-.195.427-.538.632-.104-.528-.359-1.122-.903-1.69-1.027-1.069-2.276-1.229-2.93-1.229-.303 0-.52.034-.572.042l-1.481.293c.086-.332.268-.913.6-1.435l.818-1.281-2.057.235-.655-1.4-1.269.658L19.072.423l-1.17 1.166-1.271-.658-.654 1.4-2.056-.236.819 1.282c.333.522.514 1.101.599 1.433l-1.414-.28-.048-.008a3.68 3.68 0 0 0-.59-.045c-.654 0-1.903.16-2.928 1.23-.545.567-.8 1.161-.905 1.69-.34-.204-.532-.619-.532-.619L8.16 4.971 6.914 6.51c-.153.198-.904 1.25-.7 2.572.021.132.056.26.092.387a2.667 2.667 0 0 0-.82-.132c-.705 0-1.356.287-1.883.827-.731.75-1.361.836-1.356.836 0 0-.668.121-1.7.102l.698 1.567c.389.867 1.358 1.474 2.357 1.474.075 0 .147-.011.22-.017-.97.709-1.971.738-2.092.739l-1.661-.053.503 1.588c.254.82 1.1 2.175 2.72 2.321-.176.744-.567 1.578-1.425 1.936l-1.238.513.675 1.184c.38.638 1.275 1.384 2.548 1.384.276 0 .542-.029.798-.084.066.292.147.584.244.874.379 1.136.052 1.928.05 1.937l-.612 1.288 1.364.362a3.8 3.8 0 0 0 .945.12c.234 0 .458-.025.667-.076a3.06 3.06 0 0 0 .458-.146c.177.319.391.61.641.87.874.903 2.113 1.36 3.682 1.36h.005l1.12-.014-2.314.968 1.757.855c.639.313 1.395.683 2.166.967l-.22.604.606.278c.054.024 1.22.548 3.155.66 0 0 .467.022.724.022.257 0 .72-.023.72-.023 1.922-.115 3.078-.635 3.132-.66l.607-.278-.221-.605c.792-.292 1.577-.677 2.189-.978l1.725-.843-2.307-.967 1.125.014c1.57 0 2.81-.458 3.683-1.361.249-.259.462-.549.64-.87a2.884 2.884 0 0 0 1.126.222c.507 0 .924-.112.935-.116l1.37-.365-.597-1.265c-.014-.032-.34-.824.038-1.961a9.37 9.37 0 0 0 .244-.873c.257.055.526.083.803.084 1.622 0 2.4-1.148 2.55-1.398l.669-1.17-1.238-.512c-.86-.36-1.25-1.193-1.424-1.936 1.599-.14 2.456-1.497 2.72-2.321z" fill="#FFF"/><path d="M19.072 5.288c-1.31.002-2.293.434-2.507.942l2.507.997 2.508-.997c-.212-.508-1.195-.94-2.508-.942M19.099 31.65h-.05c-.795.006-1.89-.158-2.415-.312L16 33.064c.417.15 1.834.437 3.075.437 1.238 0 2.655-.287 3.073-.437l-.633-1.726c-.53.154-1.622.318-2.416.313M23.896 29.933c-.472.269-1.525.673-2.138.86l.515 1.426c.947-.26 1.73-.565 2.376-.891l-1.068-.357.315-1.038M14.25 29.933l.317 1.038-1.069.357c.645.326 1.431.63 2.376.89l.515-1.425c-.612-.187-1.667-.591-2.138-.86M19.072 3.638c.989 0 1.957.238 2.702.655a6.78 6.78 0 0 1 .293-.801l-.282.034-.295.031-.125-.27-.378-.802-.686.36-.268.137-.214-.212-.747-.743-.745.743-.213.212-.267-.137-.691-.36-.372.801-.128.271-.295-.031-.28-.034c.129.293.223.572.292.801.748-.417 1.716-.655 2.7-.655M34.157 12.898c.129.044.259.064.388.064.56 0 1.1-.364 1.285-.78 0 0-1.024-.062-2.127-1.188-.35-.365-.722-.474-1.04-.474-.495 0-.866.262-.866.262 1.33.714 1.602 1.858 2.36 2.116M3.602 12.962c.129 0 .26-.02.385-.064.76-.258 1.034-1.402 2.363-2.115 0 0-.372-.263-.864-.263-.32 0-.691.11-1.044.474-1.1 1.126-2.124 1.189-2.124 1.189.183.415.725.78 1.284.78" fill="#FFF"/><path d="M33.756 21.114c-1.03-.51-1.68-1.867-1.838-2.356-.17 2.69-1.475 4.557-3 6.354-.792.932-1.068 1.838-1.068 1.838s.153-1.027.837-1.862c1.423-1.72 2.775-3.863 2.876-6.34.069-1.729-.372-3.13-1.062-4.285.386 1.203.331 2.676-.978 4.052 0 0 2.607-3.143-1.037-6.366-1.458-1.226-3.054-1.983-3.875-2.52 2.967.975 4.417-.098 4.417-.098-.948.827-2.175.812-2.936.693.207.101.422.207.652.332 2.503 1.368 4.751 3.619 5.135 6.736v-.024c.582 3.06 1.877 3.846 1.877 3.846m.762-3.566c.023.002.043.002.066.002 1.395 0 1.868-1.504 1.868-1.504h-.028c-.256 0-2.33-.06-3.795-1.936-.965-1.233-1.756-2.317-3.317-2.744l-.155-.027-.033-.157c-.043-.24.12-.466.492-.708 2.155-1.42.69-3.233.69-3.233s-.614 1.449-1.991 1.449l-.103-.002c-.156-.008-.307-.014-.459-.046l-.253-.05s.392-1.075-.555-2.062c-.714-.745-1.583-.871-2.084-.871-.253 0-.413.032-.413.032.476.627.82 1.666.27 2.307-.475.551-1.635.578-1.635 1.4 0 .348.323.753.903 1.118 1.744 1.105 3.475 2.573 4.196 4.538.899 2.452-.115 4.08-1.561 5.013 0 0 .454.42 1.111.474.135.013.265.02.387.02 1.389 0 2.108-.656 2.108-.656s-.12.905-.842 1.746c-.667.776-1.541 1.234-2.877 1.253 0 0-.042.624.549 1.164.379.34 1.252.45 1.252.45s-1.636.335-1.817 2.767c-.098 1.318-.432 1.775-.432 1.775h.029c3.796 0 3.7-3.277 3.7-3.277s.263.97 1.322 1.224c.128.033.265.047.395.047.34 0 .637-.081.637-.081s-.555-1.178-.004-2.824c.456-1.367.383-2.38.383-2.38s.51.779 1.78.786h.012c1.056 0 1.516-.806 1.516-.806-2.531-1.058-2.281-4.47-2.281-4.47s.328.246.969.27M9.228 25.112c-1.525-1.797-2.829-3.664-3.001-6.354-.157.489-.806 1.845-1.835 2.356 0 0 1.294-.785 1.875-3.846v.024c.385-3.117 2.633-5.368 5.136-6.735.229-.126.446-.232.651-.332-.76.118-1.988.133-2.935-.694 0 0 1.45 1.073 4.416.098-.82.537-2.416 1.294-3.873 2.52-3.645 3.223-1.038 6.366-1.038 6.366-1.311-1.376-1.364-2.849-.978-4.052-.69 1.155-1.132 2.556-1.06 4.286.099 2.476 1.45 4.618 2.87 6.34.688.834.843 1.86.843 1.86s-.28-.905-1.07-1.837m.61-.593s.873-.11 1.252-.451c.59-.54.549-1.164.549-1.164-1.336-.019-2.21-.477-2.882-1.252-.718-.842-.837-1.747-.837-1.747s.718.655 2.105.655c.125 0 .255-.006.388-.019.659-.054 1.114-.474 1.114-.474-1.448-.933-2.462-2.56-1.563-5.013.72-1.965 2.45-3.433 4.196-4.538.58-.365.902-.77.902-1.118 0-.822-1.16-.849-1.634-1.4-.55-.64-.205-1.68.27-2.307 0 0-.159-.032-.413-.032-.5 0-1.369.126-2.083.871-.95.987-.555 2.062-.555 2.062l-.254.05c-.152.032-.304.038-.46.047h-.1c-1.381 0-1.993-1.447-1.993-1.447s-1.463 1.811.691 3.232c.371.242.534.468.491.708l-.033.157-.157.027c-1.559.427-2.35 1.511-3.317 2.744-1.464 1.875-3.536 1.936-3.794 1.936h-.028s.473 1.504 1.869 1.504c.022 0 .042 0 .066-.002.641-.023.97-.27.97-.27s.248 3.413-2.282 4.47c0 0 .461.807 1.517.807h.012c1.27-.007 1.78-.786 1.78-.786s-.074 1.013.381 2.38c.55 1.647-.002 2.824-.002 2.824s.295.08.636.08c.132 0 .267-.013.394-.046 1.059-.253 1.323-1.224 1.323-1.224s-.097 3.277 3.7 3.277h.028s-.333-.457-.43-1.775c-.18-2.432-1.818-2.766-1.818-2.766M18.216 12.443h1.79v.618c-.21-.26-.62-.207-.62-.207v.891s.015.439.168.628h-.886c.155-.19.168-.628.168-.628v-.891s-.408-.053-.62.207v-.618zm-1.95.092c.062.067.123.14.182.214.014.017.027.032.041.052.055.073.11.15.163.23.012.015.023.034.035.052.064.097.124.197.184.3.548.951 1.424 1.52 2.201 1.521.779-.001 1.654-.57 2.203-1.521.061-.106.123-.208.186-.304.01-.014.02-.028.028-.042a4.35 4.35 0 0 1 .206-.285c.061-.077.124-.15.188-.22l.031-.03c.28-.287.611-.506 1.047-.627l-.194-.114h-.01l-.772-.45-.791-.457-2.116 1.16-.006-.005-.003.005-2.116-1.16-.792.457-.772.45h-.009l-.195.114c.435.121.767.338 1.047.626.012.01.02.023.034.034z" fill="#FFF"/><path d="M18.398 8.514v.582l-.11-.051c-.006-.005-.169-.041-.452-.268-.469-.366-.478-.703-.478-.703l1.04.44zm.492 2.73v-3.62l-2.289-.78.603 3.506 1.686.894zM19.749 8.514l1.04-.44s-.008.337-.479.703c-.283.227-.446.263-.451.268l-.11.05v-.581zm1.193 1.836l.601-3.507-2.287.782v3.619l1.686-.894zM15.653 19.632c.222.082.493.099.632.099l.019-.065c.012-.04.024-.082.032-.127.04-.2.053-.427.056-.574a.804.804 0 0 1-.3-.319c-.085-.18-.207-.264-.383-.264-.23 0-.477.14-.584.205-.084.5.282.954.528 1.045M20.715 17.713c-.425.465-1.257 1.275-1.297 1.315l-.05.051-2.63-.041a2.749 2.749 0 0 1-.084.648l-.021.084 3.126.566c.326-.229 1.22-.887 1.569-1.145-.253-.372-.277-.813-.22-1.123a1.568 1.568 0 0 1-.393-.355" fill="#FFF"/><path d="M21.071 14.53c-.605.605-1.186.83-1.705.88-.095.01-.19.017-.286.017h-.013a2.713 2.713 0 0 1-.568-.06c-.034.136-.077.42.046.69.11.244.333.425.659.547l.11.043.001.118c0 .035.027.805.86 1.02.136-.142.26-.27.35-.376-.17-.404-.08-.816.167-1.017-.01.042-.12 1.053.685 1.428l.133.064-.04.141c-.013.043-.281 1.021.694 1.385l.172.066-.076.168c-.018.037-.4.924.5 1.428h1.951v-1.559c-.693-.085-.987-.647-1.063-1.044-.323-.056-.572-.196-.743-.424-.41-.543-.058-1.04-.053-1.067 0 .005 0 .533.324.86.161.157.351.28.64.307l.141.013.012.146c.003.03.08.747.742.86v-3.186c0-.493.142-.99.314-1.448H21.07M15.82 15.99l-.054 2.028.23.035.56-1.946-.284-.599-.452.482M17.033 23.499a.113.113 0 0 1-.11-.124.114.114 0 0 1 .124-.107c.065.003.111.06.11.123a.117.117 0 0 1-.124.108m4.962 1.795c.017 0 .036.002.055.007.349.1.437 1.365 1.048 1.477.06.013.115.017.164.017.177 0 .282-.076.396-.211 0 0-.308-.486-.538-.815-.306-.43-.542-.948-1.112-.948-.013 0-.03 0-.044.002-.187.009-.302.101-.302.101a1.17 1.17 0 0 0-.64-.195c-.356 0-.633.165-.772.165h-.005l-1.27-.127c-.2-.02-.357-.22-.413-.3l-.022-.033c0-.035 0-.07-.002-.102-.043-1.046-.847-1.494-1.134-1.5 0 0 .034-.2-.043-.275l-.28.342-.92-.464.656.77-.555.629c-.07.071-.061.167-.032.209l.24.213.304-.186c.015-.011.043-.015.077-.015.084 0 .21.022.323.022.125 0 .232-.026.245-.144-.038.388-.396 1.062-.161 1.591l.174.4-1.124-.163-.526.894c-.162.297-.187.619-.031.794l.196.248s.277-.294.338-.488l-.089-.1c-.075-.082-.071-.157-.025-.246l.33-.55 1.325.314.07-.12c.09-.151.22-.196.362-.196.059 0 .118.008.18.018.247.048.652.114 1.057.114.444 0 .886-.08 1.121-.345.48.716 1.454.83 1.377 1.194l-.257 1.228c.17-.007.334-.018.489-.04l.244-1.277c.026-.14.052-.326.052-.326-.094-.096-.321-.299-.45-.545-.171-.332-.078-.506-.238-.938 0 0 .05-.1.162-.1" fill="#FFF"/><path d="M15.222 26.456s.44-.182.48-.312l-.06-.148c-.041-.096-.036-.2.045-.256l.474-.33.792.153s-.143-.181-.129-.423l-.756-.16-.714.437a.7.7 0 0 0-.227.83l.095.209M20.829 28.536c.141-.005.299-.008.47-.008 0 0 .408-1.2.431-1.238a9.974 9.974 0 0 1-.886-.471c.121.182.415.39.357.55l-.372 1.167" fill="#FFF"/><path d="M24.711 21.416H13.436v4.269c0 1.746 1.255 2.839 3.108 2.839 1.547 0 1.955.06 2.53.635.397-.398.725-.546 1.4-.602l.015-.066.355-1.106-.6-.689c-.23.077-.424.09-.75.09-.333 0-.71-.04-1.119-.116a.516.516 0 0 0-.117-.014c-.05 0-.054.004-.067.03l-.07.116-.13.215-.243-.057-1.082-.256-.149.246.022.027.132.146-.058.19c-.08.249-.338.54-.417.62l-.27.292-.247-.314-.185-.234c-.195-.219-.24-.554-.13-.906a.02.02 0 0 1-.011.004l-.305.128-.137-.3-.097-.213a1.042 1.042 0 0 1 .343-1.253l.87-.496.83.165c.02-.08.049-.367.073-.44-.016-.002-.031-.006-.047-.006l-.478.18-.46-.32s-.18-.175-.017-.35l.445-.68-1.13-1.427 1.737.718.116-.144.234-.283.266.255a.51.51 0 0 1 .14.253c.478.188 1.336.74 1.412 1.641l-.268.108v.006c.061.074.112.104.128.107l1.24.122c.032-.005.07-.019.114-.032.155-.053.386-.13.66-.13.224 0 .44.052.648.15.076-.03.17-.05.279-.058l.06-.001c.663 0 .993.499 1.258.898.044.069.088.133.134.198.232.329.535.81.547.831l.137.215-.168.196c-.128.15-.323.327-.655.327-.068 0-.144-.008-.224-.024a.942.942 0 0 1-.198-.06c-.009.066-.023.144-.035.212l-.217 1.142c1.3-.322 2.126-1.31 2.126-2.725l-.003-4.269M13.436 21.072h8.77c-.438-.455-.432-1.032-.32-1.406a1.447 1.447 0 0 1-.327-.217c-.343.255-1.389 1.021-1.662 1.213l-.06.04-3.44-.626h-.07a2.83 2.83 0 0 1-.336-.02.335.335 0 0 1-.38.259.33.33 0 0 1-.22-.138.338.338 0 0 1-.06-.254l.013-.075c-.355-.251-.683-.814-.538-1.406l.014-.063.05-.036c.008-.005.067-.047.156-.097l-.25-.039a.174.174 0 0 1-.142-.197c.016-.094.104-.161.196-.143l.596.094.055-2.111.886-.944.554 1.172-.585 2.032.527.083a.173.173 0 0 1 .142.198.169.169 0 0 1-.169.142h-.027l-.428-.07c.006.013.014.02.02.034a.47.47 0 0 0 .205.192l2.624.042c.111-.109.387-.38.67-.667a1.424 1.424 0 0 1-.92-1.179c-.36-.155-.61-.386-.748-.688-.168-.373-.108-.747-.063-.928-.35-.129-.718-.363-1.094-.739h-3.952c.17.459.313.955.313 1.448v5.094" fill="#FFE52B"/><path fill="#1A1918" d="M17.047 23.268a.114.114 0 0 0-.123.108.113.113 0 0 0 .109.123.117.117 0 0 0 .123-.108.117.117 0 0 0-.11-.123M22.273 32.22l-.515-1.427c.613-.187 1.666-.591 2.139-.86l-.315 1.038 1.066.357c-.645.326-1.427.63-2.375.891m-3.198 1.282c-1.24 0-2.658-.287-3.075-.437l.634-1.727c.526.155 1.62.32 2.414.314h.05c.795.005 1.888-.159 2.417-.314l.633 1.727c-.418.15-1.835.437-3.073.437M13.5 31.328l1.068-.357-.316-1.037c.471.268 1.527.672 2.138.86l-.515 1.425a12.91 12.91 0 0 1-2.375-.891m11.197-.317l-.649-.25.18-.677.197-.736s-1.151.629-2.773 1.1c-.46.133-.808.194-.808.194v.501s-.868.152-1.744.152h-.05c-.878 0-1.744-.152-1.744-.152v-.501s-.35-.061-.809-.193c-1.621-.472-2.77-1.1-2.77-1.1l.193.735.183.676-.651.25-.723.272c.828.403 1.976.989 3.026 1.278l-.247.682s1.332.61 3.551.616v.002h.03v-.002c2.222-.005 3.553-.616 3.553-.616l-.249-.682c1.051-.29 2.201-.875 3.026-1.278l-.722-.271M16.361 3.526l.295.031.128-.27.372-.802.69.36.268.138.958-.957.747.744.214.213.268-.138.686-.36.378.801.125.271.295-.031.282-.034c-.129.293-.224.571-.293.802-.745-.418-1.713-.656-2.702-.656-.983 0-1.95.238-2.699.656a6.894 6.894 0 0 0-.293-.802l.281.034zm2.711.53c1.323 0 2.38.44 2.965.91 0 0 .174-1.052.766-1.98l-1.065.122-.557-1.191-1.07.555-1.039-1.032-1.035 1.032-1.072-.555-.557 1.191-1.064-.122c.593.928.765 1.98.765 1.98.589-.47 1.643-.91 2.963-.91zM35.83 21.749s-.46.806-1.516.806H34.3c-1.268-.007-1.78-.786-1.78-.786s.074 1.013-.382 2.38c-.55 1.647.004 2.824.004 2.824s-.296.08-.637.08c-.13 0-.266-.013-.395-.046-1.059-.253-1.323-1.224-1.323-1.224s.097 3.277-3.7 3.277h-.029s.335-.457.433-1.775c.18-2.432 1.817-2.766 1.817-2.766s-.873-.11-1.252-.451c-.591-.54-.55-1.164-.55-1.164 1.336-.019 2.212-.477 2.878-1.253.723-.84.842-1.746.842-1.746s-.719.655-2.108.655c-.122 0-.252-.006-.386-.019a2.036 2.036 0 0 1-1.112-.474c1.446-.933 2.46-2.561 1.56-5.013-.72-1.965-2.451-3.433-4.195-4.538-.58-.365-.903-.77-.903-1.119 0-.821 1.16-.848 1.636-1.399.549-.64.204-1.68-.271-2.307 0 0 .16-.032.413-.032.501 0 1.37.126 2.084.871.947.987.555 2.062.555 2.062l.253.05c.152.032.303.038.46.046l.102.002c1.377 0 1.992-1.449 1.992-1.449s1.464 1.812-.691 3.233c-.371.242-.535.468-.492.708l.034.157.153.027c1.562.427 2.353 1.512 3.318 2.744 1.466 1.876 3.54 1.936 3.795 1.936h.028s-.473 1.504-1.868 1.504c-.023 0-.043 0-.066-.002-.64-.023-.97-.27-.97-.27s-.25 3.413 2.282 4.47m-1.246-3.738c1.71 0 2.282-1.75 2.306-1.826l.19-.617-.64.02h-.002c-.227 0-2.113-.05-3.45-1.761l-.127-.159c-.874-1.118-1.703-2.182-3.185-2.668.043-.039.105-.086.189-.141.786-.52 1.244-1.153 1.358-1.887.168-1.104-.532-1.985-.562-2.02l-.476-.593-.298.703c-.02.044-.52 1.169-1.572 1.169h-.079c-.072-.004-.14-.007-.208-.013.037-.501-.054-1.278-.754-2.007C26.432 5.333 25.4 5.2 24.861 5.2c-.289 0-.48.036-.502.038l-.718.144.443.588c.348.454.664 1.291.29 1.728-.12.14-.366.252-.601.366-.484.223-1.146.537-1.146 1.332 0 .515.397 1.053 1.116 1.511 2.13 1.348 3.443 2.754 4.01 4.306.878 2.388-.268 3.75-1.38 4.467l-.498.323.437.404c.058.052.592.525 1.381.593.15.01.292.018.426.018.506 0 .936-.08 1.287-.187-.096.17-.216.343-.364.517-.636.741-1.417 1.078-2.542 1.097l-.418.006-.032.422c-.004.086-.035.868.7 1.533.113.103.249.188.391.257-.499.452-1.005 1.24-1.103 2.588-.084 1.125-.35 1.542-.353 1.546l-.462.71.835.011c1.379 0 2.434-.382 3.166-1.142.432-.448.68-.955.826-1.404a2.238 2.238 0 0 0 1.456.538c.39 0 .716-.083.752-.092l.533-.143-.236-.5c-.017-.04-.461-1.045.017-2.478.206-.62.311-1.175.362-1.607a2.92 2.92 0 0 0 1.366.323c1.32 0 1.901-.992 1.927-1.034l.26-.455-.482-.2c-1.572-.657-1.92-2.42-1.99-3.376.142.028.305.053.488.058l.081.003"/><path d="M32.663 10.52c.318 0 .69.11 1.04.474 1.102 1.126 2.127 1.189 2.127 1.189-.186.415-.726.78-1.285.78-.13 0-.259-.02-.388-.065-.758-.258-1.03-1.402-2.36-2.115 0 0 .37-.263.866-.263m-1.084.67c.638.342 1.01.8 1.335 1.206.321.397.624.778 1.1.937.169.058.348.086.531.086.713 0 1.43-.44 1.702-1.048l.273-.61-.661-.04c-.031 0-.882-.078-1.828-1.051-.39-.4-.861-.61-1.368-.61-.62 0-1.08.312-1.13.344l-.608.431.654.355M31.879 17.268v.024c-.384-3.117-2.632-5.368-5.135-6.736-.23-.125-.445-.23-.652-.332.761.12 1.988.134 2.936-.693 0 0-1.45 1.073-4.417.098.82.537 2.417 1.294 3.875 2.52 3.644 3.223 1.037 6.366 1.037 6.366 1.31-1.376 1.364-2.85.978-4.052.69 1.155 1.13 2.556 1.062 4.286-.1 2.476-1.453 4.618-2.876 6.339-.684.835-.836 1.862-.836 1.862s.275-.906 1.067-1.838c1.525-1.797 2.83-3.664 3-6.354.158.489.808 1.845 1.838 2.356 0 0-1.295-.785-1.877-3.846M12.058 29.06c-3.797 0-3.7-3.277-3.7-3.277s-.264.97-1.323 1.224a1.554 1.554 0 0 1-.394.047c-.34 0-.636-.081-.636-.081s.552-1.177.002-2.824c-.455-1.367-.381-2.38-.381-2.38s-.51.779-1.78.786h-.012c-1.056 0-1.517-.806-1.517-.806 2.53-1.058 2.282-4.47 2.282-4.47s-.329.246-.97.27a1.054 1.054 0 0 1-.067 0c-1.395 0-1.868-1.503-1.868-1.503h.028c.258 0 2.33-.06 3.794-1.936.966-1.233 1.757-2.317 3.317-2.744l.157-.027.033-.157c.043-.24-.12-.466-.49-.708-2.155-1.42-.692-3.232-.692-3.232S8.453 8.69 9.834 8.69l.1-.001c.155-.009.308-.015.46-.047l.254-.05s-.395-1.075.555-2.062c.714-.745 1.582-.871 2.083-.871.254 0 .412.032.412.032-.474.627-.818 1.666-.27 2.307.476.551 1.634.578 1.634 1.399 0 .349-.322.754-.901 1.119-1.745 1.105-3.476 2.573-4.196 4.538-.899 2.452.115 4.08 1.563 5.013 0 0-.455.42-1.114.474a4.094 4.094 0 0 1-.388.02c-1.387 0-2.105-.656-2.105-.656s.12.905.837 1.747c.672.775 1.546 1.233 2.882 1.252 0 0 .042.624-.549 1.164-.38.34-1.253.45-1.253.45s1.638.335 1.818 2.767c.097 1.318.43 1.775.43 1.775h-.028zm.404-.262c-.001-.004-.267-.42-.352-1.546-.099-1.35-.605-2.136-1.106-2.588.145-.07.279-.154.392-.257.735-.665.704-1.447.698-1.533l-.028-.421-.42-.007c-1.122-.019-1.905-.356-2.54-1.097a3.436 3.436 0 0 1-.364-.517c.35.107.778.187 1.284.187a6.5 6.5 0 0 0 .427-.018 2.509 2.509 0 0 0 1.383-.593l.437-.404-.499-.323c-1.116-.718-2.256-2.08-1.38-4.467.567-1.552 1.879-2.958 4.011-4.306.72-.458 1.113-.996 1.113-1.511 0-.795-.66-1.109-1.143-1.332-.236-.114-.482-.226-.602-.366-.375-.437-.059-1.274.29-1.728l.446-.588-.723-.144c-.021-.002-.21-.038-.5-.038-.54 0-1.57.132-2.41 1.009-.702.73-.794 1.506-.758 2.007-.067.006-.135.009-.207.013h-.077c-1.056 0-1.554-1.125-1.574-1.17l-.296-.702-.48.592c-.028.036-.73.917-.559 2.02.114.735.572 1.367 1.358 1.888.085.055.145.102.188.141-1.484.486-2.312 1.55-3.186 2.668l-.126.159c-1.335 1.71-3.226 1.761-3.452 1.761l-.645-.02.196.617c.023.075.594 1.826 2.304 1.826l.083-.003c.181-.005.343-.03.488-.058-.071.955-.42 2.72-1.992 3.376l-.48.2.26.455c.024.042.608 1.034 1.93 1.034a2.923 2.923 0 0 0 1.362-.323c.05.432.156.987.363 1.607.478 1.433.033 2.438.016 2.478l-.237.5.534.143c.035.009.364.092.752.092a2.227 2.227 0 0 0 1.456-.538c.145.449.394.956.825 1.404.734.76 1.789 1.142 3.167 1.142l.835-.011-.462-.71z" fill="#1A1918"/><path d="M4.442 10.994c.353-.365.723-.474 1.044-.474.492 0 .865.263.865.263-1.33.713-1.605 1.857-2.364 2.115a1.138 1.138 0 0 1-.385.064c-.56 0-1.1-.364-1.285-.78 0 0 1.025-.062 2.125-1.188m-.84 2.425c.183 0 .362-.027.531-.085.477-.16.78-.54 1.1-.938.328-.406.695-.864 1.333-1.206l.657-.355-.61-.431c-.05-.032-.508-.343-1.127-.343-.509 0-.98.21-1.37.609-.947.973-1.796 1.051-1.826 1.052l-.66.04.27.61c.273.608.99 1.047 1.702 1.047M6.586 18.749c-.072-1.73.37-3.131 1.06-4.286-.385 1.203-.333 2.676.978 4.052 0 0-2.607-3.143 1.038-6.366 1.457-1.226 3.052-1.983 3.873-2.52-2.966.975-4.415-.098-4.415-.098.946.827 2.174.812 2.935.693-.206.101-.422.207-.652.332-2.503 1.368-4.75 3.619-5.136 6.736v-.024c-.581 3.06-1.876 3.846-1.876 3.846 1.03-.51 1.679-1.867 1.836-2.356.172 2.69 1.476 4.557 3.001 6.354.792.932 1.07 1.838 1.07 1.838s-.154-1.027-.841-1.862c-1.42-1.72-2.772-3.863-2.871-6.34M18.216 12.443v.618c.212-.26.62-.207.62-.207v.891s-.013.439-.168.628h.886c-.153-.19-.169-.628-.169-.628v-.891s.41-.053.62.207v-.618h-1.789M17.836 8.777c.283.226.446.264.452.267l.11.052v-.582l-1.04-.44s.009.337.478.703M20.31 8.777c.47-.366.48-.703.48-.703l-1.041.44v.582l.11-.052c.005-.003.169-.041.451-.267" fill="#1A1918"/><path d="M19.072 7.227l-2.507-.997c.214-.508 1.197-.94 2.507-.942 1.313.002 2.296.434 2.508.942l-2.508.997zm1.87 3.123l-1.685.894v-3.62l2.287-.78-.602 3.506zm1.043.96l.771.45h.01l.195.115c-.436.121-.768.34-1.047.628l-.03.03a3.77 3.77 0 0 0-.189.219l-.036.046c-.059.077-.115.157-.17.239-.008.014-.019.028-.028.042a5.582 5.582 0 0 0-.186.304c-.548.951-1.424 1.52-2.203 1.521-.777-.001-1.653-.57-2.201-1.521a6.42 6.42 0 0 0-.183-.3l-.036-.053a6.097 6.097 0 0 0-.163-.229c-.014-.02-.027-.035-.04-.052a4.092 4.092 0 0 0-.183-.214c-.014-.01-.023-.023-.034-.034a2.267 2.267 0 0 0-1.047-.626l.195-.114h.01l.771-.45.792-.457 2.116 1.16.003-.005.006.005 2.116-1.16.791.457zm3.04 3.22c-.172.459-.315.955-.315 1.448l.001 3.185c-.66-.112-.739-.828-.742-.86l-.012-.145-.142-.013a1.007 1.007 0 0 1-.639-.307c-.324-.326-.324-.855-.324-.86-.005.027-.357.524.052 1.067.172.228.422.369.744.424.076.397.37.959 1.063 1.044v1.56h-1.95c-.9-.505-.519-1.391-.502-1.43l.077-.167-.172-.066c-.975-.364-.706-1.342-.694-1.384l.04-.143-.133-.063c-.804-.375-.696-1.386-.685-1.429-.247.203-.336.614-.166 1.018-.092.107-.216.234-.352.376a1.1 1.1 0 0 1-.859-1.02l-.002-.119-.11-.042c-.324-.121-.547-.303-.658-.548-.123-.27-.08-.553-.046-.69a2.864 2.864 0 0 0 .568.06h.013c.096 0 .192-.006.286-.015.519-.052 1.1-.276 1.705-.88h3.954zm-2.438 13.88l.218-1.143c.012-.067.026-.145.035-.211a1.206 1.206 0 0 0 .422.084c.332 0 .527-.176.655-.327l.167-.195-.136-.216a20.91 20.91 0 0 0-.547-.831 4.548 4.548 0 0 1-.134-.199c-.264-.398-.595-.897-1.259-.897l-.06.001a.969.969 0 0 0-.278.058 1.508 1.508 0 0 0-.648-.149 2 2 0 0 0-.66.129c-.043.013-.083.027-.114.033l-1.24-.123c-.016-.003-.066-.033-.128-.107v-.006l.268-.108c-.076-.9-.934-1.453-1.413-1.641a.509.509 0 0 0-.139-.253l-.266-.255-.235.283-.115.144-1.737-.718 1.13 1.428-.446.68c-.163.174.017.35.017.35l.461.319.478-.18c.016 0 .03.004.047.006-.024.073-.054.36-.073.44l-.83-.164-.87.495a1.041 1.041 0 0 0-.343 1.253l.097.212.137.3.305-.126a.036.036 0 0 0 .011-.005c-.11.352-.065.687.13.906l.186.235.246.313.27-.293c.079-.08.337-.37.416-.619l.06-.19-.133-.146-.022-.027.149-.246 1.082.257.244.056.129-.215.07-.117c.014-.025.017-.029.067-.029.039 0 .077.004.118.014.408.077.785.115 1.12.115.323 0 .517-.012.748-.089 0 0 .58.664.6.69l-.355 1.104-.016.067c-.674.055-1.002.204-1.398.602-.576-.574-.984-.635-2.531-.635-1.853 0-3.108-1.093-3.108-2.84v-4.268H24.71l.003 4.269c0 1.415-.826 2.403-2.127 2.725zm-6.945-2.414l.06.148c-.04.13-.48.312-.48.312l-.095-.21a.7.7 0 0 1 .227-.83l.714-.437.756.161c-.014.242.13.423.13.423l-.793-.153-.474.33c-.08.056-.086.16-.045.256zm6.827 1.207l-.244 1.277c-.155.022-.319.033-.489.04l.257-1.227c.077-.365-.897-.478-1.377-1.195-.235.265-.677.345-1.12.345-.406 0-.81-.065-1.057-.114a1.156 1.156 0 0 0-.181-.018c-.142 0-.272.045-.361.196l-.07.12-1.327-.314-.33.55c-.045.089-.05.164.026.247l.09.098c-.062.195-.338.489-.338.489l-.197-.248c-.156-.175-.13-.497.032-.795l.526-.893 1.123.163-.174-.4c-.235-.53.123-1.203.16-1.59-.012.117-.12.143-.244.143-.113 0-.24-.022-.323-.022-.034 0-.062.004-.077.015l-.305.186-.24-.214c-.028-.04-.037-.137.033-.209l.555-.627-.656-.771.919.464.28-.342c.078.076.044.274.044.274.287.007 1.091.455 1.134 1.5.002.032.002.068.002.102l.022.035c.056.079.214.28.413.299l1.27.127h.005c.14 0 .416-.165.772-.165.194 0 .41.05.64.195 0 0 .115-.092.302-.101.014-.002.03-.002.044-.002.57 0 .806.518 1.112.948.23.329.537.815.537.815-.113.135-.218.21-.395.21a.811.811 0 0 1-.164-.015c-.611-.114-.699-1.378-1.048-1.478a.207.207 0 0 0-.055-.007c-.112 0-.161.1-.161.1.159.432.066.606.237.938.128.246.356.449.45.545 0 0-.026.187-.052.326zm-1.17 1.325c-.171 0-.329.003-.47.008l.372-1.166c.058-.162-.236-.37-.357-.551.183.115.658.37.886.47a61.623 61.623 0 0 0-.431 1.24zm-5.533-10.51l.054-2.028.452-.481.283.598-.56 1.946-.229-.035zm.326.628c.074.156.207.26.3.32a3.684 3.684 0 0 1-.055.573c-.01.045-.02.086-.033.127l-.02.065c-.138 0-.409-.017-.63-.099-.247-.091-.613-.545-.529-1.045.107-.065.353-.205.584-.205.177 0 .298.084.383.264zm5.236.545c-.348.258-1.243.916-1.569 1.144l-3.127-.565.022-.084a2.75 2.75 0 0 0 .085-.649l2.628.043.05-.052c.04-.04.873-.85 1.298-1.316.1.128.227.25.393.356-.057.31-.033.751.22 1.123zm-4.253-4.66c.376.375.744.609 1.094.738-.045.181-.105.556.063.929.138.3.387.532.748.687.04.372.274.932.92 1.178-.283.288-.559.559-.67.668l-2.623-.041a.47.47 0 0 1-.207-.193c-.005-.014-.013-.02-.019-.034l.428.07h.027a.169.169 0 0 0 .169-.142.173.173 0 0 0-.142-.198l-.526-.084.584-2.03-.554-1.173-.886.944-.055 2.112-.596-.096c-.092-.018-.18.05-.196.144a.175.175 0 0 0 .142.198l.25.038c-.089.051-.148.092-.155.097l-.05.036-.015.063c-.144.592.183 1.155.538 1.406l-.013.075a.334.334 0 0 0 .06.255.329.329 0 0 0 .275.142.336.336 0 0 0 .325-.263c.132.016.252.019.335.019h.07l3.442.626.059-.04c.274-.192 1.32-.959 1.662-1.213.094.082.2.156.327.217-.112.374-.118.951.32 1.406h-8.77v-5.094c0-.493-.144-.99-.313-1.448h3.952zm-.474-7.688l2.289.782v3.619l-1.686-.894-.603-3.507zm5.584-.436c0-.883-1.477-1.678-3.107-1.678h-.01c-1.63 0-3.107.795-3.107 1.678l.033.217.65 3.76-.653.383-1.692.994h.006s-.38.197-.556.318c-.645.45-.781 1.107-.407 1.378.092-.535.512-1.095 1.3-1.095.568 0 1 .295 1.35.737.09.111.174.23.254.358.098.162.196.304.293.44h-4.357c.32.649.625 1.335.625 2.081v9.707c0 2.35 1.795 3.47 3.737 3.47 1.5 0 1.703-.068 2.53.762.825-.83 1.028-.761 2.53-.761 1.943 0 3.735-1.121 3.735-3.471v-9.707c0-.746.304-1.432.626-2.08h-4.359a7.11 7.11 0 0 0 .294-.44c.08-.129.165-.248.253-.36.352-.443.784-.736 1.351-.736.787 0 1.207.56 1.301 1.095.374-.271.239-.928-.409-1.378a6.863 6.863 0 0 0-.555-.318h.006l-1.694-.994-.651-.382.651-3.761.032-.217z" fill="#1A1918"/><path d="M95.095 18.757v3.999h3.132c.75 0 1.308-.18 1.672-.539.365-.359.547-.849.547-1.47 0-.64-.212-1.133-.636-1.476-.425-.343-.963-.514-1.615-.514h-3.1zm0-4.373v3.247h3.09c.575 0 1.023-.159 1.343-.476.32-.318.48-.709.48-1.172 0-.484-.147-.872-.44-1.163-.292-.29-.731-.436-1.317-.436h-3.156zm6.583 6.344c0 1.013-.303 1.792-.908 2.337-.606.544-1.465.817-2.578.817h-4.248V13.257h4.322c.889 0 1.606.226 2.154.676.547.451.82 1.1.82 1.948a2.4 2.4 0 0 1-.41 1.351c-.273.413-.65.7-1.13.863v.05c.28.065.543.174.786.326.243.153.454.344.632.573.179.229.317.485.414.768.097.283.146.588.146.916zM107.856 20.47a5.461 5.461 0 0 0-.97-.44c-.323-.108-.71-.163-1.162-.163-.517 0-.953.139-1.308.416-.355.278-.533.677-.533 1.2 0 .522.15.92.452 1.191.302.272.737.408 1.308.408.42-.022.82-.136 1.203-.343a4.255 4.255 0 0 0 1.01-.75V20.47zm-1.703-4.7c.919 0 1.624.216 2.116.645.492.43.738 1.075.738 1.934v5.533h-1.151v-.783h-.033c-.421.38-.84.63-1.257.75-.416.12-.813.18-1.191.18-.314 0-.627-.046-.94-.139a2.502 2.502 0 0 1-.852-.439c-.254-.2-.46-.458-.616-.773-.157-.314-.235-.699-.235-1.154 0-.391.073-.743.219-1.058.146-.314.35-.583.616-.805.265-.222.578-.393.94-.512.362-.12.76-.18 1.192-.18.346 0 .694.036 1.046.105.35.07.722.21 1.11.424v-.987c0-.615-.153-1.061-.46-1.342-.307-.28-.767-.42-1.38-.42-.388 0-.749.05-1.082.147a6.438 6.438 0 0 0-1.001.392l-.39-.907c.379-.182.779-.33 1.2-.441a5.469 5.469 0 0 1 1.411-.17zM116.984 23.882h-1.15V19.1c0-.75-.147-1.324-.439-1.722-.292-.397-.768-.596-1.427-.596-.486 0-.902.161-1.249.482-.345.321-.578.71-.696 1.167a2.906 2.906 0 0 0-.082.702v4.749h-1.15v-7.964h1.15v1.126l.033.016c.29-.457.651-.786 1.083-.987.43-.202.846-.302 1.244-.302.916 0 1.592.27 2.028.808.437.538.655 1.32.655 2.341v4.962M120.94 19.606l3.584-3.672h-1.313l-3.406 3.525v-6.87l-1.15.522v10.77h1.15v-4.063l3.438 4.064h1.378l-3.68-4.276M40.914 14.371h3.084v9.506h2.2v-9.506h2.98v-1.855h-8.264v1.855M70.957 15.945h-2.414l-2.837 3.384V12.76l-2.1.766v10.352h2.1v-3.879l2.77 3.879h2.497l-3.116-4.268 3.1-3.665M76.71 20.864c-.079.294-.192.551-.335.773a1.594 1.594 0 0 1-.545.522 1.474 1.474 0 0 1-.746.188c-.57 0-1.005-.217-1.306-.644-.302-.428-.454-1.035-.454-1.818 0-.693.146-1.27.436-1.725.292-.457.715-.685 1.274-.685.592 0 1.038.226 1.34.677.302.451.451 1.04.451 1.768 0 .336-.038.65-.116.944m1.161-3.992a3.373 3.373 0 0 0-1.222-.822 4.19 4.19 0 0 0-1.564-.286 4.19 4.19 0 0 0-1.563.286c-.479.19-.887.461-1.232.814-.342.354-.61.789-.798 1.303-.187.515-.283 1.1-.283 1.753 0 .63.092 1.2.276 1.71.181.51.44.945.773 1.303.332.358.734.634 1.205.831.472.195 1.001.293 1.59.293.564 0 1.085-.096 1.563-.285.477-.19.886-.465 1.23-.822.344-.36.614-.797.807-1.313.194-.515.293-1.1.293-1.752 0-.628-.096-1.2-.285-1.709a3.779 3.779 0 0 0-.79-1.304M51.296 12.516c-.359 0-.66.122-.903.36-.238.24-.361.529-.361.869 0 .328.123.61.361.852.243.239.544.358.903.358.337 0 .63-.12.876-.358.248-.242.371-.524.371-.852 0-.34-.123-.629-.37-.87a1.226 1.226 0 0 0-.877-.359M50.228 15.925h2.118v7.953h-2.118v-7.953zM58.893 15.85c-1.538-.113-2.409.733-2.409.733v-.654h-2.117v7.948h2.117V19.14c0-.805.668-1.458 1.493-1.458.824 0 1.492.653 1.492 1.458v4.737h2.116v-4.704c0-2.493-1.438-3.229-2.692-3.322M80.958 15.764v.147h-1.27v1.63h1.27v6.336h2.117v-6.336h1.265v-1.63h-1.264v-.166c0-1.097.51-1.637 1.51-1.478l.33-1.645c-3.22-.387-3.958 1.338-3.958 3.142M86.42 15.764v.147H85.15v1.63h1.269v6.336h2.117l.001-6.336h1.264v-1.63H88.54v-.166c0-1.097.51-1.637 1.509-1.478l.33-1.645c-3.22-.387-3.958 1.338-3.958 3.142" fill="#FFF"/></g></svg>