<svg xmlns="http://www.w3.org/2000/svg" width="153.621" height="24.711" viewBox="0 0 153.621 24.711"><path fill="#00B4AE" d="M0 7.767h5.886a30.036 30.036 0 0 0 11.058 11.059v5.885A27.155 27.155 0 0 1 0 7.767"/><path fill="#005B9E" d="M16.944 7.767v11.059A30.03 30.03 0 0 1 5.885 7.767h11.059z"/><path fill="#00B4AE" d="M16.944 7.767H5.885A29.685 29.685 0 0 1 2.777 0h6.401a7.767 7.767 0 0 1 7.766 7.767"/><path fill="#F89C2A" d="M24.709 15.535v6.396a29.614 29.614 0 0 1-7.766-3.104V7.767a7.767 7.767 0 0 1 7.766 7.768"/><path fill="#00B4AE" d="M16.883.001c.856 3.9 3.927 6.97 7.827 7.827V.001h-7.827z"/><path fill="#005B9E" d="M135.769 14.26h-1.206c-.944 0-1.321.227-1.321.982 0 .678.453 1.018 1.018 1.018.644 0 1.097-.302 1.549-.717l-.04-1.283zm.718 3.094l-.377-.717c-.643.529-1.436.906-2.378.906-1.208 0-2.267-.792-2.267-2.189 0-1.811 1.172-2.226 2.907-2.226h1.396v-.453c0-.869-.227-1.322-1.282-1.322-.376 0-1.396.19-2 .416l-.452-1.133c.754-.302 1.848-.604 2.755-.604 2 0 2.718.907 2.718 2.454v4.868h-1.02zm15.059.039l-2.416-3.322v3.322h-1.773V10.26h1.773v3.094l2.151-3.094h1.964l-2.34 3.207 2.716 3.926h-2.075zm-7.888 0v-3.02h-2.567v3.02h-1.773V10.26h1.773v2.678h2.567V10.26h1.812v7.133h-1.812zm-16.87-4.341h-1.171v2.906h1.435c1.057 0 1.547-.378 1.547-1.435 0-1.094-.416-1.471-1.811-1.471m.225 4.341h-3.207V7.73h5.623v1.434h-3.812v2.492h1.472c2.303 0 3.473.754 3.473 2.754 0 2.113-1.549 2.983-3.549 2.983m-72.725-3.095h-1.207c-.944 0-1.322.226-1.322.981 0 .679.453 1.019 1.02 1.019.642 0 1.094-.302 1.547-.718l-.038-1.282zm.718 3.095l-.378-.717c-.641.527-1.434.904-2.378.904-1.209 0-2.264-.791-2.264-2.189 0-1.811 1.171-2.226 2.906-2.226h1.396v-.452c0-.869-.226-1.322-1.283-1.322-.378 0-1.397.189-2.001.415l-.452-1.132c.755-.301 1.85-.604 2.755-.604 2 0 2.718.906 2.718 2.453v4.87h-1.019zm28.911-3.095H82.71c-.945 0-1.322.226-1.322.981 0 .679.451 1.019 1.02 1.019.641 0 1.094-.302 1.547-.718l-.038-1.282zm.715 3.095l-.375-.717c-.642.527-1.436.904-2.379.904-1.207 0-2.264-.791-2.264-2.189 0-1.811 1.17-2.226 2.906-2.226h1.396v-.452c0-.869-.227-1.322-1.283-1.322-.379 0-1.397.189-2.002.415l-.451-1.132c.754-.301 1.849-.604 2.755-.604 2 0 2.718.906 2.718 2.453v4.87h-1.021zm21.969-5.776v5.776h-1.775v-5.776h-1.887V10.26h5.548v1.357h-1.886zm6.416 2.681h-1.209c-.943 0-1.321.226-1.321.981 0 .679.454 1.019 1.021 1.019.642 0 1.094-.302 1.547-.718l-.038-1.282zm.716 3.095l-.378-.717c-.642.527-1.435.904-2.378.904-1.207 0-2.264-.791-2.264-2.189 0-1.811 1.168-2.226 2.905-2.226h1.397v-.452c0-.869-.227-1.322-1.285-1.322-.376 0-1.395.189-1.998.415l-.454-1.132c.755-.301 1.849-.604 2.755-.604 2.001 0 2.719.906 2.719 2.453v4.87h-1.019zM70.97 16.9a4.855 4.855 0 0 1-2.415.643c-2.076 0-2.982-1.283-2.982-3.623 0-2.567 1.247-3.813 3.171-3.813.981 0 1.585.266 2.038.529l-.529 1.208a3.27 3.27 0 0 0-1.284-.264c-1.094 0-1.585.717-1.585 2.226 0 1.662.453 2.267 1.585 2.267.529 0 1.096-.189 1.473-.379l.528 1.206zm49.444.493V11.73h-1.548c0 3.813-.869 5.133-2.604 5.926l-.642-1.396c1.245-.792 1.772-1.246 1.772-6h4.794v7.133h-1.772zm-20.231 0v-3.057l.037-1.36-3.282 4.417h-1.282V10.26h1.773v4.415l3.207-4.415h1.322v7.133h-1.775zm-8.19 0V11.73h-2.867v5.663h-1.738V10.26h6.343v7.133h-1.738zm-14.719 0l-3.283-4.455v4.455H72.14V7.73h1.851v4.152l3.018-4.152h2.152l-3.473 4.453 3.85 5.209h-2.264zm-14.834 0V14.41h-2.793v2.982h-1.774V10.26h1.774v2.678h2.793V10.26h1.774v7.133H62.44zM45.758 11.58c-.64 0-1.283.302-1.622.867v3.247c.302.189.867.34 1.434.34 1.018 0 1.585-.565 1.585-2.266 0-1.395-.377-2.188-1.397-2.188m.153 5.926c-.756 0-1.398-.189-1.775-.453v2.641h-1.774V10.22h.868l.642.945c.641-.605 1.358-1.095 2.416-1.095 1.735 0 2.716 1.435 2.716 3.624 0 2.339-1.208 3.812-3.093 3.812M39.645 9.24v8.153h-1.85V9.24h-2.716V7.73h7.246v1.51h-2.68z"/></svg>