<svg width="70" height="35" viewBox="0 0 70 35" xmlns="http://www.w3.org/2000/svg"><title>vbrr</title><g fill="#0D227D" fill-rule="evenodd"><path d="M.166 24.068v.289h.258c.17 0 .28.043.28.258V27.7c0 .215-.11.258-.28.258H.166v.29H2.17c.895 0 1.488-.265 1.488-1.101 0-.849-.697-1.082-1.147-1.094v-.062c.538-.03.994-.412.994-.984 0-.922-1.082-.94-1.4-.94H.166zm1.384 1.807v-1.254c0-.246.137-.264.214-.264h.198c.615 0 .697.424.697.75 0 .584-.297.768-.752.768H1.55zm0 .29h.357c.763 0 .796.503.796.915 0 .849-.368.88-.708.88h-.286c-.055 0-.16-.013-.16-.185v-1.61zm5.43.786c-.12.553-.527 1.052-1.098 1.052-.664 0-.944-.726-.944-1.9 0-1.365.373-1.85.878-1.85.374 0 .851.3 1.06 1.388h.258l-.044-1.573h-.208l-.165.264c-.335-.258-.637-.387-1.044-.387-.955 0-1.69.934-1.69 2.164 0 1.1.614 2.264 1.806 2.264.977 0 1.362-.825 1.488-1.422h-.296zm3.85-1.414v-1.47H7.6v.29h.258c.17 0 .28.043.28.258V27.7c0 .215-.11.258-.28.258H7.6v.29h3.305v-1.593h-.252c-.005 1.187-.835 1.303-1.126 1.303h-.22c-.318 0-.324-.092-.324-.22v-1.581h.248c.34 0 .538.172.538.615v.086h.258v-1.697H9.77v.117c0 .166-.038.584-.494.584h-.292v-1.285c0-.246.143-.221.242-.221h.412c.725 0 .923.737.939 1.18h.253zm1.834.947h.576c1.159 0 1.439-.621 1.439-1.18 0-.499-.258-1.236-1.576-1.236H11.28v.289h.258c.17 0 .28.043.28.258V27.7c0 .215-.11.258-.28.258h-.258v.29h1.922v-.29h-.258c-.17 0-.28-.043-.28-.258v-1.217zm0-.29V24.56c0-.123.016-.196.17-.202h.104c.346.006.785.06.785.91 0 .479-.043.928-.812.928h-.247zm2.322-.036c0 1.057.643 2.215 1.818 2.215s1.817-1.158 1.817-2.215c0-1.07-.637-2.213-1.817-2.213s-1.818 1.143-1.818 2.213zm.956 0c0-1.033.143-1.918.873-1.918.62 0 .85.651.85 1.918 0 .78-.054 1.918-.85 1.918-.818 0-.873-1.15-.873-1.918zm6.018.793c-.12.553-.527 1.052-1.098 1.052-.665 0-.945-.726-.945-1.9 0-1.365.374-1.85.879-1.85.373 0 .851.3 1.06 1.388h.258l-.044-1.573h-.209l-.165.264c-.335-.258-.637-.387-1.043-.387-.955 0-1.691.934-1.691 2.164 0 1.1.615 2.264 1.806 2.264.978 0 1.362-.825 1.489-1.422h-.297zm3.602 0c-.12.553-.527 1.052-1.098 1.052-.665 0-.945-.726-.945-1.9 0-1.365.374-1.85.879-1.85.373 0 .851.3 1.06 1.388h.258l-.044-1.573h-.209l-.165.264c-.335-.258-.636-.387-1.043-.387-.955 0-1.691.934-1.691 2.164 0 1.1.615 2.264 1.806 2.264.978 0 1.362-.825 1.488-1.422h-.296zm.62-2.883v.289h.259c.17 0 .28.043.28.258V27.7c0 .215-.11.258-.28.258h-.259v.29h1.906v-.29h-.247c-.264 0-.275-.092-.275-.258v-.295l1.345-2.066v2.361c0 .215-.11.258-.28.258h-.241v.29h1.905v-.29h-.258c-.17 0-.28-.043-.28-.258v-3.086c0-.215.11-.258.28-.258h.258v-.29H28.39v.29h.318c.154 0 .203.098.203.264v.246l-1.345 2.072v-2.324c0-.215.11-.258.28-.258h.242v-.29h-1.906zm4.487 0v.289h.258c.17 0 .28.043.28.258V27.7c0 .215-.11.258-.28.258h-.258v.29h1.905v-.29h-.247c-.264 0-.275-.092-.275-.258v-.295l1.346-2.066v2.361c0 .215-.11.258-.28.258h-.242v.29h1.905v-.29h-.258c-.17 0-.28-.043-.28-.258v-3.086c0-.215.11-.258.28-.258h.258v-.29h-1.905v.29h.318c.154 0 .204.098.204.264v.246l-1.346 2.072v-2.324c0-.215.11-.258.28-.258h.242v-.29h-1.905zm2.048-.185c.79 0 .922-.387.922-.572 0-.147-.12-.332-.379-.332-.236 0-.302.154-.302.295 0 .043.022.086.044.117.05.062.143.092.143.141 0 .068-.242.136-.428.136-.198 0-.428-.062-.428-.136 0-.042.093-.08.137-.14a.214.214 0 0 0 .044-.118c0-.141-.066-.295-.302-.295-.258 0-.38.185-.38.332 0 .197.127.572.929.572zm5.42 3.068c-.121.553-.528 1.052-1.099 1.052-.664 0-.944-.726-.944-1.9 0-1.365.373-1.85.878-1.85.374 0 .851.3 1.06 1.388h.258l-.044-1.573h-.208l-.165.264c-.335-.258-.637-.387-1.043-.387-.956 0-1.692.934-1.692 2.164 0 1.1.615 2.264 1.807 2.264.977 0 1.362-.825 1.488-1.422h-.297zm.62-2.883v.289h.258c.17 0 .28.043.28.258V27.7c0 .215-.11.258-.28.258h-.258v.29h1.922v-.29h-.258c-.17 0-.28-.043-.28-.258v-1.543c.823-.043.823.486.944 1.199.066.387.198 1.016.725 1.016.263 0 .741-.137.813-1.231h-.264c-.006.344-.126.596-.264.596-.164 0-.214-.27-.258-.498-.082-.436-.23-1.088-1.081-1.162v-.03c.274-.093.439-.32.51-.683.088-.437.066-1.02.407-1.052h.021c.028 0 .055.019.055.068 0 .061-.049.117-.076.172a.36.36 0 0 0-.044.172c0 .185.088.412.373.412.203 0 .417-.178.417-.54 0-.394-.28-.652-.62-.652-.665 0-.714.799-.774 1.192-.116.75-.429.769-.797.769h-.087v-1.291c0-.215.11-.258.28-.258h.258v-.29h-1.922zm4.239 0v.289h.258c.17 0 .28.043.28.258V27.7c0 .215-.11.258-.28.258h-.258v.29h1.905v-.29h-.247c-.263 0-.274-.092-.274-.258v-.295l1.345-2.066v2.361c0 .215-.11.258-.28.258h-.242v.29h1.906v-.29h-.259c-.17 0-.28-.043-.28-.258v-3.086c0-.215.11-.258.28-.258h.259v-.29h-1.906v.29h.319c.153 0 .203.098.203.264v.246l-1.345 2.072v-2.324c0-.215.11-.258.28-.258h.241v-.29h-1.905zm4.486 0v.289h.258c.17 0 .28.043.28.258V27.7c0 .215-.11.258-.28.258h-.258v.29h1.906v-.29h-.248c-.263 0-.274-.092-.274-.258v-.295l1.345-2.066v2.361c0 .215-.11.258-.28.258h-.242v.29h1.906v-.29h-.258c-.17 0-.28-.043-.28-.258v-3.086c0-.215.11-.258.28-.258h.258v-.29h-1.906v.29h.319c.154 0 .203.098.203.264v.246l-1.345 2.072v-2.324c0-.215.11-.258.28-.258h.242v-.29h-1.906zm2.048-.185c.791 0 .923-.387.923-.572 0-.147-.121-.332-.38-.332-.235 0-.301.154-.301.295 0 .043.022.086.044.117.05.062.142.092.142.141 0 .068-.241.136-.428.136-.198 0-.428-.062-.428-.136 0-.042.093-.08.137-.14a.214.214 0 0 0 .044-.118c0-.141-.066-.295-.302-.295-.258 0-.379.185-.379.332 0 .197.127.572.928.572zm6.837 1.623v-1.438h-3.12v.289h.259c.17 0 .28.043.28.258V27.7c0 .215-.11.258-.28.258h-.258v.29h1.383c.813 0 2.092.007 2.092-1.144 0-1.162-1.109-1.224-1.746-1.236h-.346V24.67c0-.246.05-.29.259-.29h.214c.423 0 .615.185.708.315.176.252.241.498.269.811h.286zm-1.373.683c.533 0 .774.233.774.879 0 .768-.395.891-.626.891h-.308c-.175 0-.203-.098-.203-.153v-1.617h.363zm2.037 2.06h1.438v-.29h-.159c-.137 0-.39 0-.39-.288 0-.056.028-.173.044-.228l.105-.313h1.444l.17.436c.06.154.06.203.06.227 0 .111-.098.166-.214.166h-.274v.29h1.944v-.29c-.335.007-.511-.264-.637-.596l-1.307-3.418h-.335l-1.164 3.197c-.176.473-.275.817-.725.817v.29zm1.148-1.409l.593-1.617h.005l.62 1.617H58.18zm4.71-1.039v-1.186c0-.215.11-.258.28-.258h.182v-.29h-1.845v.29h.258c.17 0 .28.043.28.258V27.7c0 .215-.11.258-.28.258h-.258v.29h1.845v-.29h-.181c-.17 0-.28-.043-.28-.258v-1.617h1.394v1.617c0 .215-.11.258-.28.258h-.18v.29h1.844v-.29h-.258c-.17 0-.28-.043-.28-.258v-3.086c0-.215.11-.258.28-.258h.258v-.29h-1.845v.29h.181c.17 0 .28.043.28.258V25.8H62.89zm3.153-1.733v.289h.258c.17 0 .28.043.28.258V27.7c0 .215-.11.258-.28.258h-.258v.29h1.922v-.29h-.259c-.17 0-.28-.043-.28-.258v-1.543c.824-.043.824.486.945 1.199.066.387.198 1.016.725 1.016.263 0 .74-.137.812-1.231h-.263c-.006.344-.127.596-.264.596-.165 0-.214-.27-.258-.498-.082-.436-.23-1.088-1.082-1.162v-.03c.275-.093.44-.32.511-.683.088-.437.066-1.02.406-1.052h.022c.028 0 .055.019.055.068 0 .061-.05.117-.077.172a.357.357 0 0 0-.044.172c0 .185.088.412.374.412.203 0 .417-.178.417-.54 0-.394-.28-.652-.62-.652-.665 0-.714.799-.775 1.192-.115.75-.428.769-.796.769h-.088v-1.291c0-.215.11-.258.28-.258h.259v-.29h-1.922zM3.927 32.927h.577c1.158 0 1.438-.622 1.438-1.182 0-.498-.258-1.237-1.576-1.237H2.543v.29h.259c.17 0 .28.042.28.258v3.089c0 .215-.11.258-.28.258h-.259v.29h1.922v-.29h-.258c-.17 0-.28-.043-.28-.258v-1.218zm0-.29V31c0-.123.017-.197.17-.203h.105c.346.006.785.062.785.91 0 .481-.044.93-.813.93h-.247zm2.306 2.056h1.44v-.29h-.16c-.137 0-.39 0-.39-.289 0-.055.027-.172.044-.228l.104-.314h1.444l.17.438c.06.153.06.203.06.227 0 .111-.098.166-.213.166h-.275v.29h1.944v-.29c-.335.007-.51-.264-.637-.596l-1.307-3.422h-.335l-1.164 3.2c-.175.474-.274.818-.725.818v.29zm1.148-1.41l.593-1.618h.005l.621 1.618H7.381zm3.8-1.317c.033-.547.302-1.286.95-1.286.417 0 .68.29.68.77 0 .83-.713.812-1.147.812h-.126v.301h.335c.225 0 .988.086.988.979 0 .375-.12 1.01-.812 1.01-.544 0-.786-.34-.786-.487 0-.11.17-.062.297-.215a.518.518 0 0 0 .099-.278c0-.178-.077-.473-.429-.455-.28.012-.51.259-.51.59 0 .229.082.543.422.813.308.247.764.297 1.11.297.417 0 .703-.124.823-.186.588-.283.742-.69.742-1.083 0-.21-.077-.425-.193-.585-.23-.32-.702-.498-1.048-.529v-.037c.85-.141 1.032-.664 1.032-1.052 0-.216-.12-.406-.258-.56-.16-.172-.45-.4-1.027-.4-.22 0-.34.024-.51.086-.067.025-.133.05-.193.08a3.488 3.488 0 0 0-.29.172h-.017l-.121-.215h-.209l-.038 1.458h.236zm2.993-1.458v.29h.257c.17 0 .28.042.28.258v3.089c0 .215-.11.258-.28.258h-.257v.29h2.004c.895 0 1.488-.265 1.488-1.102 0-.85-.698-1.083-1.148-1.095v-.062c.538-.03.994-.412.994-.984 0-.924-1.082-.942-1.4-.942h-1.938zm1.383 1.81v-1.256c0-.246.138-.265.214-.265h.198c.615 0 .697.425.697.75 0 .586-.296.77-.752.77h-.357zm0 .288h.357c.763 0 .796.505.796.917 0 .85-.368.88-.708.88h-.286c-.054 0-.159-.012-.159-.184v-1.613zm2.45-2.098v.29h.257c.17 0 .28.042.28.258v3.089c0 .215-.11.258-.28.258h-.258v.29h1.906v-.29h-.248c-.263 0-.274-.092-.274-.258v-.295l1.345-2.068v2.363c0 .215-.11.258-.28.258h-.242v.29h1.906v-.29h-.258c-.17 0-.28-.043-.28-.258v-3.09c0-.215.11-.258.28-.258h.258v-.29h-1.906v.29h.32c.153 0 .202.098.202.265v.246l-1.345 2.074v-2.326c0-.216.11-.259.28-.259h.242v-.29h-1.906zm4.42 0v1.594h.274c.066-1.194.752-1.305.923-1.305h.104v3.348c0 .215-.11.258-.28.258h-.258v.29h1.922v-.29h-.259c-.17 0-.28-.043-.28-.258v-3.348h.11c.236 0 .857.179.917 1.305h.275v-1.594h-3.448zm3.755 0v.29h.258c.17 0 .28.042.28.258v3.089c0 .215-.11.258-.28.258h-.258v.29h1.906v-.29h-.247c-.264 0-.275-.092-.275-.258v-.295l1.345-2.068v2.363c0 .215-.11.258-.28.258h-.241v.29h1.905v-.29h-.258c-.17 0-.28-.043-.28-.258v-3.09c0-.215.11-.258.28-.258h.258v-.29H28.39v.29h.318c.154 0 .203.098.203.265v.246l-1.345 2.074v-2.326c0-.216.11-.259.28-.259h.242v-.29h-1.906zm4.47 3.15c-.022.518.165 1.159.758 1.159.68 0 .78-.647.824-1.01l.06-.48c.033-.253.099-.585.5-.585h.439v1.403c0 .215-.11.258-.28.258h-.258v.29h1.921v-.29h-.257c-.17 0-.28-.043-.28-.258v-3.09c0-.215.11-.258.28-.258h.257v-.29h-2.07c-.845 0-1.46.358-1.46 1.047 0 .739.703.979 1.224 1.04v.025c-.758.234-.801.787-.85 1.194-.056.424-.21.48-.28.48-.116 0-.27-.148-.27-.524v-.11h-.258zm2.581-1.212h-.44c-.153 0-.823-.03-.823-.824 0-.776.582-.8.736-.8h.313c.197 0 .214.092.214.32v1.304zm4.42.48h.577c1.158 0 1.438-.621 1.438-1.181 0-.498-.258-1.237-1.575-1.237h-1.824v.29h.258c.17 0 .28.042.28.258v3.089c0 .215-.11.258-.28.258h-.258v.29h1.922v-.29h-.258c-.17 0-.28-.043-.28-.258v-1.218zm0-.289V31c0-.123.017-.197.17-.203h.105c.345.006.785.062.785.91 0 .481-.044.93-.813.93h-.247zm5.568-.658v-1.471h-3.229v.29h.258c.17 0 .28.042.28.258v3.089c0 .215-.11.258-.28.258h-.258v.29h3.306v-1.594h-.253c-.005 1.187-.834 1.304-1.125 1.304h-.22c-.318 0-.324-.092-.324-.221V32.6h.247c.34 0 .538.172.538.616v.086h.258v-1.699h-.258v.117c0 .166-.038.585-.494.585h-.29v-1.286c0-.247.142-.222.24-.222h.413c.724 0 .922.739.939 1.182h.252zm.45-1.471v.29h.258c.17 0 .28.042.28.258v3.089c0 .215-.11.258-.28.258h-.258v.29h1.922v-.29h-.258c-.17 0-.28-.043-.28-.258v-3.176c0-.16.077-.209.22-.209h.159c.253 0 .505.062.686.277.21.246.291.573.33.893h.274v-1.422h-3.053zm3.394 0v.29h.258c.17 0 .28.042.28.258v3.089c0 .215-.11.258-.28.258h-.258v.29h1.905v-.29h-.247c-.264 0-.274-.092-.274-.258v-.295l1.345-2.068v2.363c0 .215-.11.258-.28.258h-.242v.29h1.905v-.29h-.257c-.17 0-.28-.043-.28-.258v-3.09c0-.215.11-.258.28-.258h.257v-.29h-1.905v.29h.319c.153 0 .203.098.203.265v.246l-1.345 2.074v-2.326c0-.216.11-.259.28-.259h.241v-.29h-1.905zm4.47 2.092c0 1.059.642 2.217 1.817 2.217 1.175 0 1.818-1.158 1.818-2.217 0-1.07-.637-2.215-1.818-2.215-1.18 0-1.817 1.144-1.817 2.215zm.955 0c0-1.033.143-1.92.873-1.92.62 0 .851.652.851 1.92 0 .782-.055 1.92-.851 1.92-.818 0-.873-1.15-.873-1.92zm4.42-.357v-1.187c0-.216.11-.259.28-.259h.182v-.29h-1.845v.29h.258c.17 0 .28.043.28.259v3.089c0 .215-.11.258-.28.258h-.258v.29h1.845v-.29h-.182c-.17 0-.28-.043-.28-.258v-1.619h1.395v1.619c0 .215-.11.258-.28.258h-.181v.29h1.845v-.29h-.258c-.17 0-.28-.043-.28-.258v-3.09c0-.215.11-.258.28-.258h.258v-.29h-1.845v.29h.18c.171 0 .28.043.28.259v1.187H56.91zm3.136.357c0 1.059.642 2.217 1.817 2.217 1.175 0 1.818-1.158 1.818-2.217 0-1.07-.637-2.215-1.818-2.215-1.18 0-1.817 1.144-1.817 2.215zm.955 0c0-1.033.143-1.92.873-1.92.62 0 .851.652.851 1.92 0 .782-.055 1.92-.85 1.92-.819 0-.874-1.15-.874-1.92zm3.037-2.092v.29h.258c.17 0 .28.042.28.258v3.089c0 .215-.11.258-.28.258h-.258v.29h2.004c.895 0 1.488-.265 1.488-1.102 0-.85-.698-1.083-1.148-1.095v-.062c.539-.03.994-.412.994-.984 0-.924-1.081-.942-1.4-.942h-1.938zm1.383 1.81v-1.256c0-.246.138-.265.215-.265h.197c.615 0 .698.425.698.75 0 .586-.297.77-.753.77h-.357zm0 .288h.357c.764 0 .797.505.797.917 0 .85-.368.88-.709.88h-.285c-.055 0-.16-.012-.16-.184v-1.613zM33.814 16.37l1.18-4.424 7.104 1.88-1.18 4.424-7.104-1.88M28.753 10.939l4.587-.25.4 7.313-4.587.25-.4-7.313M39.675 5.894l-3.564 2.888-4.638-5.681L35.037.213l4.638 5.681M40.696 4.618l3.858 2.484-3.99 6.15-3.859-2.484 3.99-6.15M27.175 11.373l-1.656-4.27 6.857-2.64 1.656 4.27-6.857 2.64"/></g></svg>