<svg xmlns="http://www.w3.org/2000/svg" width="78" height="35"><path d="M72.9 21.744h1.194v1.833h.583l1.166-1.833h1.325l-1.522 2.284v.019l1.71 2.491h-1.381l-1.26-1.946h-.62v1.946H72.9v-4.794zm-2.2 1.805c-.009-.64-.422-1.016-.958-1.016-.61 0-1.044.405-1.156 1.016H70.7zm-.93-1.918c1.373 0 2.125 1.006 2.125 2.275 0 .15-.019.31-.038.461h-3.3c.076.836.715 1.269 1.439 1.269.489 0 .987-.217 1.372-.527l.47.856c-.488.432-1.24.686-1.927.686-1.588 0-2.585-1.147-2.585-2.51 0-1.476 1.006-2.51 2.444-2.51zm-7.917 3.901c.592-.084 1.006-.582 1.006-2.284v-1.504h3.497v4.794h-1.194v-3.826h-1.166v.536c0 2.087-.554 3.29-2.143 3.337v-1.053zm-1.758-1.983c-.01-.64-.424-1.016-.96-1.016-.61 0-1.043.405-1.156 1.016h2.116zm-.931-1.918c1.372 0 2.124 1.006 2.124 2.275 0 .15-.018.31-.037.461h-3.3c.075.836.715 1.269 1.438 1.269.49 0 .988-.217 1.373-.527l.47.856c-.49.432-1.24.686-1.927.686-1.59 0-2.585-1.147-2.585-2.51 0-1.476 1.005-2.51 2.444-2.51zm-9.826.113h1.138v3.779h1.495v-3.78h1.137v3.78h1.495v-3.78h1.137v4.795h-6.402v-4.794zm-3.59 3.892c.78 0 1.43-.602 1.43-1.495 0-.884-.65-1.494-1.43-1.494-.78 0-1.42.61-1.42 1.494 0 .893.64 1.495 1.42 1.495zm-.01-4.005c1.468 0 2.643 1.044 2.643 2.51 0 1.476-1.175 2.51-2.633 2.51-1.457 0-2.632-1.034-2.632-2.51 0-1.466 1.175-2.51 2.623-2.51zm-7.794-1.767h1.213v2.716h.865l1.57-2.716h1.316l-1.89 3.177v.02l2.002 3.477h-1.372l-1.626-2.914h-.865v2.914h-1.213v-6.674zm-22.412 11.2C7.003 31.065.09 24.15.09 15.622.09 7.093 7.003.18 15.532.18c8.528 0 15.442 6.914 15.442 15.442 0 2.898-.797 5.61-2.186 7.927-.045.076-.16.05-.172-.038-.53-3.795-2.848-5.886-6.223-6.496-.292-.053-.347-.233.04-.267 1.03-.089 2.497-.074 3.243.061.045-.39.064-.786.064-1.187 0-5.637-4.57-10.208-10.208-10.208S5.324 9.983 5.324 15.621 9.894 25.83 15.532 25.83c.16 0 .32.002.48-.006-.17-.991-.223-2-.192-2.76.025-.623.151-.709.432-.224 1.413 2.434 3.44 4.652 7.38 5.52 3.222.71 6.453 1.55 9.946 5.96.31.392-.164.784-.52.468-3.554-3.149-6.765-4.164-9.725-4.164-3.294 0-5.538.44-7.801.44zm7.839-6.493c-.31 0-.57.108-.729.305-.408.503-.224 1.388.4 1.934.273.238.666.38 1.051.38.393 0 .72-.147.922-.414.364-.487.155-1.177-.532-1.758-.34-.288-.735-.447-1.112-.447zm3.424-2.527c-.296-.112-.531-.022-.643.183-.17.31-.044.923.298 1.457.347.54.64.816.875.816.215 0 .429-.28.328-.958-.06-.404-.285-1.28-.858-1.498zm18.001-8.022l-1.243-1.495a.24.24 0 0 1 .185-.395h2.6c.124-.368.194-.762.194-1.17 0-1.874-1.393-3.488-3.307-3.488-1.913 0-3.307 1.614-3.307 3.487s1.394 3.465 3.307 3.465c.58 0 1.111-.148 1.571-.404zm5.624 2.526c.135.15.024.39-.18.39h-2.837a.39.39 0 0 1-.299-.14l-.48-.578a6.226 6.226 0 0 1-3.399 1.005 6.271 6.271 0 0 1-6.264-6.264 6.272 6.272 0 0 1 6.264-6.264 6.272 6.272 0 0 1 6.265 6.264 6.227 6.227 0 0 1-.996 3.382l1.926 2.205zM76.634 4.985h-2.316a.308.308 0 0 0-.308.308V16.63c0 .17.138.308.308.308h2.316c.17 0 .308-.138.308-.308V5.293a.308.308 0 0 0-.308-.308zm-3.897 0h-2.591a.308.308 0 0 0-.295.216l-2.05 6.7-2.254-6.707a.308.308 0 0 0-.292-.21h-1.808a.308.308 0 0 0-.292.21L60.9 11.9l-2.05-6.699a.308.308 0 0 0-.295-.216h-2.59c-.1 0-.193.047-.25.127a.304.304 0 0 0-.043.275L59.48 16.73c.042.125.16.21.292.21h2.056c.133 0 .25-.085.293-.21l2.231-6.626 2.231 6.627c.042.124.16.208.293.208h2.056c.133 0 .25-.084.292-.209L73.03 5.387a.304.304 0 0 0-.042-.275.31.31 0 0 0-.25-.127zm-18.045.308V16.63c0 .17-.138.308-.308.308h-2.316a.308.308 0 0 1-.308-.308V5.293c0-.17.138-.308.308-.308h2.316c.17 0 .308.138.308.308z" fill="#FFF" fill-rule="evenodd"/></svg>