<svg width="126" height="35" viewBox="0 0 126 35" xmlns="http://www.w3.org/2000/svg"><title>vtb24</title><g fill="none" fill-rule="evenodd"><path d="M37.219 11.611h-.36v23.206h9.229c4.293 0 7.067-2.607 7.067-6.642 0-2.018-.638-3.462-2.067-4.681-.522-.448-1.103-.76-1.708-1.009.466-.233.911-.508 1.304-.867 1.055-.997 1.61-2.387 1.61-4.025 0-1.693-.62-3.093-1.894-4.28-1.554-1.417-3.337-1.702-5.71-1.702h-7.471zm6.96 4.568c.386 0 1.105 0 1.704.261.65.28 1.052 1.018 1.052 1.929 0 .62-.207 1.232-.54 1.596-.517.581-1.122.628-1.802.628h-2.627v-4.414h2.214zm.636 8.867c.668 0 1.359.07 1.881.575.436.417.717 1.203.717 2.003 0 .669-.197 1.336-.54 1.83-.567.79-1.183.944-2.058.944h-2.786v-5.352h2.786zM71.605 11.611h-18.2v4.458l6.428.012v18.784H65V16.076c.629-.002 5.63 0 5.63 0l1.489-4.465h-.514zM88.37 11.611H73.38v23.236h8.574c1.941 0 3.764-.495 4.998-1.359 1.266-.878 2.777-2.62 2.777-5.934 0-3.109-1.466-4.779-2.338-5.498-.932-.762-2.664-1.67-5.628-1.67h-3.227V16.08h8.675l1.517-4.469h-.359zM81.122 24.81c.726 0 1.414.18 1.837.484.674.477 1 1.216 1 2.26 0 1.1-.32 1.632-.56 1.937-.456.584-1.149.867-2.118.867h-2.746V24.81h2.587z" fill="#0A2972"/><path d="M93.068 12.625l-.165.085-.002 4.97.631-.311c.456-.277 2.905-1.698 5.116-1.814.912-.049 1.73.228 2.303.778a2.33 2.33 0 0 1 .725 1.695c0 2.131-1.457 3.205-3.218 4.293-4.324 2.627-7.004 5.365-7.004 10.892l.007 1.594 14.378-.002v-4.483h-8.906l.053-.216c.364-1.476 1.283-2.598 3.077-3.752l2.237-1.399c2.63-1.631 4.296-4.331 4.349-7.048v-.162c0-1.809-.596-3.38-1.725-4.547-1.32-1.366-3.248-2.087-5.575-2.087-2.028 0-4.493.594-6.281 1.514zM116.238 11.583l-9.222 14.647v4.086h10.228v4.535h4.282v-4.535h2.82l1.49-4.476h-4.31v-4.583h-4.283v4.583h-5.052c.365-.631 7.7-12.32 8.922-14.257h-4.875z" fill="#FC1921"/><path d="M21.257 11.61H3.834s.525 1.707 1.134 2.581H20.47s2.959 2.35 4.374 6.457H8.55a19.003 19.003 0 0 1-6.023-9.038c.14-.437.296-.867.466-1.289H21.25c1.423-1.003 2.838-2.581 2.838-2.581H4.27c.263-.442.543-.872.84-1.289h20.013c.528-.649 1.59-2.58 1.59-2.58H7.317a18.73 18.73 0 0 1 1.465-1.29h18.526c.508-1.232.87-2.581.87-2.581H8.055A21.254 21.254 0 0 0 0 11.61a21.332 21.332 0 0 0 8.045 11.616h20.08s-.353-6.177-6.868-11.616z" fill="#0A2972"/></g></svg>