<svg xmlns="http://www.w3.org/2000/svg" width="106.104" height="73.257" viewBox="0 0 106.104 73.257"><g fill-rule="evenodd" clip-rule="evenodd" fill="#FFF"><path d="M33.196 63.271h.36V30.087h-4.801v.722h4.081v31.737H1.098V30.809h12.116v-.722H.376v33.184h.362z"/><path d="M2.51 55.216l-.13 6.217 2.132-.012-.169-6.881c-.606.227-1.216.445-1.833.651v.025zM29.442 61.224l2.329-.016-.723-29.221zM26.413 61.248l2.332-.021-.606-24.42c-.14.211-.279.41-.42.617l-1.306 23.824zM19.286 46.345c-.396.311-.792.615-1.194.914l-.772 14.059 2.336-.02-.37-14.953zM21.263 44.683l-.915 16.611 2.338-.016-.436-17.506c-.325.311-.653.616-.987.911M5.196 61.414l2.345-.017-.198-8.056c-.577.244-1.156.484-1.741.717l-.406 7.356zM14.287 61.343l2.34-.021-.313-12.81c-.454.301-.909.594-1.37.881l-.657 11.95zM11.26 61.367l2.339-.02-.269-10.982c-.499.288-1.001.564-1.515.833l-.555 10.169zM8.229 61.386l2.342-.014-.232-9.414c-.541.268-1.086.53-1.636.784l-.474 8.644zM23.381 61.265l2.332-.014-.512-20.578c-.241.281-.489.562-.733.838l-1.087 19.754zM18.804 24.724a9.263 9.263 0 0 1-.754-.353l-1.111 20.251c.78-.609 1.555-1.24 2.308-1.902l-.443-17.996zM24.874 25.329a17.97 17.97 0 0 1-.822.109l-.728 13.233a34.714 34.714 0 0 0 1.828-2.275l-.278-11.067zM27.662 24.527a22.89 22.89 0 0 1-.772.293l-.54 9.807a26.16 26.16 0 0 0 1.495-2.709l-.183-7.391zM16.28 45.125l-.562-22.605a7.13 7.13 0 0 1-.554-.751l-1.047 19.083a311.028 311.028 0 0 1-.259 5.246l1.389-.218c.346-.246.688-.5 1.033-.755M22.207 39.897l-.357-14.448a12.9 12.9 0 0 1-.822-.103l-.91 16.602a41.638 41.638 0 0 0 2.089-2.051M19.074 6.193a14.335 14.335 0 0 1-.489-.781L17.85 21.54a9.122 9.122 0 0 0 1.842.782l-.618-16.129zM17.054 21.046L16.25.032 16.242 0l-.889 19.537a9.202 9.202 0 0 0 1.701 1.509M22.285 22.48l-.09-2.335-.653-12.231a1.21 1.21 0 0 1-.487-.001l-.66 14.575c.682.124 1.332.124 1.89-.008M106.096 68.292l.005-.924-3.732-.009v.93h.307l.008-.589h1.195v3.686h-.366v.291h1.425v-.291h-.388V67.7h1.225l-.006.589zM88.946 71.317v.36l.4-.006 2.966.006v-1.002l-.379.006.005.636h-1.956v-2.05h1.086v.498h.305v-.807H89.97v-1.242l1.713-.006v.54h.345v-.882h-3.076v.321h.388v3.628zM99.188 67.677v-.309h-1.459v.309h.393v4.207l3.087-3.468v2.957h-.395l.004.308h1.455v-.308h-.39l-.01-4.28-3.082 3.422.009-2.838zM85.027 70.802v.865h1.818c.844 0 1.505-.391 1.563-1.285-.005-.777-.475-1.047-1.221-1.224l.013-.052c.819-.047.98-.504.957-.984-.081-.566-.659-.795-1.768-.764l-1.363.009v.767h.463v-.445h.888c.733-.008 1.06.078 1.06.514.078.424-.277.773-.83.788h-.724v.796l.391-.01v-.48c.192-.012.371.004.522.047 1.206.315 1.034 1.974.073 1.979h-1.386v-.521h-.456zM92.939 71.345v.332h1.379v-.332h-.407v-2.06h2.269v2.054h-.34v.332h1.391v-.332h-.413V67.681h.397v-.306H95.84v.306h.34v1.311h-2.269v-1.303l.402-.008v-.306h-1.374v.306h.339v3.664zM59.359 69.082v.864h.622c1.266.081 1.826-.687 1.843-1.313-.029-.769-.753-1.297-1.601-1.297h-2.449v.354l.544-.018v3.698h-.53v.322h1.793v-.322h-.526v-3.712h1.186c1.104.014 1.248 2.227-.561 2.016l.015-.578-.336-.014zM67.541 71.339v.336h1.393v-.336h-.4v-3.681h.4l2.05-.018v3.699h-.337v.32h1.394v-.32h-.418v-3.681h.402v-.323h-4.484v.305h.337v3.699zM72.793 71.339v.336h1.395v-.336h-.403v-3.681h.403l2.048-.018v3.699h-.335v.32h1.393v-.32h-.417v-3.681h.403v-.323h-4.487v.305h.353v3.699zM53.454 71.419v.305h1.458l-.018-.305h-.385v-3.748h2.401v.61h.338v-.946h-3.794v.336h.366v3.748zM10.76 71.388v.319h1.393v-.319h-.399V69.308h2.45v2.062h-.339v.337h1.395v-.337h-.417v-3.681h.4v-.305h-1.378v.305h.339v1.328h-2.45v-1.313l.399-.015v-.305H10.76v.305h.351v3.699zM.383 71.37v.337h2.465c.85 0 1.571-.527 1.586-1.279 0-.642-.559-1.396-1.841-1.313h-.609v.849h.32v-.576c1.808-.225 1.666 2.002.56 2.017h-1.2v-3.731l1.843.018v.624h.43v-.961H.399v.337h.545v3.681H.383zM37.742 71.403l-.335-.015v.319h1.762l.014-.319h-.512l-2.193-2.226 1.682-1.473h.479v-.32h-1.601v.32h.512l-1.825 1.553z"/><path d="M34.542 71.37v.337h1.392v-.337h-.416v-3.681l.399-.018v-.302h-1.375v.302h.337v3.699zM33.899 68.183v-.864h-.849c-2.979-.192-3.09 4.567-.063 4.388h.912v-.848h-.337v.576c-.079.018-.432.018-.512.018-1.841-.083-1.967-3.908.113-3.877.048 0 .353.014.417.014l-.018.58.337.013zM19.104 71.403l-.321-.015v.336h1.746l.015-.336-.512.015-2.193-2.241 1.681-1.473h.479v-.32h-1.584v.32h.514l-1.842 1.57z"/><path d="M15.901 71.388v.336l1.394-.017v-.319h-.403V67.689h.403v-.32h-1.394v.302h.335v3.717zM45.496 71.388l.013.318h1.761v-.318l-.338.014 1.365-1.439v-.868l-.336.019.012.576c-1.807.207-1.662-2.001-.557-2.019h1.182v3.717h-.543v.318h1.81v-.318h-.529v-3.699l.545.015v-.353h-2.452c-.846 0-1.567.529-1.601 1.299.019.592.497 1.279 1.588 1.312l-1.394 1.426h-.526zM63.715 67.351h-1.698v.354h.385l2.178 3.186.018.033v.047c-.05.05-.083.094-.128.146-.324.272-.817.144-1.153-.178l-.065-.095.354-.385-.354-.32-.575.639.383.419c.594.528 1.106.655 1.697.16.017-.017.048-.034.067-.065 0 0 0-.016.011-.016l1.843-3.587h.387v-.353h-1.298v.353h.448l-1.298 2.562-1.775-2.545h.575v-.355zM8.422 71.707h1.712l-.016-.35h-.383l-2.241-4.551-.082.162-1.954 4.402h-.383v.337h1.312v-.337H5.94l.594-1.343h.878l.977.016L9 71.357h-.578v.35zm-1.009-2.016h-.785l.738-1.666.046.111.801 1.57-.8-.015zM23.412 71.707c.463 0 .831-.078 1.168-.271a2.07 2.07 0 0 0 .768-.799c.192-.353.271-.77.271-1.25 0-.433-.079-.801-.237-1.104a1.94 1.94 0 0 0-.722-.722c-.305-.16-.771-.241-1.248-.241h-.017c-.497 0-.848.081-1.17.257-.335.176-.576.434-.768.768-.176.322-.274.722-.274 1.203 0 .672.195 1.217.578 1.601.368.385.929.56 1.634.56h.017zm-1.154-1.169c-.129-.304-.193-.671-.193-1.12 0-.594.111-1.041.353-1.345.224-.289.561-.433.977-.433h.017c.432 0 .735.144.942.414.258.354.387.852.387 1.492 0 .625-.113 1.09-.339 1.392-.223.305-.607.45-.99.45-.305 0-.481-.065-.674-.193a1.548 1.548 0 0 1-.48-.657M26.261 71.37v.337l1.41-.015.641.015h.223c.863 0 1.536-.384 1.6-1.296-.013-.8-.48-1.073-1.248-1.25l.017-.047c.831-.049.992-.513.977-1.009-.08-.529-.593-.77-1.569-.77h-2.051v.305h.352v3.729h-.352zm.993-3.712h1.058c.56.031.831.141.831.525.079.434-.287.785-.831.801l-.753.018v.801l.399-.017v-.478c.129-.021.24 0 .354.015.064 0 .112.015.175.03 1.231.32 1.057 2.003.064 2.017h-1.297v-3.712zM81.045 71.707h1.697v-.35h-.398l-2.245-4.551-2.015 4.563h-.402v.354h1.312v-.353h-.447l.593-1.343h.895l.963.016.608 1.314h-.561v.35zm-1.812-2.016l.737-1.65.85 1.666-1.587-.016zM43.155 71.707h1.699v-.35h-.386l-2.242-4.551-2.015 4.563h-.387v.337h1.298v-.336h-.447l.591-1.343 1.856.016.609 1.314h-.576v.35zm-1.775-2.016l.734-1.666.817 1.682-1.551-.016zM0 65.781h106.104v.518H0zM0 72.741h106.104v.517H0zM98.948 44.103l-1.16-.026v1.135h6.111l.07-1.152-1.811.029-7.603-7.783 5.838-5.106 1.68-.016v-1.105h-5.552v1.105l1.768.014-6.354 5.42z"/><path d="M87.791 44.039v1.173l4.871-.029v-1.144h-1.433V31.184l1.401-.013v-1.093h-4.839v1.075h1.19v12.886zM64.083 44.028h-1.972v1.235l5.908.004-.012-1.231h-1.356l-7.81-15.831-7.037 15.868h-1.347v1.213h4.535v-1.213h-1.551l2.052-4.672 6.488.04 2.102 4.587zm-8.239-5.791l2.56-5.76 2.938 5.809-5.498-.049zM81.399 44h-1.18v1.166l4.867-.01V44H83.64V31.195l1.39.006v-1.087h-4.811v1.07h1.18v4.597h-8.532v-4.566l1.397-.014v-1.087H69.45v1.07h1.18v12.837h-1.18v1.167l4.849-.009v-1.158h-1.432v-7.223h8.532zM49.926 40.819c-.044-2.216-1.982-4.854-6.414-4.592l-2.153.031v2.957l1.151-.008-.027-2.019c6.307-.745 5.787 6.973 1.959 7.001H40.28l.012-12.937 6.378.025v2.183h1.522l-.009-3.336-12.296.024v1.122l1.875.031v12.817l-1.921-.019v1.199l8.536-.01c2.959.001 5.454-1.826 5.549-4.469M106.012 51.294l.009-3.263-13.17-.012-.002 3.256 1.103.008.005-2.087h4.229v13.022l-1.298-.006v1.036h5.038l-.01-1.03h-1.365V49.196l4.318-.002-.01 2.094zM60.371 63.237v-3.525l-1.325.016.009 2.252-6.931-.016v-7.228h3.875l-.002 1.751 1.058.011V53.65l-4.958-.002v-4.397l6.053-.01v1.901l1.241-.006v-3.112H48.489v1.131h1.385l-.014 12.817h-1.385l-.007 1.265 1.415-.006zM88.341 63.271l5.144.002v-1.1l-1.387-.009-.025-15.106-10.881 12.086.009-10.026h1.381l.007-1.088-5.163.006v1.087l1.396-.005.004 14.854 10.89-12.246.006 10.451h-1.404zM35.601 60.151V63.2l6.433.005c2.961 0 5.309-1.375 5.501-4.537-.02-2.738-1.661-3.691-4.291-4.31l.026-.179c2.906-.164 3.465-1.787 3.388-3.476-.292-2.005-2.324-2.81-6.255-2.687l-4.797.011-.002 2.707h1.621l.006-1.585 3.141.003c2.573-.015 3.727.282 3.727 1.817.295 1.508-.972 2.733-2.92 2.804l-2.548-.003v2.8l1.379-.041-.001-1.701a6.335 6.335 0 0 1 1.834.175c4.273 1.104 3.664 6.963.255 6.99h-4.88V60.15h-1.617zM71.742 62.056v1.177l4.898-.009v-1.168h-1.455V49.14l1.403.007v-1.095h-4.846v1.078h1.188v4.637h-8.004v-4.606l1.406-.014v-1.095h-4.847v1.078h1.191v12.947h-1.191v1.178l4.879-.009v-1.169h-1.438v-7.288h8.004v7.267z"/></g></svg>