<svg width="55" height="35" viewBox="0 0 55 35" xmlns="http://www.w3.org/2000/svg"><title>citibank</title><g fill="none" fill-rule="evenodd"><path d="M26.391 12.9h-4.425v21.37h4.425V12.9zM30.35 12.9v4.018h3.727V28.97c0 1.63.466 3.028 1.34 4.076.873.99 2.096 1.514 3.493 1.572 1.572.059 2.911-.35 3.901-.99h.059l.059-.058.931-3.785.059-.291-.233.116c-1.223.758-2.213 1.106-3.261 1.106-1.34 0-2.038-.756-2.038-2.387V16.918h4.484V12.9h-4.484V6.204l-4.25 2.33h-.06V12.9h-3.726zM51.604 12.9h-4.483v21.37h4.483V12.9zM11.834 12.493c-3.144 0-5.765.99-7.86 2.911C1.703 17.442.596 20.18.596 23.615c0 3.376 1.107 6.172 3.378 8.209 2.096 1.922 4.716 2.911 7.86 2.911 2.97 0 5.532-1.222 7.57-3.668l.059-.058-.059-.059-2.329-2.853-.116-.116-.059.116c-1.514 1.63-3.26 2.447-5.24 2.447-1.921 0-3.494-.641-4.775-1.98-1.223-1.281-1.863-2.91-1.863-4.949 0-2.039.64-3.67 1.863-4.95 1.28-1.34 2.854-1.98 4.775-1.98 1.98 0 3.726.815 5.24 2.446l.059.115.116-.115 2.33-2.854.058-.058-.059-.058c-2.038-2.445-4.6-3.668-7.57-3.668z" fill="#33347E"/><path d="M24.179 9.349c3.435-3.611 7.627-5.416 12.519-5.416 4.891 0 9.083 1.805 12.46 5.416l.117.057h5.008l-.175-.291c-1.98-2.795-4.542-5.007-7.687-6.638C43.336.847 40.133.09 36.698.09c-3.377 0-6.638.757-9.724 2.387-3.086 1.63-5.707 3.843-7.686 6.638l-.175.291h5.008l.058-.057z" fill="#EB2E2E"/></g></svg>