<svg width="150" height="30" viewBox="0 0 150 30" xmlns="http://www.w3.org/2000/svg"><title>Artboard 1 Copy</title><g fill="none" fill-rule="evenodd"><path d="M31.439 15.008c0 8.582-6.962 15.547-15.538 15.547C7.324 30.555.363 23.59.363 15.008S7.324-.538 15.9-.538c8.576 0 15.538 6.964 15.538 15.546" fill="#FFF"/><path d="M.623 15.008C.623 6.577 7.473-.28 15.901-.28c8.41 0 15.26 6.857 15.26 15.288 0 8.414-6.85 15.267-15.26 15.267-8.428 0-15.278-6.853-15.278-15.267m-.54 0c0 8.712 7.093 15.806 15.818 15.806 8.705 0 15.796-7.094 15.796-15.806 0-8.731-7.09-15.824-15.796-15.824C7.176-.816.083 6.277.083 15.008" fill="#1E3262"/><path d="M25.963 13.392c-.13.111-.26.203-.388.317-.875.666-2.267 1.206-4.178 1.709-3.972 1.076-6.853 1.222-10.12 2.025-.65.165-1.318.37-1.929.63.611.316 1.28.594 1.948.855 1.336-.39 1.97-.557 3.898-.873.743-.133 3.008-.54 4.641-.871 2.954-.635 7.28-2.01 6.128-3.792zm-1.911-3.716a15.93 15.93 0 0 0-2.247-.778 5.173 5.173 0 0 1-1.432.8c1.042.183 1.822.48 2.71.723.15.075.855-.573.969-.745zM9.588 13.633c3.862-1.133 7.91-1.485 12.013-2.58-1.596-.427-2.49-.614-4.176-.409-2.452.298-5.163.815-7.482 1.504-.912.28-5.682 1.634-4.307 3.528 0 .02.814-1.13 3.952-2.043zm-2.655 6.5c-.018.355.206.67.67 1.06.055-.187.149-.333.279-.52-.317-.169-.633-.334-.949-.54zm1.802-.164a5.78 5.78 0 0 1 1.038-.503c-.538-.243-1.113-.481-1.67-.742-.26.167-.5.333-.686.499.445.261.873.502 1.318.746zm14.832-8.21c-.777.371-1.891.741-3.488 1.133-1.318.333-4.512.797-7.945 1.54-1.078.241-4.031.928-5.48 2.153.41.338.67.41 1.115.67.594-.39 1.41-.761 2.62-1.08 2.094-.554 3.674-.795 5.57-1.109 1.873-.283 5.418-1.024 7.368-1.731.65-.221 1.243-.519 1.67-.874-.131-.146-1.393-.759-1.43-.702zm1.133-.69c.39.187.745.317 1.077.56.24-.466.092-.763-.407-1.19-.205.243-.43.446-.67.63zM6.75 18.036c-.354-.184-.577-.333-.874-.52-.15.336.15.705.446.874.13-.13.298-.242.428-.354zm16.41-10.66c-.075.26-.35.576-.538.782.576.149 1.17.368 1.726.574-.074-.52-.668-1.021-1.189-1.355zM5.001 10.66c4.048-2.636 8.523-4.195 16.096-2.876.409-.243.65-.484.763-.967-1.895-.686-3.954-.928-6.608-.892-2.378.075-6.667.965-8.967 2.323l.703-.872c1.597-.95 5.773-2.193 8.912-2.25 2.208-.054 3.34.074 5.978.78-.243-.443-.78-.667-1.579-1.038-2.542-1.134-7.277-1.247-11.156.48a8.89 8.89 0 0 1 1.597-.906c1.279-.596 3.378-1.173 5.995-1.117 2.1.038 4.587.762 6.108 2.267.259.314.409.63.464.873 1.207.612 1.911 1.188 2.301 1.856.169.353.224.724.149 1.151.5.296.744.557 1.005.895.165.278.295.59.333.874.055.368.092.796-.298 1.298.408.206.741.778.781 1.023.204.906-.391 1.798-1.151 2.487-.893.779-2.86 1.708-4.457 2.118-3.154.797-5.959 1.133-8.184 1.542 1.001.24 2.356.558 4.566.558 4.731 0 8.909-2.231 8.909-2.231s-.091.281-.186.541c-3.007 1.82-7.776 2.58-9.82 2.487-2.061-.095-3.805-.409-5.513-.93-.52.15-1.04.318-1.54.521 2.6 1.188 4.566 1.45 6.776 1.615 2.263.17 6.015-.372 9.169-1.52-.148.15-.222.37-.37.501-1.616.853-5.03 1.708-6.757 1.782-1.71.075-3.788 0-5.607-.335-1.56-.314-2.842-.8-4.178-1.391a1.08 1.08 0 0 0-.409.668c5.22 2.73 10.081 2.785 15.634 1.058l-.504.483c-6.107 2.49-10.878 1.522-14.574-.26-.128-.056-.277-.113-.387-.187.353.596 3.172 2.657 6.329 2.917 2.174.186 4.827-.186 6.406-.816l-.928.481c-.762.372-2.785 1.228-5.608 1.042-3.768-.261-5.886-1.933-6.832-2.804-.446-.412-.648-.874-.78-1.45-.854-.446-1.392-.911-1.836-1.617-.26-.39-.206-.852-.15-1.245l.114-.331c-.41-.3-.837-.615-1.003-.929-.373-.669-.148-1.247.11-1.692-.223-.26-.428-.52-.518-.78-.111-.297-.13-.597-.095-.929.074-.556.373-1.076.763-1.523.815-.946 2.117-1.69 4.324-2.414 2.174-.725 3.047-.838 4.68-1.21 1.912-.443 4.195-.591 6.108-1.26-5.33-.928-10.86-.075-15.372 3.025l.294-.874z" fill="#1E3262"/><path d="M51.619 12.241l.613 4.235h-1.227l.614-4.235zm-4.77 9.676h3.247l.409-2.397h2.246l.39 2.397h3.249L53.64 8.061h-4.046l-2.747 13.856zm12.622-8.486c.519 0 1.467-.335 1.467-1.357 0-1.206-1.095-1.282-1.412-1.282-.37 0-1.076.057-1.763.391l-.037-3.01a10.442 10.442 0 0 1 2.802-.354c2.638 0 3.808 1.84 3.808 3.64 0 1.748-1.004 2.804-1.987 3.214v.13c.947.3 2.208 1.207 2.208 3.325 0 2.62-1.818 4.067-4.158 4.067-1.244-.017-2.06-.183-3.045-.722l.056-2.88c.91.39 1.522.427 2.136.427 1.04 0 1.446-.763 1.446-1.318 0-.78-.5-1.3-1.595-1.3h-1.3V13.43h1.374zm6.59-5.37h8.762v13.856h-3.212V11.405h-2.338v10.512H66.06V8.061zm13.812 3.046h.761c.726 0 1.19.446 1.19 1.598 0 1.486-.781 1.596-1.19 1.596h-.761v-3.194zm-3.212 10.81h3.212V17.35h1.078c3.173 0 4.158-2.862 4.158-4.684 0-1.782-1.134-4.605-4.158-4.605h-4.29v13.856zm14.388-3.194c-1.134 0-1.707-1.318-1.707-3.751 0-2.435.573-3.752 1.707-3.752 1.134 0 1.707 1.317 1.707 3.752 0 2.433-.573 3.75-1.707 3.75zm0 3.362c3.806 0 5.085-3.567 5.085-7.113 0-3.546-1.279-7.114-5.085-7.114-3.805 0-5.086 3.568-5.086 7.114s1.28 7.113 5.086 7.113zm22.222-2.954v-3.138h.464c.39 0 1.393.019 1.393 1.448 0 1.45-1.003 1.69-1.393 1.69h-.464zm-3.138 2.786h3.825c.834 0 4.306-.354 4.325-4.552 0-3.525-2.691-4.139-4.437-4.139h-.575v-1.84h4.251V8.064h-7.389v13.854zm19.698-13.856h3.137v4.997h2.247V8.061h3.136v13.856h-3.136v-5.552h-2.247v5.552h-3.137V8.061zm10.635 0h3.157l-.019 4.978h.687l1.8-4.978h3.417l-2.452 6.577 2.805 7.28h-3.695l-1.818-5.573h-.744l.02 5.572h-3.158V8.061zm-99.836 0h6.587v3.455h-3.321v10.401H40.63V8.061zm57.048 0h2.73l2.41 3.27 2.434-3.27h2.71v13.856h-3.214v-8.451l-1.93 2.415-1.93-2.415v8.451h-3.21V8.061zm26.008 4.216l.593 4.217h-1.207l.614-4.217zm-4.79 9.658h3.268l.39-2.395h2.245l.39 2.395h3.268L125.71 8.082h-4.049l-2.764 13.853z" fill="#FFF"/></g></svg>