<svg width="150" height="21" viewBox="0 0 150 21" xmlns="http://www.w3.org/2000/svg" xmlns:xlink="http://www.w3.org/1999/xlink"><title>inteza</title><defs><path id="a" d="M0 20.784h149.507V0H0v20.784z"/></defs><g fill="none" fill-rule="evenodd"><path d="M17.893 5.73V5.73l-.007-.003c-.12-.076-.303-.116-.426-.062-.783-.076-1.53-.069-2.323-.06h-.023l-.032.002c-.397.005-.807.009-1.219.004l-3.32-.071a38.905 38.905 0 0 0-2.466.016c-.62.007-1.22.023-1.834.04-.638.017-2.162.023-3.072.026-.485.002-.738.002-.772.004-.108.006-.238.16-.24.283-.002.07.038.15.154.16.085.009.635.012 1.636.01l1.022-.006c.272-.002.398.003.457-.002h.006c.752-.08 1.507-.074 2.236-.069h.057c.472.002.96.006 1.452-.014a.72.72 0 0 0 .313-.021l.016-.002c.047-.008.095-.019.14-.022.113.031.24.031.376.028.13-.004.262-.005.383.025v.003l.021-.002v-.003c.107-.037.203-.018.305.003.004.002.02.003.02.003a.753.753 0 0 0 .139.02c.949-.026 1.998.009 3.308.113l.618.067h.008c.55-.056 1.119-.013 1.67.029h.013c.413.032.804.06 1.192.053l.003.004.023-.008V6.27l.205-.166h.001l.009-.011h-.001a.298.298 0 0 0-.048-.362" fill="#E1B523"/><path d="M12.663 12.718l.017-.012v-.042l-.015-1.323v-.008c-.023-.2-.028-.417-.033-.65-.006-.263-.011-.536-.046-.774-.007-.345-.072-.713-.137-1.068l-.044-.243-.004-.02-.016-.019c-.051-.052-.069-.12-.089-.196-.017-.065-.034-.133-.074-.197a2.64 2.64 0 0 0-.345-.458l-.006-.007c-.03-.042-.066-.065-.097-.084-.018-.013-.035-.023-.054-.039l-.028-.024-.016.003-.022-.02a.968.968 0 0 0-.33-.163h-.003c-.034-.05-.1-.058-.143-.06v-.031l-.062-.009-.287-.044-.042-.009-.026.037c-.01.014-.014.018-.074-.006a.608.608 0 0 0-.092-.026h-.035l-.014.016c-.01-.007-.021-.016-.034-.02l-.119-.038-.01.058a.263.263 0 0 0-.137.03h-.19l-.175.002.02.068-.003.004c-.078-.02-.137.028-.17.056l-.016.013a.237.237 0 0 0-.123.058c-.019.014-.025.019-.041.019l-.03.004-.019.022a.508.508 0 0 1-.154.092l-.097.043.021.022a.169.169 0 0 0-.046.031h-.094v.076c-.004-.002-.007-.002-.01-.002l-.053-.023a.325.325 0 0 0-.037.047c-.058.08-.132.159-.21.247a2.52 2.52 0 0 0-.259.314l-.021.033.013.035a.127.127 0 0 0-.07.093c-.035.039-.043.092-.05.127a.258.258 0 0 1-.005.033.264.264 0 0 0-.055.13c-.003.028-.006.044-.017.06l-.047.058.02.018c-.013.034-.013.071-.013.095a.16.16 0 0 1-.002.03l-.03.019.007.049c.013.092.001.179-.01.27a1.198 1.198 0 0 0-.014.277c-.036.056-.027.12-.021.161a.25.25 0 0 1 .003.042l-.045.036.032.058c.025.042.005.11-.013.176-.019.061-.04.139-.017.206a.083.083 0 0 0-.017.017.102.102 0 0 0-.014.056c0 .05-.003.066-.006.07l-.034.073-.004.028.06.044a.36.36 0 0 0 .003.116c.008.05.01.069-.005.088l-.038.072.038.046v.012c-.002.033-.005.092.035.134 0 .009.003.016.004.022l-.07.019.046.101a.114.114 0 0 1-.006.025c-.006.028-.02.088.01.138a.247.247 0 0 0 .001.154c.003.01.007.025.007.035-.065.07-.034.165-.015.216-.031.047-.024.108-.017.14l-.09.033.091.095a.101.101 0 0 0 .011.072c.01.017.024.028.038.033l-.027.01c0 .002.001.006.004.01h-.002l.033.084-.002.01c-.007.05.004.1.028.138a.09.09 0 0 0-.015.042l-.036.035.036.051c.027.04.016.093-.004.174-.017.073-.038.164.001.243l-.05.049.064.047-.005.01c-.017.032-.046.089-.01.15l-.002-.005c.014.027.007.077 0 .126-.007.076-.019.168.02.255l-.012.092.004-.012a.119.119 0 0 0 .008.088l-.028.01.02.063a.84.84 0 0 1 .02.23c0 .161.001.34.141.478l.032.03.039-.011c.105-.034.11-.14.113-.198l.002-.033.003-.016-.005-.015c-.042-.146-.024-.337-.008-.507.004-.045.008-.088.01-.13l.003-.02-.01-.016c-.029-.06-.022-.119-.013-.185a.487.487 0 0 0-.006-.202 8.83 8.83 0 0 0-.004-1c-.006-.137-.011-.266-.012-.385v-.004l-.001-.004a3.233 3.233 0 0 1-.008-.475c.003-.144.007-.289-.006-.424.034-.155.032-.295.03-.447-.002-.068-.003-.138-.002-.21l.003-.02-.006-.008c.032-.04.04-.082.024-.124a.66.66 0 0 0 .019-.158c.001-.038.002-.078.011-.111l.004-.016-.005-.018a.226.226 0 0 1 .007-.11c.01-.05.024-.107.004-.164.056-.116.068-.258.08-.397l.004-.047c.005-.03-.006-.058-.029-.085v-.003c0-.062.03-.11.07-.175a.584.584 0 0 0 .103-.251l.001-.016V8.63c.004-.006.01-.01.015-.016.027-.02.066-.057.065-.113a.081.081 0 0 0-.004-.028.566.566 0 0 0 .107-.147c.042-.07.072-.12.151-.143l.04-.012.01-.04c.012-.047.05-.073.112-.113a.44.44 0 0 0 .135-.113c.053.006.084-.008.103-.028a.382.382 0 0 0 .151-.088c.066-.053.087-.065.132-.044l.045.02.03-.029.005-.001c.02-.005.057-.016.078-.052a.25.25 0 0 0 .052-.014c.037-.013.045-.016.06-.008a.085.085 0 0 0 .066.01l.003.006.052-.008.07-.01c.207-.027.386-.05.548.039l.057.033.036-.053a.187.187 0 0 1 .02.025c.043.045.115.128.22.11.023.02.05.038.073.05.01.005.02.014.03.02v.003l.014.019c.033.044.102.065.157.069.123.13.246.31.246.389v.072h.054v.005c.021.097.049.216.121.295-.02.05-.003.11.006.136l.007.024-.018.057.048.049.01.005c-.003.05.02.099.035.13l.013.03-.012.026c-.065.125.022.197.064.23l.015.013c-.032.024-.031.053-.037.097l.005.056.022.037h.002c0 .002.001.006.004.007.003.01.007.027.016.042l-.025.025-.017.067.036.053.027.013c0 .03.012.057.02.074l.004.013-.005.032c-.026.12-.055.277.018.402l-.005.007c-.035.046-.027.1-.02.139.001.01.005.033.004.039l-.019.077a.13.13 0 0 0 .044.012c-.001.01-.004.014-.006.025l-.016.088h.028a.65.65 0 0 0-.006.083c0 .044-.002.072-.018.096l-.006.01-.003.01c-.02.08.01.155.031.216a.271.271 0 0 0 .013.034.08.08 0 0 0-.023.063c0 .007.003.012.004.017l-.016.016.014.042a.084.084 0 0 0 .04.05l-.012.003c-.003 0-.003.056-.003.056v.021l-.045.015.023.047a.116.116 0 0 0-.012.092l-.03.054c.001-.002.005.035.033.05-.028.1.042.173.085.215l.037.044h-.034l.025.094.001.003a.197.197 0 0 0-.02.022l-.058.029.019.083-.006.017c-.013.044-.003.074.01.092.002.001.005.005.008.006a.17.17 0 0 0-.05.105l-.007.068.055.009a.7.7 0 0 0-.012.042c-.008.027-.013.05-.024.067-.002.003-.004.005-.005.009l.096.054a.402.402 0 0 0-.027.074c-.004.008-.007.023-.01.03H12.145l.005.095c.005.014.007.032.009.05.001.019.004.04.008.059v.097c0 .012 0 .031.005.054l-.012.005.008.053a.323.323 0 0 1 0 .08l-.002.05-.065.034.079.09v.005c-.01.02-.021.05-.021.084h-.058l.098.122c.008.008.016.036.021.056l.001.007c-.04.038-.046.098-.048.13-.002.012-.004.033-.007.04h.001l.025.032a.103.103 0 0 0-.037.044.125.125 0 0 0-.009.07h-.094l.078.078-.072.026.06.05v.198a.09.09 0 0 0 .045.08c.002 0 .004.003.004.003a.14.14 0 0 0 .116.016v.082l.092-.03a.327.327 0 0 1 .173-.01l.076.013.01-.076c.037-.296.03-.58.023-.858a4.752 4.752 0 0 1 .02-.773c.02-.05-.002-.093-.015-.116" fill="#006C37"/><path d="M6.728 12.718l.017-.012-.001-.042-.015-1.323v-.008a7.052 7.052 0 0 1-.032-.65c-.006-.263-.01-.536-.046-.774-.006-.345-.073-.713-.137-1.068l-.043-.243-.004-.02-.016-.019c-.053-.052-.07-.12-.09-.196-.017-.065-.034-.133-.073-.197-.087-.16-.225-.319-.346-.458l-.006-.007c-.03-.042-.066-.065-.096-.084-.02-.013-.035-.023-.054-.039l-.028-.024-.017.003-.022-.02a.973.973 0 0 0-.33-.163h-.002c-.035-.05-.1-.058-.144-.06v-.031l-.062-.009-.287-.044-.043-.009-.026.037c-.01.014-.012.018-.074-.006a.546.546 0 0 0-.09-.026h-.035l-.016.016a.127.127 0 0 0-.032-.02l-.12-.038-.01.058a.26.26 0 0 0-.136.03H4.12l-.175.002.02.068-.003.004c-.078-.02-.137.028-.17.056l-.015.013a.235.235 0 0 0-.124.058c-.018.014-.025.019-.042.019l-.029.004-.02.022a.486.486 0 0 1-.154.092l-.097.043.021.022a.175.175 0 0 0-.045.031h-.093v.076c-.005-.002-.008-.002-.012-.002l-.052-.023c-.004 0-.038.047-.038.047-.057.08-.131.159-.21.247a2.436 2.436 0 0 0-.259.314l-.022.033.015.035a.124.124 0 0 0-.069.093c-.036.039-.043.092-.05.127a.4.4 0 0 1-.006.033.254.254 0 0 0-.053.13.144.144 0 0 1-.02.06l-.045.058.021.018a.258.258 0 0 0-.016.095v.03l-.031.019.007.049a.957.957 0 0 1-.01.27 1.09 1.09 0 0 0-.014.277c-.036.056-.028.12-.022.161a.154.154 0 0 1 .005.042l-.047.036.033.058c.025.042.005.11-.013.176-.019.061-.04.139-.018.206-.005.005-.011.01-.016.017a.09.09 0 0 0-.013.056c0 .05-.005.066-.007.07l-.034.073-.006.028.063.044a.36.36 0 0 0 .003.116c.008.05.01.069-.005.088l-.04.072.04.046v.012c-.002.033-.005.092.034.134 0 .009.003.016.004.022l-.07.019.046.101c0 .007-.003.016-.005.025-.007.028-.02.088.01.138a.264.264 0 0 0 0 .154.26.26 0 0 1 .008.035c-.066.07-.034.165-.016.216-.031.047-.024.108-.017.14l-.09.033.091.095a.098.098 0 0 0 .011.072c.011.017.024.028.04.033l-.029.01.003.01.032.084-.002.01c-.007.05.004.1.027.138a.097.097 0 0 0-.015.042l-.035.035.035.051c.028.04.017.093-.002.174-.019.073-.04.164.001.243l-.05.049.062.047-.004.01c-.016.032-.045.089-.01.15l-.003-.005c.014.027.007.077.002.126a.468.468 0 0 0 .02.255l-.012.092.003-.012a.116.116 0 0 0 .008.088l-.03.01.022.063a.84.84 0 0 1 .02.23c0 .161.001.34.141.478l.032.03.04-.011c.105-.034.11-.14.112-.198l.002-.033.002-.016-.004-.015c-.042-.146-.024-.337-.007-.507.002-.045.007-.088.01-.13l.001-.02-.009-.016c-.028-.06-.021-.119-.013-.185a.48.48 0 0 0-.007-.202 9.22 9.22 0 0 0-.002-1c-.006-.137-.011-.266-.013-.385v-.004l-.001-.004c-.018-.153-.013-.317-.008-.475a3.572 3.572 0 0 0-.005-.424c.033-.155.032-.295.029-.447a4.588 4.588 0 0 1 0-.21v-.02l-.004-.008c.031-.04.039-.082.023-.124.015-.056.017-.11.019-.158.001-.038.002-.078.01-.111l.003-.016-.004-.018a.235.235 0 0 1 .009-.11.306.306 0 0 0 .003-.164c.056-.116.069-.258.08-.397l.004-.047a.101.101 0 0 0-.03-.085v-.003c0-.062.031-.11.07-.175a.572.572 0 0 0 .104-.251l.001-.016-.001-.003.017-.016c.025-.02.065-.057.064-.113a.096.096 0 0 0-.005-.028.587.587 0 0 0 .11-.147c.04-.07.069-.12.149-.143l.04-.012.01-.04c.011-.047.05-.073.112-.113a.443.443 0 0 0 .135-.113c.053.006.084-.008.103-.028a.37.37 0 0 0 .15-.088c.066-.053.088-.065.132-.044l.047.02.028-.029.005-.001a.116.116 0 0 0 .08-.052.265.265 0 0 0 .052-.014c.036-.013.045-.016.058-.008a.09.09 0 0 0 .067.01l.003.006.052-.008.07-.01c.208-.027.387-.05.549.039l.057.033.035-.053a.333.333 0 0 1 .021.025c.042.045.114.128.22.11.023.02.049.038.072.05.01.005.021.014.03.02v.003l.014.019c.033.044.102.065.157.069.123.13.246.31.246.389v.072h.053c0 .003.002.003.002.005.02.097.048.216.12.295-.02.05-.002.11.006.136a.206.206 0 0 1 .007.024l-.018.057.047.049.01.005c-.002.05.02.099.036.13.004.01.009.019.012.03l-.012.026c-.063.125.024.197.065.23.007.006.01.01.016.013-.034.024-.032.053-.037.097l.005.056.021.037h.002l.002.007c.004.01.008.027.018.042L6.14 9.7l-.016.067.035.053.028.013c0 .03.01.057.02.074 0 .004 0 .009.003.013l-.007.032c-.023.12-.052.277.02.402-.002.004-.003.004-.006.007-.034.046-.024.1-.02.139.002.01.006.033.004.039l-.018.077a.139.139 0 0 0 .044.012c-.002.01-.006.014-.006.025l-.016.088h.03a.504.504 0 0 0-.008.083c0 .044-.002.072-.018.096l-.006.01-.003.01c-.021.08.008.155.03.216l.013.034a.082.082 0 0 0-.022.063c0 .007.002.012.004.017l-.016.016.014.042a.08.08 0 0 0 .04.05l-.012.003c-.002 0-.002.056-.002.056v.021l-.046.015.023.047a.116.116 0 0 0-.012.092l-.03.054c.001-.002.005.035.032.05-.028.1.043.173.085.215.018.02.03.033.037.044h-.035l.027.094.001.003a.154.154 0 0 0-.02.022l-.057.029.019.083-.006.017c-.014.044-.003.074.008.092.003.001.006.005.01.006a.16.16 0 0 0-.05.105l-.008.068.056.009a.7.7 0 0 0-.013.042c-.007.027-.012.05-.024.067-.001.003-.004.005-.005.009l.096.054a.332.332 0 0 0-.027.074c-.002.008-.007.023-.011.03H6.212l.004.095a.157.157 0 0 1 .007.05l.01.059v.097c0 .012.001.031.004.054l-.01.005.007.053a.43.43 0 0 1 0 .08v.05l-.067.034.08.09a.217.217 0 0 0-.022.089h-.058l.098.122c.009.008.014.036.021.056l.002.007c-.04.038-.046.098-.049.13-.003.012-.004.033-.006.04l.025.032a.112.112 0 0 0-.037.044.13.13 0 0 0-.008.07h-.095l.078.078-.072.026.06.05v.198c0 .034.016.065.045.08l.004.003a.14.14 0 0 0 .116.016v.082l.092-.03a.327.327 0 0 1 .174-.01l.076.013.009-.076c.038-.296.029-.58.023-.858a4.69 4.69 0 0 1 .02-.773c.02-.05 0-.093-.015-.116" fill="#005698"/><path d="M18.06 12.717l.017-.011v-.04l-.015-1.327v-.007a6.524 6.524 0 0 1-.033-.651 6.82 6.82 0 0 0-.046-.773c-.007-.344-.072-.712-.138-1.067l-.043-.243-.003-.022-.016-.019c-.053-.053-.07-.119-.09-.196-.016-.063-.033-.132-.073-.194a2.705 2.705 0 0 0-.346-.458l-.007-.008c-.03-.042-.066-.065-.096-.086-.018-.01-.035-.02-.054-.037l-.028-.026-.017.004-.02-.016a.967.967 0 0 0-.331-.166l-.002-.002c-.036-.049-.1-.056-.145-.057v-.032l-.06-.01-.29-.045-.04-.007-.027.036c-.01.016-.013.02-.073-.006-.028-.009-.06-.02-.092-.023l-.033-.003-.017.017a.31.31 0 0 0-.033-.02l-.12-.038-.009.057a.276.276 0 0 0-.137.032h-.366l.021.068-.003.005c-.078-.02-.137.027-.17.055-.006.007-.012.01-.015.014-.064.01-.099.038-.125.058-.017.014-.023.019-.04.019l-.03.004-.02.02c-.026.036-.109.073-.153.094l-.097.044.021.022a.151.151 0 0 0-.046.029h-.093v.077l-.012-.002-.052-.022c-.004-.002-.039.046-.039.046-.056.08-.13.161-.208.246-.092.1-.186.203-.259.314l-.022.033.014.034a.136.136 0 0 0-.07.093.252.252 0 0 0-.05.13.114.114 0 0 1-.006.03.268.268 0 0 0-.052.132.143.143 0 0 1-.019.06l-.046.06.02.016a.264.264 0 0 0-.014.094.168.168 0 0 1-.002.03l-.03.02.006.047a.922.922 0 0 1-.011.273c-.01.086-.022.175-.013.276-.035.056-.026.12-.02.162a.212.212 0 0 1 .003.042l-.046.035.033.058c.025.042.006.109-.014.176-.017.061-.039.141-.017.206-.005.005-.011.01-.016.017a.087.087 0 0 0-.014.056c0 .05-.004.065-.007.07l-.033.072-.006.029.062.044a.36.36 0 0 0 .003.116c.007.05.01.07-.004.088l-.039.072.038.046v.012c-.002.031-.005.092.034.134a.134.134 0 0 0 .005.023l-.07.02.046.1c0 .006-.004.015-.006.024-.006.028-.02.086.01.139-.022.058-.008.114.002.153l.006.033c-.066.072-.034.169-.016.218-.03.05-.023.106-.017.14l-.09.033.092.095a.092.092 0 0 0 .011.072c.01.017.025.028.038.033l-.028.009.004.01.032.086-.001.009c-.008.051.004.1.028.138a.073.073 0 0 0-.015.042l-.037.035.035.051c.027.04.017.093-.003.174-.017.072-.04.164 0 .242l-.049.052.064.045a.027.027 0 0 1-.006.01c-.016.03-.046.089-.009.15l-.003-.007c.014.028.008.077.002.13-.009.074-.02.165.02.254l-.012.089.001-.01a.117.117 0 0 0 .009.086l-.028.014.02.061c.02.066.02.147.02.23 0 .16 0 .34.143.477l.03.03.04-.012c.105-.032.11-.14.113-.195.002-.012.002-.025.002-.036l.002-.016-.004-.013c-.042-.147-.025-.338-.008-.509.003-.043.008-.086.01-.126l.002-.023-.01-.017c-.028-.06-.02-.116-.012-.185a.484.484 0 0 0-.007-.2c.025-.31.01-.676-.002-1-.006-.139-.011-.267-.013-.386v-.004l-.001-.003c-.018-.154-.013-.317-.008-.476a3.585 3.585 0 0 0-.005-.425c.033-.153.031-.295.028-.445V10.316l-.004-.008c.033-.041.04-.083.024-.124a.663.663 0 0 0 .019-.158c.001-.04.002-.076.01-.109l.004-.02-.005-.017a.25.25 0 0 1 .009-.11.3.3 0 0 0 .003-.165c.056-.114.068-.257.08-.395l.004-.047a.094.094 0 0 0-.03-.083v-.005c0-.062.03-.111.07-.173.043-.07.09-.146.104-.253V8.63l.017-.016c.025-.023.065-.058.064-.112a.074.074 0 0 0-.005-.029.583.583 0 0 0 .11-.147c.04-.07.07-.12.149-.143l.04-.012.01-.041c.01-.046.05-.07.113-.11a.511.511 0 0 0 .134-.113c.053.004.084-.012.102-.032a.373.373 0 0 0 .151-.086c.067-.054.088-.067.133-.044l.046.022.028-.03.006-.002a.13.13 0 0 0 .079-.051.216.216 0 0 0 .052-.016c.037-.012.045-.014.058-.007a.094.094 0 0 0 .067.01l.003.006.053-.01.07-.008c.207-.027.385-.05.547.039l.058.031.034-.05a.076.076 0 0 1 .021.022c.042.048.115.129.221.111.022.022.049.037.072.05.009.008.021.013.03.02v.004l.015.02c.032.043.102.064.157.066.121.132.245.31.245.39v.072h.052l.003.006c.02.097.047.216.12.295-.02.05-.003.11.005.134.004.008.006.02.008.027l-.017.056.046.049.012.005a.275.275 0 0 0 .035.132l.012.027-.012.027c-.064.128.023.196.063.229l.017.014c-.033.025-.032.05-.039.097l.006.056.023.036.002.001c0 .004 0 .006.002.007.003.01.007.026.017.042l-.024.025-.018.067.036.053.029.012c-.002.032.01.058.018.076 0 .003.002.007.004.01l-.007.033c-.024.122-.053.279.02.405-.002 0-.003.003-.003.003-.037.048-.028.102-.022.14.001.014.005.032.003.04l-.019.075c0 .004.025.009.045.015-.001.007-.005.015-.007.022l-.016.09h.03a.394.394 0 0 0-.007.081c0 .045-.001.074-.018.096l-.006.011-.003.01a.342.342 0 0 0 .03.215.608.608 0 0 0 .013.035.09.09 0 0 0-.023.062c0 .007.003.012.006.02l-.017.015.014.042c.007.025.023.04.04.05l-.012.001c-.003 0-.003.06-.003.06v.02l-.045.014.023.047a.117.117 0 0 0-.011.092l-.032.055s.006.034.033.048c-.027.1.042.173.086.217.017.019.03.03.037.041h-.036l.027.095.001.004a.11.11 0 0 0-.019.02l-.058.03.018.082-.007.021a.095.095 0 0 0 .01.088c.004.006.006.007.009.009a.164.164 0 0 0-.05.103l-.007.07.055.006-.012.044a.252.252 0 0 1-.024.066l-.005.01.096.055a.37.37 0 0 0-.027.071.172.172 0 0 1-.011.03H17.544l.004.097a.238.238 0 0 1 .008.05c.002.02.004.038.01.06v.096a.37.37 0 0 0 .003.053l-.01.005.007.054c.005.027.001.053 0 .08a.359.359 0 0 0 0 .049l-.067.035.08.088c0 .003-.001.003-.003.006a.215.215 0 0 0-.018.085h-.059l.097.122c.008.008.016.036.021.056l.003.007c-.04.038-.046.098-.05.13a.188.188 0 0 1-.006.04l.001-.001.024.032a.13.13 0 0 0-.037.047.122.122 0 0 0-.007.069h-.095l.077.078-.072.025.061.05v.2c0 .033.016.065.044.079 0 0 .005 0 .006.002.037.026.08.026.114.016v.082l.094-.03a.34.34 0 0 1 .172-.012l.077.016.009-.08c.037-.293.03-.58.023-.854-.007-.27-.014-.524.02-.773.021-.048-.001-.094-.015-.118" fill="#E36729"/><mask id="b" fill="#fff"><use xlink:href="#a"/></mask><path d="M18.789 19.249H1.047V1.073h17.742V19.25zM0 20.319h19.84V0H0v20.319z" fill="#E36729" mask="url(#b)"/><path d="M36.518 12.89c0 2.031-1.539 4.137-4.948 4.137-.222 0-.76-.039-1.298-.058a24.523 24.523 0 0 0-1.389-.056c-.204 0-.612 0-1.056.02-.428 0-.909.036-1.279.036-.242 0-.371-.056-.371-.187 0-.096.074-.154.296-.154.278 0 .5-.037.668-.074.37-.076.463-.493.537-1.045.092-.797.092-2.295.092-4.043v-3.34c0-2.883 0-3.416-.037-4.023-.036-.645-.185-.95-.796-1.081-.15-.04-.464-.059-.723-.059-.204 0-.315-.038-.315-.17 0-.133.13-.171.407-.171.983 0 2.15.057 2.521.057.782 0 1.427-.043 1.993-.053v.012c.097-.003.197-.009.299-.012.84-.02 1.986.026 3.331.027.973 0 1.066.096 1.178.516.15.556.28 1.993.28 2.204 0 .228-.019.325-.149.325-.15 0-.187-.116-.205-.289-.038-.363-.262-.898-.486-1.148-.469-.517-1.197-.536-2.188-.536-1.458 0-2.117.05-2.435.337-.393.343-.393 1.666-.393 4.117v.352a.21.21 0 0 0 .073.033c.166.037.423.067.871.086.61.03 1.788.166 2.322.319 1.52.53 3.2 1.702 3.2 3.921zm-4.522 3.285c-.426 0-.853-.02-1.353-.229-.593-.246-.648-.569-.648-1.822V9.626c0-.096.036-.133.111-.133.277 0 .463 0 .797.019.723.04 1.148.172 1.538.455 1.408 1.004 1.797 2.6 1.797 3.777 0 1.976-1.409 2.431-2.242 2.431zm44.337.469c-.224 0-.594-.056-1.152-.284-1.004-.4-1.841-1.255-2.66-2.058-.724-.707-4.37-4.724-5.04-5.62.631-.684 3.441-3.541 4.017-4.113.8-.8 1.434-1.2 2.008-1.428.354-.134.82-.21 1.079-.21.186 0 .28-.038.28-.171 0-.134-.13-.174-.317-.174-.578 0-1.602.058-2.176.058-.502 0-1.525-.058-1.915-.058-.206 0-.298.04-.298.174 0 .114.073.15.242.19.185.039.26.172.26.38 0 .325-.41.801-.93 1.43-.539.647-3.253 3.484-3.885 4.19h-.094v-.837c0-2.897 0-3.43.036-4.04.039-.667.187-.99.69-1.084.223-.04.334-.059.52-.059.15 0 .26-.037.26-.17 0-.134-.13-.174-.39-.174-.633 0-1.805.058-2.251.058-.445 0-1.616-.058-2.603-.058l-.024.001-.023-.001c-.725 0-1.896.058-2.341.058-.503 0-1.674-.058-2.678-.058-.26 0-.39.038-.39.172 0 .133.11.172.315.172.26 0 .578.018.726.056.612.134.762.439.799 1.085.037.61.037 1.144.037 4.036v.4c0 .096-.056.133-.111.133H51.85c-.056 0-.112-.037-.112-.132v-.4c0-2.893 0-3.428.037-4.037.037-.666.186-.99.687-1.085.224-.038.391-.056.54-.056.224 0 .335-.039.335-.172 0-.134-.13-.172-.39-.172-.726 0-1.897.058-2.344.058-.5 0-1.671-.058-2.675-.058-.26 0-.39.038-.39.172 0 .133.11.172.315.172.26 0 .576.018.725.056.614.134.762.439.8 1.085.036.61.036 1.144.036 4.036v3.352c0 1.749 0 3.254-.093 4.054-.074.55-.167.971-.538 1.047l-.068.014c-.66-.028-.874-.513-1.497-2.04-1.192-2.894-4.166-10.668-4.616-11.716-.185-.438-.297-.607-.464-.607-.186 0-.299.209-.525.76L36.95 14.937c-.372.948-.727 1.596-1.582 1.713-.15.017-.162.034-.333.034-.15 0-.22.042-.22.155 0 .15.11.187.353.187.962 0 1.744-.054 1.948-.054.58 0 1.377.054 1.971.054.208 0 .315-.037.315-.187 0-.113-.054-.155-.274-.155h-.282c-.576 0-.745-.244-.745-.588 0-.228.098-.685.28-1.159l1.006-2.727c.036-.114.074-.155.167-.155H43.7c.092 0 .152.041.191.135l1.487 4.037c.09.23-.037.404-.17.44-.186.017-.26.059-.26.172 0 .133.222.133.558.15 1.488.037 2.845.037 3.515.037.418 0 3.108-.012 4.314-.012.204 0 .37-.046.437-.135a.136.136 0 0 0 .015-.03c.003-.002.005-.007.007-.01a.184.184 0 0 0 .009-.052.12.12 0 0 0-.017-.063l-.013-.016a.14.14 0 0 0-.032-.024c-.005-.004-.007-.01-.013-.013h-.006a.513.513 0 0 0-.216-.036c-.278 0-.688-.037-.948-.076-.558-.076-.67-.496-.726-1.029-.092-.818-.092-2.323-.092-4.072V9.783c0-.095.056-.114.112-.114h6.473c.055 0 .11.039.11.114l.001 1.676c0 1.749 0 3.254-.093 4.054-.073.55-.167.971-.54 1.047-.166.039-.39.076-.668.076-.223 0-.297.057-.297.152 0 .133.13.19.39.19.725 0 1.896-.057 2.323-.057.47 0 1.468.047 2.545.055.045.007.1.012.16.012.746 0 1.917-.058 2.345-.058.463 0 1.635.058 2.676.058.205 0 .354-.058.354-.191 0-.095-.091-.153-.241-.153-.241 0-.65-.037-.91-.075-.467-.075-.633-.496-.671-1.028-.056-.818-.056-2.326-.056-4.077V9.73h.094l.204.285c.39.554 4.052 4.953 4.872 5.697.797.723 1.3 1.143 2.307 1.237.39.04.724.04 1.282.04h1.617c.354 0 .449-.059.449-.192 0-.113-.114-.153-.244-.153zm-32.984-5.535h-3.423c-.076 0-.093-.062-.076-.138l1.71-4.686c.023-.076.054-.174.112-.174.055 0 .076.098.093.174l1.676 4.704c.016.058 0 .12-.092.12zm20.134.355c0 1.751 0 3.259-.093 4.057-.075.552-.168.973-.538 1.048a3.308 3.308 0 0 1-.44.067 8.349 8.349 0 0 1-.835-.076c-.558-.076-.67-.496-.726-1.029-.092-.818-.092-2.323-.092-4.072V8.107c0-2.892 0-3.427.036-4.036.038-.666.188-.99.689-1.085.19-.033.34-.05.472-.054.253.001.548.02.69.057.614.133.764.437.8 1.084.037.61.037 1.143.037 4.04v3.35zM149.434 16.715c-.221 0-.503-.017-.783-.075-.392-.114-.93-.38-1.64-2.09-1.192-2.891-4.173-10.68-4.622-11.73-.187-.437-.297-.61-.465-.61-.187 0-.298.21-.522.763l-4.678 11.988c-.372.955-.493 1.53-1.246 1.714-.148.035-.116.02-.298.033-.149.012-.288.048-.288.16 0 .153.119.192.36.192.969 0 1.152.009 1.359.009.576 0 1.66-.009 2.257-.009.205 0 .317-.039.317-.191 0-.113-.056-.154-.281-.154h-.278c-.579 0-.747-.247-.747-.59 0-.229.093-.688.28-1.164l1.006-2.729c.038-.114.075-.153.169-.153h4.156c.092 0 .149.039.186.131l1.491 4.049c.093.229-.037.4-.168.439-.187.017-.26.058-.26.17 0 .134.223.134.56.153 1.49.04 2.85.04 3.521.04.69 0 .856-.04.856-.192 0-.134-.093-.154-.242-.154m-6.297-5.591h-3.43c-.075 0-.094-.058-.075-.133l1.714-4.696c.019-.077.056-.172.113-.172.055 0 .073.095.092.172l1.678 4.715c.018.056 0 .114-.092.114" fill="#006C37" mask="url(#b)"/><path d="M135.326 9.892a5.117 5.117 0 0 0-1.547-.649v-.038c.221-.08.554-.252.911-.503.78-.473 1.298-1.062 1.553-1.767.125-.34.186-.707.186-1.1 0-.573-.143-1.074-.425-1.508a2.902 2.902 0 0 0-.597-.658c-.679-.554-1.818-.832-3.41-.832-.808 0-1.559.095-2.36.284a4.75 4.75 0 0 1-.681-.007c-.354-.062-.62-.092-.766-.122-.117-.03-.206-.09-.294-.09-.116 0-.116.09-.116.18 0 .123.103.51.16 1.354 0 .21.061 1.025.09 1.266.03.091.059.181.177.181.146 0 .176-.09.176-.241 0-.152 0-.452.12-.695.07-.103.142-.191.217-.27.285-.297.616-.447 1.067-.628l.11-.037c.447-.162.954-.262 1.643-.262 1.059 0 1.811.257 2.259.761.451.51.675 1.12.675 1.838 0 .767-.254 1.421-.768 1.968-.259.274-.604.478-1.034.612-.418.131-.918.198-1.498.198-.39 0-1.147.033-1.347.205-.197.166-.17.393.037.571.134.114.683.114 1.08.114.12 0 .24-.002.353-.003.588-.006 1.107-.016 1.557.123 1.463.454 2.195 1.524 2.195 3.212 0 .98-.289 1.765-.862 2.366-.014.012-.024.028-.038.04-.602.605-1.43.828-2.484.828-1.073-.06-1.985-.172-2.673-.752-.325-.274-.6-.653-.82-1.179-.027-.066-.057-.135-.083-.207-.05-.137-.327-.976-.374-1.266-.083-.52-.442-.268-.442.114-.02.212-.111 1.4-.124 1.514-.03.183-.005.097-.036.218-.185.807-.453.922-.92 1.198-.48.213-.982.213-1.464.213-1.928 0-3.314-.275-3.343-1.59-.03-.55 0-2.294 0-2.965v-1.5c0-.091.029-.183.12-.183.452 0 3.102.032 3.465.062.69.06.963.367 1.053.733.061.244.061.49.09.703 0 .094.03.153.151.153.18 0 .18-.214.18-.365 0-.124.03-.888.06-1.254.061-.98.151-1.285.151-1.407 0-.123-.06-.153-.12-.153-.09 0-.182.091-.302.245-.18.214-.452.244-.903.306-.42.03-3.403.03-3.825.03-.091 0-.12-.092-.12-.215v-4.8c0-.154.029-.215.12-.215.392 0 3.163.061 3.495.093.933.121 1.113.336 1.233.672.12.244.12.55.12.703 0 .153.032.244.182.244.12 0 .15-.091.18-.184.03-.243.092-1.07.092-1.284.06-.856.15-1.1.15-1.222 0-.094 0-.185-.121-.185-.09 0-.18.062-.3.091-.151.032-.423.065-.784.124h-5.513c-.114 0-.258 0-.421-.002-.16-.007-.34-.014-.525-.016l-.227-.012h-.468a26.596 26.596 0 0 0-.66-.02v-.045c-.03-.123-.059-.153-.15-.153-.15 0-.603.185-1.776.185h-6.326c-.602 0-1.295-.032-1.837-.094-.483-.031-.663-.153-.814-.153-.09 0-.15.03-.21.247l-.001.02c-.597.01-1.403.012-1.929.022-.06.002-.113.002-.157.002-.505 0-1.679-.057-2.688-.057-.26 0-.39.037-.39.17 0 .136.111.173.317.173.261 0 .578.02.726.059.616.133.766.438.802 1.088.038.612.038 1.147.038 4.05v.4c0 .095-.056.134-.112.134h-6.495c-.057 0-.113-.039-.113-.133v-.402c0-2.902 0-3.437.038-4.05.037-.667.187-.992.69-1.087.223-.04.391-.059.541-.059.223 0 .336-.037.336-.172 0-.134-.13-.17-.39-.17-.729 0-1.903.033-2.351.033-.064 0-2.578-.035-2.635-.026-.65.006-1.433.022-1.752.043-.077.004-.22.1-.265.162-.527.73-.616.848-1.117 1.535-2.422 3.19-5.527 9.58-6.122 10.234a109.2 109.2 0 0 1-.027-3.105V8.542c0-2.9 0-3.424.06-4.04.03-.648.18-.987.663-1.081.24-.032.392-.062.572-.062.18 0 .271-.03.271-.184 0-.123-.12-.155-.36-.155-.723 0-1.809.061-2.26.061-.542 0-1.717-.061-2.41-.061-.3 0-.45.032-.45.155 0 .155.12.184.3.184.212 0 .452.03.663.094.42.092.602.4.632 1.048.03.617.03 1.14.03 4.041v3.332c0 1.85 0 3.362-.089 4.164-.061.556-.152.864-.544.957-.15.03-.39.061-.662.061-.21 0-.3.062-.3.152 0 .158.15.186.39.186.723 0 1.898-.028 2.32-.028.296 0 .51 0 .684-.099a.33.33 0 0 0 .16-.113c1.022-1.14 6.31-10.237 6.58-10.607l-.03 4.564-.09 3.73c-.029 1.482-.272 1.976-.632 2.098-.331.124-.665.124-.965.124-.21 0-.3.03-.3.153 0 .154.15.186.42.186.072 0 .143 0 .213-.002.052.009.119.015.196.015.722 0 1.808-.064 2.259-.064.543 0 2.6.067 2.667.058.61-.007 1.322-.025 1.708-.028l.146-.002c.524 0 1.698.058 2.91.058.224 0 .372-.058.372-.191 0-.095-.092-.151-.298-.151-.28 0-.69-.039-.951-.078-.56-.077-.672-.497-.727-1.032-.094-.821-.094-2.33-.094-4.086v-1.681c0-.097.056-.115.113-.115h6.495c.056 0 .112.037.112.115v1.68c0 1.757 0 3.266-.093 4.07-.076.552-.168.972-.54 1.05-.169.038-.392.077-.672.077-.224 0-.299.056-.299.151 0 .133.133.191.391.191.73 0 1.903-.058 2.333-.058.066 0 .146.002.232.004.496.003 1.534.02 2.195.02.24 0 .392-.031.392-.185 0-.091-.09-.155-.3-.155a3.58 3.58 0 0 1-.664-.06c-.393-.093-.482-.4-.542-.956-.092-.804-.092-2.315-.092-4.166v-3.33c0-2.9 0-3.424.032-4.042.029-.647.21-.956.633-1.047.079-.025.162-.042.246-.057V5.26c0 .217.06.31.18.31.091 0 .152-.093.21-.246.03-.155.122-.37.302-.68.272-.401.724-.493 1.807-.556l1.868-.062v7.836c0 1.758 0 3.268-.09 4.073-.061.555-.301.986-.663 1.047a8.255 8.255 0 0 1-1.054.093c-.212 0-.271.062-.271.153 0 .125.12.187.362.187.751 0 2.38-.062 2.83-.062.513 0 1.686.062 2.892.062.21 0 .36-.062.36-.187 0-.091-.088-.153-.3-.153-.27 0-.692-.061-.933-.093-.573-.061-.662-.492-.723-1.016-.09-.835-.09-2.346-.09-4.104V4.026l1.806.062c1.657.031 2.231.557 2.26 1.08l.028.186c.031.308.062.401.211.401.092 0 .152-.123.152-.308V3.364a.883.883 0 0 0 .086.008c.06.01.113.023.168.037.601.153.752.459.782 1.1.06.613.06 1.133.06 4.038v3.334c0 1.772 0 3.27-.09 4.066-.09.552-.18.979-.542 1.04-.18.032-.423.092-.692.092-.212 0-.3.06-.3.153 0 .122.15.183.39.183.36 0 .842-.03 1.295-.03.42 0 .843-.03 1.055-.03.57 0 1.142.03 1.956.06.815.031 2.639.06 4.025.06.723 0 .865-.01 1.025-.487.156-.473.26-.789.332-1.12.184.196.377.374.576.535 1.047.84 2.306 1.206 3.747 1.233.53.007 1.48-.021 2.272-.329 1.77-.73 3.02-2.787 3.02-4.263v-.04c0-1.502-.823-2.507-1.78-3.112zm-40.847 1.989c0 1.851 0 3.362-.092 4.166-.06.555-.15.863-.542.956-.112.023-.73.016-.856-.02-.423-.094-.604-.401-.634-1.048-.028-.618-.028-1.144-.028-4.043V8.56c0-1.851 0-3.362.09-4.166.06-.554.149-.863.542-.957.11-.02.73-.016.855.024.423.09.603.4.634 1.047.031.618.031 1.142.031 4.041v3.331z" fill="#006C37" mask="url(#b)"/></g></svg>