<svg width="149" height="27" viewBox="0 0 149 27" xmlns="http://www.w3.org/2000/svg"><title>jugra</title><g fill="none" fill-rule="evenodd"><path d="M10.8 16.102c0 1.735-.738 2.93-2.213 3.589-.799.365-1.781.545-2.947.545H.444V7.073h9.262v2.9H3.933v2.02H5.64c1.131 0 2.119.196 2.965.587 1.463.68 2.195 1.851 2.195 3.522m-3.49 0c0-1.028-.681-1.544-2.043-1.544H3.933v3.06h1.334c1.362 0 2.043-.503 2.043-1.516M25.583 20.236h-3.761l-.883-2.513h-5.013l-.874 2.514h-3.763l5.1-13.163h4.086l5.108 13.162zm-5.554-5.131l-1.592-4.562-1.6 4.562h3.192zM38.652 20.236h-3.508v-5.394h-5.075v5.394h-3.506V7.074h3.506v5.064h5.075V7.074h3.508v13.162zM53.565 20.236h-4.53l-4.575-6.265v6.265h-3.508V7.074h3.508v5.813l4.286-5.813h4.339l-5.214 6.215 5.694 6.947zM113.931 13.69c0 1.988-.668 3.642-2.004 4.956-1.335 1.316-3.013 1.974-5.038 1.974-1.802 0-3.341-.54-4.617-1.62-1.254-1.068-2.012-2.455-2.275-4.158h-1.653v5.394h-3.507V7.073h3.507v5.065h1.706c.332-1.604 1.122-2.9 2.37-3.892 1.247-.991 2.737-1.487 4.469-1.487 2.025 0 3.703.657 5.038 1.973 1.336 1.316 2.004 2.968 2.004 4.958m-3.526 0c0-1.019-.334-1.875-1.006-2.571-.671-.698-1.506-1.043-2.51-1.043-.997 0-1.825.345-2.483 1.043-.66.696-.988 1.552-.988 2.57 0 1.018.329 1.876.988 2.571.658.695 1.486 1.044 2.483 1.044 1.004 0 1.839-.349 2.51-1.044.672-.695 1.006-1.553 1.006-2.57M123.343 9.974h-4.249v10.262h-3.511V7.074h7.76v2.9zM135.168 11.405c0 2.977-1.58 4.467-4.748 4.467h-2.03v4.365h-3.506V7.074h5.354c1.578 0 2.795.373 3.65 1.121s1.28 1.817 1.28 3.21m-3.655.07c0-.593-.164-1.015-.493-1.268-.331-.253-.86-.38-1.589-.38h-1.041v3.282h1.076c.728 0 1.252-.123 1.57-.37.318-.248.477-.669.477-1.265M148.911 20.236h-3.76l-.884-2.513h-5.013l-.875 2.514h-3.76l5.1-13.163h4.084l5.108 13.162zm-5.553-5.131l-1.593-4.562-1.6 4.562h3.193z" fill="#2B8742"/><path d="M85.538 6.441l.83-.754.035-.033-.002.001a.773.773 0 0 1 .029-.028l.006-.007-.002.002.003-.003.002-.003c.002 0 .002 0 .003-.002 0-.001 0-.002.002-.003l.001-.001.002-.001v-.002l.004-.003.002-.003.002-.002.003-.002v-.002l.002-.002.002-.001.001-.002.002-.002.002-.002.002-.002v-.002c.002 0 .002-.002.003-.003l.002-.003.003-.001.001-.002.001-.001.006-.007.002-.002.01-.012.003-.003c0-.002.004-.006.006-.009 0 0 .002-.001.002-.003l.002-.002.003-.004.002-.002.002-.003.002-.002.012-.016.003-.004.003-.003.007-.01h-.001l.007-.01.01-.014.008-.01h-.002l.016-.023.008-.012.004-.008.02-.034.002-.004.006-.01.01-.02.024-.046.001-.004v-.002l.002-.004.012-.026a.059.059 0 0 0 .004-.01l.009-.02.001-.003.002-.006.005-.015.003-.009.001-.002.005-.015.01-.025h-.002l.003-.004v-.002l.005-.023v-.002l.002-.005.004-.016.002-.008.004-.014.001-.007.002-.012.005-.02h-.001l.004-.021h-.001l.002-.014.003-.022.001-.005.003-.018V4.943l.001-.004V4.912l.001-.012v-.042V4.834l-.001-.015v-.006l-.001-.005-.001-.01-.003-.015v-.006l-.001-.006v-.006h-.002v-.014l-.004-.02v-.001l-.001-.005-.001-.004-.003-.012-.007-.033-.008-.025-.008-.027-.003-.007c0-.002-.002-.003-.003-.005L86.7 4.6l-.001-.002-.001-.002c-.003-.004-.003-.009-.006-.013l-.001-.004-.01-.022-.002-.004a.069.069 0 0 1-.006-.013V4.54l-.004-.006-.001-.003a.259.259 0 0 1-.012-.023l-.004-.005-.004-.007-.001-.002v-.001a.123.123 0 0 1-.008-.013l-.005-.005-.001-.003c-.008-.01-.013-.02-.02-.027a.06.06 0 0 1-.009-.014l-.004-.007-.008-.008-.004-.004-.007-.008-.02-.023.005.004-.013-.013-.01-.011.004.004-.01-.009a.078.078 0 0 0-.007-.006l-.001-.002-.013-.011-.014-.013-.005-.004v-.001h-.002l-.01-.01-.008-.006-.014-.01-.002-.002-.013-.009-.009-.006-.011-.008a.29.29 0 0 1-.018-.011l-.016-.01h-.002l-.001-.001a.207.207 0 0 0-.03-.016.597.597 0 0 0-.088-.038l-.007-.003h-.001l-.006-.002h-.002l-.004-.002-.011-.003-.003-.001v-.001h-.003l-.002-.001a.31.31 0 0 1-.035-.01h-.004a.075.075 0 0 1-.013-.004l-.01-.002h-.007V4.16l-.002-.001-.005-.001-.006-.001h-.004l-.003-.001v-.001l-.016-.003h-.01l-.007-.002h-.002c-.018-.004-.037-.005-.052-.006l-.01-.001H86.037a.915.915 0 0 0-.24.013h-.008a1.03 1.03 0 0 0-.133.035l-.003.001-.001.001h-.004l-.006.003-.005.001-.02.007a.88.88 0 0 0-.038.015l-.012.004-.02.009-.006.002-.01.005-.008.003-.012.006c-.014.004-.03.014-.042.02l-.003.001-.019.011h-.001.001l-.012.007-.017.009h-.001a.048.048 0 0 1-.01.007l-.01.005.002-.001h-.001l-.002.001-.01.007-.01.006-.022.015h-.002v.001l-.005.004h-.001l-.004.003-.008.005-.005.003-.002.001-.008.006-.002.001c-.001.001-.001.002-.003.002l-.001.002-.001.001c-.002 0-.002 0-.003.002l-.002.001h-.001l-.002.002-.003.002c-.001 0-.002 0-.002.002h-.001l-.002.002-.003.001-.001.002h-.002l-.001.001-.001.001-.002.002-.004.002-.001.002-.003.002-.002.002-.003.002-.005.004-.01.006a.26.26 0 0 1-.007.007l-.007.007-.052.043c-.025.025-.373.34-.973.885-4.533 4.046-9.004 8.157-13.487 12.256l-6.639 6.033-.027.027.014-.014-.046.045-.002.002-.001.002-.041.044.004-.004-.017.018.002-.001-.005.005-.004.005a.988.988 0 0 0-.085.114l-.007.012-.005.006-.005.01v-.001l-.011.02-.002.002-.003.006-.007.013-.008.012-.002.005-.001.002-.015.03-.005.008h.001l-.012.025-.001.002-.011.025v.002a.174.174 0 0 0-.007.015l-.004.01v.001l-.003.005v-.001l-.006.018-.002.004h.001l-.004.008h.002-.001a.216.216 0 0 0-.007.019l.001-.001-.005.012c0 .005-.003.01-.005.015h.001a.025.025 0 0 1-.003.007l-.005.018-.002.007a.13.13 0 0 0-.003.013l-.001.004v.003a.13.13 0 0 0-.004.013l-.002.008-.003.015-.002.007h.001l-.001.006c0 .007-.003.01-.004.015v.001l-.001.012-.002.01-.001.002-.001.01-.001.007v.002l-.003.02c0 .006 0 .013-.002.017v.023l-.001.003-.001.014v.008-.001.008l-.001.014v-.001V24.49h.002v.019l.001.011v.002l.001.002v.008l.003.014v.007h.001v.007l.002.01v.004l.001.002.002.012v.004l.001.004h.001v.003l.002.008.001.003h.001l.004.022h.001l.005.019h.001l.007.026.01.03-.002-.001.006.017a.072.072 0 0 1 .004.007h-.001c.003.008.008.014.012.023l-.005-.005.003.005c.003.008.008.016.012.023l-.004-.004.003.004v-.001c.004.01.01.02.015.028l-.004-.004.007.012v-.001a.286.286 0 0 0 .02.033c.008.014.02.027.03.04-.002-.002-.003-.003-.005-.003l-.012-.016.012.016-.004-.002c.015.02.033.038.049.057l-.01-.008.017.018-.004-.004a.195.195 0 0 0 .011.011c.002.002.004.006.007.007l-.002-.001c.006.004.01.01.015.014l-.004-.004.026.025-.001-.003.025.023a.123.123 0 0 0-.013-.013c.009.007.017.017.027.024l-.001-.005.026.024c.005.002.01.006.015.01v-.002a.48.48 0 0 0 .038.025v-.002l.013.009.008.004.001.001h-.001v-.001l.005.002.015.009v-.001l.003.001v.002l.011.004.007.004.005.002h.001v.001c.002 0 .003 0 .005.002l.01.003h.003a.023.023 0 0 0 .006.003v.002l.014.004.01.005h.007l.002.004c.005 0 .01.002.016.004.002.002.004.002.006.002a.188.188 0 0 1 .018.006l.01.003a.041.041 0 0 0 .013.003v.001l.004.002a.02.02 0 0 1 .006 0c.002 0 .006 0 .009.002h.002c.004.002.008.002.012.002l.009.003h-.001.001l.003.001.01.002h.007v.002h.007c.006 0 .01.003.016.003l.008.002.014.001h.003c.003.002.007.002.01.003h.01c.004.002.007.002.01.002l.01.001h.024v.001h.007v.002l.015-.002v.002H64.523l.02-.002h.002l.01-.001.014-.001-.001.001v-.001c.004 0 .008 0 .012-.002h.014c.002 0 .005 0 .008-.002a.169.169 0 0 1 .017-.002h.007l.018-.004v.001l.006-.002.014-.002.009-.001h.002l.02-.005.007-.002h.003l.007-.002a.05.05 0 0 0 .014-.003.03.03 0 0 0 .01-.003h.002l-.001.002.011-.005.021-.005.011-.003a.109.109 0 0 0 .021-.007l.004-.001a.085.085 0 0 1 .012-.004l.016-.005.01-.004.005-.002h.003l.016-.006h-.002l.024-.009h-.002l.012-.005c.006 0 .012-.004.017-.006h.002l.01-.006.01-.005.03-.012h-.002l.01-.006.008-.003.005-.002.002-.001.007-.005a.108.108 0 0 0 .02-.01l-.001.001a.282.282 0 0 0 .023-.014l-.002.002.01-.006a.123.123 0 0 1 .019-.01l.009-.007a.827.827 0 0 0 .035-.022s0 .002-.002.002l.022-.016.04-.03-.003.004.015-.01.017-.014a.194.194 0 0 1 .017-.015l.018-.014.03-.026.001-.002c.068-.062 2.242-2.039 5.417-4.922 5.046-4.401 10.138-8.753 14.854-13.499M67.549 19.153l1.331-1.21.367-.334c4.846-4.24 9.72-8.45 14.288-12.983l.97-.883a4.585 4.585 0 0 1 .036-.034v.001a1.263 1.263 0 0 1 .028-.028l.007-.007-.002.002.002-.002.004-.004V3.67l.001-.001.002-.001.001-.002h.001l.003-.004a.005.005 0 0 0 .003-.002l.001-.002.002-.001v-.002c.002 0 .002-.002.003-.002l.001-.002.002-.001v-.002c.002 0 .003-.001.003-.003h.002v-.001l.001-.001.001-.002.002-.003c.002 0 .002-.001.003-.002 0-.001.001-.003.003-.003V3.63l.002-.001v-.001h.001l.007-.008.004-.005c.005-.005.006-.008.007-.01l.002-.002a.032.032 0 0 0 .008-.01l.002-.001.001-.003.003-.003.003-.004.002-.002s0-.002.002-.002a.05.05 0 0 1 .009-.012l.003-.005.002-.002.003-.004.007-.01.006-.009.01-.015.017-.024.005-.009.009-.013.005-.01.004-.004.006-.01c.001-.004.004-.008.006-.01l.003-.007.003-.006.005-.008.01-.02.017-.035a.036.036 0 0 0 .006-.01l.002-.004v-.002a.281.281 0 0 0 .01-.02l.004-.011.003-.007.007-.018.003-.005a.942.942 0 0 0 .063-.268.703.703 0 0 0-.103-.475l-.006-.01-.007-.009c-.006-.011-.012-.02-.019-.028l-.009-.012-.004-.007-.007-.01h-.003l-.01-.013-.018-.02a.012.012 0 0 0 .004.003l-.012-.012-.01-.011.003.003-.014-.013-.002-.004-.015-.012-.013-.012-.005-.004h-.001v-.002l-.006-.004-.01-.008-.004-.003-.001-.001-.012-.01-.002-.001h-.002l-.002-.002h-.001l-.008-.007-.003-.001a.127.127 0 0 0-.018-.013l-.003-.001-.003-.002-.01-.008-.019-.01-.029-.016a.953.953 0 0 0-.034-.016l-.01-.005h-.003l-.01-.005c-.003 0-.006-.002-.007-.003l-.003-.002-.01-.003-.014-.005-.008-.003-.005-.001V2.24h-.002l-.004-.002-.008-.002-.007-.003h-.006c-.01-.005-.023-.007-.033-.01h-.001l-.01-.003-.023-.005h-.003v-.001H84.3c-.02-.005-.039-.008-.053-.01-.017-.003-.034-.004-.049-.005h-.01.001-.009l-.001-.002h-.01.001-.011-.01v-.001h-.045.006-.026.002-.004l-.02.001h-.01c-.003.002-.009.002-.013.002h-.008l-.014.002h-.002l-.023.002h-.002l-.011.002-.008.001h-.001l-.002.001h-.005l-.013.003h-.006l-.003.001-.008.001-.03.006-.01.002-.002.002h-.004l-.01.003h-.001l-.02.004-.006.002-.006.001-.016.004-.002.001v.001l-.005.001-.008.002c-.003.002-.007.002-.01.003a.122.122 0 0 1-.017.006h-.004l-.003.002h.001a.066.066 0 0 0-.013.004l-.003.001a.045.045 0 0 0-.009.003l-.015.006.009-.004-.014.006v-.001l-.021.01h-.002l-.003.001h-.002l-.02.009h.001-.002l-.001.001-.019.007-.003.002-.01.006c-.016.004-.031.014-.044.02l-.002.002c-.002 0-.002.001-.003.002l-.01.005-.005.003h-.002l-.002.001.002-.001-.011.006a.388.388 0 0 1-.017.01h-.001l-.009.006h-.001l-.01.005v.001l-.01.007-.011.006-.022.015h-.002v.001h-.002l-.004.003v.001l-.004.002a.022.022 0 0 0-.008.007l-.005.002-.002.002-.008.005-.002.001-.003.003-.002.001h-.002c0 .001 0 .002-.002.003l-.002.001-.001.001-.002.002h-.001l-.001.001-.003.002-.003.002-.003.002-.001.001-.002.002h-.001c-.001.002-.002.002-.003.002l-.002.003c-.002 0-.002.001-.002.002l-.004.002-.002.002-.004.002a.008.008 0 0 1-.003.003l-.01.007-.014.013.007-.007-.008.007-.05.042-.001.002-.972.884c-4.557 4.067-9.053 8.2-13.558 12.32l-.86.781-5.71 5.19h-.002l-.025.025.014-.014-.045.044-.001.002-.003.002-.03.032a.06.06 0 0 0-.005.007l-.006.006.001-.001a.19.19 0 0 0-.01.012l-.003.003-.01.012-.017.02-.014.02-.005.005-.003.005-.006.007-.01.014-.01.015.001-.001-.008.01.002-.002-.02.03-.01.016.001-.001-.014.023h.001a.303.303 0 0 0-.007.01l-.007.012h.001l-.006.013-.003.002-.008.018a.303.303 0 0 0-.007.011c0 .003-.003.006-.004.01v-.002l-.007.016-.005.01v.002l-.001.001-.01.021c0 .002 0 .003-.002.004l-.007.02-.003.007-.002.005-.006.015-.003.006h.002l-.004.012-.007.015v-.002c0 .005-.002.009-.004.014h.002l-.006.014-.002.008-.005.014-.001.004a.013.013 0 0 0 0 .005l-.005.014v.004l-.002.003-.002.013-.003.008-.003.017-.001.005v.006c0 .002-.002.002-.002.003l-.002.013-.002.013-.002.008v.006l-.002.008-.001.007v.006c-.002.004-.002.007-.002.01v.006a.1.1 0 0 1-.002.015v.007l-.001.01v.002l-.002.009V22.461v-.001l-.001.016v-.002.048l.001.02.002.015v.011l.001.014.001.002.001.01.001.01.001.002.002.017.001.007h.001c0 .005 0 .009.002.013v.004l.002.004v.01l.002.004.005.021h.002a.547.547 0 0 1 .013.045l.009.03-.002-.001.007.018.002.006.004.008a.169.169 0 0 0 .005.011l-.002-.002.003.006.006.012a.108.108 0 0 1 .004.009l-.001-.001.002.003.002.006.002.004.007.01.001.005v-.001c0 .001.002.002.002.005l.002.004.002.001h-.001l.01.015.003.007.008.011c.008.015.02.028.03.04l-.004-.003-.013-.015.012.015-.003-.002c.014.02.03.037.047.056a.082.082 0 0 0-.008-.007l.015.017-.002-.003.01.012a.071.071 0 0 1 .007.007v-.002l.014.015-.004-.004.026.024-.002-.003c.009.008.017.017.025.023l-.003-.004.018.016-.001-.005.025.023.015.01v-.001a.5.5 0 0 0 .04.025l-.001-.002.013.008a.023.023 0 0 0 .008.005l.001.001-.001-.001v-.001a.023.023 0 0 0 .005.003l.014.008h.004l.001.003c.004 0 .006.002.01.003l.006.004c.002 0 .003.002.005.003h.002v.001c.002 0 .004 0 .006.002l.008.004v-.002c.002.002.004.002.005.002l.005.002v.002c.005 0 .009.002.013.003.003.002.008.004.011.004v.002l.007.002.002.001.016.005.006.003.018.005a.047.047 0 0 0 .01.002l.012.004h.004l.006.003.01.002h.003-.001l.012.003.008.001v.002h.004l.01.001.007.001.001.002.006.001a.07.07 0 0 1 .016.003h.008c.002 0 .004 0 .007.002h.01l.014.002h.004l.001.002h.031v.001h.013v.002h.022v.001H62.666l.017-.002h.003l.009-.001h.013l.01-.001a.1.1 0 0 0 .015-.003v.001l.01-.001.015-.003h.006c.004 0 .009 0 .013-.002l.005-.001v.001l.006-.001.018-.004h.006l.003-.001.02-.004a.105.105 0 0 1 .007-.002h.002l.007-.002.014-.004-.001.001.01-.003h.002c.004 0 .007-.002.011-.003l.021-.005.004-.001a.468.468 0 0 0 .028-.009l.003-.001a.102.102 0 0 1 .014-.004.02.02 0 0 1 .006-.002c.003-.001.006-.003.01-.003l.002-.002.008-.002.004-.002c.003 0 .007-.002.01-.004l.008-.004-.001.003.016-.008.008-.003-.002.002.014-.007.015-.006h.001c.005-.002.009-.005.014-.006l.008-.004v.001l.01-.005.018-.01-.001.001.005-.002.02-.01.027-.015-.001.002.022-.014h.002l-.003.002.025-.015.003-.002.003-.002.006-.003.012-.008.015-.01a.033.033 0 0 0 .009-.006l-.002.002.023-.016c.013-.009.026-.017.039-.028l-.003.003.016-.013.016-.012.015-.013.02-.015.03-.027.002-.001 3.938-3.58.204-.185M67.462 25.082a13.745 13.745 0 0 0 6.837 1.803c7.48 0 13.541-5.907 13.541-13.196 0-2.107-.507-4.1-1.41-5.868l-18.968 17.26zM81.276 2.377A13.746 13.746 0 0 0 74.299.493C66.821.493 60.76 6.4 60.76 13.69c0 2.164.534 4.205 1.48 6.007l19.037-17.32z" fill="#E87D2B"/></g></svg>