<svg width="170" height="24" viewBox="0 0 170 24" xmlns="http://www.w3.org/2000/svg"><title>openrocket</title><g fill="none" fill-rule="evenodd"><path d="M88.076 6.775h8.728V8.73h-.623s-.125-.998-1.122-.998H93.52v8.978h-2.162v-9.02H89.78c-.831 0-1.04.666-1.122.998h-.624V6.775h.042zM106.323 6.775h1.58v9.934h-2.12V9.768l-5.196 6.941h-1.58V8.604c0-1.164-.997-1.33-.997-1.33v-.54h3.117v6.982l5.196-6.94zM60.643 16.709H57.9l-1.954-3.7s-.582-1.121-1.205-1.121h-.79v4.78H51.79V8.603c0-1.164-1.04-1.247-1.04-1.247v-.582h3.201v4.157h.956s.624-.042 1.164-.915c1.704-2.743 1.455-3.242 2.203-3.242h2.12v.665c-1.455 0-1.912 2.993-3.326 3.949.707.25.956.914 2.494 3.699 0 0 .374.956 1.123.956v.665h-.042zM112.433 10.724h5.154v-.54a2.59 2.59 0 0 0-2.577-2.578 2.59 2.59 0 0 0-2.577 2.577v.54zm6.983 3.824c-.998 1.371-2.494 2.327-4.406 2.327-2.619 0-5.154-2.036-5.154-4.738v-.582c0-2.91 2.327-4.946 5.154-4.946 2.826 0 5.03 2.327 5.03 5.112h-7.649v1.621c0 1.414 1.164 2.577 2.827 2.577 1.454 0 2.452-.623 3.283-1.454l.915.083zM68.083 6.609c-1.205 0-2.37.54-2.91 1.247V6.733h-3.158v.582s.997.167.997 1.247v12.636h2.162V15.67c.997 1.164 2.327 1.205 2.743 1.205 2.785-.041 4.697-2.203 4.697-4.904v-.624c0-2.91-1.788-4.738-4.53-4.738zm1.995 6.692c0 1.247-.914 2.452-2.244 2.535h-.208c-1.205 0-2.245-.914-2.41-1.829V9.685c.082-.998 1.121-2.12 2.41-2.12h.416s1.995.124 2.036 2.535v3.2zM35.33 6.609c-3.74 0-5.279 2.91-5.279 4.78v.831c0 2.203 2.162 4.614 5.28 4.614 2.909 0 5.32-2.162 5.32-4.697v-.665c-.042-2.494-2.037-4.863-5.32-4.863zm2.702 6.609a2.705 2.705 0 0 1-2.743 2.701c-1.622 0-2.702-1.247-2.702-2.701v-3.16c0-1.413 1.205-2.535 2.702-2.535 1.62 0 2.743 1.164 2.743 2.577v3.118zM86.58 6.775h-3.16v.582s1.04.166 1.04 1.33v8.064h2.12V6.775zM77.352 10.557V6.775h-3.159v.582s.956.083.956 1.247v8.105h4.905c1.912 0 3.242-1.164 3.242-2.785v-.457c0-1.787-1.33-2.91-3.367-2.91h-2.577zm0 5.154v-4.156h1.829c.997 0 1.787.79 1.787 1.954v.415c0 .956-.873 1.787-1.829 1.787h-1.787zM40.983 6.775h8.728V8.73h-.623s-.125-.998-1.122-.998h-1.538v8.978h-2.161v-9.02h-1.58c-.831 0-1.04.666-1.122.998h-.624V6.775h.042z" fill="#FFF"/><path d="M11.804.125C5.404.125.208 5.32.208 11.72s5.195 11.597 11.596 11.597 11.597-5.196 11.597-11.597c0-6.4-5.196-11.596-11.597-11.596zm-2.452 17.29a1 1 0 0 1 .499.666c.041.29 0 .54-.125.79-.166.29-.457.457-.831.457-.208 0-.374-.042-.582-.125l-.54-.25c-2.37-1.246-3.824-3.782-3.824-6.608V11.18c0-2.826 1.454-5.362 3.865-6.609.042 0 .54-.25.54-.25.167-.082.375-.124.582-.124.375 0 .665.166.832.457.124.25.166.499.124.79-.083.457-.498.665-.498.665-1.372.623-2.286 2.037-2.286 3.616v4.115a3.844 3.844 0 0 0 2.244 3.575zm10.308-5.112c0 2.827-1.455 5.362-3.824 6.609l-.54.25a1.328 1.328 0 0 1-.582.124c-.374 0-.665-.166-.831-.457-.125-.25-.167-.499-.125-.79a1 1 0 0 1 .499-.665c1.413-.623 2.286-2.078 2.286-3.616V9.643c0-1.58-.915-2.993-2.286-3.616 0 0-.416-.208-.5-.665-.04-.291 0-.54.126-.79.166-.29.457-.457.83-.457.209 0 .375.041.583.125 0 0 .499.249.54.249 2.37 1.247 3.866 3.782 3.866 6.609v1.205h-.042z" fill="#00BBE4"/><path fill="#FFF" d="M126 0h.5v23h-.5z"/><g fill="#FFFFFE"><path d="M136.259 12.636h-1.064v3.56h-.859V7.726h2.086c1.719 0 2.782.86 2.782 2.373.041 1.677-1.227 2.536-2.945 2.536zm.123-4.132h-1.187V11.9h1.105c1.268 0 2.086-.573 2.086-1.76 0-1.104-.695-1.636-2.004-1.636zM144.318 16.359c-2.25 0-3.805-1.8-3.805-4.377 0-2.619 1.555-4.419 3.846-4.419 2.29 0 3.804 1.8 3.804 4.378-.04 2.618-1.595 4.418-3.845 4.418zm0-8.018c-1.76 0-2.946 1.472-2.946 3.6 0 2.168 1.187 3.64 2.946 3.64 1.759 0 2.945-1.472 2.945-3.64 0-2.128-1.186-3.6-2.945-3.6zM155.159 16.277l-4.296-4.459v4.377h-.859V7.727h.86v3.846l3.927-3.846h1.104l-4.09 3.968 4.295 4.418-.941.164zM157.45 16.195V7.727h4.418v.777h-3.56v2.864h2.824l.122.777h-2.945v3.273h3.682v.777h-4.541zM166.532 8.504v7.691h-.86v-7.69h-2.74v-.778h6.218l.122.777h-2.74z"/></g></g></svg>