<svg width="126" height="35" viewBox="0 0 126 35" xmlns="http://www.w3.org/2000/svg" xmlns:xlink="http://www.w3.org/1999/xlink"><title>rocketbank</title><defs><path id="a" d="M.042 15.24a33.022 33.022 0 0 1 11.936 7.66 33.029 33.029 0 0 1 7.659 11.935L34.877 0 .042 15.24z"/><path id="c" d="M16.662.877L.012 17.527l1.307 1.306L17.512 2.64 18.667 0l-2.005.877z"/><linearGradient x1="26.811%" y1="72.94%" x2="76.676%" y2="23.074%" id="d"><stop stop-color="#E28B38" offset="0%"/><stop stop-color="#E48D3C" offset=".13%"/><stop stop-color="#E59140" offset="4.19%"/><stop stop-color="#E99A4D" offset="9.2%"/><stop stop-color="#F0AB63" offset="14.71%"/><stop stop-color="#FCC580" offset="20.55%"/><stop stop-color="#FEC884" offset="21.2%"/><stop stop-color="#F7DFB4" offset="100%"/></linearGradient><path id="f" d="M.087.996l1.739 8.097A32.913 32.913 0 0 1 4.9 15.309l1.58-3.61L4 .154.087.995z"/><linearGradient x1="29.358%" y1="21.811%" x2="75.049%" y2="84.057%" id="g"><stop stop-color="#E48D3C" offset="0%"/><stop stop-color="#C83E27" offset="100%"/></linearGradient><path id="i" d="M.042 1.609a32.917 32.917 0 0 1 7.092 3.649l7.852 1.686.841-3.913L3.06.288.042 1.608z"/><linearGradient x1="6.098%" y1="36.329%" x2="89.803%" y2="62.975%" id="j"><stop stop-color="#D34027" offset="0%"/><stop stop-color="#D34027" offset=".2%"/><stop stop-color="#B72825" offset="60.65%"/><stop stop-color="#E48D3C" offset="100%"/></linearGradient><path id="l" d="M.042 15.24l15.972 3.045c.167.033.4-.038.521-.158L34.877 0 .042 15.24z"/><linearGradient x1="27.814%" y1="72.291%" x2="74.889%" y2="25.216%" id="m"><stop stop-color="#9B1C1F" offset="0%"/><stop stop-color="#D85227" offset="44.81%"/><stop stop-color="#FBD180" offset="100%"/></linearGradient><path id="o" d="M18.298 0L.172 18.342a.656.656 0 0 0-.16.521l3.046 15.972L18.298 0z"/><linearGradient x1="27.969%" y1="72.454%" x2="75.044%" y2="25.379%" id="p"><stop stop-color="#C33C27" offset="0%"/><stop stop-color="#E47832" offset="44.54%"/><stop stop-color="#FEE2B3" offset="100%"/></linearGradient><path id="r" d="M.042.135a33.022 33.022 0 0 1 11.936 7.659 33.029 33.029 0 0 1 7.659 11.936L16.272 3.866a.515.515 0 0 0-.366-.366L.042.135z"/><linearGradient x1="50.077%" y1="49.989%" x2="66.147%" y2="33.919%" id="s"><stop stop-color="#721512" offset="0%"/><stop stop-color="#721512" offset=".2%"/><stop stop-color="#9F1D20" offset="100%"/></linearGradient></defs><g fill="none" fill-rule="evenodd"><g fill="#FFF"><path d="M51.15 16.43c0 .386-.06.803-.178 1.25a3.468 3.468 0 0 1-.615 1.24c-.292.38-.684.697-1.175.951-.49.255-1.103.383-1.836.383h-2.76l.019 5.24H43V12.72h4.177c.584 0 1.119.078 1.604.234.484.155.904.388 1.258.699.354.31.628.7.82 1.165.193.466.29 1.004.29 1.613zm-6.564-2.498v5.11h2.536c.298 0 .59-.041.876-.121.286-.08.544-.22.774-.419.23-.198.413-.461.55-.79.137-.327.205-.74.205-1.235 0-.433-.062-.811-.186-1.133a2.132 2.132 0 0 0-.522-.799 2.076 2.076 0 0 0-.793-.464 3.147 3.147 0 0 0-.979-.148h-2.461zM60.435 20.962c0 .584-.065 1.156-.195 1.715-.13.56-.355 1.06-.671 1.501a3.42 3.42 0 0 1-1.278 1.063c-.534.268-1.2.401-1.995.401-.746 0-1.37-.127-1.874-.382a3.212 3.212 0 0 1-1.202-1.016 4.162 4.162 0 0 1-.644-1.473 7.782 7.782 0 0 1-.196-1.772c0-.609.075-1.2.224-1.771.15-.572.385-1.082.708-1.53a3.588 3.588 0 0 1 1.268-1.08c.522-.274 1.156-.41 1.902-.41.758 0 1.392.136 1.902.41.51.273.917.63 1.221 1.072.305.441.52.948.644 1.52.124.57.186 1.155.186 1.752zM58.85 21c0-.41-.028-.826-.084-1.25a3.742 3.742 0 0 0-.344-1.164 2.306 2.306 0 0 0-.728-.868c-.31-.223-.714-.335-1.212-.335-.51 0-.926.109-1.25.326a2.358 2.358 0 0 0-.764.84 3.73 3.73 0 0 0-.39 1.165 7.59 7.59 0 0 0-.113 1.286c0 .448.03.883.093 1.306.062.422.184.792.364 1.109.18.317.435.572.765.764.329.193.76.29 1.296.29.497 0 .897-.103 1.202-.308.305-.206.544-.476.718-.811.174-.336.292-.709.354-1.12.062-.41.093-.82.093-1.23zM62.412 25.493v-9.1h1.473v3.637h1.678c.161 0 .33-.016.503-.047a1.472 1.472 0 0 0 .941-.584c.131-.173.24-.408.327-.705l.69-2.282h1.398l-.69 2.474c-.248.831-.67 1.396-1.267 1.693.435.137.774.345 1.016.626.242.28.426.62.55 1.018l.95 3.27h-1.453l-.895-2.946v.018a2.35 2.35 0 0 0-.373-.727 1.675 1.675 0 0 0-.495-.429 1.89 1.89 0 0 0-.568-.205 3.143 3.143 0 0 0-.578-.056h-1.734v4.345h-1.473zM75.315 16.188c.609 0 1.122.081 1.538.243.417.162.762.373 1.035.634.274.261.485.553.634.876.15.324.258.647.327.97.068.324.108.628.12.914.013.286.02.522.02.708v.727H72.89c0 .423.038.827.112 1.213.075.385.211.724.41 1.016.199.292.467.525.802.699.336.174.759.261 1.268.261.534 0 1.022-.056 1.464-.168.44-.112.923-.273 1.445-.484l.373.97a7.39 7.39 0 0 1-1.65.633 7.248 7.248 0 0 1-1.743.206c-.808 0-1.473-.125-1.995-.374-.523-.248-.936-.58-1.24-.997a3.763 3.763 0 0 1-.635-1.473 8.778 8.778 0 0 1-.12-2.722 5.519 5.519 0 0 1 .652-2.07c.186-.342.429-.644.727-.905a3.57 3.57 0 0 1 1.072-.634c.416-.162.91-.243 1.482-.243zm.037 1.12c-.435 0-.802.08-1.1.242a2.13 2.13 0 0 0-.737.652c-.192.274-.335.59-.428.951-.094.36-.153.734-.177 1.119h4.643a6.05 6.05 0 0 0-.112-1.203 2.744 2.744 0 0 0-.364-.941 1.708 1.708 0 0 0-.671-.606c-.28-.143-.631-.215-1.054-.215zM83.24 17.569h-3.208v-1.175h7.906v1.175H84.75v7.924h-1.51V17.57zM92.88 12.795c.198-.087.431-.18.699-.28.267-.1.534-.205.801-.317.268-.111.529-.217.784-.316.254-.1.475-.193.662-.28l.466.97c-.435.236-.842.432-1.221.587-.38.155-.656.27-.83.345-.634.249-1.184.497-1.65.746a4.85 4.85 0 0 0-1.193.876c-.33.336-.591.74-.783 1.212-.193.473-.327 1.051-.402 1.735.013 0 .025.006.038.018.31-.479.727-.863 1.25-1.152.521-.289 1.112-.433 1.771-.433.659 0 1.218.115 1.678.344.46.23.83.55 1.11.959.28.41.481.89.606 1.442.124.552.186 1.144.186 1.777 0 .546-.065 1.092-.195 1.638a4.253 4.253 0 0 1-.662 1.48c-.311.44-.734.8-1.268 1.078-.535.28-1.2.42-1.995.42-.771 0-1.405-.138-1.902-.411a3.389 3.389 0 0 1-1.184-1.044 4.021 4.021 0 0 1-.616-1.408 6.806 6.806 0 0 1-.176-1.52c0-.72.006-1.326.018-1.818.013-.491.028-.898.047-1.221.019-.323.04-.578.065-.765.025-.186.05-.342.075-.466.21-.994.64-1.836 1.286-2.526.645-.691 1.49-1.248 2.534-1.67zm.13 4.83c-.473 0-.873.117-1.203.353-.33.237-.597.531-.802.886a4.05 4.05 0 0 0-.447 1.165 5.63 5.63 0 0 0-.14 1.212c0 .373.028.753.084 1.138.056.385.17.73.345 1.035.174.304.422.556.745.755.324.199.753.299 1.287.299.485 0 .886-.1 1.203-.3a2.09 2.09 0 0 0 .736-.773c.175-.317.296-.674.364-1.072s.102-.802.102-1.212a9.65 9.65 0 0 0-.084-1.269 3.382 3.382 0 0 0-.335-1.118 2.184 2.184 0 0 0-.69-.793c-.292-.205-.68-.307-1.165-.307zM105.652 24.356h1.231l.093.894a3.513 3.513 0 0 1-.774.27 3.588 3.588 0 0 1-.811.103c-.36 0-.64-.074-.839-.223-.199-.15-.31-.46-.336-.932l-.018-.02a5.005 5.005 0 0 1-1.893 1.045c-.267.074-.51.118-.727.13-.218.012-.394.02-.531.02-.522 0-.954-.088-1.296-.262a2.31 2.31 0 0 1-1.23-1.501 3.293 3.293 0 0 1-.122-.849c0-.795.283-1.432.848-1.91.566-.48 1.433-.756 2.602-.83l2.33-.15v-.578c0-.758-.137-1.293-.41-1.604-.273-.31-.79-.466-1.547-.466-.448 0-.914.044-1.399.13a9.164 9.164 0 0 0-1.417.373l-.336-1.025a7.934 7.934 0 0 1 1.716-.541 9.144 9.144 0 0 1 1.79-.187c.957 0 1.709.224 2.256.672.547.447.82 1.23.82 2.349v5.092zm-3.804-3.058c-.622.025-1.082.18-1.38.466-.298.286-.447.66-.447 1.119 0 .534.13.932.391 1.193.26.261.69.392 1.287.392.397 0 .805-.103 1.22-.308.417-.206.837-.5 1.26-.886v-2.126l-2.331.15zM114.49 25.493v-4.27h-4.4v4.27h-1.51v-9.1h1.529v3.618h4.382v-3.617H116v9.099h-1.51zM118.163 25.493v-9.1h1.473v3.637h1.678c.162 0 .33-.016.504-.047a1.472 1.472 0 0 0 .941-.584c.13-.173.24-.408.327-.705l.69-2.282h1.398l-.69 2.474c-.249.831-.67 1.396-1.267 1.693.435.137.774.345 1.016.626.242.28.425.62.55 1.018l.95 3.27h-1.454l-.895-2.946v.018a2.35 2.35 0 0 0-.373-.727 1.675 1.675 0 0 0-.494-.429 1.89 1.89 0 0 0-.569-.205 3.143 3.143 0 0 0-.578-.056h-1.734v4.345h-1.473z"/></g><g><mask id="b" fill="#fff"><use xlink:href="#a"/></mask><path d="M16.446 14.026l4.426 4.426-4.426 4.426-4.426-4.426 4.426-4.426z" fill="#E48D3C" mask="url(#b)"/></g><g transform="translate(16.21)"><mask id="e" fill="#fff"><use xlink:href="#c"/></mask><path d="M-9.404 9.416L9.34-9.327 28.083 9.416 9.34 28.16-9.404 9.416z" fill="url(#d)" mask="url(#e)"/></g><g transform="translate(14.737 19.526)"><mask id="h" fill="#fff"><use xlink:href="#f"/></mask><path d="M-6.91 5.316L2.263 18.42l11.213-8.27L4.302-2.955-6.91 5.316z" fill="url(#g)" mask="url(#h)"/></g><g transform="translate(0 13.632)"><mask id="k" fill="#fff"><use xlink:href="#i"/></mask><path d="M.844-3.17L17.293.626l-2.269 9.776-16.448-3.797L.844-3.17z" fill="url(#j)" mask="url(#k)"/></g><g><mask id="n" fill="#fff"><use xlink:href="#l"/></mask><path d="M-9.117 9.159L17.46-17.418 44.036 9.16 17.46 35.735-9.117 9.159z" fill="url(#m)" mask="url(#n)"/></g><g transform="translate(16.579)"><mask id="q" fill="#fff"><use xlink:href="#o"/></mask><path d="M-17.437 17.418L9.14-9.16l26.576 26.577L9.14 43.994l-26.577-26.576z" fill="url(#p)" mask="url(#q)"/></g><g transform="translate(0 15.105)"><mask id="t" fill="#fff"><use xlink:href="#r"/></mask><path d="M-9.755 9.933L9.839-9.662 29.434 9.933 9.84 29.527-9.755 9.933z" fill="url(#s)" mask="url(#t)"/></g></g></svg>