<svg width="76" height="35" viewBox="0 0 76 35" xmlns="http://www.w3.org/2000/svg"><title>soyuz</title><g fill="none" fill-rule="evenodd"><path d="M.474 9.468c0 4.942 3.985 8.947 8.904 8.947 4.917 0 8.903-4.005 8.903-8.947 0-4.94-3.986-8.945-8.903-8.945C4.459.523.474 4.528.474 9.468" fill="#E36729"/><path d="M.474 9.468c0 4.942 3.985 8.947 8.904 8.947 4.917 0 8.903-4.005 8.903-8.947 0-4.94-3.986-8.945-8.903-8.945C4.459.523.474 4.528.474 9.468" stroke="#E36729" stroke-width=".3"/><path d="M.474 23.188c0 1.316 3.985 2.384 8.904 2.384 4.917 0 8.903-1.068 8.903-2.384 0-1.32-3.986-2.388-8.903-2.388-4.919 0-8.904 1.068-8.904 2.387" fill="#E36729"/><path d="M.474 23.188c0 1.316 3.985 2.384 8.904 2.384 4.917 0 8.903-1.068 8.903-2.384 0-1.32-3.986-2.388-8.903-2.388-4.919 0-8.904 1.068-8.904 2.387" stroke="#E36729" stroke-width=".3"/><path d="M9.378 27.958c6.412 0 8.903.624 8.903 1.492 0 .866-2.491 1.492-8.903 1.492-6.415 0-8.904-.626-8.904-1.492 0-.868 2.489-1.492 8.904-1.492" fill="#E36729"/><path d="M9.378 27.958c6.412 0 8.903.624 8.903 1.492 0 .866-2.491 1.492-8.903 1.492-6.415 0-8.904-.626-8.904-1.492 0-.868 2.489-1.492 8.904-1.492" stroke="#E36729" stroke-width=".3"/><path d="M9.378 33.326c7.908 0 8.903.177 8.903.597s-.995.598-8.903.598c-7.913 0-8.904-.179-8.904-.598 0-.42.99-.597 8.904-.597" fill="#E36729"/><path d="M9.378 33.326c7.908 0 8.903.177 8.903.597s-.995.598-8.903.598c-7.913 0-8.904-.179-8.904-.598 0-.42.99-.597 8.904-.597z" stroke="#E36729" stroke-width=".3"/><path d="M28.94 22.76c.74 0 1.597.225 2.257.554l.323 1.967h1.04v-2.875a9.927 9.927 0 0 0-3.491-.637c-2.267 0-3.735.767-4.608 1.551-1.079.95-2.025 2.555-2.025 4.853 0 2.517 1.131 4.013 1.71 4.63 1.446 1.566 3.232 1.94 4.735 1.94 1.226 0 2.53-.244 3.68-.656V31.14H31.52l-.46 2.344c-.564.15-1.3.27-1.881.27-1.933 0-3.028-.895-3.62-1.643-.672-.84-1.174-2.163-1.174-3.92 0-1.473.376-3.04 1.267-4.05.628-.708 1.726-1.38 3.289-1.38M44.414 23.17c1.244 1.159 2.043 2.931 2.043 5.077 0 1.997-.684 3.637-1.672 4.723-.816.895-2.21 1.849-4.31 1.849-1.913 0-3.326-.787-4.272-1.773-.725-.767-1.748-2.298-1.748-4.8 0-2.576 1.077-4.199 2.082-5.097.745-.651 2.025-1.454 3.976-1.454 1.748 0 2.988.634 3.9 1.475m-6.575.617c-.928.97-1.432 2.593-1.432 4.443 0 .727.077 2.574 1.04 3.975.911 1.326 2.138 1.623 3.03 1.623.667 0 1.969-.186 2.936-1.51 1.018-1.383 1.097-3.287 1.097-4.034 0-1.923-.523-3.526-1.395-4.46-.967-1.046-2.173-1.139-2.693-1.139-1.245 0-2.08.576-2.583 1.102M63.163 23.15c-.69-.652-1.932-1.455-3.86-1.455-1.6 0-2.953.597-3.886 1.454-1.526 1.405-1.865 3.433-1.963 4.599h-2.605v-4.87l1.468-.118v-.766h-4.514v.766l1.374.121v10.752l-1.374.12v.768h4.514v-.768l-1.468-.12v-5.03h2.59c.08 1.866.822 3.507 1.647 4.443.762.857 2.075 1.773 4.139 1.773 2.14 0 3.457-.954 4.257-1.849 1.003-1.12 1.635-2.744 1.635-4.74 0-2.186-.782-3.96-1.954-5.08m-1.055 9.168c-.726 1.008-1.786 1.51-2.86 1.51-.876 0-2.103-.337-2.955-1.623-.706-1.045-1.003-2.615-1.003-3.975 0-1.438.37-3.342 1.393-4.443.612-.674 1.465-1.102 2.655-1.102 1.004 0 1.799.297 2.488 1.102.987 1.138 1.337 2.966 1.337 4.497 0 1.42-.313 2.986-1.055 4.034M69.297 27.522v1.12l1.602-.19c.669 0 1.765.075 2.45.802.353.356.65.972.65 1.83 0 .822-.258 1.586-1.093 2.128-.69.469-1.62.597-2.377.597-.828 0-1.572-.211-2.142-.556l-.314-2.394h-1.04v3.286c1.673.562 3.14.598 3.584.598 1.101 0 2.733-.244 3.79-.99 1.038-.727 1.45-1.735 1.45-2.91 0-.767-.203-1.511-.892-2.13-.632-.56-1.563-.84-2.358-.877v-.037c.629-.17 1.355-.523 1.839-.99.612-.616.779-1.267.779-1.902 0-1.306-.647-2.09-1.395-2.54-.855-.502-1.965-.598-3.045-.598-.648 0-1.82.039-3.376.523v2.892h1.039l.228-2.007a5.544 5.544 0 0 1 2.125-.474c.706 0 1.338.13 1.88.617.425.391.721.95.721 1.771 0 .712-.22 1.363-.872 1.887-.5.405-1.076.607-1.644.652l-1.59-.108M30.794 10.729c-.965-.653-2.153-.748-3.212-.748-.204 0-1.039 0-2.1.113V5.559h4.753l.306 1.866h1.042V4.701h-9.147v.765l1.375.122v10.75l-1.375.122v.766h4.902c.989 0 2.566-.112 3.661-1.009 1.022-.82 1.21-1.865 1.21-2.65 0-1.29-.467-2.203-1.415-2.838m-1.208 4.892c-.762.71-1.928.744-2.747.744-.447 0-.873-.017-1.357-.072v-5.304a12.034 12.034 0 0 1 1.856-.147c.8 0 1.694.092 2.342.764.578.615.67 1.438.67 1.998 0 .597-.129 1.42-.764 2.017M45.062 16.237L40.606 4.55H39.38l-4.348 11.687-1.53.223v.766h4.092v-.766l-1.48-.117 1.408-3.805h4.387l1.427 3.81-1.372.112v.766h4.216v-.766l-1.119-.223m-7.222-4.558l1.837-5.167 1.911 5.167H37.84M61.019 5.466V4.7h-4.514v.765l1.468.118v4.868h-6.39V5.584l1.468-.118V4.7h-4.518v.765l1.374.123v10.749l-1.374.122v.766h4.518v-.766l-1.468-.119v-5.03h6.39v5.03l-1.468.119v.766h4.514v-.766l-1.375-.122V5.588l1.375-.122M74.462 16.365l-4.219-6.087 3.901-4.664 1.224-.148V4.7h-3.861v.765l1.34.122-4.04 4.956h-1.374v-4.96l1.468-.118V4.7h-4.514v.765l1.374.122v10.75l-1.374.122v.766H68.9v-.766l-1.468-.119v-5.03h1.538l4.175 5.915h2.712v-.766l-1.396-.095" fill="#FFF"/></g></svg>