<svg width="150" height="29" viewBox="0 0 150 29" xmlns="http://www.w3.org/2000/svg" xmlns:xlink="http://www.w3.org/1999/xlink"><title>spb-bank</title><defs><linearGradient x1="113.33%" y1="-24.552%" x2="30.669%" y2="65.733%" id="b"><stop stop-color="#E75A37" offset="0%"/><stop stop-color="#DB2239" offset="100%"/></linearGradient><path id="a" d="M15.795 10.757c-1.482 4.196-6.096 6.395-10.304 4.917C1.282 14.194-.927 9.598.558 5.402 2.043 1.207 6.656-.993 10.864.485c4.206 1.48 6.414 6.077 4.931 10.272z"/><linearGradient x1="100%" y1="50%" x2="66.9%" y2="50%" id="d"><stop stop-color="#B62238" offset="0%"/><stop stop-color="#9F1E36" offset="100%"/></linearGradient><path id="c" d="M16.255.007l.001.815c.006 1.548-3.604 2.816-8.068 2.833C3.728 3.669.107 2.428.101.88L.098.067l16.157-.06"/><linearGradient x1="145.875%" y1="-85.132%" x2="40.129%" y2="50%" id="g"><stop stop-color="#E25139" offset="0%"/><stop stop-color="#DB2239" offset="100%"/></linearGradient><path id="f" d="M16.255 2.864c.004 1.549-3.608 2.817-8.069 2.831C3.724 5.711.102 4.47.098 2.925.093 1.374 3.705.106 8.168.09c4.46-.015 8.08 1.226 8.087 2.774"/><linearGradient x1="113.368%" y1="100%" x2="53.938%" y2="100%" id="j"><stop stop-color="#B32138" offset="0%"/><stop stop-color="#9F1E36" offset="100%"/></linearGradient><path id="i" d="M.1.519C.1.29 3.716.067 8.177.067c4.462 0 8.078.224 8.078.452v.483c0 .225-3.616.45-8.078.45C3.717 1.452.1 1.227.1 1.002V.52"/></defs><g fill="none" fill-rule="evenodd"><path d="M90.971 26.82c-.147.416-.463.432-.618.432l-3.67-.006v-3.832h3.548v-1.108h-3.548v-3.26l3.606-.005c.157 0 .472.017.618.433h.378v-1.536h-6.313v.374a.682.682 0 0 1 .272.167c.14.159.154.369.162.448v8.44c-.012.112-.024.41-.42.609-.005 0-.008.003-.014.005v.375h6.376V26.82h-.377M107.328 26.82c-.149.416-.464.432-.622.432l-3.667-.006v-3.832h3.548v-1.108h-3.548v-3.26l3.607-.005c.156 0 .47.017.617.433h.376v-1.536h-6.31v.374a.677.677 0 0 1 .27.167c.142.159.155.369.163.448v8.44c-.011.112-.025.41-.421.609-.004 0-.007.003-.012.005v.375h6.375V26.82h-.376M83.099 18.314v-.376h-8.236v.376c.416.147.432.46.434.616v8.434c0 .157-.018.47-.434.617v.375h2.143v-.375c-.418-.147-.434-.46-.434-.617l.001-8.31h4.816l-.002 8.31c0 .157-.015.47-.432.617v.375H83.1v-.375c-.42-.147-.434-.46-.434-.617V18.93c0-.156.016-.469.434-.616" fill="#1A1918"/><use fill="url(#b)" xlink:href="#a" transform="translate(0 .1)"/><g transform="translate(0 21.29)"><mask id="e" fill="#fff"><use xlink:href="#c"/></mask><use fill="url(#d)" xlink:href="#c"/><path d="M16.255.007l.001.815c.006 1.548-3.604 2.816-8.068 2.833C3.728 3.669.107 2.428.101.88L.098.067l16.157-.06" mask="url(#e)"/></g><g transform="translate(0 18.433)"><mask id="h" fill="#fff"><use xlink:href="#f"/></mask><use fill="url(#g)" xlink:href="#f"/><path d="M16.255 2.864c.004 1.549-3.608 2.817-8.069 2.831C3.724 5.711.102 4.47.098 2.925.093 1.374 3.705.106 8.168.09c4.46-.015 8.08 1.226 8.087 2.774" mask="url(#h)"/></g><g transform="translate(0 27.005)"><mask id="k" fill="#fff"><use xlink:href="#i"/></mask><use fill="url(#j)" xlink:href="#i"/><path d="M.1.519C.1.29 3.716.067 8.177.067c4.462 0 8.078.224 8.078.452v.483c0 .225-3.616.45-8.078.45C3.717 1.452.1 1.227.1 1.002V.52" mask="url(#k)"/></g><path d="M68.281 22.316h4.405v1.091h-4.405v-1.09zM30.42 26.75c-.139.45-.478.476-.593.493 0 0-.657.06-1.48.06-.795 0-1.405-.268-1.824-.802-.42-.534-.59-1.325-.59-2.375v-1.95c0-2.124.778-3.184 2.413-3.184.71 0 1.453.07 1.453.07a.676.676 0 0 1 .595.493h.388l.001-1.435s-.448-.096-1.027-.17c-.58-.072-.964-.11-1.421-.11-1.155 0-2.063.368-2.724 1.1-.663.734-.994 1.812-.994 3.236v1.95c0 1.415.335 2.49 1 3.227.667.732 1.572 1.102 2.718 1.102.689 0 1.12-.024 1.55-.08.4-.053.926-.157.926-.157V26.75h-.391M134.468 17.938h-2.335v.368c.312.123.462.32.278.803l-1.837 4.887s-.272-.032-.392-.27c-.148-.298-1.844-4.511-1.953-4.78-.111-.27-.031-.554.299-.64v-.368h-2.41v.376c.442.063.622.366.722.596.114.268 1.979 4.888 2.122 5.243.142.353.254.527.386.655.22.214.466.276.761.375 0 0-.26.717-.49 1.28-.256.631-.717.844-1.155.844-.167 0-.492-.1-.584-.43h-.408v1.378s.265.201 1.06.201c.687 0 .983-.141 1.377-.406.316-.209.627-.641.884-1.236.256-.595 2.84-7.543 2.98-7.884.139-.34.294-.546.695-.616v-.376M41.13 12.333c-.031-.09-2.392-8.384-2.392-8.384-.203-.703-.675-1.054-1.421-1.054-.757 0-1.236.355-1.435 1.067 0 0-2.196 7.788-2.39 8.371-.146.447-.383.6-.704.698v.378h2.421v-.378s-.495-.177-.367-.689c.242-.967.647-2.367.647-2.367h3.64s.588 2.112.652 2.367c.128.512-.368.689-.368.689v.378h2.42v-.378c-.321-.098-.557-.251-.704-.698zm-5.374-3.469s1.279-4.576 1.321-4.694c.043-.118.125-.181.24-.181.12 0 .202.068.241.2.04.133 1.305 4.675 1.305 4.675h-3.107zM40.107 27.281c-.03-.091-2.39-8.384-2.39-8.384-.204-.704-.677-1.054-1.423-1.054-.756 0-1.234.354-1.435 1.066 0 0-2.196 7.789-2.388 8.372-.146.446-.383.6-.706.697v.378h2.423v-.378s-.496-.177-.368-.688c.243-.968.647-2.368.647-2.368h3.64s.588 2.113.651 2.368c.129.511-.368.688-.368.688v.378h2.422v-.378c-.322-.097-.558-.25-.705-.697zm-5.373-3.47s1.278-4.575 1.322-4.693c.042-.117.124-.182.238-.182.122 0 .204.069.243.2.039.134 1.303 4.676 1.303 4.676h-3.106zM50.755 3.983c0-.157.017-.47.434-.617V2.99h-2.144v.376c.416.146.434.46.434.617V7.36h-4.816V3.983c0-.157.017-.47.435-.617V2.99h-2.144v.376c.417.146.434.46.434.617v8.434c0 .156-.017.47-.434.617v.375h2.144v-.375c-.418-.148-.435-.461-.435-.617V8.473h4.816v3.944c0 .156-.018.47-.434.617v.375h2.144v-.375c-.417-.148-.434-.461-.434-.617V3.983M49.703 18.93c0-.156.015-.469.433-.616v-.376h-2.144v.376c.418.147.434.46.434.616v3.377h-4.814V18.93c0-.156.017-.469.433-.616v-.376h-2.143v.376c.418.147.433.46.433.616v8.434c0 .157-.015.47-.433.617v.375h2.143v-.375c-.416-.147-.433-.46-.433-.617V23.42h4.814v3.944c0 .157-.016.47-.434.617v.375h2.144v-.375c-.418-.147-.433-.46-.433-.617V18.93M60.402 12.414l-3.7-5.072L59.69 3.98c.369-.423.56-.506.953-.616V2.99h-1.648l-4.171 4.844V3.983c0-.157.015-.47.432-.617V2.99h-2.143v.376c.416.146.433.46.433.617v8.434c0 .156-.017.47-.433.617v.375h2.143v-.375c-.417-.148-.432-.46-.432-.617V9.455l1.02-1.149 3.697 5.102h1.885v-.377c-.412-.085-.696-.256-1.024-.617M59.35 27.361l-3.702-5.071 2.989-3.361c.368-.424.56-.508.953-.617v-.374h-1.647L53.77 22.78v-3.85c0-.158.016-.471.434-.618v-.375H52.06v.375c.417.147.432.46.432.617v8.434c0 .157-.015.47-.432.617v.375h2.143v-.375c-.418-.146-.434-.46-.434-.617v-2.962l1.02-1.15 3.7 5.103h1.884v-.377c-.411-.084-.696-.256-1.024-.617M27.897 7.31c-.426 0-.921.018-1.478.054v-3.27h3.63c.157 0 .472.016.62.432h.376V2.99h-6.338v.376c.412.15.433.432.433.61l.001 8.44c0 .157-.016.47-.434.618v.375h3.258c2.651 0 4.04-1.021 4.04-2.984v-.129c0-1.992-1.372-2.986-4.108-2.986zm2.828 3.115c0 .657-.212 1.137-.638 1.44-.426.305-1.073.458-2.19.458-.376 0-.847.004-1.478-.044V8.447a27.465 27.465 0 0 1 1.478-.057c1.034 0 1.764.152 2.19.456.426.305.638.783.638 1.435v.144zM121.234 22.257c-.425 0-.92.018-1.477.053v-3.269h3.63c.157 0 .471.017.62.433h.375v-1.536h-6.337v.375c.411.152.434.433.434.61v8.44c0 .157-.017.47-.434.617v.376h3.258c2.651 0 4.038-1.02 4.038-2.984v-.129c0-1.992-1.37-2.986-4.107-2.986zm2.828 3.115c0 .658-.211 1.137-.639 1.44-.424.306-1.071.458-2.19.458-.375 0-.845.004-1.476-.043v-3.832a27.125 27.125 0 0 1 1.477-.057c1.033 0 1.765.152 2.19.456.427.304.638.783.638 1.435v.143zM60.492 17.938v1.536h.376c.147-.416.462-.433.62-.433h2.023v8.323c0 .157-.017.47-.434.617v.375h2.144v-.375c-.417-.147-.434-.46-.434-.617l.003-8.323h2.02c.156 0 .47.017.619.433h.376v-1.536h-7.313M92.687 17.938v1.536h.376c.15-.416.464-.433.621-.433h2.024v8.323c0 .157-.017.47-.434.617v.375h2.145v-.375c-.42-.147-.434-.46-.434-.617l.002-8.323h2.018c.158 0 .473.017.62.433h.377v-1.536h-7.315M112.625 17.84c-.384 0-.888.023-1.513.043-.792.024-1.59.055-1.59.055v.374c.415.148.434.46.434.617l-.003 8.435c0 .157-.016.47-.434.617v.375h2.144v-.375c-.416-.147-.433-.46-.433-.617l.002-3.232c.604.047 1.058.076 1.393.076 2.624 0 3.937-1.046 3.937-3.142v-.184c0-2.025-1.313-3.042-3.937-3.042zm2.66 3.226c0 .748-.208 1.284-.624 1.6-.415.316-1.091.474-2.036.474-.077 0-.533-.025-1.393-.062V18.98a18.53 18.53 0 0 1 1.393-.056c.934 0 1.613.152 2.03.462.42.308.63.806.63 1.496v.184zM138.553 17.84c-.384 0-.89.023-1.512.043-.793.024-1.591.055-1.591.055v.374c.416.148.434.46.434.617l-.003 8.435c0 .157-.017.47-.434.617v.375h2.144v-.375c-.416-.147-.434-.46-.434-.617l.004-3.232a19.79 19.79 0 0 0 1.392.076c2.624 0 3.938-1.046 3.938-3.142v-.184c0-2.025-1.314-3.042-3.938-3.042zm2.658 3.226c0 .748-.205 1.284-.621 1.6-.415.316-1.092.474-2.037.474-.077 0-.533-.025-1.392-.062V18.98c.48-.036.935-.056 1.392-.056.935 0 1.613.152 2.03.462.419.308.628.806.628 1.496v.184zM143.826 17.938v.375c.417.147.433.461.433.617v8.434c0 .157-.016.47-.433.617v.375h2.144v-.375c-.417-.147-.434-.46-.434-.617l.002-8.327 3.283.004c.159 0 .472.017.619.433h.377v-1.536h-5.99" fill="#1A1918"/></g></svg>