<svg width="128" height="33" viewBox="0 0 128 33" xmlns="http://www.w3.org/2000/svg" xmlns:xlink="http://www.w3.org/1999/xlink"><title>bank-moskvi</title><defs><path id="a" d="M.15 2.255h127.136V35H.15"/></defs><g fill="none" fill-rule="evenodd"><g transform="translate(0 -2)"><mask id="b" fill="#fff"><use xlink:href="#a"/></mask><path d="M20.13 2.255c-4.439 0-8.008 4.245-8.37 8.685l.015.563h-.227l.01-.563c-.354-4.44-3.93-8.685-8.37-8.685H0V35h10.764V16.687h1.794V35H23.32V2.255h-3.19" fill="#D9222A" mask="url(#b)"/></g><path d="M34.155 18.927v-8.33c0-.097.007-.192.017-.29h2.515c1.227 0 1.596.448 1.596.448V8.79H31.72s.341.98.341 1.808V30.9s-.094 1.51-.386 1.753c.267.027.808.027 1.322.022.012 0 2.445.255 3.54-.415 1.105-.675 2.487-1.727 2.487-6.575 0-4.84-2.178-6.758-4.87-6.758m1.7 11.673c-.395.625-1.33.657-1.7.645v-10.83c1.712 0 2.33 1.968 2.33 6.288 0 1.51-.144 3.117-.63 3.897M46.753 29.625V16.25c0-.102-.088-3.25-2.984-3.25-2.949 0-3.335 3.983-3.335 5.098 0 1.11.334 1.252.334 1.252h1.888s-.277-.918-.222-2.31c.055-1.392.138-2.845 1.25-2.845.973 0 1.093 1.06 1.093 2.06v4.33l-.01-.005c-3.14 2.143-4.528 5.398-4.528 8.323 0 2.925 1.831 4.012 3.335 4.012.943 0 1.36-.498 1.537-.862.394.657.988.947.988.947l1.42-1.782c-.587-.408-.734-1.125-.766-1.593m-2.93 1.955c-.74 0-1.184-.96-1.184-3.335 0-4.332 2.023-5.887 2.138-5.97v8.532c-.053.49-.305.773-.953.773M55.237 30.888v-17.59h-2.372s.401.795.401 1.504v7.203h-2.25v-8.707h-2.375s.397.795.397 1.504V31.03c0 .703-.397 1.502-.397 1.502h2.774s-.399-.8-.399-1.502v-7.91h2.25v7.91c0 .703-.401 1.502-.401 1.502h2.774s-.402-.8-.402-1.502v-.142M64.046 13.295l-1.56.002h-.543s.134.768-.028 1.47l-2.4 6.198v-7.668h-2.38s.405.796.405 1.508V31.03c0 .703-.405 1.502-.405 1.502h2.78s-.4-.8-.4-1.502v-6.68l.986-2.42 2.045 9.102-.005-.002c.118.82-.09 1.502-.09 1.502h2.353l-3.001-13.77 2.243-5.467M81.526 8.79h-2.782l-2.387 9.665-2.393-9.665H71.24c.29.248.39 1.663.39 1.663v20.27c0 .83-.345 1.81-.345 1.81h2.787s-.345-.98-.345-1.81v-15.24l2.63 12.472 2.677-12.75v15.517c0 .83-.34 1.81-.34 1.81h2.784s-.341-.98-.341-1.81v-20.27s.102-1.415.389-1.662M86.705 12.982a1.14 1.14 0 0 0-.137.01c-.048-.005-.093-.01-.14-.01-2.854 0-3.41 4.703-3.41 8.93 0 4.236-.04 10.986 3.55 10.995 3.587-.01 3.55-6.76 3.55-10.994 0-4.228-.562-8.93-3.413-8.93m.965 8.71c0 2.43.01 8.697-.461 9.617a.761.761 0 0 1-.641.42.76.76 0 0 1-.647-.42c-.471-.92-.456-7.188-.456-9.617 0-2.128-.015-5.753.27-6.766.144-.527.468-.735.775-.735h.112c.307 0 .63.208.779.735.28 1.013.27 4.638.27 6.765M98.37 23.438h-2.11s.186.48.334 1.037c.15.557.112 3.122.037 4.122-.072 1.008-.082 3.133-1.27 3.133a.75.75 0 0 1-.638-.42c-.474-.922-.464-7.188-.464-9.617 0-2.13-.01-5.756.267-6.763.147-.527.469-.738.78-.738 1.447 0 1.213 3.638 1.14 4.085-.074.445-.296 1.113-.296 1.113h2s.113-.073.22-.52c.224-1.448-.295-5.888-3.148-5.888-2.854 0-3.408 4.7-3.408 8.933 0 4.235-.035 10.992 3.557 10.992 3.595 0 3.3-8.022 3.3-8.69 0-.667-.301-.78-.301-.78M126.889 31.028V13.295h-2.378s.405.8.405 1.51v16.223c0 .702-.405 1.505-.405 1.505h2.775s-.397-.803-.397-1.505M119.21 19.91v-6.615h-2.375s.402.8.402 1.507v16.226c0 .705-.402 1.505-.402 1.505h2.038c.744.017 1.876-.03 2.518-.418 1.007-.617 2.277-1.585 2.277-6.018 0-4.43-1.995-6.187-4.458-6.187m1.55 10.683c-.352.572-1.215.602-1.55.587v-9.905c1.567 0 2.128 1.795 2.128 5.76 0 1.378-.127 2.848-.579 3.558M113.383 21.067c.748-.505 1.561-1.445 1.684-3.16.01-.125.02-.267.02-.437 0-1.112.06-4.47-2.89-4.47-2.948 0-2.983 3.255-2.983 3.255v14.773c0 .705-.399 1.505-.399 1.505h2.377c.711-.005 1.614-.09 2.166-.428 1.008-.607 2.277-1.575 2.277-6.007 0-2.998-.903-4.42-2.252-5.03zm-2.19-2.047v-2.765c0-.997.12-2.06 1.092-2.06 1.113 0 1.043.973 1.103 2.365.052 1.395-.225 2.313-.225 2.313l.008-.003c-.242.855-.764 1.795-1.919 1.795l-.03.003h-.03V19.02zm1.536 11.575c-.352.56-1.197.6-1.537.585v-9.152c1.567 0 2.116 1.04 2.116 5.002 0 1.383-.132 2.85-.579 3.565zM107.086 13.295l-1.561.002h-.542s.135.768-.025 1.47l.005-.01-2.412 6.208v-7.668h-2.373s.4.796.4 1.508V31.03c0 .703-.4 1.502-.4 1.502h2.772s-.4-.8-.4-1.502v-6.68l.994-2.425 2.038 9.107c.117.818-.087 1.5-.087 1.5h2.347l-2.996-13.77 2.24-5.467" fill="#000"/></g></svg>