<svg width="150" height="18" viewBox="0 0 150 18" xmlns="http://www.w3.org/2000/svg"><title>crediteuropebank</title><g fill="none" fill-rule="evenodd"><path d="M2.26 8.782a.862.862 0 0 1 .013-.395.544.544 0 0 1 .297-.345s.84-.308 1.522-1.4c.794-1.269 1.886-2.56 4.405-2.56v.641s.033.576-.494.644c-.625.081-1.881.57-2.675 1.97C4.69 8.462 3.886 8.61 3.886 8.61l4.656 4.876c-1.089 0-1.75-.037-1.982-.11-.27-.074-.624-.362-1.065-.863L2.429 9.097a.675.675 0 0 1-.168-.315zm14.196.908c0 2.582-1.059 3.872-3.175 3.872-1.274 0-2.124-.342-2.552-1.027v3.8c-.771 0-1.224-.055-1.36-.166-.122-.098-.183-.47-.183-1.119V5.908c.588 0 .93.05 1.028.147.098.085.147.398.147.936.453-.783 1.414-1.174 2.882-1.174 2.142 0 3.213 1.29 3.213 3.873zm-1.579 0c0-.845-.128-1.47-.385-1.873-.33-.477-.888-.716-1.671-.716-1.052 0-1.67.11-1.854.331-.172.22-.257.973-.257 2.258 0 .844.122 1.456.367 1.836.318.489.888.734 1.707.734 1.053 0 1.665-.105 1.836-.312.171-.22.257-.974.257-2.258zm9.35-.643c0 .624-.067.992-.201 1.101-.135.099-.607.148-1.414.148h-3.929c0 .575.178 1.034.533 1.376.367.343.887.514 1.56.514h1.652c.612 0 .967.055 1.065.166.11.097.165.465.165 1.1h-2.827c-2.484 0-3.726-1.266-3.726-3.799 0-2.558 1.254-3.836 3.763-3.836 1.089 0 1.934.312 2.533.936.551.575.827 1.34.827 2.294zm-1.615 0c.024-1.358-.606-2.02-1.89-2.02-1.005 0-1.598.086-1.782.257-.171.172-.257.76-.257 1.763h3.93zm9.713 4.375v.433c0 .65-.061 1.022-.184 1.12-.134.11-.587.165-1.358.165v-1.687h-4.875v1.687c-.771 0-1.224-.055-1.359-.166-.122-.097-.183-.47-.183-1.119v-.402c.001-.649.056-1.006.165-1.101.071-.081.28-.132.624-.154.978-.936 1.257-3.578 1.268-5.077l.001-.16c.009-.539.063-.851.164-.941.098-.11.453-.165 1.065-.165h2.613c.612 0 .967.055 1.065.165.102.092.158.415.165.973v5.203c.368.02.59.072.664.156.108.095.163.453.165 1.07zm-2.375-1.719l.004-4.582H27.783a18.188 18.188 0 0 1-.157 2.192c-.122.887-.347 1.978-.81 2.873h2.555a.387.387 0 0 1 .094-.008c.383 0 .47-.217.486-.358.008-.067-.001-.117-.001-.117zM2.125 13.485c-.808 0-1.28-.055-1.413-.166-.135-.11-.203-.501-.203-1.175V4.086c.808 0 1.28.049 1.414.146.135.099.202.448.202 1.047v8.206zm30.953-.05v-7.57c.808 0 1.28.05 1.414.147.134.085.201.41.201.973v4.43l2.829-4.595c.318-.477.557-.753.716-.826.147-.086.526-.129 1.138-.129h.844v6.266c0 .65-.066 1.028-.202 1.138-.134.111-.605.166-1.413.166V7.83l-2.828 4.558c-.343.527-.588.832-.735.918-.159.086-.52.129-1.082.129h-.882zm14.91-7.552c0 .674-.054 1.065-.164 1.175-.098.11-.471.165-1.12.165H45.29v6.212c-.783 0-1.242-.055-1.376-.166-.135-.11-.202-.489-.202-1.138V7.223h-2.699c0-.672.05-1.064.147-1.174.098-.11.44-.166 1.028-.166h5.8z" fill="#005AAB"/><path d="M67.422 8.712a8.711 8.711 0 0 1-17.423 0 8.712 8.712 0 1 1 17.423 0" fill="#FFF"/><path d="M54.607 8.606l3.998 3.997 3.998-3.997-3.998-3.998-3.998 3.998zm-4.098 0a8.096 8.096 0 1 1 16.191 0 8.096 8.096 0 0 1-16.19 0z" fill="#EE1C24"/><path d="M83.464 11.288c0-.648-.44-1.006-1.497-1.006h-3.072v2.058h3.043c.845 0 1.272-.056 1.37-.126.076-.055.156-.316.156-.926zm-1.571-4.175h-2.998V9.02h3.072c.747 0 1.113-.05 1.19-.108.059-.044.129-.277.129-.839 0-.62-.408-.961-1.393-.961zm-3.197 6.421c-.614 0-.976-.044-1.085-.133-.1-.089-.15-.402-.15-.937V6.988c0-.545.05-.862.15-.951.109-.09.471-.134 1.085-.134h3.152c1.894 0 2.842.664 2.842 1.993 0 .835-.296 1.348-.882 1.54l-.113.037.111.042c.328.123.598.346.81.672.207.328.312.7.312 1.116 0 1.488-1.012 2.231-3.035 2.231h-3.197zM93.081 9.7c0 2.582-1.06 3.872-3.176 3.872-1.273 0-2.124-.341-2.552-1.027v3.8c-.771 0-1.224-.055-1.359-.166-.122-.097-.183-.471-.183-1.119V5.917c.587 0 .93.049 1.027.147.1.085.147.397.147.935.453-.782 1.414-1.174 2.883-1.174 2.141 0 3.213 1.29 3.213 3.874zm-1.58 0c0-.845-.128-1.469-.385-1.873-.33-.477-.887-.716-1.67-.716-1.053 0-1.671.11-1.855.33-.171.221-.256.973-.256 2.259 0 .844.122 1.456.367 1.835.318.49.887.735 1.706.735 1.053 0 1.665-.105 1.837-.313.17-.22.257-.973.257-2.257zm9.89-.019c0 2.57-1.249 3.854-3.746 3.854-2.472 0-3.708-1.284-3.708-3.854 0-2.558 1.243-3.837 3.727-3.837s3.726 1.279 3.726 3.837zm-1.598 0c0-.807-.134-1.407-.403-1.799-.33-.502-.906-.752-1.726-.752-1.065 0-1.689.11-1.872.33-.172.208-.257.949-.257 2.221 0 1.713.703 2.57 2.11 2.57 1.077 0 1.702-.104 1.873-.312.184-.22.275-.973.275-2.258zm9.218 3.598c-.134.11-.605.166-1.413.166V7.479H103.838v5.965c-.807 0-1.279-.056-1.414-.166-.134-.11-.201-.49-.201-1.138V7.337c.006-.72.061-1.145.165-1.271.11-.135.489-.203 1.138-.203h4.384c.65 0 1.028.068 1.138.203.104.126.16.55.165 1.271v4.803c0 .649-.067 1.028-.202 1.138zm8.046.166c-.588 0-.93-.05-1.028-.148-.098-.098-.147-.428-.147-.991-.196.33-.532.606-1.009.826-.551.257-1.188.385-1.91.385-.856 0-1.548-.183-2.074-.55-.575-.404-.862-.98-.862-1.726s.244-1.34.733-1.78c.54-.478 1.334-.717 2.387-.717h2.367c0-.55-.164-.941-.495-1.174-.317-.233-.838-.349-1.56-.349h-1.542c-.575 0-.911-.049-1.01-.147-.097-.11-.147-.483-.147-1.12h2.644c1.407 0 2.386.288 2.937.863.477.477.716 1.26.716 2.35v4.278zm-1.543-3.232v-.238h-2.128c-.87 0-1.377.055-1.524.165-.147.098-.22.458-.22 1.083 0 .722.562 1.083 1.688 1.083 1.09 0 1.726-.086 1.91-.257.183-.184.274-.795.274-1.836zM76.47 13.534h-4.967c-.8 0-1.268-.054-1.403-.165-.136-.11-.203-.505-.203-1.182V5.43c0-.676.067-1.07.203-1.182.135-.11.603-.165 1.403-.165h3.637c.665 0 1.053.055 1.165.165.11.112.165.506.165 1.182h-4.967v2.622h3.194c.653 0 1.035.056 1.146.166.11.11.166.492.166 1.145h-4.506v2.825h3.527c.727 0 1.145.056 1.256.167.123.11.184.504.184 1.18z" fill="#005AAB"/><path d="M144.196 13.55c-.808 0-1.28-.054-1.414-.165-.134-.11-.2-.501-.2-1.175V5.897c.806 0 1.278.05 1.412.147.135.099.202.447.202 1.046v6.46zm5.295-.026c-.876 0-1.57-.03-1.757-.088-.216-.059-.502-.29-.856-.694l-2.369-2.714a.611.611 0 0 1-.147-.401c0-.02-.033-.406.261-.545 0 0 .721-.327 1.345-1.236.683-.992 1.493-1.917 3.519-1.917v.591s.045.626-.379.681c-.503.065-1.189.206-2.14 1.51-.531.726-.915.892-.915.892l3.438 3.921zm-16.05-.023c-.587 0-.93-.049-1.028-.148-.098-.097-.148-.429-.148-.991-.195.33-.532.605-1.009.826-.55.257-1.187.385-1.91.385-.855 0-1.547-.183-2.073-.55-.575-.404-.863-.98-.863-1.726s.245-1.34.734-1.78c.539-.478 1.334-.717 2.387-.717h2.367c0-.55-.165-.941-.494-1.173-.32-.234-.84-.35-1.561-.35H128.3c-.575 0-.912-.049-1.01-.147-.098-.11-.147-.483-.147-1.12h2.644c1.407 0 2.385.288 2.937.863.477.478.715 1.26.715 2.35v4.278zm-1.543-3.232v-.238h-2.129c-.868 0-1.377.055-1.524.165-.146.098-.22.459-.22 1.084 0 .721.563 1.082 1.69 1.082 1.089 0 1.725-.086 1.908-.256.184-.185.275-.797.275-1.837zm-6.595-1.087c.052.064.102.133.15.206l.072.123a1.513 1.513 0 0 0-.222-.33zm.534 1.583c0 1.836-1.248 2.754-3.745 2.754h-2.203c-.758 0-1.205-.055-1.34-.166-.122-.11-.183-.495-.183-1.156V5.403c0-.66.061-1.046.183-1.156.135-.11.582-.165 1.34-.165h5.403s-.058.75-.123.965c-.067.224-.16.35-.623.354l-4.564.002V8.05h2.453c1.72 0 2.518.73 2.868 1.133.121.14.19.26.222.329a2.6 2.6 0 0 1 .312 1.254zm-1.652-.019c0-.93-.667-1.394-2.001-1.394h-2.202v2.845h2.165c1.016 0 1.61-.061 1.78-.184.172-.122.258-.544.258-1.267zm17.31 2.755c-.82 0-1.298-.056-1.431-.166-.135-.11-.202-.502-.202-1.175v-2.065h-3.733V13.5c-.809 0-1.28-.056-1.414-.166-.135-.11-.202-.502-.202-1.175V5.917c.807 0 1.279.055 1.414.165.134.11.202.49.202 1.138V8.79h3.733V5.917c.82 0 1.297.055 1.431.165.135.11.202.49.202 1.138v6.28z" fill="#EE1C24"/></g></svg>