<svg width="150" height="32" viewBox="0 0 150 32" xmlns="http://www.w3.org/2000/svg"><title>express-bank</title><g fill="none" fill-rule="evenodd"><path d="M43.966.19c.317-.16.636.052.922.18 2.638 1.397 5.298 2.75 7.934 4.152.601.311 1.025.964.977 1.657.029.923-.817 1.738-1.723 1.706-.514.014-.97-.247-1.411-.474-2.022-1.078-4.06-2.118-6.086-3.19-.344-.273-.716.019-1.04.167-2.057 1.092-4.124 2.16-6.187 3.243-.52.286-1.177.354-1.721.095-.803-.369-1.216-1.406-.874-2.228.227-.736.993-1.039 1.608-1.373 2.544-1.29 5.042-2.678 7.601-3.935zm32.278 23.385c1.647-1.09 3.876-.908 5.506.13-.06.57-.046 1.197-.344 1.705-.256.363-.676.02-.928-.163-.849-.687-2.11-.803-3.072-.3-.906.486-1.305 1.542-1.438 2.513-.096.796.13 1.77.883 2.17 1.117.44 2.301-.1 3.212-.754.3-.29.871-.036.793.391-.074.555-.09 1.248-.603 1.588-1.376 1.024-3.374 1.12-4.835.222-.773-.463-1.202-1.332-1.381-2.194-.436-2.007.472-4.222 2.207-5.308zm27.458.337c1.613-1.365 4.111-1.42 5.838-.244.288.608-.042 1.338-.313 1.906-.144-.012-.288-.027-.43-.04-.957-.89-2.482-1.226-3.622-.494-.932.643-1.33 1.862-1.285 2.962.02.697.372 1.503 1.095 1.696.995.286 2.032-.146 2.84-.727.247-.226.575-.195.886-.18.067.612.046 1.288-.272 1.833-1.539 1.418-4.248 1.468-5.72-.071-1.528-1.993-.936-5.118.983-6.641zm8.551-.692c1.552-.703 3.37-.374 4.81.448a4.187 4.187 0 0 1-.404 1.942c-.53-.072-.929-.447-1.383-.69-.872-.41-1.97-.381-2.775.175-.69.493-1.04 1.337-1.166 2.156-.108.81-.023 1.791.704 2.299.677.374 1.507.245 2.207-.005.653-.23 1.142-.955 1.903-.744.02.643.033 1.389-.396 1.911-1.367 1.17-3.509 1.301-5.026.354-.993-.599-1.376-1.813-1.453-2.916-.157-2.056 1.08-4.144 2.98-4.93zm-51.885.768c.825-.734 1.954-1.04 3.041-.969 1.195.025 2.504.594 3.014 1.75 1.023 2.105.265 4.877-1.647 6.199-1.643 1.185-4.12 1.188-5.704-.093.03-.563.04-1.225.41-1.68.42-.215.746.21 1.083.396 1.335.917 3.54.404 3.972-1.284-1.044-.026-2.092.045-3.133-.044l-.169-.431c.105-.476.2-.951.309-1.425 1.08-.229 2.191-.062 3.287-.123-.175-.547-.471-1.151-1.07-1.314-1.159-.302-2.3.275-3.19.98-.116-.008-.346-.026-.46-.033-.273-.62-.111-1.385.257-1.929zm8.086-.902c.586-.215 1.22-.117 1.817-.002.055 1.069-.362 2.082-.438 3.14.82-.8 1.245-1.925 2.097-2.695.724-.64 1.763-.569 2.658-.483.6.419-.007 1.245-.106 1.808-.42.051-.842.1-1.26.162-.573.812-1.065 1.702-1.83 2.353.714 1.137 1.554 2.186 2.304 3.3.204.25.21.746-.17.824-.583.077-1.172.029-1.753.006-.788-1.105-1.59-2.196-2.366-3.308-.207 1.093-.43 2.181-.648 3.27-.66.093-1.33.102-1.985-.02.359-2.445.922-4.859 1.359-7.292.094-.354.085-.767.32-1.063zm14.195-.011c.37-.123.766-.113 1.152-.097 1.734.086 3.472-.04 5.204.07.035.107.108.318.145.424-.535 2.669-1.01 5.35-1.583 8.01-.652.061-1.314.072-1.963-.026.287-2.206.844-4.366 1.197-6.563-.855.005-1.707.004-2.562.004-.445 2.184-.85 4.378-1.29 6.564a8.403 8.403 0 0 1-1.955.02 7.376 7.376 0 0 1 .215-1.6c.404-2.049.792-4.101 1.195-6.152.051-.227.096-.466.245-.654zm7.501 0c1.328-.08 2.72-.21 4.013.18 1.63.678 1.798 3.04.684 4.257-.908 1.124-2.447 1.339-3.798 1.303-.172.9-.287 1.815-.576 2.687-.647-.03-1.39.21-1.957-.197.58-2.737 1.024-5.502 1.634-8.23zm1.672 1.814c-.13.644-.25 1.29-.358 1.938a10.617 10.617 0 0 0 1.779-.18c.196-.415.496-.857.36-1.34-.34-.652-1.196-.357-1.78-.418zm4.851-1.837c1.898-.097 3.804-.054 5.703-.008.024.63-.13 1.247-.355 1.83-1.243.05-2.488.008-3.73.026-.084.461-.17.92-.25 1.384 1.138.012 2.28-.007 3.42.02.111.602-.059 1.195-.22 1.771-1.18.06-2.36.027-3.54.04-.113.509-.22 1.02-.33 1.531 1.31.011 2.62-.003 3.93.017.18.611-.058 1.226-.199 1.818-2.017.044-4.046.109-6.06-.024.178-1.439.525-2.851.779-4.278.297-1.373.478-2.772.852-4.127zm24.13.4c.097-.622.847-.456 1.3-.497 1.52.075 3.065-.125 4.572.11.24.575-.11 1.21-.221 1.79-1.295.072-2.59.02-3.887.047-.07.354-.138.71-.206 1.064 1.195.057 2.726-.245 3.55.867.824 1.385.424 3.518-1.059 4.288-.943.537-2.065.38-3.102.406-.749-.025-1.504.066-2.241-.052-.305-.032-.142-.447-.146-.641.479-2.46.943-4.926 1.44-7.382zm1.229 4.23c-.137.66-.268 1.32-.389 1.98.607-.02 1.236.069 1.828-.1.683-.23.944-1.306.348-1.755-.564-.229-1.195-.1-1.787-.125zm8.289-4.607c.622-.165 1.313-.193 1.925.036.234.523.275 1.106.397 1.664.408 2.227.92 4.435 1.247 6.677-.644.1-1.296.09-1.942.047a18.07 18.07 0 0 1-.408-1.838c-.906-.01-1.812-.006-2.716.007-.323.595-.574 1.239-.996 1.772-.624.157-1.291.105-1.926.044-.236-.291.05-.617.16-.897a3759.39 3759.39 0 0 0 3.828-6.899c.127-.214.25-.438.43-.613zm-.401 4.526l1.213.011c-.098-.558-.208-1.114-.316-1.668-.289.558-.59 1.109-.897 1.657zm5.773-4.077c.034-.585.695-.59 1.13-.572.32.035.808-.017.914.39-.08.882-.317 1.744-.473 2.616.838.022 1.679.008 2.521.011.229-.956.254-1.986.654-2.883.555-.174 1.194-.215 1.74.021.2.274.065.617.037.92-.5 2.48-.954 4.967-1.468 7.441-.633.057-1.282.125-1.904-.02-.057-1.154.383-2.284.544-3.423-.837-.014-1.672-.002-2.507-.002-.259 1.146-.433 2.31-.715 3.45a7.88 7.88 0 0 1-1.957-.012c.074-.998.339-1.966.512-2.948.327-1.662.631-3.33.972-4.99zm7.654-.437c.527-.093 1.082-.218 1.614-.057.248.007.347.263.31.485-.101.915-.378 1.802-.447 2.72 1.018-.988 1.438-2.649 2.88-3.139.673-.084 1.625-.397 2.127.215.01.534-.195 1.042-.36 1.543-.429.082-.932 0-1.303.25-.601.753-1.034 1.65-1.79 2.274.733 1.131 1.56 2.199 2.32 3.31.163.222.068.512.082.766-.653.07-1.32.134-1.972.028-.895-.999-1.553-2.197-2.417-3.228-.285 1.06-.32 2.193-.73 3.216-.63.122-1.278.066-1.906-.03.443-2.798 1.034-5.575 1.592-8.353z" fill="#C72B33"/><path d="M111.645 4.383c.911-.004 1.825-.022 2.736.025.073.607.104 1.353.661 1.737.571.347 1.332.335 1.931.057.631-.366.653-1.176.747-1.818.913 0 1.826-.016 2.739 0-.021 1.264-.622 2.582-1.78 3.166-1.415.7-3.11.696-4.605.281-1.49-.41-2.463-1.922-2.429-3.448zM16.519 9.175c1.568-.203 3.26-.051 4.62.82 1.231.793 2.013 2.162 2.258 3.598.253 1.557.18 3.22-.488 4.668a4.928 4.928 0 0 1-3.145 2.678c-1.65.45-3.479.387-5.04-.35-1.515-.74-2.508-2.305-2.76-3.959-.24-1.659-.152-3.457.69-4.943.775-1.423 2.29-2.313 3.865-2.512zm.466 2.564c-.638.188-1.058.796-1.251 1.41-.29.921-.298 1.906-.233 2.86.077.793.268 1.65.871 2.209.851.684 2.303.582 2.941-.35.547-.8.596-1.812.59-2.75 0-.962-.093-2.004-.689-2.796-.503-.685-1.463-.796-2.229-.583zm10.658-1.945c2.211-.973 4.821-.82 6.972.247-.01 1.038.025 2.077-.014 3.114-.617-.07-1.014-.588-1.525-.883-.974-.587-2.24-.79-3.293-.304-1.03.5-1.503 1.698-1.562 2.79-.058 1.05.046 2.233.807 3.03.94.962 2.473.99 3.652.51.717-.254 1.169-.95 1.901-1.167.07 1.05.02 2.102.036 3.153a8.49 8.49 0 0 1-6.546.411c-1.128-.402-2.133-1.187-2.719-2.249-.797-1.365-.863-3.023-.673-4.556.234-1.749 1.35-3.377 2.964-4.096zm29.807-.46c1.418-.35 2.949-.336 4.34.131 1.414.486 2.557 1.654 3.05 3.071.504 1.463.527 3.072.197 4.573-.365 1.593-1.472 3.036-3.007 3.63-1.546.6-3.302.604-4.88.126-1.704-.525-2.98-2.065-3.36-3.797-.349-1.594-.301-3.321.327-4.841a4.99 4.99 0 0 1 3.333-2.892zm1.222 2.421c-.874.29-1.242 1.257-1.374 2.097-.16 1.27-.203 2.653.384 3.826.62 1.219 2.548 1.301 3.335.22.609-.855.612-1.956.609-2.963-.018-.922-.125-1.925-.726-2.667-.526-.647-1.477-.75-2.228-.513zM.127 9.456c2.302-.002 4.605-.03 6.906.014.917-.001 1.9.236 2.56.914.602.697.719 1.738.433 2.596-.246.722-.88 1.2-1.487 1.6.833.282 1.66.788 2.007 1.644.443 1.171.205 2.628-.733 3.49-.824.828-2.012 1.12-3.141 1.139-2.18.03-4.36-.002-6.54.016C.125 17.065.135 13.26.128 9.456zm3.5 2.278c-.009.752-.009 1.505-.003 2.258.819-.026 1.68.116 2.466-.183.823-.325.754-1.796-.14-1.975-.762-.167-1.55-.088-2.323-.1zm-.003 4.226c-.006.87-.002 1.741 0 2.613.934-.044 1.906.14 2.812-.155.964-.338.996-2 .007-2.315-.919-.245-1.88-.118-2.82-.143zm63.058-6.506c1.183-.01 2.366-.001 3.55-.007.018 1.237-.044 2.48.062 3.713.04.644.43 1.298 1.076 1.472.725.202 1.488.101 2.227.064.01-1.749 0-3.499.004-5.247 1.175.004 2.349-.007 3.525.009-.002 3.8-.002 7.601 0 11.402-1.176-.007-2.352.002-3.525-.007.001-1.309-.002-2.616.001-3.922-1.645.31-3.416.756-5.042.121-1.138-.438-1.826-1.64-1.851-2.837-.052-1.588 0-3.175-.027-4.76zm13.139 0c1.175-.012 2.35-.003 3.526-.005.002 1.317.002 2.635.002 3.95 1.207 0 2.417-.005 3.626.006.018-1.317.012-2.635.003-3.95 1.174-.01 2.35-.004 3.525-.006.01 3.802.007 7.605.002 11.407-1.17.002-2.339-.001-3.507.004-.034-1.634-.002-3.268-.018-4.9-1.21.003-2.418.002-3.628.003-.008 1.63 0 3.263-.007 4.893-1.173.002-2.349-.001-3.523.002 0-3.8.002-7.601-.001-11.404zm13.4-.001a326.99 326.99 0 0 1 3.504.001c-.005 1.277.002 2.553-.005 3.831 1.865.079 4.05-.316 5.562 1.066 1.508 1.575 1.267 4.564-.623 5.744-.963.695-2.186.747-3.328.761-1.704.002-3.406-.001-5.11.002-.007-3.802-.007-7.605 0-11.405zm3.502 6.156c0 .978-.002 1.958 0 2.938.695-.013 1.41.068 2.087-.13 1.106-.358 1.197-2.221.105-2.652-.703-.254-1.463-.141-2.192-.156zm7.695-6.162c1.174.006 2.35-.003 3.525.01-.004 3.8-.005 7.6 0 11.401-1.176-.005-2.351.004-3.527-.003.004-3.803.002-7.605.002-11.408zm6.223.007c1.151-.007 2.304-.01 3.456-.003.009 2.057-.005 4.115.007 6.173 1.33-2.05 2.642-4.114 3.963-6.171 1.103-.006 2.206-.004 3.309-.006-.004 3.803.001 7.607-.002 11.41h-3.46c-.001-2.309.008-4.615 0-6.92-1.452 2.3-2.879 4.615-4.327 6.92-.983.001-1.963.001-2.944-.006-.003-3.799.002-7.598-.002-11.397zm-74.668 1.364c-.035-.745.647-1.39 1.381-1.323 4.61-.003 9.218-.014 13.828.006.708-.032 1.337.606 1.296 1.32.011 2.922.02 5.843-.005 8.764 0 1.044-.968 1.949-2 1.877-.979-.012-1.846-.888-1.842-1.879-.037-2.059 0-4.12-.014-6.181-.821-.002-1.642-.002-2.461.001-.01 2.063.016 4.128-.013 6.19.004 1.067-1.014 1.98-2.064 1.87-.945-.052-1.76-.909-1.767-1.865-.043-2.065 0-4.13-.016-6.195-.816-.005-1.631-.007-2.447-.009-.02 2.065.021 4.132-.018 6.197-.003 1.087-1.062 2.007-2.13 1.859-.997-.079-1.795-1.039-1.73-2.04-.003-2.864-.01-5.728.002-8.592z" fill="#0C3D85"/></g></svg>