<svg width="82" height="36" viewBox="0 0 82 36" xmlns="http://www.w3.org/2000/svg"><title>leto_bank</title><g fill="#FFF" fill-rule="evenodd"><path d="M67.245 28.676h1.646c.006.803-.012 1.606.009 2.41.64-.793 1.233-1.62 1.875-2.41.648.002 1.297-.007 1.946.006-.817.98-1.6 1.987-2.427 2.957.88 1.195 1.733 2.409 2.61 3.607-.68.004-1.358 0-2.037.002-.67-.937-1.3-1.903-1.97-2.84-.017.947 0 1.895-.008 2.843-.548-.008-1.096 0-1.644-.005.004-2.19.005-4.379 0-6.57zm-19.22.002c.553-.004 1.105-.002 1.66-.002-.002.836-.007 1.672-.005 2.507.695.004 1.389.001 2.084.002l-.001-2.51c.545.002 1.09 0 1.636.001-.006 2.191-.003 4.38-.002 6.571l-1.633.001c.002-.913-.004-1.825.003-2.738-.695-.007-1.39-.003-2.086.001 0 .911.004 1.822.012 2.733-.556.005-1.113.004-1.668.001.004-2.188.006-4.377 0-6.567zm-17.311 3.893c.46-.002.921.003 1.382-.005-.24-.667-.443-1.347-.675-2.017-.245.67-.473 1.347-.707 2.022zm-.14-3.897c.596.004 1.193 0 1.79.002.77 2.188 1.505 4.388 2.294 6.57-.563.002-1.127.003-1.69 0-.135-.455-.297-.901-.44-1.354-.755.004-1.51-.002-2.265.004-.158.45-.312.901-.468 1.352-.537 0-1.074 0-1.61-.002.807-2.186 1.578-4.387 2.389-6.572zM11.68 32.54c.003.455.005.91 0 1.366.38-.002.762.016 1.142-.007.254-.03.567-.104.654-.381.091-.332.064-.816-.333-.928-.48-.096-.976-.038-1.463-.05zm-1.622-3.866l4.488.001c-.003.442 0 .884-.003 1.327-.953.001-1.908-.003-2.863.002.004.398.004.796 0 1.194.822.052 1.696-.143 2.47.22.639.286 1.07.964 1.071 1.662.04.554-.08 1.162-.512 1.545-.538.52-1.333.583-2.04.622-.872 0-1.744.002-2.617-.003.028-2.19.003-4.38.006-6.57zM5.508 1.932C7.928.322 10.973-.302 13.832.189c3.159.498 6.04 2.4 7.808 5.058 1.548-2.34 3.963-4.1 6.68-4.816a11.687 11.687 0 0 1 5.91-.05c2.56.63 4.872 2.183 6.458 4.286.14.186.261.39.425.558 1.792-2.672 4.707-4.583 7.9-5.051 3.081-.51 6.359.3 8.843 2.199 1.074.778 1.952 1.785 2.723 2.858C62.362 2.57 65.254.656 68.432.18c2.924-.492 6.035.193 8.473 1.89a11.772 11.772 0 0 1 4.43 5.762c-1.947.492-3.899 1.153-5.537 2.346-1.04.715-1.938 1.648-2.559 2.751-.373.69-.947 1.287-1.663 1.618-1.124.542-2.569.276-3.435-.62-.229-.239-.51-.484-.863-.47-.689-.088-1.293.65-1.118 1.309.095.394.41.671.703.928 1.191 1.078 2.91 1.557 4.48 1.205 1.732-.348 3.13-1.68 3.884-3.236.723-1.28 1.963-2.18 3.264-2.811 1.054-.534 2.195-.854 3.326-1.178.314 2.05.186 4.193-.557 6.142-1.25 3.41-4.178 6.146-7.67 7.144-1.478.452-3.041.516-4.574.397a11.64 11.64 0 0 1-7.823-4.31c-.229-.26-.399-.57-.65-.809-2.035 3.08-5.608 5.114-9.312 5.165a11.326 11.326 0 0 1-4.339-.66c-2.355-.834-4.409-2.466-5.792-4.545-2.035 3.122-5.655 5.167-9.39 5.207-3.964.188-7.914-1.886-10.072-5.207-1.5 2.268-3.81 3.99-6.422 4.753-1.533.467-3.157.545-4.745.39a11.626 11.626 0 0 1-7.263-3.798C.573 16.664-.438 12.402.628 8.646a11.68 11.68 0 0 1 4.88-6.714zm3.185 5.493c-.437 2.04-.88 4.077-1.328 6.114-.092.529-.281 1.084-.714 1.43-.414.308-.953.31-1.441.396.028.418-.095.88.124 1.263.167.255.45.452.763.451.907.066 1.886-.25 2.45-.995.658-.87.922-1.958 1.118-3.013.3-1.443.616-2.885.914-4.33.845.002 1.69 0 2.534 0-.003 2.408-.002 4.815 0 7.222-.038.446.376.85.814.839.415.006.83-.003 1.244-.001-.024-3.086.049-6.173.008-9.26.01-.59-.59-1.034-1.148-1.014-1.416.003-2.833-.001-4.25.002-.511.004-.998.387-1.088.896zm21.385-.778c-1.616.28-3.043 1.46-3.596 3.009-.356.923-.356 1.922-.294 2.896-2.63.894-5.28 1.76-8.013 2.274a1.35 1.35 0 0 0-.927.693c-.193.397-.192.853-.33 1.27 3.406-.142 6.639-1.345 9.854-2.37.683 1.332 1.962 2.333 3.406 2.716 1.79.51 3.68.365 5.504.151 3.505-.498 6.904-1.564 10.197-2.838.568-.196 1.145-.553 1.351-1.146.127-.549.24-1.1.34-1.654-1.424.76-2.932 1.35-4.449 1.896a39.975 39.975 0 0 1-6.198 1.698c-1.78.31-3.612.51-5.413.243-1.107-.19-2.29-.687-2.803-1.759 2.02-.742 4.046-1.474 6.058-2.24.631-.24.98-.977.827-1.625-.255-1.037-.862-2.01-1.76-2.603-1.086-.736-2.49-.897-3.754-.611zm38.85.005c-1.506.383-2.718 1.53-3.466 2.857-.842 1.76-2.454 3.045-4.217 3.807-1.606.615-3.268 1.115-4.985 1.286-.552.107-1.22.044-1.63.5-.428.464-.412 1.13-.561 1.706 1.353-.121 2.71-.256 4.04-.548 1.917-.45 3.838-1 5.573-1.953 1.554-.842 2.776-2.21 3.613-3.752.51-.972 1.473-1.763 2.59-1.865.936-.109 1.92.23 2.557.933.294.346.799.538 1.234.357.644-.2.952-1.085.527-1.625-1.228-1.528-3.387-2.225-5.275-1.703zm-22.07.495c-.011.4.003.802-.002 1.203.995-.001 1.99.003 2.984-.003.006 2.54-.002 5.08.004 7.62-.028.437.381.817.806.826.422.013.845-.005 1.27-.005-.001-2.811.003-5.624-.003-8.436.74-.008 1.481.003 2.221-.003a.596.596 0 0 0 .569-.34c.158-.484.217-.995.324-1.492-2.491-.012-4.983 0-7.473-.006-.364-.05-.707.274-.7.636z"/><path d="M28.925 9.216c.452-.527 1.141-.766 1.812-.849.74-.077 1.556.124 2.07.69.243.261.377.597.506.923-1.723.62-3.433 1.27-5.16 1.878-.045-.93.141-1.926.772-2.642z"/></g></svg>