<svg width="122" height="35" viewBox="0 0 122 35" xmlns="http://www.w3.org/2000/svg"><title>mdm</title><g fill="#FFF" fill-rule="evenodd"><path d="M53.261 23.278l-.811-7.316c-.081-.714-.11-1.555-.11-1.555h-.034s-.16.825-.383 1.555l-2.182 7.316h-1.434l-2.198-7.316a17.417 17.417 0 0 1-.382-1.555h-.033s-.033.84-.112 1.555l-.812 7.316h-2.088l1.435-11.488h2.549l2.007 6.711c.191.666.335 1.474.335 1.474h.032s.143-.808.335-1.474l1.992-6.711h2.549l1.433 11.488h-2.088zM79.22 23.278l-.812-7.316c-.08-.714-.112-1.555-.112-1.555h-.031s-.16.825-.382 1.555L75.7 23.278h-1.433l-2.2-7.316c-.223-.73-.38-1.555-.38-1.555h-.033s-.031.84-.111 1.555l-.813 7.316h-2.088l1.434-11.488h2.55l2.006 6.711c.192.666.336 1.474.336 1.474h.03s.144-.808.335-1.474l1.992-6.711h2.548l1.434 11.488H79.22zM90.531 23.466c-1.305 0-2.644-.267-3.457-.617v-11.06h6.66v1.873h-4.508v2.792c.301-.079.842-.143 1.369-.143 2.852 0 4.364 1.428 4.364 3.601 0 2.128-1.434 3.554-4.428 3.554zm-.16-5.49a5.56 5.56 0 0 0-1.145.128v3.474c.285.096.78.19 1.272.19 1.452 0 2.232-.698 2.232-1.903 0-1.173-.812-1.89-2.359-1.89zM100.055 23.466c-2.582 0-3.871-1.014-3.871-2.761 0-2.33 2.437-2.792 5.033-2.936v-.442c0-.89-.619-1.223-1.61-1.223-.811 0-1.8.254-2.403.508l-.543-1.46c.717-.3 1.943-.617 3.188-.617 2.198 0 3.426.857 3.426 3.047v5.267c-.64.334-1.932.617-3.22.617zm1.162-4.315c-1.594.078-2.994.223-2.994 1.51 0 .808.637 1.267 1.767 1.267.462 0 1.004-.08 1.227-.175v-2.602zM110.12 23.278v-3.603h-2.756v3.603h-2.167v-8.554h2.167v3.507h2.756v-3.507h2.166v8.554h-2.166zM119.5 23.278l-3.09-4.317h-.033v4.317h-2.15v-8.554h2.15v3.745h.033l2.835-3.745h2.498l-3.088 3.998 3.299 4.556H119.5zM66.107 21.532v-9.314c-.752-.35-1.994-.617-3.203-.617-2.774 0-3.844 1.426-4.102 3.553L58 21.532h-1.535l.504 4.042h1.636V23.29h6.623v2.283h1.634l.504-4.042h-1.258zm-2.152 0h-3.903l.777-6.33c.16-1.206.699-1.903 2-1.903.44 0 .87.094 1.126.19v8.043zM18.625 5.566h-2.403v2.393h2.403V5.566zM18.264.299h-1.682v1.676h1.682V.3zm-1.988 4.554L15.9 2.732l-2.13.374.375 2.122 2.13-.375zm2.294 25.36l.375 2.122 2.13-.374-.375-2.121-2.13.373zm-2.348-.712h2.403v-2.393h-2.403V29.5zm.36 5.266h1.682V33.09h-1.682v1.676zm-1.318-26.64l-.822-2.248-2.257.817.82 2.25 2.26-.82zm-2.394-5.5l-.575-1.574-1.58.572.575 1.575 1.58-.573zm-.879 3.381L10.91 4.143 9.036 5.22l1.082 1.865 1.873-1.077zm10.864 23.05l1.082 1.866 1.873-1.077-1.081-1.867-1.874 1.078zm-2.451.131l2.257-.82-.821-2.248-2.259.819.823 2.25zm1.572 3.25l.575 1.576 1.58-.573-.575-1.575-1.58.573zM12.164 9.43L10.62 7.597 8.779 9.135l1.545 1.833 1.84-1.538zM8.026 5.078l-1.08-1.284-1.29 1.077 1.082 1.283 1.288-1.076zm.335 3.477L6.704 7.169l-1.39 1.65 1.656 1.385 1.39-1.65zm18.124 17.959l1.657 1.385 1.39-1.65-1.656-1.386-1.39 1.65zm-3.803-.876l1.545 1.833 1.84-1.54-1.544-1.831-1.841 1.538zm4.138 4.353l1.081 1.284 1.289-1.078-1.082-1.282-1.288 1.076zM9.7 11.71l-2.081-1.197-1.202 2.073 2.08 1.197L9.7 11.71zM4.315 9.029L2.859 8.19l-.841 1.451 1.456.837.84-1.45zm-1.263 4.44l2.032.737.74-2.024-2.033-.736-.739 2.024zm28.743 8.128l-2.033-.737-.74 2.025 2.033.736.74-2.024zm-4.566 2.956l1.2-2.073-2.08-1.196-1.202 2.072 2.082 1.197zm3.302 1.485l1.456.837.842-1.45-1.457-.84-.841 1.453zm-25.15-9.404l2.367.416.417-2.358-2.367-.416-.417 2.358zm-3.196-2.627l-1.657-.292-.291 1.65 1.656.292.292-1.65zm.338 4.604h2.163v-2.155H2.522v2.155zm29.8-2.155H30.16v2.154h2.163v-2.154zm-2.858 1.977l-2.366-.415-.418 2.356 2.367.416.417-2.357zm3.488.976l-.292 1.651 1.656.29.293-1.65-1.657-.29zM7.748 18.017l-2.367.416.417 2.357 2.367-.416-.417-2.357zm-5.855 1.394l-1.656.29.292 1.65 1.656-.29-.292-1.65zm3.93 3.474l-.739-2.025-2.032.737.74 2.024 2.032-.736zm25.972-9.415l-.74-2.024-2.033.736.74 2.024 2.033-.736zM27.1 17.05l2.366-.416-.416-2.358-2.367.416.417 2.358zm5.854-1.393l1.656-.292-.292-1.65-1.656.29.292 1.652zM9.7 23.357l-1.202-2.073-2.081 1.196 1.202 2.073 2.081-1.197zm-7.682 2.068l.842 1.45 1.456-.837-.84-1.45-1.458.837zm3.296.822l1.391 1.65 1.657-1.384-1.39-1.65-1.658 1.384zM29.533 8.82l-1.39-1.65-1.658 1.385 1.39 1.65 1.657-1.385zm-4.385 2.89l1.2 2.074 2.081-1.197-1.2-2.073-2.081 1.197zm7.68-2.067l-.84-1.451-1.457.837.841 1.451 1.456-.837zM12.165 25.637l-1.841-1.539-1.545 1.833 1.841 1.539 1.545-1.833zm-6.509 4.559l1.29 1.078 1.08-1.284-1.288-1.076-1.082 1.282zm6.335-1.138l-1.873-1.078-1.082 1.867 1.874 1.077 1.081-1.866zm10.864-23.05l1.873 1.077L25.81 5.22l-1.873-1.077-1.082 1.865zm-.173 3.422l1.84 1.539 1.544-1.835-1.84-1.538-1.544 1.834zm6.507-4.56L27.9 3.792l-1.08 1.284 1.287 1.077 1.08-1.283zM14.442 29.188l.822-2.25-2.258-.817-.821 2.249 2.257.818zm-3.728 4.252l1.581.574.575-1.575-1.58-.572-.576 1.573zm3.058-1.48l2.13.375.374-2.122-2.13-.373-.374 2.12zm7.304-28.855l-2.13-.374-.376 2.122 2.13.374.376-2.122zm1.585 3.591l-2.257-.818-.821 2.248 2.257.82.821-2.25zm1.47-5.07l-1.58-.574-.576 1.573 1.58.574.576-1.574z"/></g></svg>