<svg xmlns="http://www.w3.org/2000/svg" width="33" height="26" viewBox="0 0 33 26">
  <g fill="none" fill-rule="evenodd" transform="translate(.019 8.574)">
    <path fill="#3BA336" d="M2.83180511 9.14043987L.0226810755 9.14043987.0226810755.0495676424 2.83180511.0495676424C4.08894013.0495676424 4.36584694.998277739 4.50880014 1.47172162L5.66787592 5.39777047C5.6893085 5.47430874 5.71344616 5.52470945 5.78138534 5.52835413 5.84932453 5.52470945 5.87346219 5.47430874 5.89489476 5.39777047L7.05397055 1.47172162C7.19692375.998277739 7.47383055.0495676424 8.73096558.0495676424L11.5400896.0495676424 11.5400896 9.14043987 8.73096558 9.14043987 8.73096558 3.79020644C8.68118166 3.64983421 8.48241012 3.67550316 8.45005318 3.79062297L6.76457876 9.14043987 4.79819193 9.14043987 3.11271751 3.79062297C3.08030854 3.67550316 2.88158903 3.64983421 2.83180511 3.79020644L2.83180511 9.14043987 2.83180511 9.14043987zM15.6351162.0495676424L12.8259921.0495676424 12.8259921 9.14043987 15.6351162 9.14043987C16.1178173 9.14043987 16.4021631 8.91072093 16.8751364 7.89010651L18.7516312 3.74428348C18.7839882 3.62921573 18.9874416 3.60349471 19.0372255 3.74386694L19.0372255 9.14043987 21.8463495 9.14043987 21.8463495.0495676424 19.0372255.0495676424C18.4052246.0828383604 18.096377.80760893 17.8682657 1.29990101L15.9160286 5.39938454C15.8836196 5.51445228 15.6849001 5.54017331 15.6351162 5.39980108L15.6351162.0495676424 15.6351162.0495676424zM23.2141328 4.19679648L32.0408687 4.19679648C31.7438299 5.07844447 30.7216208 6.22735161 29.1406042 6.22735161L26.0232569 6.22735161 26.0232569 9.14043987 23.2141328 9.14043987 23.2141328 4.19679648 23.2141328 4.19679648z"/>
    <path fill="#019AD7" d="M32.1675394,3.74386694 L27.5136012,3.74386694 C25.2627125,3.74386694 23.204457,2.49868819 22.8473341,0.0495676424 L29.1406042,0.0495676424 C31.0584036,0.0495676424 32.5373554,1.80557427 32.1675394,3.74386694 L32.1675394,3.74386694 Z"/>
  </g>
</svg>
