<svg width="140" height="31" viewBox="0 0 140 31" xmlns="http://www.w3.org/2000/svg"><title>mts-02</title><g fill="#FFF" fill-rule="evenodd"><path d="M27.339 0H2.646C.992 0 0 1.323 0 3.087V27.78c0 1.653.992 3.086 2.646 3.086h24.693c1.653 0 3.527-1.433 3.527-3.197V3.087C30.866 1.323 28.992 0 27.34 0zm-4.52 20.835c-.22.882-.662 1.763-1.213 2.535-.22.33-.55.772-.882 1.102-.661.772-1.433 1.323-2.315 1.654-1.543.661-3.417.772-5.07.551-1.874-.33-3.308-1.102-4.3-2.205-.33-.33-.55-.661-.882-1.102-.55-.772-.881-1.653-1.212-2.535-.11-.992-.33-2.095-.33-3.197 0-3.858 1.653-8.047 3.747-10.803C11.465 5.402 12.677 4.409 14 4.079c.33-.11.661-.11.992-.11.992 0 1.984.44 2.866 1.102.662.551 1.213 1.212 1.764 1.764 2.095 2.756 3.748 6.945 3.748 10.803 0 1.102-.22 2.205-.551 3.197zM85.213 19.181s-1.874.22-3.969.22c-2.535 0-3.087-.881-3.087-2.866V14.11c0-2.094.441-2.866 3.087-2.866 1.874 0 3.748.22 3.748.22l.22-3.747s-2.314-.331-4.409-.331c-5.401 0-7.275 1.764-7.275 6.063v3.748c0 4.74 2.425 6.063 7.275 6.063 1.984 0 4.63-.33 4.63-.33l-.22-3.749zM58.315 11.575h4.41V23.15h4.63V11.575h4.519l.22-3.858h-14l.221 3.858zM48.835 21.496l2.535-5.842h.22l.552 7.496h4.41l-.993-15.433h-4.3l-3.747 8.708h-.22l-3.859-8.708h-4.3l-.991 15.433h4.299l.44-7.496h.332l2.756 5.842h2.866zM111.008 11.575a11.1 11.1 0 0 0-3.417.551l.33 1.543c.882-.22 1.985-.44 3.087-.44 1.874 0 2.315.66 2.315 2.094v1.212s-1.103-.22-2.977-.22c-2.315 0-3.527 1.323-3.527 3.638 0 1.984.882 3.417 2.976 3.417 1.323 0 2.646-.551 3.638-1.213l.11.993h1.654v-7.717c-.11-2.315-.992-3.858-4.19-3.858zm2.205 9.04c-.882.55-1.874 1.102-2.867 1.102-1.433 0-1.653-.662-1.653-1.764 0-1.323.44-1.984 1.764-1.984 1.653 0 2.756.22 2.756.22v2.425zM134.709 17.307l4.189-5.512h-2.095l-4.189 5.622 4.41 5.622h2.315l-4.63-5.732zm-4.41 5.732h1.984V11.795H130.3V23.04zM99.874 13.67h-3.528v-4.3h7.056V7.717h-9.04V23.15h5.512c3.307 0 4.52-1.544 4.52-3.859v-1.763c0-2.426-1.213-3.859-4.52-3.859zm2.535 5.511c0 1.543-.771 2.205-2.645 2.205h-3.418v-6.063h3.418c1.874 0 2.645.661 2.645 2.094v1.764zM125.118 16.425h-4.85v-4.63h-1.985V23.04h1.985v-5.07h4.85v5.07h1.984V11.795h-1.984v4.63z"/></g></svg>