<svg width="150" height="35" viewBox="0 0 150 35" xmlns="http://www.w3.org/2000/svg"><title>Artboard 1 Copy 3</title><g fill="none" fill-rule="evenodd"><path d="M24.98 11.166a6.044 6.044 0 0 0-6.044-6.044h-8.54a6.045 6.045 0 0 0-5.818 4.423H14.9c3.97 0 5.656 1.847 5.656 6.182v9.796c2.562-.713 4.424-3.071 4.424-5.816v-8.541" fill="#1A4188"/><path d="M.137 23.903a6.043 6.043 0 0 0 6.045 6.044h8.54a6.042 6.042 0 0 0 5.818-4.424H10.218c-3.971 0-5.657-1.846-5.657-6.182V9.545c-2.56.714-4.424 3.073-4.424 5.818v8.54" fill="#E15D29"/><path d="M17.433 14.668v-.026c.479-.151 1.117-.55 1.117-1.598 0-1.18-.958-1.72-2.307-1.72h-2.288v2.821h-1.348c-1.81 0-2.183 1.27-2.183 1.961 0 .984.568 1.42 1.616 1.942.638.319 1.4.515 1.4 1.243 0 .383-.354.845-1.117.845h-1.42c.214-.366.302-.765.302-1.111 0-.452-.16-2.263-2.68-2.263H6.467v6.982h1.401v-3.042l.568.568h3.834c1.79 0 2.643-.922 2.643-2.022 0-.39-.071-.704-.195-.959h1.437c2.218 0 2.734-1.1 2.734-1.962 0-.877-.569-1.526-1.456-1.659zm-8.908 5.468h-.657v-2.283h.657c.817 0 1.189.496 1.189 1.1 0 .56-.337 1.183-1.189 1.183zm5.43-4.331v1.693c-.338-.203-.727-.363-1.135-.54-.444-.196-.923-.444-.923-1.004 0-.285.178-.708 1.03-.708h1.577l-.55.559zm1.401-3.39h.64c1.082 0 1.136.665 1.136.869 0 .301-.16.861-1.084.861h-.692v-1.73zm.799 4.774h-.799v-1.943h.799c.977 0 1.243.47 1.243.967s-.356.976-1.243.976zM132.062 23.693v-8.979h2.583v3.327h2.846v-3.327h2.582v8.979h-2.582v-4.008h-2.846v4.008h-2.583M123.204 21.128c0-1.229.649-2.142 1.878-2.616a6.637 6.637 0 0 1 1.491-.411c.44-.071 1.013-.147 1.707-.24v-.302c.052-1.303-.702-1.525-1.605-1.543-.857 0-1.723.284-2.477.684l-.17-1.62a9.287 9.287 0 0 1 3.232-.573c.695 0 1.296.076 1.786.232.992.306 1.524 1.064 1.635 1.98.027.198.037.507.037.909v5.61c-2.271.86-7.514 1.445-7.514-2.11zm5.093 1.15v-3.19c-1.089.15-2.71.332-2.71 1.895 0 1.928 2.059 1.547 2.71 1.296zM122.463 17.182c-.162-.71-.574-1.328-1.133-1.85-.898-.858-4.016-1.543-5.524.709-.003-2.374.992-3.556 3.01-3.88 2.02-.325 3.146-.528 3.146-.528l-.208-1.933s-2.058.293-3.772.685c-1.83.422-3.602 1.76-4.045 4.47-.282 1.738-.247 4.786.271 6.19.602 1.632 1.82 2.863 4.047 2.863 3.06 0 4.46-1.88 4.46-4.803 0-.575-.087-1.21-.252-1.923zm-3.138 4.789c-.248.342-.599.512-1.053.512-1.476 0-1.846-2.436-1.846-3.551 0-.902.19-1.86.711-2.486.267-.318.627-.483 1.083-.483.584 0 1.105.363 1.39 1.11.3.746.383 1.543.383 2.264 0 .935-.15 1.937-.668 2.634zM141.559 23.693v-8.979h2.566v4.116l2.898-4.116h2.513l-2.933 4.005 3.215 4.974h-2.863l-2.83-4.478v4.478h-2.566M100.556 23.89c-.817 0-1.68-.066-2.46-.369l.213-1.57c.617.369 1.184.532 1.895.532 1.286.017 2.008-.6 1.964-1.423 0-.421-.128-.739-.395-.943a1.55 1.55 0 0 0-.899-.361 8.81 8.81 0 0 0-.876-.053h-.636v-1.354h.173c.961 0 2.461-.033 2.461-1.262.028-.959-.976-1.19-1.492-1.174-.814 0-1.467.19-2.178.575l-.154-1.51c.914-.351 1.902-.49 2.89-.49 2.084-.04 3.381.886 3.327 2.3.027 1.166-.951 1.836-1.655 2.058.463.078.848.215 1.159.42.617.404.866 1.099.866 1.723 0 1.159-.63 1.966-1.527 2.386-.893.412-1.888.514-2.676.514M77.392 23.89c-2.951 0-4.613-1.82-4.613-4.743 0-2.917 1.765-4.659 4.673-4.659.78 0 1.373.104 2.119.353l-.31 1.63c-.471-.233-.883-.385-1.406-.385-1.742 0-2.478 1.44-2.478 3.002 0 1.567.719 3.164 2.495 3.164.523 0 .978-.12 1.458-.352l.172 1.655a6.501 6.501 0 0 1-2.11.334M108.41 22.257s2.333.467 2.333-1.746c0-.404-.069-.711-.205-.928-.275-.446-.866-.53-1.493-.53h-.37c-.024 0-.11.008-.265.018v3.186zm-2.546 1.436v-8.979h2.546v2.827a30.11 30.11 0 0 1 1.038-.032c1.192 0 2.06.206 2.6.616.65.484 1.074 1.338 1.052 2.266-.065 2.948-3.058 3.498-4.65 3.498-1.688 0-2.586-.196-2.586-.196zM86.612 18.917c1.07-.337 1.61-1.022 1.61-2.061 0-.447-.107-.814-.297-1.108a1.914 1.914 0 0 0-.972-.794c-.834-.38-1.952-.466-2.947-.466-1.886 0-3.107.226-3.107.226v8.979s1.28.196 3.107.196c1.803 0 4.55-.46 4.62-2.74l.002-.09c.042-.997-.574-1.946-2.016-2.142zm-2.547.924c.232 0 .498.009.814.027.318.016.582.12.814.309.231.18.353.478.353.898 0 .98-.86 1.353-1.999 1.353-.297 0-.633-.039-.633-.039v-2.548h.651zm-.65-1.397V15.98s.252-.027.909-.027c1.22 0 1.474.717 1.474 1.17 0 .892-.55 1.321-1.785 1.321h-.599zM93.673 14.488c-1.887 0-4.257.312-4.257 2.738 0 1.27.627 2.075 1.88 2.41l-2.393 4.057h2.66l1.929-3.586h.753v3.586h2.533v-8.979s-1.22-.226-3.105-.226zm.572 4.11h-.633c-1.233 0-1.75-.409-1.75-1.41 0-1.046.797-1.291 1.446-1.291.626 0 .937.061.937.061v2.64zM31.245 23.693V11.29h9.468v12.402h-2.754V13.032h-3.953v10.66h-2.761M42.226 27.33V14.943c2.251-.455 8.362-1.737 8.362 3.74 0 1.45-.393 2.71-1.14 3.569-1.452 1.746-3.837 1.557-4.623 1.24v3.838h-2.6zm5.816-8.43c0-3.384-2.367-3.093-3.217-2.882v5.878c.342.06 3.217 1.162 3.217-2.997zM55.745 23.89c-2.95 0-4.246-1.888-4.246-4.691 0-2.918 1.544-4.71 4.53-4.71 1.055 0 1.912.24 2.563.72.644.47 1.073 1.072 1.28 1.802.205.72.308 1.425.308 2.12 0 3.035-1.279 4.758-4.435 4.758zm.199-1.424c.755 0 1.26-.6 1.464-1.398.206-.815.225-1.383.225-1.997 0-.86-.095-1.503-.345-2.164-.248-.677-.804-1.01-1.344-1.01-.748 0-1.27.54-1.511 1.27-.25.719-.284 1.43-.284 1.904 0 1.122.25 3.395 1.795 3.395zM60.73 23.693l.935-8.979h2.986l1.844 6.113 1.86-6.113h2.967l.859 8.979h-2.384l-.498-6.467-1.965 6.467h-2.056l-1.983-6.5-.488 6.5H60.73" fill="#1A4188"/></g></svg>