<svg width="150" height="35" viewBox="0 0 150 35" xmlns="http://www.w3.org/2000/svg"><title>rsb</title><g fill="none" fill-rule="evenodd"><path d="M41.779 18.873c.401 0 .972.013 1.43-.415.314-.286.486-.77.486-1.187 0-.385-.158-.84-.472-1.114-.315-.27-.813-.399-1.373-.399h-1.743v3.114h1.672v.001zm-.07-4.543c.843 0 1.786.03 2.6.585.544.357 1.187 1.072 1.187 2.345 0 1.397-.887 3.039-3.329 3.039h-2.06v3.828H38.31V14.33h3.4zM48.367 22.542c.157.186.515.525 1.141.525.63 0 .987-.34 1.142-.525.117-.128.545-.7.545-2.059 0-1.355-.428-1.925-.545-2.053a1.438 1.438 0 0 0-1.142-.529c-.625 0-.985.34-1.14.529-.117.127-.546.698-.546 2.053 0 1.36.428 1.931.545 2.06m-1.214-4.958c.498-.469 1.243-.887 2.355-.887 1.113 0 1.86.418 2.358.887.743.703 1.128 1.784 1.128 2.898s-.385 2.2-1.128 2.9c-.498.472-1.244.885-2.358.885-1.11 0-1.857-.413-2.355-.884-.745-.702-1.13-1.787-1.13-2.9 0-1.115.385-2.197 1.13-2.899M58.688 19.515c-.03-.37-.172-.8-.359-1.071-.172-.257-.514-.541-1.085-.541-.559 0-.93.284-1.158.667-.357.588-.384 1.501-.384 1.915 0 .672.1 1.474.384 1.929.187.285.558.656 1.158.656.428 0 .785-.17 1.055-.544a2.3 2.3 0 0 0 .387-1.097l1.514.185c-.088.67-.386 1.412-.914 1.898-.444.401-1.13.757-2.101.757-1.084 0-1.785-.428-2.197-.816-.559-.524-1.086-1.468-1.086-2.953 0-1.387.469-2.214.841-2.657a3.294 3.294 0 0 1 2.484-1.143c.9 0 1.645.316 2.114.8.472.474.757 1.188.857 1.83l-1.51.185zM65.776 19.515c-.028-.37-.17-.8-.357-1.071-.171-.257-.514-.541-1.088-.541-.556 0-.925.284-1.155.667-.355.588-.384 1.501-.384 1.915 0 .672.099 1.474.384 1.929.184.285.556.656 1.155.656.43 0 .787-.17 1.058-.544.216-.3.358-.727.386-1.097l1.513.185c-.085.67-.384 1.412-.913 1.898-.444.401-1.128.757-2.1.757-1.085 0-1.783-.428-2.2-.816-.555-.524-1.086-1.468-1.086-2.953 0-1.387.47-2.214.845-2.657a3.284 3.284 0 0 1 2.484-1.143c.9 0 1.643.316 2.113.8.473.474.755 1.188.857 1.83l-1.512.185zM73.24 19.713c0-.413-.097-.884-.314-1.2a1.563 1.563 0 0 0-1.284-.67c-.542 0-1.015.27-1.3.614-.23.285-.428.728-.428 1.256h3.326zm1.688 2.302a3.07 3.07 0 0 1-1.199 1.655c-.573.385-1.316.601-2.1.601-.986 0-1.987-.414-2.587-1.03-.557-.57-.971-1.557-.971-2.727 0-1.486.615-2.47 1.286-3.028.387-.329 1.114-.786 2.213-.786 1.386 0 2.271.643 2.742 1.3.501.686.73 1.643.73 2.473v.326h-5.17c0 .085-.016.745.24 1.272.388.8 1.087.996 1.575.996.385 0 .87-.112 1.27-.525.24-.259.343-.503.384-.728l1.587.201zM82.096 16.844v7.283h-1.658v-6.055h-1.885c-.041.986-.07 1.384-.1 2.054-.044.758-.101 2.358-.744 3.23-.357.47-.8.657-1.113.744a1.949 1.949 0 0 1-.586.085 1.53 1.53 0 0 1-.427-.057V22.87h.14c.217-.015.503-.126.689-.271.57-.458.627-1.485.684-2.3a45 45 0 0 0 .1-2.684l.015-.77h4.885v-.002zM85.501 22.926h1.3c.316 0 .656-.014.941-.255.172-.159.371-.43.371-.888 0-.4-.113-.712-.44-.928-.288-.185-.645-.215-.871-.215H85.5v2.286zm0-3.483h1.826c.471 0 1.386.057 1.988.657.541.529.597 1.27.597 1.671 0 1.042-.426 1.572-.755 1.841-.115.087-.655.515-1.687.515h-3.624v-7.285h1.656v2.6h-.001zM92.321 16.844l1.34 2.268 1.402-2.268h1.512l-2.128 3.3 2.53 3.984H95.03l-1.653-2.742-1.742 2.742h-1.514l2.485-3.786-2.23-3.498h1.944zM99.468 22.542c.158.186.514.525 1.144.525.629 0 .987-.34 1.142-.525.114-.128.545-.7.545-2.059 0-1.355-.43-1.925-.545-2.053a1.44 1.44 0 0 0-1.142-.529c-.63 0-.987.34-1.144.529-.112.127-.541.698-.541 2.053 0 1.36.43 1.931.541 2.06m-1.21-4.958c.498-.469 1.24-.887 2.355-.887 1.112 0 1.857.418 2.356.887.741.703 1.129 1.784 1.129 2.898s-.388 2.2-1.129 2.9c-.499.472-1.243.885-2.356.885-1.114 0-1.858-.413-2.356-.884-.745-.702-1.13-1.787-1.13-2.9 0-1.115.385-2.197 1.13-2.899M104.98 18.814a2.55 2.55 0 0 1 1.171-1.614c.242-.155.913-.5 2.057-.5.714 0 1.442.13 1.986.43.8.442.997 1.085.997 1.543 0 .499-.243 1.454-1.484 1.598v.028c.427.057.9.244 1.185.542.258.273.458.73.458 1.212 0 .73-.428 1.374-.971 1.73-.656.429-1.559.486-2.227.486-.673 0-1.701-.073-2.414-.642a2.506 2.506 0 0 1-.887-1.542l1.5-.258c.058.225.186.57.358.77.37.428.957.47 1.328.47.371 0 .773-.042 1.087-.256a.949.949 0 0 0 .428-.828c0-.302-.06-.543-.314-.758-.328-.27-.771-.313-1.185-.313h-.757v-1.114h.757c.282 0 .696-.057.925-.17.3-.16.474-.414.474-.83a.746.746 0 0 0-.302-.612c-.33-.273-.8-.287-1.043-.287-.329 0-.813.043-1.213.385a1.38 1.38 0 0 0-.472.844l-1.441-.314zM115.097 22.414h1.843c.342 0 .657-.016.986-.343.315-.316.358-.67.358-.943 0-.315-.087-.628-.358-.9-.328-.327-.74-.359-1.043-.359h-1.786v2.545zm4.729-6.37h-4.729v2.17h2.101c.755 0 1.485.058 2.227.572.728.5 1.187 1.242 1.187 2.312 0 .998-.373 1.742-.844 2.214-.711.713-1.528.813-2.386.813h-4.57V14.33h7.014v1.715zM125.83 20.686c-.716.057-1.429.126-1.83.627a1.024 1.024 0 0 0-.228.655c0 .315.158.529.313.644.203.158.502.227.788.227.429 0 .928-.185 1.214-.526.042-.045.385-.473.385-1.3v-.384l-.642.057zm-4.043-1.814a2.656 2.656 0 0 1 1.256-1.715c.568-.328 1.328-.456 2.268-.456 1.203 0 2.417.157 2.959 1.283.283.586.258 1.215.258 1.76v2.811c0 .586.083 1.13.213 1.573h-2.07a7.217 7.217 0 0 1-.115-1.157c-.273.485-.927 1.3-2.44 1.3-.673 0-1.359-.172-1.829-.559-.46-.37-.743-.97-.743-1.628 0-.728.315-1.6 1.556-2.115.8-.326 2.1-.443 2.685-.47l.686-.028v-.157c0-.2-.015-.629-.215-.855-.268-.316-.812-.33-1.031-.33-.295 0-.653.029-.953.216-.188.115-.43.341-.514.744l-1.971-.217zM132.31 16.844v2.728h2.297v-2.728h2.13v7.284h-2.13V21.07h-2.297v3.057h-2.13v-7.284h2.13zM140.519 16.844v2.798h.569c.611 0 .87-.301 1.029-.631.299-.64.285-1.141.556-1.64.215-.4.5-.5.688-.527h1.753a3.63 3.63 0 0 0-.556.784c-.228.47-.442 1.242-.57 1.573-.171.456-.46.916-1.186.97v.026c.386.06.784.26 1.087.704.183.27.314.629.513 1.183.202.572.285.772.468 1.214.145.33.229.529.472.83h-1.999c-.315-.103-.527-.315-.783-1.058-.2-.569-.228-.77-.359-1.084l-.101-.258c-.214-.543-.5-.657-.943-.657h-.64v3.057h-2.13v-7.282h2.132v-.002z" fill="#FFF"/><path d="M14.164 19.494l3.274-3.215v-2.182l-3.274 3.197v2.2zM14.164 11.35l3.274-3.215V6.076l-3.274 3.2v2.075zM14.164 14.046l3.274-3.217V8.771l-3.274 3.198v2.077zM13.23 6.1l-.436-.422V.583H12.3v4.613l-.431-.427V.583h-.494V4.29l-.435-.425V.583h-.492v4.86l3.274 3.214V.583h-.492v5.518zM14.164 16.74l3.274-3.216v-2.058l-3.274 3.198v2.077zM10.447 16.279l3.274 3.215v-2.2l-3.274-3.197v2.182zM16.947 3.865l-.433.424V.583h-.496v4.188l-.434.425V.583h-.491v5.093l-.435.425V.583h-.494v8.074l3.274-3.215V.583h-.491v3.282zM10.447 8.135l3.274 3.217V9.276l-3.274-3.2v2.06zM10.447 10.829l3.274 3.216V11.97l-3.274-3.2v2.06zM10.447 13.524l3.274 3.217v-2.077l-3.274-3.2v2.06zM21.42 17.221a.886.886 0 1 1-1.623-.486l.247-.416a.731.731 0 0 1 0-1.101l-.247-.418a.864.864 0 0 1-.146-.484c0-.486.398-.885.883-.885.49 0 .887.399.887.885 0 .36-.417 1.22-.417 1.22v.465s.417.858.417 1.22m8.527-2H21.989a1.68 1.68 0 0 0 .265-.905c0-.947-.77-1.716-1.719-1.716a1.715 1.715 0 0 0-1.394 2.709.546.546 0 0 0 0 .916 1.715 1.715 0 1 0 3.113.996c0-.334-.098-.643-.265-.906H27.91v.359h-.586v.506h.586v.523h-.586v.963h.586v-.436h.866v.436h.584v-.963h-.584v-.523h.584v-.506h-.584v-.36h1.172a.418.418 0 0 0 .413-.42v-.252a.42.42 0 0 0-.413-.42" fill="#FFCB04"/><path d="M7.47 14.178v2.138c0 2.044.892 3.355 1.403 3.866.3.294 3.344 3.287 3.385 3.331.947.924 1.114 1.233 1.325 1.76v-2.37c0-2.112-1.069-2.928-1.62-3.464-1.281-1.253-2.141-2.076-2.835-2.765-1.308-1.313-1.657-2.495-1.657-2.495M11.965 24.73c-1.285-1.254-2.141-2.077-2.834-2.766-1.311-1.313-1.66-2.203-1.66-2.203v1.841c0 2.045.927 3.35 1.4 3.883.3.291 3.352 3.278 3.388 3.318.948.924 1.113 1.365 1.324 1.889v-2.5c0-2.11-1.071-2.929-1.618-3.462" fill="#FFF"/><path d="M18.713 4.542c-.237 0-.47.006-.704.017V5.56c.233-.012.466-.018.704-.018 7.564 0 13.7 6.134 13.7 13.701 0 7.565-6.136 13.701-13.7 13.701-7.568 0-13.7-6.136-13.7-13.701 0-4.199 1.888-7.958 4.863-10.47v-1.28c-3.56 2.685-5.863 6.947-5.863 11.75 0 8.119 6.583 14.698 14.701 14.698s14.7-6.58 14.7-14.698c-.002-8.118-6.584-14.701-14.701-14.701" fill="#FFF"/><path d="M29.111 26.916c.229-.313.445-.632.648-.961v-1.973h-.648v2.934zM30.995 23.263c.093-.283.178-.569.25-.858h-2.134v.526h.323c.571-.017 1.204-.025 1.561.332M16.217 22.335h.574v5.86h-.574z" fill="#FFF"/><path d="M26.937 25.346l-.626-.598.626-3.236v3.834zm-12.052-4.144h1.911c.495 0 .838.102 1.04.296.203.188.294.534.294 1.03v5.474c0 .496-.091.841-.294 1.032-.305.303-.86.303-1.325.303-.1-.01-.204-.01-.292-.01v2.596c.192.039.383.073.577.1V29.89c.88 0 1.456-.299 1.727-.9v3.173l.19.002c.121 0 .244-.002.364-.005V22.63c0-.508.104-.861.291-1.062.192-.2.54-.301 1.025-.301.493 0 1.219-.072 1.592.301.195.2.284.555.284 1.062v2.807h-1.31v-2.999h-.567v9.62c.188-.024.377-.052.566-.086v-5.967h1.31v5.666c.27-.079.537-.164.801-.258v-5.185c0-.586.139-1.032.736-1.233l-.658-3.61h1.327l.221 3.942h.162l.221-3.942h1.393l-.745 3.61c.625.22.745.606.745 1.233v3.35c.39-.293.762-.606 1.113-.94v-7.282h3.88c.027-.175.053-.35.074-.527H22.46l.127.653c-.288-.525-.831-.791-1.63-.791h-.565c-.964 0-1.548.382-1.77 1.144-.208-.801-.816-1.197-1.827-1.197h-2.488v10.758c.19.07.383.134.577.194V21.202h.001z" fill="#FFF"/><path d="M24.473 30.812c.201-.1.4-.207.595-.317v-4.434h-.595v4.75z" fill="#FFF"/></g></svg>