<svg width="101" height="35" viewBox="0 0 101 35" xmlns="http://www.w3.org/2000/svg"><title>rsb</title><g fill="none" fill-rule="evenodd"><path d="M51.213 31.94c.047-.08.09-.266-.031-.567l-.2-.505h-1.89l-.202.504c-.12.3-.075.487-.024.566h-.834c.093-.104.191-.24.328-.566l1.412-3.559-.016-.03a1.074 1.074 0 0 0-.276-.44h1.023l1.594 4.03c.134.326.236.462.326.566h-1.21zm-1.172-3.457l-.754 1.891h1.497l-.743-1.89zM44.753 29.106c.172-.018.427-.042.605-.042.305 0 1.336 0 1.336 1.039 0 .449-.169 1.193-1.2 1.192-.33 0-.624-.045-.741-.073v-2.116zm-1.241-2.758c.327.252.327.568.327.788l-.002 3.953c0 .22 0 .538-.326.793h1.918c.426 0 2.082-.05 2.082-1.767 0-1.039-.672-1.632-1.826-1.632-.234 0-.697.04-.932.053v-1.557h1.494c.25 0 .527.018.746.28v-.935a1.172 1.172 0 0 1-.254.025l-3.227-.001zM56.54 28.99v-1.07c0-.248-.051-.477-.3-.669h1.42c-.253.192-.302.421-.302.67l-.001 3.294c-.001.249.05.477.301.67h-1.419c.249-.193.3-.421.3-.67v-1.556H54.46v1.555c0 .249.05.477.3.67h-1.419c.25-.193.304-.421.304-.67V27.92c0-.249-.052-.478-.302-.67h1.419c-.252.192-.3.421-.3.67l-.002 1.069h2.079M60.278 27.252c-.248.192-.3.421-.3.67v3.294c0 .249.05.477.299.67h-1.418c.252-.194.3-.421.3-.671l.002-3.294c0-.248-.048-.477-.3-.67h1.417zm.818.982c.298-.38.361-.551.361-.668 0-.133-.087-.227-.2-.314h1.402l-1.644 2.034c.157.143.228.238.329.38l1.145 1.523c.169.226.36.449.684.698l-.333.007c-.861.026-.884.048-1.178-.354l-1.51-2.101.944-1.205zM84.19 12.039c.08-.121.187-.34.187-.803l.001-3.636-2.917 3.464v.171c0 .463.122.682.205.804l-1.737-.001c.085-.122.197-.34.197-.804l.001-4.897c0-.469-.111-.69-.196-.805h1.737c-.083.115-.206.337-.206.806l-.001 3.608 2.918-3.465v-.143c0-.468-.108-.69-.188-.805l1.705.001c-.077.114-.188.336-.188.805l-.002 4.897c0 .463.11.682.189.803h-1.706M73.527 6.336c0-.469.123-.69.2-.805h-1.732c.075.113.198.336.198.805l-.002 4.897c0 .464-.122.681-.198.803l1.731.001c-.076-.122-.199-.34-.198-.804l.001-4.897zm4.61 5.702c-.173-.142-.467-.451-.76-.804l-2.364-2.868 2.126-2.03c.47-.45.629-.603.899-.805H76.27c.135.188.173.412-.222.806l-2.455 2.338 2.119 2.558c.356.433.356.611.219.804h2.206zM90.898 4.514c-1.121 0-1.587-.434-1.587-.83 0-.209.115-.46.279-.602h.592c-.099.152-.159.279-.159.475 0 .224.267.637.875.637s.87-.412.87-.636a.766.766 0 0 0-.152-.476h.587a.871.871 0 0 1 .274.602c0 .397-.458.83-1.579.83zm1.266 7.527c.08-.122.19-.34.19-.803l.001-3.636-2.919 3.464v.171c0 .463.123.682.192.804h-1.723c.08-.122.194-.34.194-.804l.002-4.898c0-.468-.114-.69-.195-.805h1.724c-.07.115-.193.337-.193.806v3.608l2.918-3.465v-.142c0-.47-.11-.691-.19-.806h1.711c-.076.115-.196.337-.197.806l-.001 4.897c0 .463.12.681.197.803h-1.71zM47.016 9.692h-1.06v1.396c0 .544.132.813.217.942l-1.905-.001c.085-.128.24-.398.24-.942V5.353c0-.54-.153-.807-.238-.933l2.747.001c1.958.001 3.154.982 3.153 2.555 0 1.866-1.518 2.717-3.154 2.716zm-.362-4.446h-.696l-.001 3.61h.827c.958 0 1.88-.372 1.88-1.892 0-1.386-1-1.718-2.01-1.718zM68.38 6.031c-1.464 0-2.105 1.384-2.106 2.74 0 1.991 1.17 2.763 2.105 2.763.92 0 1.509-.44 1.974-1.045l.233.53c-.576.77-1.456 1.14-2.4 1.14-2.194 0-3.326-1.523-3.325-3.389 0-2.009 1.32-3.364 3.44-3.363.8 0 1.276.217 1.7.217.254 0 .408-.025.596-.118l-.523 1.205c-.38-.468-.942-.68-1.694-.68M57.177 6.332l-2.332 5.47c-.683 1.592-1.28 2.516-2.642 2.516-.819 0-1.408-.448-1.708-.75l.366-.79c.353.615.807.885 1.383.885.786.001 1.291-.695 1.8-1.92L51.596 6.33c-.164-.364-.32-.663-.504-.805h1.922c-.068.178-.068.323.133.806l1.613 3.755 1.55-3.754c.171-.394.21-.577.132-.806l1.172.001c-.186.228-.297.448-.437.805M61.754 6.03c-1.473 0-2.116 1.384-2.117 2.739 0 1.992 1.174 2.763 2.115 2.764.92 0 1.502-.441 1.97-1.046l.233.53c-.572.77-1.45 1.141-2.396 1.141-2.197 0-3.327-1.524-3.327-3.39 0-2.009 1.323-3.364 3.438-3.363.8 0 1.279.218 1.7.218.253 0 .406-.025.603-.119l-.525 1.206c-.375-.468-.941-.68-1.694-.68M47.355 15.377c-1.718-.001-2.576 1.622-2.576 3.22-.001 2.33 1.479 3.242 2.574 3.242 1.08.001 1.774-.51 2.32-1.224l.277.623c-.675.904-1.706 1.342-2.814 1.342-2.576-.001-3.923-1.795-3.922-3.983 0-2.363 1.557-3.956 4.041-3.956.942 0 1.5.245 2.006.245.303 0 .477-.02.704-.124l-.615 1.418c-.448-.544-1.105-.803-1.995-.803M56.218 17.001c-.268-.35-.656-.357-1.01-.357h-1.04v4.981c0 .465.116.686.193.802h-1.732c.077-.117.206-.337.206-.802v-4.981h-.88c-.486-.002-.95-.061-1.542.356l.47-1.076 5.802.001-.467 1.076M61.63 22.429c.073-.117.136-.369-.06-.802l-.302-.717-2.964-.001-.316.717c-.183.434-.121.685-.043.802h-1.29c.134-.145.289-.337.503-.802l2.213-5.028-.023-.046c-.132-.315-.277-.499-.432-.626h1.595L63 21.627c.22.465.372.658.518.803l-1.888-.001zm-1.842-4.884L58.61 20.22h2.341l-1.164-2.675zM68.96 22.43c.071-.116.195-.336.195-.801v-2.196h-2.72v2.195c0 .465.122.685.194.803l-1.732-.001c.082-.117.196-.337.197-.802v-4.89c0-.468-.114-.698-.196-.81h1.733c-.074.112-.195.342-.195.81v1.978h2.72V16.74c0-.468-.123-.698-.194-.81h1.735c-.078.113-.209.342-.209.811l-.001 4.889c0 .465.13.685.21.802H68.96M76.704 22.432h-2.625c-.486 0-1.298.178-1.89.592v-.939c1.138-.526 1.377-1.214 1.378-2.438l.001-2.907c0-.468-.122-.698-.202-.81h4.624c-.086.114-.2.343-.2.812v4.24c0 .466.187.864.81 1.063v.98c-.592-.414-1.4-.592-1.896-.593zm-.252-5.783h-1.676a.372.372 0 0 0-.385.366v2.632c-.001.952-.138 1.639-.542 2.068h2.23a.375.375 0 0 0 .372-.38l.001-4.686zM84.842 22.435c.076-.118.147-.368-.048-.803l-.3-.717H81.53l-.31.716c-.19.435-.127.686-.047.803h-1.3c.142-.145.305-.338.516-.803l2.203-5.027-.02-.047c-.13-.313-.277-.498-.435-.626l1.596.001 2.498 5.701c.215.465.365.658.509.802h-1.897zm-1.831-4.884l-1.177 2.674 2.35.002-1.173-2.676zM90.574 20.442h-.925v1.192c0 .465.137.685.199.802H88.12c.074-.118.192-.338.192-.803l.001-4.889c0-.469-.117-.698-.191-.811h2.452c1.682 0 2.695.829 2.695 2.181 0 1.585-1.304 2.33-2.696 2.328zm-.307-3.801h-.617v3.087h.724c.805 0 1.54-.334 1.54-1.628 0-1.18-.785-1.46-1.647-1.46zM99.675 17.012c-.265-.35-.661-.357-1.005-.357h-.94l-.002 4.98c0 .466.123.686.203.802h-1.736c.079-.116.202-.336.202-.801l.001-4.982h-.762c-.494 0-.949-.06-1.545.357l.464-1.076h5.586l-.466 1.077M34.866 17.515c-.003 9.61-7.763 17.401-17.33 17.4C7.966 34.911.212 27.116.214 17.504.217 7.895 7.974.105 17.544.106c9.568.003 17.324 7.797 17.322 17.41" fill="#FFF"/><path d="M17.525.381C8.112.38.479 8.04.478 17.497c-.003 9.452 7.625 17.12 17.038 17.122 9.412.002 17.042-7.663 17.045-17.113C34.564 8.049 26.936.384 17.525.38zm-.01 33.155C8.7 33.535 1.554 26.355 1.557 17.496 1.56 8.639 8.708 1.46 17.524 1.464c8.818.001 15.964 7.182 15.962 16.042-.003 8.858-7.152 16.034-15.97 16.031z" fill="#5C5142"/><path d="M27.095 10.165c-.374-.2-1.02-.423-1.073-1.902-.047-1.477-.546-2.255-2.363-3.877 0 0-.023.3.024.472 0 0-.568-.651-1.891-.972 0 0 .148-.588.188-.941.026-.273-.183-.558-.639-.45-.485.11-2.2.75-2.8.899-.6.147-4.535 1.512-6.912 3.79 0 0 .507-1.418 1.67-2.885h-.007c-.882.247-1.66.547-2.465.956-1.27 1.724-2.863 5.117-2.864 7.973 0 0-.763-2.345-.127-5.95l-.015.015A13.706 13.706 0 0 0 5.66 9.707c-.15 2.027-.164 4.72 1.478 8.473 0 0-1.657-1.201-3.171-5.238l-.01.02a14.005 14.005 0 0 0-.825 4.09c1.347 2.479 3.373 4.955 7.442 7.173 0 0-3.34-.492-7.113-3.342a13.88 13.88 0 0 0 1.768 4.3c2.054.898 5.234 2.059 9.793 1.799 0 0-2.466 1.398-7.511.983 0 0 .875 1.09 3.195 2.207 2.102 1.007 4.828.377 5.745-.228 1.092-.727 2.285-2.51 1.71-4.745 0 0-.445.867-1.533 1.202 0 0 .862-.676.862-1.913 0-1.24-1.015-2.072-2.28-2.18-1.008-.084-2.69.041-3.213.041-.522 0-1.23 0-1.72-.603 0 0 .708-.023 1.457-.188.605-.128 1.872-.6 2.618-.563 0 0-.263-.345-.863-.336-.369.003-.448.123-.71.193-.345.085-.976.112-1.34-.589 0 0 .522.407.967.283.379-.103.413-.263.56-.374.154-.116.428-.211.688-.211.26 0 .511.058.735.25.227.184.673.149.41-.116-.26-.26-.634-.52-1.192-.525-.952-.012-2.653.188-3.253.49-.416.209-.738.478-.89.666-.054.068-.168.071-.163-.048.029-.585.269-2.158 1-2.83.764-.704 2.748-1.207 3.53-1.354 0 0-.196-.457.03-.752.343-.426 1.452-1.225 8.027-1.223 0 0-.36.284-.513.511 0 0 2.566.143 4 .865.223.11.675.15.822-.863l-.41-.263s.037-.152.076-.337c.039-.19 0-.228-.15-.151-.146.075-.187.15-.187.15s-.372.15-.412-.073c-.037-.227-.45-.791-1.269-.904 0 0 .413-.564 1.356-.432 0 0 .077.273.274.195.202-.076.474-.25.498-.023.03.227.124.596.647.023 0 0 .527.276.998.1.473-.176.812-.477.92-1.25.03-.173.03-.226.155-.374.122-.15.219-.363-.006-.55-.296-.25-1.218-.773-1.592-.978zm-9.816.7c.254-.1.326.121.277.275-.24.716-.574 1.777-.449 2.254.122.47 1.292.747 1.292.747-.22.023-1.486.084-1.795.153-.303.068-.794.12-.693-.475.12-.726.495-2.03.495-2.03-.346.102-1.069.448-1.318.602-.25.15-.32.12-.25-.051 1.013-2.36 3.141-4.879 4.434-5.93l.026.076c-1.693 1.95-2.792 4.654-2.792 4.654.18-.104.528-.178.773-.276zm3.735-7.247c-.303.36-.688.99-.74 1.214-.051.215-.027.275.11.328.137.057.137.196-.058.22a6.052 6.052 0 0 0-1.054.25c-.344.122-.395-.085-.316-.222.659-1.097 1.617-1.679 1.84-1.818.218-.136.294-.068.218.028zm4.269 5.275c-.053.33-.22.355-.468.22-.243-.14-.328-.193-.464-.22-.138-.027-.274.026-.163.22.11.195.3.744.216 1.129 0 0-.61-1.18-1.34-1.763-.448-.362.395-.265.575-.248.575.059.633.135.82.197.183.047.578.147.72-.94.011-.053.073-.037.078.007.06.523.074 1.113.026 1.398z" fill="#5C5142"/><path d="M23.641 23.472c-.367-.446-.909-1.075-.909-1.075.527.306 1.518.456 1.518.456-.268-.228-.891-.979-1.145-1.277-.69-.839-1.892-1.773-2.789-2.177-1.755-.8-3.585-.907-3.836-.955-.25-.045-.772.048-.445-.448.322-.5 2.215-1.976 2.215-1.976-.397-.001-2.143.145-2.665.224-.522.071-.647-.1-.67-.455 0 0-1.056 1-.554 1.505.08.075.304.101.576-.026.274-.123.826-.303 1.022-.321 0 0-.447.698-.548.997-.1.305-.124.455.346.6.474.15 2.865.902 4.337 1.904 1.467 1.002 2.986 2.279 4.108 4.627 1.12 2.356.508 4.144.329 4.47.805-.52 1.54-1.101 2.221-1.774l-.015.01c-.585-1.967-2.2-3.223-3.096-4.31M28.927 25.02a13.31 13.31 0 0 0 1.088-2.219v-.005c-1.441-1.176-3.966-3.272-7.06-3.997 0 0 4.406 1.769 5.972 6.22" fill="#5C5142"/><path d="M18.65 31.657a14.86 14.86 0 0 0 2.708-.595l.01-.007c.473-1.1.992-3.725.441-5.753 0 0 .104 4.778-3.16 6.355M29.136 15.972c-.82.223-2.066.324-3.116.175 0 0 2.422 1.047 4.824 3.342v-.022c.069-.557.104-1.121.099-1.695a.948.948 0 0 0 0-.186c-.422-.173-3.029-.915-3.029-.915.877-.05 1.222-.699 1.222-.699" fill="#5C5142"/></g></svg>