<svg width="150" height="20" viewBox="0 0 150 20" xmlns="http://www.w3.org/2000/svg"><title>ucb</title><g fill="none" fill-rule="evenodd"><path d="M10.126 5.011l.018-.025c.15-.213.087-.372-.013-.457-.064-.055-1.572-.946-1.572-.946a.396.396 0 0 1-.181-.332c0-.218.134-.384.438-.466.969-.26 4.379-.396 5.538-.396.402 0 1.094-.002 1.716.015l-.027-.025A9.83 9.83 0 0 0 9.728.107C4.355.107 0 4.358 0 9.603c0 2.306.842 4.42 2.241 6.065 1.222-1.716 4.24-5.945 4.9-6.809.762-.995 2.5-3.21 2.793-3.584l.015-.019.177-.245M3.796 17.13a9.838 9.838 0 0 0 5.932 1.97c5.373 0 9.728-4.251 9.728-9.497a9.276 9.276 0 0 0-1.104-4.398c.336-.314.722-.813.468-1.438-.079-.186-.457-.607-.555-.71l.014.036c.237.698-.232 1.135-.568 1.432-.185.165-2.655 2.438-5.551 4.91a133.658 133.658 0 0 1-7.064 5.607c-2.327 1.7-2.78 1.947-2.78 1.947a.588.588 0 0 1-.24.06.433.433 0 0 1-.343-.161l-.002-.003c-.013.029-.017.055-.006.072.25.395.663.852.904.852a.607.607 0 0 0 .24-.06s.183-.099.927-.618" fill="#DB322A"/><path d="M10.13 4.983c.15-.213.087-.372-.014-.457-.063-.055-1.572-.947-1.572-.947a.396.396 0 0 1-.181-.331c0-.219.134-.384.438-.466.97-.26 4.38-.396 5.538-.396.547 0 1.63-.004 2.344.042.8.051 1.406.213 1.557.591.296.74-.194 1.197-.542 1.505-.184.163-2.654 2.437-5.55 4.909a133.383 133.383 0 0 1-7.064 5.607c-2.328 1.7-2.78 1.947-2.78 1.947a.588.588 0 0 1-.24.06.418.418 0 0 1-.354-.657s4.583-6.444 5.417-7.534c.834-1.09 2.835-3.64 2.835-3.64s.024-.028.167-.233" fill="#FFF"/><path d="M33.704 1.838v11.876c0 2.617-2.349 4.607-5.451 4.607-3.102 0-5.451-1.99-5.451-4.607V4.629c0-1.536 1.263-2.791 2.836-2.791h.2v11.854c0 1.406 1.285 2.271 2.526 2.271 1.196 0 2.481-.8 2.481-2.27V4.476c0-1.45 1.22-2.639 2.703-2.639h.156M39.685 6.035c4.144 0 4.808 2.27 4.808 3.634v8.48h-.132c-1.53 0-2.837-1.256-2.837-2.748V9.712c0-.8-.332-1.752-1.95-1.752-.753 0-1.196.086-1.684.26v9.928h-2.969V6.921c1.263-.54 3.302-.886 4.764-.886M48.736 6.035v9.388c0 1.492-1.24 2.725-2.792 2.725h-.132V6.035h2.924zm-1.462-4.197c.886 0 1.595.65 1.595 1.45 0 .778-.71 1.405-1.595 1.405-.886 0-1.618-.627-1.618-1.406 0-.8.732-1.449 1.618-1.449zM57.173 1.6c1.396 0 2.703.303 3.789.952v2.855c-.665-.843-1.618-1.427-3.146-1.427-3.014 0-4.875 2.898-4.875 5.905 0 2.834 1.95 5.927 4.875 5.927 1.285 0 2.46-.368 3.146-1.276v2.811c-.864.628-2.216.974-3.811.974-4.787 0-7.312-4.283-7.312-8.414 0-4.067 2.525-8.307 7.334-8.307M66.209 6.035c.487 0 1.108.043 1.661.13v2.314c-1.019-.714-2.37-.476-2.969-.173v7.117c0 1.492-1.262 2.725-2.792 2.725h-.155V6.965c1.152-.541 2.327-.93 4.255-.93M75.581 10.577c-.088-2.401-1.617-2.66-2.437-2.66h-.111c-1.662.043-2.437 1.19-2.437 3.33l4.985-.67zm2.57 1.644l-7.379.995c.245 1.968 1.264 3.007 3.125 3.007 2.06 0 3.102-.65 3.856-1.168v2.4c-.754.39-2.15.866-4.143.866-3.612 0-5.762-2.38-5.762-6.187 0-3.698 1.995-6.1 5.274-6.1 3.234 0 5.03 2.099 5.03 5.733v.454zM85.889 8.37a3.754 3.754 0 0 0-1.02-.13c-2.437 0-2.947 2.293-2.947 4.198 0 2.66.91 3.98 2.748 3.98.31 0 .997-.065 1.219-.109V8.371zm2.902-6.532v16.158c-.71.152-3.035.325-4.01.325h-.2c-3.611-.043-5.583-2.077-5.583-5.732 0-3.699 2.06-6.079 5.251-6.079.62 0 1.152.065 1.617.173V4.585c0-1.514 1.241-2.747 2.792-2.747h.133zM93.1 6.035v9.388c0 1.492-1.241 2.725-2.792 2.725h-.133V6.035H93.1zm-1.463-4.197c.887 0 1.596.65 1.596 1.45 0 .778-.71 1.405-1.596 1.405-.886 0-1.617-.627-1.617-1.406 0-.8.731-1.449 1.617-1.449zM98.28 1.838v4.197h1.906v2.314h-1.905v6.425c0 .778.265 1.016 1.13 1.016.221 0 .553-.065.775-.15v2.4c-.133.043-.71.28-1.484.28-2.172 0-3.368-1.037-3.368-2.919V8.35h-1.286V6.035h1.286V4.564c0-1.493 1.24-2.726 2.77-2.726h.177M109.894 10.208l-.977.022v6.07h1.999c2.043 0 3.509-.759 3.509-2.862 0-2.254-1.288-3.317-4.53-3.23zm4.064-4.271c0-1.8-1.066-2.645-3.131-2.645-.755 0-1.332.087-1.91.26v5.16l.977.022c3.043.086 4.064-.824 4.064-2.797zm-.155 3.425v.066c1.6.303 3.798 1.669 3.798 4.054 0 3.252-2.665 4.683-6.574 4.683-3.731 0-5.086-.065-5.086-.065V2.49c1.044-.52 2.798-.91 4.886-.91 4.13 0 6.196 1.755 6.196 4.162 0 2.233-1.754 3.317-3.22 3.62zM124.921 11.856c-2.598.238-4.175.758-4.175 2.775 0 1.496.933 2.168 2.532 2.168.622 0 1.354-.044 1.643-.109v-4.834zm0-1.345V9.71c0-1.539-.977-1.951-2.398-1.951-1.178 0-2.354.434-3.665 1.106v-1.93a9.794 9.794 0 0 1 4.153-.91c2.51 0 4.598 1.236 4.598 4.27v7.719c-.822.152-2.733.325-3.887.325h-.622c-3.287 0-4.997-1.344-4.997-3.62 0-3.122 3.11-3.86 6.818-4.207zM133.639 6.01c4.153 0 4.819 2.276 4.819 3.642v8.498h-.133c-1.533 0-2.843-1.257-2.843-2.753V9.695c0-.802-.333-1.756-1.954-1.756-.756 0-1.2.087-1.688.26v9.951h-2.976V6.9c1.266-.542 3.309-.89 4.775-.89M142.697 15.332c0 1.561-1.243 2.818-2.909 2.818h-.022V4.622c0-1.56 1.243-2.818 2.909-2.818h.022v9.842l3.687-5.333h2.776l-3.798 5.42 4.442 6.417h-3.11l-3.997-6.005v3.187" fill="#1A1918"/></g></svg>