<svg width="148" height="21" viewBox="0 0 148 21" xmlns="http://www.w3.org/2000/svg"><title>vneshprombank</title><g fill="#FFF" fill-rule="evenodd"><path d="M38.12 6.35c2.285 0 2.696 1.27 2.696 2.216 0 1.008-.586 1.53-1.435 1.817v.013c.674.137 1.86.635 1.86 2.228 0 2.09-1.798 2.44-3.346 2.44h-4.159V6.35h4.383zm-2.323 3.435h1.897c.838 0 1.025-.56 1.025-.895 0-.361-.2-.847-1.112-.847h-1.81v1.742zm0 3.587h2.135c.362 0 1.137-.188 1.137-.984 0-.834-.65-.997-1.4-.997h-1.872v1.98zM44.877 15.064h-2.06V6.35h2.06v3.274h3.172V6.35h2.06v8.714h-2.06v-3.747h-3.172v3.747M58.365 9.81v1.607h-4.271v1.955h4.97v1.692h-7.03V6.35h6.906v1.693h-4.846v1.768h4.271M65.098 13.372V6.35h2.072v7.022h2.723V6.35h2.075v8.714H60.302V6.35h2.073v7.022h2.723M75.951 15.064h-2.06V6.35h7.418v8.714h-2.06V8.043h-3.298v7.02M87.305 6.35c1.76 0 3.296.66 3.296 2.813 0 2.739-2.285 2.9-3.346 2.9h-1.961v3h-2.06V6.35h4.071zm-2.011 4.02h1.611c.986 0 1.474-.348 1.474-1.195 0-1.182-1.012-1.132-1.474-1.132h-1.611v2.328zM91.477 10.707c0-2.03.973-4.606 4.42-4.606 3.01 0 4.421 1.967 4.421 4.606s-1.41 4.606-4.42 4.606c-3.448 0-4.421-2.577-4.421-4.606zm6.618 0c0-.797-.1-2.913-2.197-2.913-1.137 0-2.186.61-2.186 2.913 0 2.278 1.05 2.913 2.186 2.913 2.097 0 2.197-2.178 2.197-2.913zM103.917 8.84h-.038v6.224h-2.061V6.35h2.898l2.085 5.988 2.086-5.988h2.897v8.714h-2.06V8.839h-.038l-2.186 6.225h-1.398l-2.185-6.225M115.77 9.587h2.11c.712 0 3.321.075 3.321 2.85 0 1.78-1.298 2.627-3.32 2.627h-4.171V6.35h6.793v1.693h-4.734v1.544zm0 3.785h1.672c.813 0 1.536-.15 1.536-.984 0-1.047-.997-1.109-1.497-1.109h-1.712v2.093zM126.973 6.35l3.285 8.714h-2.186l-.561-1.63h-3.173l-.55 1.63h-2.173l3.272-8.714h2.086zm.088 5.602l-1.126-3.324-1.147 3.324h2.273zM133.13 15.064h-2.06V6.35h2.06v3.274h3.173V6.35h2.06v8.714h-2.06v-3.747h-3.173v3.747M145.37 6.35h2.423l-3.509 3.984 3.709 4.73h-2.523l-3.097-4.258h-.025v4.258h-2.06V6.35h2.06v3.66h.025l2.998-3.66M.144.498l12.753 16.95V.497H.144"/><path d="M19.287.498l-6.39 8.492h6.39l-6.377 8.475 2.569 3.415L30.815.498H19.287"/></g></svg>