<svg width="139" height="35" viewBox="0 0 139 35" xmlns="http://www.w3.org/2000/svg"><title>ym</title><g fill="none" fill-rule="evenodd"><g fill="#000"><path d="M70.946 21.6c.268-.481.889-1.644 1.242-3.124.319-1.395.385-3.006.385-5.266v-1.86h6.612V21.6h1.41v3.955h-1.51v-2.576H71.18v2.576h-1.51V21.6h1.276zm3.172-8.872v.383c0 2.94-.219 4.501-.487 5.615-.236 1.03-.57 1.91-1.108 2.874h5.051v-8.872h-3.456zM88.758 21.932c-.62.715-1.51 1.23-3.054 1.23-.94 0-1.93-.134-2.803-1.03-.688-.714-1.124-1.795-1.124-2.974 0-1.063.37-2.276 1.124-3.09.622-.665 1.444-1.03 2.535-1.03.856 0 1.662.216 2.316.83.973.914 1.225 2.442 1.208 3.506h-5.639c.017.731.302 1.528.772 2.01.487.481 1.058.582 1.544.582a3.07 3.07 0 0 0 2.181-.848l.94.814zm-1.409-3.754c-.05-.5-.286-1.097-.622-1.446-.402-.415-.872-.498-1.308-.498-.487 0-.907.1-1.293.465-.352.332-.654.897-.738 1.479h3.961z"/></g><path d="M6.904 17.256h-.985c-1.548 0-3.05-1.118-3.05-3.912 0-2.913 1.408-4.1 2.839-4.1h1.196v8.012zm1.548-9.502H5.777c-2.625 0-4.853 1.979-4.853 5.823 0 2.305 1.079 4.005 3.001 4.843L.338 24.847c-.117.21 0 .373.187.373H2.19c.14 0 .235-.046.281-.163l3.26-6.312h1.173v6.312c0 .07.07.163.164.163h1.454c.14 0 .188-.07.188-.186V7.987c0-.163-.094-.233-.258-.233z" fill="#F00"/><path d="M17.266 13.544h-1.454c-.117 0-.187.093-.187.162v4.45h-2.698v-4.45c0-.116-.046-.162-.163-.162h-1.455c-.116 0-.187.07-.187.162v11.32c0 .116.047.186.164.186h1.478c.094 0 .163-.07.163-.187v-5.402h2.698v5.402c0 .117.07.187.187.187h1.454c.118 0 .164-.093.164-.187V13.706a.16.16 0 0 0-.164-.162M50.463 24.466l-.188-.791c-.023-.07-.046-.093-.117-.093-.117 0-.75.255-1.665.255-1.782 0-2.65-1.699-2.65-4.401 0-2.375.728-4.727 1.947-4.727.328 0 .727.092 1.36.675.07.07.117.093.187.093.07 0 .141-.047.211-.163l.634-1.025a.38.38 0 0 0 .07-.21c0-.093-.094-.163-.234-.232-.962-.49-1.619-.583-2.181-.583-2.205 0-3.917 2.608-3.917 6.683 0 3.517 1.642 5.544 3.987 5.544.986 0 2.04-.465 2.463-.77.093-.069.116-.162.093-.255M40.271 18.807l2.814-5.1c.047-.07.023-.163-.071-.163H41.63c-.398 0-.539.139-.679.442l-2.111 4.355c-.117.256-.234.419-.351.49v-5.124c0-.093-.048-.163-.14-.163h-1.526c-.07 0-.14.07-.14.163v11.341c0 .07.047.164.14.164h1.525c.093 0 .14-.07.14-.164v-5.845c.07.047.118.116.165.21l2.673 5.45c.14.279.352.349.657.349h1.501c.093 0 .117-.094.07-.164l-3.283-6.241zM24.301 23.744h-3.4c1.196-2.026 1.665-4.308 1.83-7.102.046-.606.07-1.235.07-1.631h1.5v8.733zm2.534 0h-.282c-.352 0-.446-.139-.446-.418v-9.62c0-.116-.047-.162-.141-.162h-4.69c-.117 0-.187.07-.187.162v.839c0 2.818-.165 6.45-1.665 9.2h-.516c-.141 0-.188.07-.188.185v3.4c0 .118.094.163.164.163h1.126c.257 0 .351-.185.351-.35v-1.932h5.02v2.12c0 .093.07.162.162.162h1.198c.14 0 .28-.116.28-.35V23.93c0-.115-.07-.186-.186-.186zM31.36 18.318c-.54 0-1.384.093-1.384.093s0-.349.048-.722c.21-1.98.702-2.98 1.524-2.98.75 0 1.219 1.023 1.336 2.817.023.372.023.792.023.792H31.36zm.258-5.053c-2.532 0-3.658 3.166-3.658 6.613 0 3.517 1.594 5.613 3.94 5.613a5.26 5.26 0 0 0 2.672-.77c.094-.046.117-.116.094-.209l-.187-.791c-.024-.093-.07-.14-.188-.14-.093 0-.774.256-1.736.256-1.805 0-2.65-1.56-2.65-3.609v-.551s.915.108 1.455.108h3.423v-.978c0-3.61-1.29-5.542-3.165-5.542z" fill="#000"/><path d="M127 3l8 14-8 15H62V3h65zm2-3H59v35h70l10-17-10-18z" fill="#FC0"/><path d="M92.185 22.872h-1.393v-7.758h1.393v2.974h3.742v-2.974h1.392v7.758h-1.392v-3.588h-3.742v3.588zM100.434 15.114h1.392v2.641h1.41c1.091 0 1.93.216 2.5.748.621.582.722 1.33.722 1.827 0 .964-.386 1.512-.705 1.811-.67.632-1.695.732-2.736.732h-2.583v-7.76zm2.685 6.562c.335 0 .957-.032 1.342-.332.219-.166.487-.482.487-1.047 0-.532-.252-.847-.454-1.013-.385-.299-1.04-.332-1.425-.332h-1.243v2.724h1.293zM109.861 22.872h-1.393v-7.758h5.018v1.229h-3.625v6.53zM120.014 15.895v-.781h1.393v7.758h-1.393V17.59l-3.725 4.486v.797h-1.393v-7.758h1.393v5.266l3.725-4.485z" fill="#000"/></g></svg>